<svg height="88.741" viewBox="5.544 146.0102 478.9961 88.7405" width="478.996" xmlns="http://www.w3.org/2000/svg" xmlns:xlink="http://www.w3.org/1999/xlink"><clipPath id="a"><path d="m0 595.275h841.89v-595.275h-841.89z"/></clipPath><linearGradient id="b"><stop offset="0" stop-color="#1b97ba"/><stop offset="1" stop-color="#17336f"/></linearGradient><linearGradient id="c" gradientTransform="matrix(55.196289 0 0 -55.196289 43.84082 253.42383)" gradientUnits="userSpaceOnUse" spreadMethod="pad" x1="0" x2="1" xlink:href="#b" y1="0" y2="0"/><linearGradient id="d" gradientTransform="matrix(181.20117 0 0 -181.20117 99.615234 309.05371)" gradientUnits="userSpaceOnUse" spreadMethod="pad" x1="0" x2="1" xlink:href="#b" y1="0" y2="0"/><linearGradient id="e" gradientTransform="matrix(29.091797 0 0 -29.091797 17.732422 251.30078)" gradientUnits="userSpaceOnUse" spreadMethod="pad" x1="0" x2="1" xlink:href="#b" y1="0" y2="0"/><linearGradient id="f" gradientTransform="matrix(92.37793 0 0 -92.37793 286.42285 251.30078)" gradientUnits="userSpaceOnUse" spreadMethod="pad" x1="0" x2="1" xlink:href="#b" y1="0" y2="0"/><clipPath id="g"><path d="m0 595.275h841.89v-595.275h-841.89z"/></clipPath><g transform="matrix(.59397501 0 0 -.59397501 -4.988988 371.89829)"><g clip-path="url(#a)"><path d="m0 0c-17.041 0-30.786-15.45-30.786-34.876 0-19.653 13.518-35.33 30.786-35.33 17.722 0 31.126 15.677 31.126 35.33 0 10.224-3.748 19.313-9.883 25.561-5.34 5.907-12.951 9.315-21.243 9.315m0-75.091c-19.086 0-35.671 17.382-35.671 40.215 0 22.039 16.018 39.761 35.671 39.761 20.448 0 35.671-17.609 35.671-39.761 0-11.814-3.977-21.925-10.906-29.195-6.476-7.043-15.11-11.02-24.765-11.02" fill="#231916" transform="translate(334.291 350.6445)"/><path d="m0 0c-17.041 0-30.786-15.45-30.786-34.876 0-19.653 13.518-35.33 30.786-35.33 17.722 0 31.126 15.677 31.126 35.33 0 10.224-3.748 19.313-9.883 25.561-5.34 5.907-12.951 9.315-21.243 9.315zm0-75.091c-19.086 0-35.671 17.382-35.671 40.215 0 22.039 16.018 39.761 35.671 39.761 20.448 0 35.671-17.609 35.671-39.761 0-11.814-3.977-21.925-10.906-29.195-6.476-7.043-15.11-11.02-24.765-11.02z" fill="none" stroke="#231916" stroke-width=".75" transform="translate(334.291 350.6445)"/><path d="m0 0c9.77.454 17.608 8.18 17.608 17.495 0 8.974-7.838 16.585-17.608 17.153h-20.335v-34.648h18.29zm-2.045 69.183h-18.29v-29.764h20.335c8.975.228 16.018 6.703 16.018 14.996 0 7.725-7.043 14.314-16.018 14.768zm.113-73.954h-23.06l-.114 78.498h4.771 20.335c11.474-.227 20.789-9.088 20.789-19.312 0-7.725-4.544-14.2-11.247-17.608 7.839-3.295 12.838-10.906 12.838-19.312 0-11.815-9.771-21.812-22.38-22.039z" fill="#231916" transform="translate(404.8369 281.3477)"/><path d="m0 0c9.77.454 17.608 8.18 17.608 17.495 0 8.974-7.838 16.585-17.608 17.153h-20.335v-34.648h18.29zm-2.045 69.183h-18.29v-29.764h20.335c8.975.228 16.018 6.703 16.018 14.996 0 7.725-7.043 14.314-16.018 14.768zm.113-73.954h-23.06l-.114 78.498h4.771 20.335c11.474-.227 20.789-9.088 20.789-19.312 0-7.725-4.544-14.2-11.247-17.608 7.839-3.295 12.838-10.906 12.838-19.312 0-11.815-9.771-21.812-22.38-22.039z" fill="none" stroke="#231916" stroke-width=".75" transform="translate(404.8369 281.3477)"/><path d="m0 0c3.635-5.452 9.883-8.974 17.835-8.974 9.77 0 18.29 6.703 18.29 15.451 0 8.746-7.384 16.017-17.153 17.153h-.341c-13.065 1.249-22.608 10.565-22.608 21.584 0 11.929 10.793 20.903 24.198 20.903 8.633 0 15.45-3.181 20.335-8.747l-3.863-3.068c-3.749 4.544-9.656 7.385-16.472 7.385-9.997 0-19.199-7.044-19.199-16.019 0-8.747 7.839-16.472 18.176-17.38 12.611-1.705 22.039-10.679 22.039-21.357 0-11.588-10.564-20.676-23.629-20.676-9.202 0-17.154 4.431-21.47 10.679z" fill="#231916" transform="translate(440.8486 289.2988)"/><path d="m0 0c3.635-5.452 9.883-8.974 17.835-8.974 9.77 0 18.29 6.703 18.29 15.451 0 8.746-7.384 16.017-17.153 17.153h-.341c-13.065 1.249-22.608 10.565-22.608 21.584 0 11.929 10.793 20.903 24.198 20.903 8.633 0 15.45-3.181 20.335-8.747l-3.863-3.068c-3.749 4.544-9.656 7.385-16.472 7.385-9.997 0-19.199-7.044-19.199-16.019 0-8.747 7.839-16.472 18.176-17.38 12.611-1.705 22.039-10.679 22.039-21.357 0-11.588-10.564-20.676-23.629-20.676-9.202 0-17.154 4.431-21.47 10.679z" fill="none" stroke="#231916" stroke-width=".75" transform="translate(440.8486 289.2988)"/><path d="m0 0h-34.648v-34.648h40.555l.114-4.772h-45.327l-.114 78.499h45.327v-4.544h-40.555v-29.764h34.648z" fill="#231916" transform="translate(531.3877 315.9961)"/><path d="m0 0h-34.648v-34.648h40.555l.114-4.772h-45.327l-.114 78.499h45.327v-4.544h-40.555v-29.764h34.648z" fill="none" stroke="#231916" stroke-width=".75" transform="translate(531.3877 315.9961)"/><path d="m0 0v-29.877h17.722c9.543 0 17.495 6.475 17.495 14.881 0 8.18-7.952 14.996-17.495 14.996h-.228zm0-34.648.113-39.42h-4.771l-.113 78.498h22.493c12.382 0 22.265-8.633 22.265-19.426 0-10.905-9.883-19.652-22.265-19.652h-11.246l34.761-39.42h-6.134l-34.875 39.42z" fill="#231916" transform="translate(551.7217 350.6445)"/><path d="m0 0v-29.877h17.722c9.543 0 17.495 6.475 17.495 14.881 0 8.18-7.952 14.996-17.495 14.996h-.228zm0-34.648.113-39.42h-4.771l-.113 78.498h22.493c12.382 0 22.265-8.633 22.265-19.426 0-10.905-9.883-19.652-22.265-19.652h-11.246l34.761-39.42h-6.134l-34.875 39.42z" fill="none" stroke="#231916" stroke-width=".75" transform="translate(551.7217 350.6445)"/><path d="m0 0h4.999l26.469-71.455 26.469 71.455h4.999l-28.855-78.499h-4.999z" fill="#231916" transform="translate(600.7979 355.0747)"/><path d="m0 0h4.999l26.469-71.455 26.469 71.455h4.999l-28.855-78.499h-4.999z" fill="none" stroke="#231916" stroke-width=".75" transform="translate(600.7979 355.0747)"/><path d="m0 0h-4.771l-.114 78.499h4.772z" fill="#231916" transform="translate(678.9561 276.5762)"/><path d="m0 0h-4.771l-.114 78.499h4.772z" fill="none" stroke="#231916" stroke-width=".75" transform="translate(678.9561 276.5762)"/><path d="m0 0c.568-8.748 11.133-15.791 24.197-15.791 12.496 0 23.061 7.043 23.629 15.791v58.845h4.772v-58.845c-.455-11.246-13.178-20.676-28.401-20.676-15.791 0-28.514 9.43-29.309 20.676v58.845h5.112z" fill="#231916" transform="translate(694.1777 296.2295)"/><path d="m0 0c.568-8.748 11.133-15.791 24.197-15.791 12.496 0 23.061 7.043 23.629 15.791v58.845h4.772v-58.845c-.455-11.246-13.178-20.676-28.401-20.676-15.791 0-28.514 9.43-29.309 20.676v58.845h5.112z" fill="none" stroke="#231916" stroke-width=".75" transform="translate(694.1777 296.2295)"/><path d="m0 0h4.885l.113-78.499h-4.885l-.113 69.297-24.084-41.464h-2.954l-24.424 41.464.113-69.297h-4.771l-.113 78.499h4.771l26.015-43.85z" fill="#231916" transform="translate(812.21 355.0747)"/><path d="m0 0h4.885l.113-78.499h-4.885l-.113 69.297-24.084-41.464h-2.954l-24.424 41.464.113-69.297h-4.771l-.113 78.499h4.771l26.015-43.85z" fill="none" stroke="#231916" stroke-width=".75" transform="translate(812.21 355.0747)"/></g><path d="m43.841 248.79c7.114 7.953 12.778 13.039 16.077 13.81 10.092-11.028 21.871-27.569 31.967-31.702 2.449 2.165 4.824 4.294 7.152 6.39-10.082 5.104-21.824 25.23-31.901 38.663-4.347-1.242-12.817-11.649-23.295-27.161" fill="url(#c)"/><path d="m99.616 237.809c90.911 81.989 92.158 111.242 103.316 110.259 19.551-16.017 40.11-42.788 56.988-70.058 7.24-.943 14.275-5.526 20.896-12.154-18.504 42.062-45.422 89.175-70.66 114.414-.18.019-.357.029-.532.029-10.969-.003-13.471-38.071-110.008-142.49" fill="url(#d)"/><path d="m17.733 249.861h29.092v2.882h-29.092z" fill="url(#e)"/><path d="m286.423 249.861h92.378v2.882h-92.378z" fill="url(#f)"/><g clip-path="url(#g)"><path d="m0 0h-1.846v8.187c0 1.175-.256 2.003-.769 2.484-.513.478-1.135.719-1.866.719-1.011 0-1.858-.403-2.544-1.211-.685-.807-1.028-1.871-1.028-3.191v-6.988h-1.976v12.731h1.845v-2.347c1.033 1.801 2.371 2.702 4.017 2.702.948 0 1.756-.245 2.423-.737.668-.493 1.126-1.045 1.373-1.659.248-.613.371-1.722.371-3.328z" fill="#231916" transform="translate(410.8037 244.1973)"/><path d="m0 0h-1.846v8.187c0 1.175-.256 2.003-.769 2.484-.513.478-1.135.719-1.866.719-1.011 0-1.858-.403-2.544-1.211-.685-.807-1.028-1.871-1.028-3.191v-6.988h-1.976v12.731h1.845v-2.347c1.033 1.801 2.371 2.702 4.017 2.702.948 0 1.756-.245 2.423-.737.668-.493 1.126-1.045 1.373-1.659.248-.613.371-1.722.371-3.328z" fill="none" stroke="#231916" transform="translate(410.8037 244.1973)"/><path d="m0 0c-.018.716-.135 1.352-.353 1.906-.218.557-.588 1.031-1.108 1.422-.521.391-1.146.587-1.877.587-.983 0-1.816-.354-2.501-1.06-.684-.709-1.067-1.66-1.151-2.855zm.112-3.858 1.846-.378c-.337-1.09-.993-1.993-1.967-2.707-.974-.715-2.122-1.073-3.44-1.073-1.739 0-3.147.612-4.222 1.836s-1.612 2.829-1.612 4.815c0 2.028.556 3.666 1.674 4.917 1.116 1.249 2.518 1.873 4.205 1.873 1.663 0 2.999-.575 4.011-1.728 1.011-1.151 1.53-2.875 1.556-5.17h-9.246c0-1.923.402-3.222 1.209-3.894s1.659-1.008 2.559-1.008c1.62 0 2.763.839 3.427 2.517" fill="#231916" transform="translate(423.5684 251.8584)"/><path d="m0 0c-.018.716-.135 1.352-.353 1.906-.218.557-.588 1.031-1.108 1.422-.521.391-1.146.587-1.877.587-.983 0-1.816-.354-2.501-1.06-.684-.709-1.067-1.66-1.151-2.855zm.112-3.858 1.846-.378c-.337-1.09-.993-1.993-1.967-2.707-.974-.715-2.122-1.073-3.44-1.073-1.739 0-3.147.612-4.222 1.836s-1.612 2.829-1.612 4.815c0 2.028.556 3.666 1.674 4.917 1.116 1.249 2.518 1.873 4.205 1.873 1.663 0 2.999-.575 4.011-1.728 1.011-1.151 1.53-2.875 1.556-5.17h-9.246c0-1.923.402-3.222 1.209-3.894s1.659-1.008 2.559-1.008c1.62 0 2.763.839 3.427 2.517z" fill="none" stroke="#231916" transform="translate(423.5684 251.8584)"/><path d="m0 0v-1.566c-.699-.086-1.305-.131-1.818-.131-2.467 0-3.7 1.287-3.7 3.863v7.676h-2.255v1.547h2.255l.093 3.197 1.827.178v-3.375h2.87v-1.547h-2.87v-8.004c0-1.313.683-1.969 2.052-1.969.455 0 .971.043 1.546.131" fill="#231916" transform="translate(434.8701 245.54)"/><path d="m0 0v-1.566c-.699-.086-1.305-.131-1.818-.131-2.467 0-3.7 1.287-3.7 3.863v7.676h-2.255v1.547h2.255l.093 3.197 1.827.178v-3.375h2.87v-1.547h-2.87v-8.004c0-1.313.683-1.969 2.052-1.969.455 0 .971.043 1.546.131z" fill="none" stroke="#231916" transform="translate(434.8701 245.54)"/><path d="m0 0-3.681-12.731h-1.594l-2.843 9.451-2.61-9.451h-1.625l-3.809 12.731h1.981l2.763-9.488 2.637 9.488h1.45l2.866-9.525 2.868 9.525z" fill="#231916" transform="translate(452.2139 256.9287)"/><path d="m0 0-3.681-12.731h-1.594l-2.843 9.451-2.61-9.451h-1.625l-3.809 12.731h1.981l2.763-9.488 2.637 9.488h1.45l2.866-9.525 2.868 9.525z" fill="none" stroke="#231916" transform="translate(452.2139 256.9287)"/><path d="m0 0c1.009 0 1.854.416 2.535 1.248.682.832 1.023 2.126 1.023 3.882 0 1.765-.359 3.044-1.074 3.839-.713.793-1.551 1.191-2.51 1.191-.984 0-1.817-.401-2.498-1.204-.68-.803-1.021-2.073-1.021-3.813 0-1.841.341-3.158 1.021-3.952.681-.794 1.523-1.191 2.524-1.191m-.152-1.641c-1.746 0-3.11.649-4.088 1.944-.979 1.296-1.467 2.904-1.467 4.821 0 2.027.55 3.647 1.649 4.858 1.101 1.212 2.471 1.818 4.108 1.818 1.756 0 3.139-.638 4.151-1.911 1.012-1.276 1.519-2.868 1.519-4.778 0-1.985-.546-3.607-1.638-4.865-1.093-1.258-2.504-1.887-4.234-1.887" fill="#231916" transform="translate(459.5938 245.4834)"/><path d="m0 0c1.009 0 1.854.416 2.535 1.248.682.832 1.023 2.126 1.023 3.882 0 1.765-.359 3.044-1.074 3.839-.713.793-1.551 1.191-2.51 1.191-.984 0-1.817-.401-2.498-1.204-.68-.803-1.021-2.073-1.021-3.813 0-1.841.341-3.158 1.021-3.952.681-.794 1.523-1.191 2.524-1.191zm-.152-1.641c-1.746 0-3.11.649-4.088 1.944-.979 1.296-1.467 2.904-1.467 4.821 0 2.027.55 3.647 1.649 4.858 1.101 1.212 2.471 1.818 4.108 1.818 1.756 0 3.139-.638 4.151-1.911 1.012-1.276 1.519-2.868 1.519-4.778 0-1.985-.546-3.607-1.638-4.865-1.093-1.258-2.504-1.887-4.234-1.887z" fill="none" stroke="#231916" transform="translate(459.5938 245.4834)"/><path d="m0 0h-1.976v12.731h1.734v-2.962c.614 1.388 1.23 2.287 1.847 2.7.62.411 1.252.617 1.9.617.203 0 .464-.019.783-.056v-1.883h-.403c-1.093 0-2.002-.404-2.724-1.213-.723-.809-1.11-1.871-1.161-3.189z" fill="#231916" transform="translate(470.7686 244.1973)"/><path d="m0 0h-1.976v12.731h1.734v-2.962c.614 1.388 1.23 2.287 1.847 2.7.62.411 1.252.617 1.9.617.203 0 .464-.019.783-.056v-1.883h-.403c-1.093 0-2.002-.404-2.724-1.213-.723-.809-1.11-1.871-1.161-3.189z" fill="none" stroke="#231916" transform="translate(470.7686 244.1973)"/><path d="m0 0h-2.049l-3.71 7.101-2.76-3.168v-3.933h-1.976v17.188h1.976v-10.992l5.903 6.535h2.113l-3.964-4.461z" fill="#231916" transform="translate(488.1797 244.1973)"/><path d="m0 0h-2.049l-3.71 7.101-2.76-3.168v-3.933h-1.976v17.188h1.976v-10.992l5.903 6.535h2.113l-3.964-4.461z" fill="none" stroke="#231916" transform="translate(488.1797 244.1973)"/><path d="m0 0h-1.92v7.921c0 .816-.058 1.428-.171 1.836-.114.407-.389.781-.828 1.123-.437.34-.931.51-1.477.51-.758 0-1.489-.348-2.193-1.041-.702-.694-1.055-1.75-1.055-3.172v-7.177h-1.919v8.383c0 1.117-.267 1.907-.801 2.37-.534.462-1.095.693-1.684.693-.841 0-1.571-.361-2.193-1.084-.622-.722-.934-1.636-.934-2.745v-7.617h-1.883v12.731h1.698v-2.443c.95 1.865 2.257 2.798 3.923 2.798.916 0 1.694-.298 2.333-.895.639-.596 1.052-1.315 1.237-2.155.874 2.033 2.215 3.05 4.022 3.05.866 0 1.624-.248 2.276-.743.651-.496 1.075-1.067 1.273-1.709.196-.643.296-1.549.296-2.716z" fill="#231916" transform="translate(515.1475 244.1973)"/><path d="m0 0h-1.92v7.921c0 .816-.058 1.428-.171 1.836-.114.407-.389.781-.828 1.123-.437.34-.931.51-1.477.51-.758 0-1.489-.348-2.193-1.041-.702-.694-1.055-1.75-1.055-3.172v-7.177h-1.919v8.383c0 1.117-.267 1.907-.801 2.37-.534.462-1.095.693-1.684.693-.841 0-1.571-.361-2.193-1.084-.622-.722-.934-1.636-.934-2.745v-7.617h-1.883v12.731h1.698v-2.443c.95 1.865 2.257 2.798 3.923 2.798.916 0 1.694-.298 2.333-.895.639-.596 1.052-1.315 1.237-2.155.874 2.033 2.215 3.05 4.022 3.05.866 0 1.624-.248 2.276-.743.651-.496 1.075-1.067 1.273-1.709.196-.643.296-1.549.296-2.716z" fill="none" stroke="#231916" transform="translate(515.1475 244.1973)"/><path d="m0 0c-.806.049-1.418.075-1.837.075-1.559 0-2.77-.258-3.634-.772s-1.296-1.266-1.296-2.252c0-.625.233-1.156.698-1.594.465-.439 1.138-.658 2.018-.658 1.191 0 2.17.433 2.938 1.303.766.869 1.151 1.89 1.151 3.062 0 .236-.014.515-.038.836m2.182-6.376h-1.958c-.075.403-.149 1.167-.224 2.293-.873-1.765-2.36-2.647-4.458-2.647-1.428 0-2.524.378-3.288 1.136-.765.76-1.146 1.669-1.146 2.731 0 1.289.545 2.347 1.637 3.177 1.092.831 2.946 1.245 5.567 1.245.353 0 .915-.016 1.688-.049 0 1.008-.078 1.738-.232 2.188-.157.451-.486.81-.99 1.079-.504.27-1.166.405-1.989.405-2.006 0-3.174-.764-3.5-2.293l-1.826.314c.444 2.338 2.317 3.507 5.619 3.507 1.756 0 3-.39 3.735-1.166.735-.777 1.104-2.124 1.104-4.04v-5.408c0-.901.086-1.724.261-2.472" fill="#231916" transform="translate(527.3779 250.5732)"/><path d="m0 0c-.806.049-1.418.075-1.837.075-1.559 0-2.77-.258-3.634-.772s-1.296-1.266-1.296-2.252c0-.625.233-1.156.698-1.594.465-.439 1.138-.658 2.018-.658 1.191 0 2.17.433 2.938 1.303.766.869 1.151 1.89 1.151 3.062 0 .236-.014.515-.038.836zm2.182-6.376h-1.958c-.075.403-.149 1.167-.224 2.293-.873-1.765-2.36-2.647-4.458-2.647-1.428 0-2.524.378-3.288 1.136-.765.76-1.146 1.669-1.146 2.731 0 1.289.545 2.347 1.637 3.177 1.092.831 2.946 1.245 5.567 1.245.353 0 .915-.016 1.688-.049 0 1.008-.078 1.738-.232 2.188-.157.451-.486.81-.99 1.079-.504.27-1.166.405-1.989.405-2.006 0-3.174-.764-3.5-2.293l-1.826.314c.444 2.338 2.317 3.507 5.619 3.507 1.756 0 3-.39 3.735-1.166.735-.777 1.104-2.124 1.104-4.04v-5.408c0-.901.086-1.724.261-2.472z" fill="none" stroke="#231916" transform="translate(527.3779 250.5732)"/><path d="m0 0h-1.846v8.187c0 1.175-.256 2.003-.769 2.484-.513.478-1.136.719-1.867.719-1.01 0-1.858-.403-2.542-1.211-.687-.807-1.029-1.871-1.029-3.191v-6.988h-1.976v12.731h1.845v-2.347c1.033 1.801 2.371 2.702 4.016 2.702.949 0 1.758-.245 2.424-.737.668-.493 1.125-1.045 1.372-1.659.248-.613.372-1.722.372-3.328z" fill="#231916" transform="translate(543.791 244.1973)"/><path d="m0 0h-1.846v8.187c0 1.175-.256 2.003-.769 2.484-.513.478-1.136.719-1.867.719-1.01 0-1.858-.403-2.542-1.211-.687-.807-1.029-1.871-1.029-3.191v-6.988h-1.976v12.731h1.845v-2.347c1.033 1.801 2.371 2.702 4.016 2.702.949 0 1.758-.245 2.424-.737.668-.493 1.125-1.045 1.372-1.659.248-.613.372-1.722.372-3.328z" fill="none" stroke="#231916" transform="translate(543.791 244.1973)"/><path d="m0 0c-.805.049-1.416.075-1.836.075-1.56 0-2.771-.258-3.635-.772-.863-.514-1.296-1.266-1.296-2.252 0-.625.233-1.156.699-1.594.465-.439 1.138-.658 2.018-.658 1.191 0 2.17.433 2.937 1.303.767.869 1.151 1.89 1.151 3.062 0 .236-.013.515-.038.836m2.182-6.376h-1.957c-.076.403-.15 1.167-.225 2.293-.872-1.765-2.358-2.647-4.458-2.647-1.428 0-2.523.378-3.287 1.136-.765.76-1.147 1.669-1.147 2.731 0 1.289.546 2.347 1.637 3.177 1.092.831 2.948 1.245 5.567 1.245.353 0 .917-.016 1.688-.049 0 1.008-.077 1.738-.232 2.188-.156.451-.485.81-.989 1.079-.504.27-1.167.405-1.99.405-2.006 0-3.172-.764-3.5-2.293l-1.826.314c.445 2.338 2.318 3.507 5.619 3.507 1.756 0 3.001-.39 3.736-1.166.736-.777 1.103-2.124 1.103-4.04v-5.408c0-.901.087-1.724.261-2.472" fill="#231916" transform="translate(556.0332 250.5732)"/><path d="m0 0c-.805.049-1.416.075-1.836.075-1.56 0-2.771-.258-3.635-.772-.863-.514-1.296-1.266-1.296-2.252 0-.625.233-1.156.699-1.594.465-.439 1.138-.658 2.018-.658 1.191 0 2.17.433 2.937 1.303.767.869 1.151 1.89 1.151 3.062 0 .236-.013.515-.038.836zm2.182-6.376h-1.957c-.076.403-.15 1.167-.225 2.293-.872-1.765-2.358-2.647-4.458-2.647-1.428 0-2.523.378-3.287 1.136-.765.76-1.147 1.669-1.147 2.731 0 1.289.546 2.347 1.637 3.177 1.092.831 2.948 1.245 5.567 1.245.353 0 .917-.016 1.688-.049 0 1.008-.077 1.738-.232 2.188-.156.451-.485.81-.989 1.079-.504.27-1.167.405-1.99.405-2.006 0-3.172-.764-3.5-2.293l-1.826.314c.445 2.338 2.318 3.507 5.619 3.507 1.756 0 3.001-.39 3.736-1.166.736-.777 1.103-2.124 1.103-4.04v-5.408c0-.901.087-1.724.261-2.472z" fill="none" stroke="#231916" transform="translate(556.0332 250.5732)"/><path d="m0 0c.841 0 1.525.259 2.056.775.529.517.794 1.187.794 2.012 0 .84-.276 1.527-.826 2.061-.55.533-1.216.8-1.998.8-.748 0-1.412-.25-1.992-.75-.581-.5-.871-1.211-.871-2.136 0-.824.262-1.491.782-1.998.521-.51 1.206-.764 2.055-.764m-2.363-5.379c-.924-.403-1.387-.987-1.387-1.752 0-.646.381-1.148 1.142-1.505.759-.357 1.729-.536 2.905-.536 1.093 0 2.092.154 3 .461.907.307 1.36.824 1.36 1.555 0 .396-.134.718-.403.97-.269.253-.636.413-1.102.479-.467.068-1.279.118-2.439.152-1.387.034-2.412.092-3.076.176m8.419 14.178v-1.567c-.91 0-1.516-.104-1.823-.314-.306-.209-.51-.587-.61-1.133.815-.938 1.221-1.961 1.221-3.068 0-1.158-.443-2.153-1.329-2.982-.887-.831-2.077-1.245-3.574-1.245-.336 0-.627.026-.869.076-.464.092-.753.139-.871.139-.226 0-.499-.112-.818-.335-.32-.223-.481-.511-.481-.863 0-.503.233-.832.695-.983s1.549-.248 3.264-.29c1.454-.042 2.528-.14 3.221-.296s1.279-.501 1.759-1.034c.479-.534.718-1.187.718-1.96 0-2.43-2.134-3.644-6.404-3.644-2.026 0-3.503.305-4.431.913-.929.611-1.394 1.424-1.394 2.439 0 1.237.648 2.085 1.941 2.547-.834.546-1.251 1.231-1.251 2.054 0 .981.587 1.733 1.762 2.255-1.1.889-1.65 2.01-1.65 3.361 0 1.26.471 2.293 1.413 3.099.942.805 2.09 1.209 3.444 1.209.958 0 1.827-.181 2.611-.542.126.828.418 1.398.876 1.715.459.316 1.155.474 2.087.474.094 0 .257-.01.493-.025" fill="#231916" transform="translate(566.7637 250.1064)"/><path d="m0 0c.841 0 1.525.259 2.056.775.529.517.794 1.187.794 2.012 0 .84-.276 1.527-.826 2.061-.55.533-1.216.8-1.998.8-.748 0-1.412-.25-1.992-.75-.581-.5-.871-1.211-.871-2.136 0-.824.262-1.491.782-1.998.521-.51 1.206-.764 2.055-.764zm-2.363-5.379c-.924-.403-1.387-.987-1.387-1.752 0-.646.381-1.148 1.142-1.505.759-.357 1.729-.536 2.905-.536 1.093 0 2.092.154 3 .461.907.307 1.36.824 1.36 1.555 0 .396-.134.718-.403.97-.269.253-.636.413-1.102.479-.467.068-1.279.118-2.439.152-1.387.034-2.412.092-3.076.176zm8.419 14.178v-1.567c-.91 0-1.516-.104-1.823-.314-.306-.209-.51-.587-.61-1.133.815-.938 1.221-1.961 1.221-3.068 0-1.158-.443-2.153-1.329-2.982-.887-.831-2.077-1.245-3.574-1.245-.336 0-.627.026-.869.076-.464.092-.753.139-.871.139-.226 0-.499-.112-.818-.335-.32-.223-.481-.511-.481-.863 0-.503.233-.832.695-.983s1.549-.248 3.264-.29c1.454-.042 2.528-.14 3.221-.296s1.279-.501 1.759-1.034c.479-.534.718-1.187.718-1.96 0-2.43-2.134-3.644-6.404-3.644-2.026 0-3.503.305-4.431.913-.929.611-1.394 1.424-1.394 2.439 0 1.237.648 2.085 1.941 2.547-.834.546-1.251 1.231-1.251 2.054 0 .981.587 1.733 1.762 2.255-1.1.889-1.65 2.01-1.65 3.361 0 1.26.471 2.293 1.413 3.099.942.805 2.09 1.209 3.444 1.209.958 0 1.827-.181 2.611-.542.126.828.418 1.398.876 1.715.459.316 1.155.474 2.087.474.094 0 .257-.01.493-.025z" fill="none" stroke="#231916" transform="translate(566.7637 250.1064)"/><path d="m0 0c-.018.716-.135 1.352-.353 1.906-.219.557-.588 1.031-1.108 1.422-.521.391-1.146.587-1.877.587-.983 0-1.816-.354-2.501-1.06-.684-.709-1.067-1.66-1.151-2.855zm.112-3.858 1.846-.378c-.337-1.09-.993-1.993-1.967-2.707-.974-.715-2.122-1.073-3.441-1.073-1.738 0-3.146.612-4.221 1.836s-1.612 2.829-1.612 4.815c0 2.028.556 3.666 1.674 4.917 1.116 1.249 2.518 1.873 4.205 1.873 1.663 0 2.999-.575 4.011-1.728 1.011-1.151 1.53-2.875 1.555-5.17h-9.246c0-1.923.403-3.222 1.21-3.894.806-.672 1.659-1.008 2.559-1.008 1.62 0 2.763.839 3.427 2.517" fill="#231916" transform="translate(583.9014 251.8584)"/><path d="m0 0c-.018.716-.135 1.352-.353 1.906-.219.557-.588 1.031-1.108 1.422-.521.391-1.146.587-1.877.587-.983 0-1.816-.354-2.501-1.06-.684-.709-1.067-1.66-1.151-2.855zm.112-3.858 1.846-.378c-.337-1.09-.993-1.993-1.967-2.707-.974-.715-2.122-1.073-3.441-1.073-1.738 0-3.146.612-4.221 1.836s-1.612 2.829-1.612 4.815c0 2.028.556 3.666 1.674 4.917 1.116 1.249 2.518 1.873 4.205 1.873 1.663 0 2.999-.575 4.011-1.728 1.011-1.151 1.53-2.875 1.555-5.17h-9.246c0-1.923.403-3.222 1.21-3.894.806-.672 1.659-1.008 2.559-1.008 1.62 0 2.763.839 3.427 2.517z" fill="none" stroke="#231916" transform="translate(583.9014 251.8584)"/><path d="m0 0h-1.92v7.921c0 .816-.058 1.428-.171 1.836-.113.407-.389.781-.827 1.123-.438.34-.931.51-1.478.51-.758 0-1.49-.348-2.192-1.041-.704-.694-1.055-1.75-1.055-3.172v-7.177h-1.92v8.383c0 1.117-.268 1.907-.801 2.37-.533.462-1.096.693-1.683.693-.841 0-1.572-.361-2.194-1.084-.623-.722-.933-1.636-.933-2.745v-7.617h-1.883v12.731h1.697v-2.443c.949 1.865 2.257 2.798 3.922 2.798.917 0 1.696-.298 2.334-.895.64-.596 1.051-1.315 1.238-2.155.874 2.033 2.214 3.05 4.02 3.05.867 0 1.624-.248 2.276-.743.651-.496 1.077-1.067 1.273-1.709.198-.643.297-1.549.297-2.716z" fill="#231916" transform="translate(606.6064 244.1973)"/><path d="m0 0h-1.92v7.921c0 .816-.058 1.428-.171 1.836-.113.407-.389.781-.827 1.123-.438.34-.931.51-1.478.51-.758 0-1.49-.348-2.192-1.041-.704-.694-1.055-1.75-1.055-3.172v-7.177h-1.92v8.383c0 1.117-.268 1.907-.801 2.37-.533.462-1.096.693-1.683.693-.841 0-1.572-.361-2.194-1.084-.623-.722-.933-1.636-.933-2.745v-7.617h-1.883v12.731h1.697v-2.443c.949 1.865 2.257 2.798 3.922 2.798.917 0 1.696-.298 2.334-.895.64-.596 1.051-1.315 1.238-2.155.874 2.033 2.214 3.05 4.02 3.05.867 0 1.624-.248 2.276-.743.651-.496 1.077-1.067 1.273-1.709.198-.643.297-1.549.297-2.716z" fill="none" stroke="#231916" transform="translate(606.6064 244.1973)"/><path d="m0 0c-.016.716-.134 1.352-.353 1.906-.217.557-.586 1.031-1.108 1.422-.52.391-1.146.587-1.877.587-.981 0-1.816-.354-2.5-1.06-.683-.709-1.068-1.66-1.152-2.855zm.112-3.858 1.846-.378c-.336-1.09-.992-1.993-1.967-2.707-.974-.715-2.121-1.073-3.439-1.073-1.74 0-3.146.612-4.222 1.836s-1.613 2.829-1.613 4.815c0 2.028.558 3.666 1.675 4.917 1.117 1.249 2.518 1.873 4.205 1.873 1.663 0 2.999-.575 4.01-1.728 1.011-1.151 1.53-2.875 1.556-5.17h-9.246c0-1.923.402-3.222 1.209-3.894s1.659-1.008 2.559-1.008c1.622 0 2.763.839 3.427 2.517" fill="#231916" transform="translate(619.3584 251.8584)"/><path d="m0 0c-.016.716-.134 1.352-.353 1.906-.217.557-.586 1.031-1.108 1.422-.52.391-1.146.587-1.877.587-.981 0-1.816-.354-2.5-1.06-.683-.709-1.068-1.66-1.152-2.855zm.112-3.858 1.846-.378c-.336-1.09-.992-1.993-1.967-2.707-.974-.715-2.121-1.073-3.439-1.073-1.74 0-3.146.612-4.222 1.836s-1.613 2.829-1.613 4.815c0 2.028.558 3.666 1.675 4.917 1.117 1.249 2.518 1.873 4.205 1.873 1.663 0 2.999-.575 4.01-1.728 1.011-1.151 1.53-2.875 1.556-5.17h-9.246c0-1.923.402-3.222 1.209-3.894s1.659-1.008 2.559-1.008c1.622 0 2.763.839 3.427 2.517z" fill="none" stroke="#231916" transform="translate(619.3584 251.8584)"/><path d="m0 0h-1.846v8.187c0 1.175-.256 2.003-.769 2.484-.513.478-1.135.719-1.867.719-1.01 0-1.857-.403-2.543-1.211-.686-.807-1.028-1.871-1.028-3.191v-6.988h-1.976v12.731h1.845v-2.347c1.033 1.801 2.371 2.702 4.017 2.702.948 0 1.755-.245 2.423-.737.668-.493 1.126-1.045 1.372-1.659.249-.613.372-1.722.372-3.328z" fill="#231916" transform="translate(635.0361 244.1973)"/><path d="m0 0h-1.846v8.187c0 1.175-.256 2.003-.769 2.484-.513.478-1.135.719-1.867.719-1.01 0-1.857-.403-2.543-1.211-.686-.807-1.028-1.871-1.028-3.191v-6.988h-1.976v12.731h1.845v-2.347c1.033 1.801 2.371 2.702 4.017 2.702.948 0 1.755-.245 2.423-.737.668-.493 1.126-1.045 1.372-1.659.249-.613.372-1.722.372-3.328z" fill="none" stroke="#231916" transform="translate(635.0361 244.1973)"/><path d="m0 0v-1.566c-.699-.086-1.305-.131-1.817-.131-2.469 0-3.702 1.287-3.702 3.863v7.676h-2.255v1.547h2.255l.093 3.197 1.827.178v-3.375h2.872v-1.547h-2.872v-8.004c0-1.313.684-1.969 2.054-1.969.455 0 .97.043 1.545.131" fill="#231916" transform="translate(645.2852 245.54)"/><path d="m0 0v-1.566c-.699-.086-1.305-.131-1.817-.131-2.469 0-3.702 1.287-3.702 3.863v7.676h-2.255v1.547h2.255l.093 3.197 1.827.178v-3.375h2.872v-1.547h-2.872v-8.004c0-1.313.684-1.969 2.054-1.969.455 0 .97.043 1.545.131z" fill="none" stroke="#231916" transform="translate(645.2852 245.54)"/><path d="m0 0c-.806.049-1.416.075-1.836.075-1.561 0-2.772-.258-3.635-.772-.864-.514-1.296-1.266-1.296-2.252 0-.625.234-1.156.698-1.594.465-.439 1.138-.658 2.019-.658 1.192 0 2.17.433 2.937 1.303.766.869 1.151 1.89 1.151 3.062 0 .236-.015.515-.038.836m2.182-6.376h-1.958c-.075.403-.149 1.167-.224 2.293-.873-1.765-2.36-2.647-4.46-2.647-1.426 0-2.52.378-3.285 1.136-.765.76-1.147 1.669-1.147 2.731 0 1.289.545 2.347 1.636 3.177 1.093.831 2.947 1.245 5.569 1.245.352 0 .914-.016 1.687-.049 0 1.008-.079 1.738-.232 2.188-.157.451-.486.81-.989 1.079-.506.27-1.167.405-1.99.405-2.006 0-3.174-.764-3.5-2.293l-1.826.314c.444 2.338 2.318 3.507 5.618 3.507 1.757 0 3.001-.39 3.737-1.166.734-.777 1.103-2.124 1.103-4.04v-5.408c0-.901.086-1.724.261-2.472" fill="#231916" transform="translate(662.6963 250.5732)"/><path d="m0 0c-.806.049-1.416.075-1.836.075-1.561 0-2.772-.258-3.635-.772-.864-.514-1.296-1.266-1.296-2.252 0-.625.234-1.156.698-1.594.465-.439 1.138-.658 2.019-.658 1.192 0 2.17.433 2.937 1.303.766.869 1.151 1.89 1.151 3.062 0 .236-.015.515-.038.836zm2.182-6.376h-1.958c-.075.403-.149 1.167-.224 2.293-.873-1.765-2.36-2.647-4.46-2.647-1.426 0-2.52.378-3.285 1.136-.765.76-1.147 1.669-1.147 2.731 0 1.289.545 2.347 1.636 3.177 1.093.831 2.947 1.245 5.569 1.245.352 0 .914-.016 1.687-.049 0 1.008-.079 1.738-.232 2.188-.157.451-.486.81-.989 1.079-.506.27-1.167.405-1.99.405-2.006 0-3.174-.764-3.5-2.293l-1.826.314c.444 2.338 2.318 3.507 5.618 3.507 1.757 0 3.001-.39 3.737-1.166.734-.777 1.103-2.124 1.103-4.04v-5.408c0-.901.086-1.724.261-2.472z" fill="none" stroke="#231916" transform="translate(662.6963 250.5732)"/><path d="m0 0h-1.846v8.187c0 1.175-.256 2.003-.771 2.484-.513.478-1.135.719-1.866.719-1.009 0-1.858-.403-2.542-1.211-.686-.807-1.028-1.871-1.028-3.191v-6.988h-1.976v12.731h1.845v-2.347c1.033 1.801 2.371 2.702 4.015 2.702.948 0 1.757-.245 2.424-.737.669-.493 1.125-1.045 1.372-1.659.25-.613.373-1.722.373-3.328z" fill="#231916" transform="translate(679.1104 244.1973)"/><path d="m0 0h-1.846v8.187c0 1.175-.256 2.003-.771 2.484-.513.478-1.135.719-1.866.719-1.009 0-1.858-.403-2.542-1.211-.686-.807-1.028-1.871-1.028-3.191v-6.988h-1.976v12.731h1.845v-2.347c1.033 1.801 2.371 2.702 4.015 2.702.948 0 1.757-.245 2.424-.737.669-.493 1.125-1.045 1.372-1.659.25-.613.373-1.722.373-3.328z" fill="none" stroke="#231916" transform="translate(679.1104 244.1973)"/><path d="m0 0c0 1.119-.34 2.015-1.021 2.688-.68.672-1.474 1.009-2.383 1.009-.984 0-1.794-.438-2.428-1.312-.637-.876-.953-2.104-.953-3.686 0-1.707.293-3.006.876-3.898.585-.893 1.387-1.338 2.404-1.338.923 0 1.739.387 2.447 1.159.706.773 1.058 1.681 1.058 2.722zm1.977 9.364v-17.187h-1.79v2.18c-.89-1.69-2.233-2.535-4.025-2.535-1.488 0-2.712.625-3.67 1.873-.96 1.25-1.439 2.83-1.439 4.741 0 1.951.474 3.578 1.423 4.877.951 1.3 2.211 1.95 3.782 1.95 1.528 0 2.777-.697 3.742-2.087v6.188z" fill="#231916" transform="translate(691.5371 252.0205)"/><path d="m0 0c0 1.119-.34 2.015-1.021 2.688-.68.672-1.474 1.009-2.383 1.009-.984 0-1.794-.438-2.428-1.312-.637-.876-.953-2.104-.953-3.686 0-1.707.293-3.006.876-3.898.585-.893 1.387-1.338 2.404-1.338.923 0 1.739.387 2.447 1.159.706.773 1.058 1.681 1.058 2.722zm1.977 9.364v-17.187h-1.79v2.18c-.89-1.69-2.233-2.535-4.025-2.535-1.488 0-2.712.625-3.67 1.873-.96 1.25-1.439 2.83-1.439 4.741 0 1.951.474 3.578 1.423 4.877.951 1.3 2.211 1.95 3.782 1.95 1.528 0 2.777-.697 3.742-2.087v6.188z" fill="none" stroke="#231916" transform="translate(691.5371 252.0205)"/><path d="m0 0h-1.92v7.921c0 .816-.056 1.428-.17 1.836-.114.407-.389.781-.827 1.123-.438.34-.93.51-1.478.51-.759 0-1.489-.348-2.192-1.041-.704-.694-1.056-1.75-1.056-3.172v-7.177h-1.92v8.383c0 1.117-.265 1.907-.799 2.37-.534.462-1.095.693-1.685.693-.839 0-1.57-.361-2.192-1.084-.622-.722-.935-1.636-.935-2.745v-7.617h-1.883v12.731h1.697v-2.443c.951 1.865 2.257 2.798 3.923 2.798.918 0 1.695-.298 2.335-.895.639-.596 1.051-1.315 1.236-2.155.874 2.033 2.216 3.05 4.021 3.05.867 0 1.624-.248 2.277-.743.65-.496 1.074-1.067 1.272-1.709.198-.643.296-1.549.296-2.716z" fill="#231916" transform="translate(722.0088 244.1973)"/><path d="m0 0h-1.92v7.921c0 .816-.056 1.428-.17 1.836-.114.407-.389.781-.827 1.123-.438.34-.93.51-1.478.51-.759 0-1.489-.348-2.192-1.041-.704-.694-1.056-1.75-1.056-3.172v-7.177h-1.92v8.383c0 1.117-.265 1.907-.799 2.37-.534.462-1.095.693-1.685.693-.839 0-1.57-.361-2.192-1.084-.622-.722-.935-1.636-.935-2.745v-7.617h-1.883v12.731h1.697v-2.443c.951 1.865 2.257 2.798 3.923 2.798.918 0 1.695-.298 2.335-.895.639-.596 1.051-1.315 1.236-2.155.874 2.033 2.216 3.05 4.021 3.05.867 0 1.624-.248 2.277-.743.65-.496 1.074-1.067 1.272-1.709.198-.643.296-1.549.296-2.716z" fill="none" stroke="#231916" transform="translate(722.0088 244.1973)"/><path d="m0 0c1.009 0 1.853.416 2.535 1.248.681.832 1.021 2.126 1.021 3.882 0 1.765-.357 3.044-1.072 3.839-.715.793-1.551 1.191-2.509 1.191-.986 0-1.818-.401-2.498-1.204-.683-.803-1.024-2.073-1.024-3.813 0-1.841.341-3.158 1.024-3.952.68-.794 1.521-1.191 2.523-1.191m-.151-1.641c-1.748 0-3.111.649-4.09 1.944-.979 1.296-1.468 2.904-1.468 4.821 0 2.027.55 3.647 1.652 4.858 1.1 1.212 2.468 1.818 4.106 1.818 1.757 0 3.139-.638 4.152-1.911 1.012-1.276 1.518-2.868 1.518-4.778 0-1.985-.546-3.607-1.639-4.865-1.09-1.258-2.502-1.887-4.231-1.887" fill="#231916" transform="translate(731.1875 245.4834)"/><path d="m0 0c1.009 0 1.853.416 2.535 1.248.681.832 1.021 2.126 1.021 3.882 0 1.765-.357 3.044-1.072 3.839-.715.793-1.551 1.191-2.509 1.191-.986 0-1.818-.401-2.498-1.204-.683-.803-1.024-2.073-1.024-3.813 0-1.841.341-3.158 1.024-3.952.68-.794 1.521-1.191 2.523-1.191zm-.151-1.641c-1.748 0-3.111.649-4.09 1.944-.979 1.296-1.468 2.904-1.468 4.821 0 2.027.55 3.647 1.652 4.858 1.1 1.212 2.468 1.818 4.106 1.818 1.757 0 3.139-.638 4.152-1.911 1.012-1.276 1.518-2.868 1.518-4.778 0-1.985-.546-3.607-1.639-4.865-1.09-1.258-2.502-1.887-4.231-1.887z" fill="none" stroke="#231916" transform="translate(731.1875 245.4834)"/><path d="m0 0h-1.846v8.187c0 1.175-.256 2.003-.768 2.484-.513.478-1.135.719-1.867.719-1.011 0-1.857-.403-2.542-1.211-.688-.807-1.03-1.871-1.03-3.191v-6.988h-1.976v12.731h1.845v-2.347c1.033 1.801 2.372 2.702 4.018 2.702.948 0 1.757-.245 2.423-.737.667-.493 1.126-1.045 1.372-1.659.247-.613.371-1.722.371-3.328z" fill="#231916" transform="translate(750.4141 244.1973)"/><path d="m0 0h-1.846v8.187c0 1.175-.256 2.003-.768 2.484-.513.478-1.135.719-1.867.719-1.011 0-1.857-.403-2.542-1.211-.688-.807-1.03-1.871-1.03-3.191v-6.988h-1.976v12.731h1.845v-2.347c1.033 1.801 2.372 2.702 4.018 2.702.948 0 1.757-.245 2.423-.737.667-.493 1.126-1.045 1.372-1.659.247-.613.371-1.722.371-3.328z" fill="none" stroke="#231916" transform="translate(750.4141 244.1973)"/><path d="m756.859 244.197h-1.977v12.731h1.977zm.056 14.988h-2.125v2.2h2.125z" fill="#231916" stroke="#231916"/><path d="m0 0v-1.566c-.698-.086-1.305-.131-1.817-.131-2.465 0-3.701 1.287-3.701 3.863v7.676h-2.255v1.547h2.255l.094 3.197 1.826.178v-3.375h2.871v-1.547h-2.871v-8.004c0-1.313.686-1.969 2.053-1.969.457 0 .972.043 1.545.131" fill="#231916" transform="translate(767.0977 245.54)"/><path d="m0 0v-1.566c-.698-.086-1.305-.131-1.817-.131-2.465 0-3.701 1.287-3.701 3.863v7.676h-2.255v1.547h2.255l.094 3.197 1.826.178v-3.375h2.871v-1.547h-2.871v-8.004c0-1.313.686-1.969 2.053-1.969.457 0 .972.043 1.545.131z" fill="none" stroke="#231916" transform="translate(767.0977 245.54)"/><path d="m0 0c1.009 0 1.854.416 2.535 1.248.683.832 1.023 2.126 1.023 3.882 0 1.765-.359 3.044-1.072 3.839-.715.793-1.551 1.191-2.512 1.191-.983 0-1.815-.401-2.498-1.204-.68-.803-1.021-2.073-1.021-3.813 0-1.841.341-3.158 1.021-3.952.683-.794 1.524-1.191 2.524-1.191m-.151-1.641c-1.748 0-3.11.649-4.088 1.944-.979 1.296-1.468 2.904-1.468 4.821 0 2.027.55 3.647 1.649 4.858 1.101 1.212 2.471 1.818 4.109 1.818 1.755 0 3.138-.638 4.15-1.911 1.014-1.276 1.52-2.868 1.52-4.778 0-1.985-.548-3.607-1.639-4.865-1.093-1.258-2.503-1.887-4.233-1.887" fill="#231916" transform="translate(774.1006 245.4834)"/><path d="m0 0c1.009 0 1.854.416 2.535 1.248.683.832 1.023 2.126 1.023 3.882 0 1.765-.359 3.044-1.072 3.839-.715.793-1.551 1.191-2.512 1.191-.983 0-1.815-.401-2.498-1.204-.68-.803-1.021-2.073-1.021-3.813 0-1.841.341-3.158 1.021-3.952.683-.794 1.524-1.191 2.524-1.191zm-.151-1.641c-1.748 0-3.11.649-4.088 1.944-.979 1.296-1.468 2.904-1.468 4.821 0 2.027.55 3.647 1.649 4.858 1.101 1.212 2.471 1.818 4.109 1.818 1.755 0 3.138-.638 4.15-1.911 1.014-1.276 1.52-2.868 1.52-4.778 0-1.985-.548-3.607-1.639-4.865-1.093-1.258-2.503-1.887-4.233-1.887z" fill="none" stroke="#231916" transform="translate(774.1006 245.4834)"/><path d="m0 0h-1.976v12.731h1.734v-2.962c.613 1.388 1.23 2.287 1.847 2.7.619.411 1.252.617 1.9.617.203 0 .464-.019.783-.056v-1.883h-.403c-1.093 0-2.002-.404-2.724-1.213-.724-.809-1.111-1.871-1.161-3.189z" fill="#231916" transform="translate(785.2754 244.1973)"/><path d="m0 0h-1.976v12.731h1.734v-2.962c.613 1.388 1.23 2.287 1.847 2.7.619.411 1.252.617 1.9.617.203 0 .464-.019.783-.056v-1.883h-.403c-1.093 0-2.002-.404-2.724-1.213-.724-.809-1.111-1.871-1.161-3.189z" fill="none" stroke="#231916" transform="translate(785.2754 244.1973)"/><path d="m794.294 244.197h-1.977v12.731h1.977zm.056 14.988h-2.125v2.2h2.125z" fill="#231916" stroke="#231916"/><path d="m0 0h-1.846v8.187c0 1.175-.257 2.003-.769 2.484-.513.478-1.135.719-1.866.719-1.012 0-1.858-.403-2.542-1.211-.688-.807-1.031-1.871-1.031-3.191v-6.988h-1.975v12.731h1.845v-2.347c1.032 1.801 2.372 2.702 4.017 2.702.948 0 1.757-.245 2.424-.737.666-.493 1.125-1.045 1.372-1.659.247-.613.371-1.722.371-3.328z" fill="#231916" transform="translate(808.7832 244.1973)"/><path d="m0 0h-1.846v8.187c0 1.175-.257 2.003-.769 2.484-.513.478-1.135.719-1.866.719-1.012 0-1.858-.403-2.542-1.211-.688-.807-1.031-1.871-1.031-3.191v-6.988h-1.975v12.731h1.845v-2.347c1.032 1.801 2.372 2.702 4.017 2.702.948 0 1.757-.245 2.424-.737.666-.493 1.125-1.045 1.372-1.659.247-.613.371-1.722.371-3.328z" fill="none" stroke="#231916" transform="translate(808.7832 244.1973)"/><path d="m0 0c.84 0 1.524.259 2.054.775.531.517.794 1.187.794 2.012 0 .84-.275 1.527-.825 2.061-.55.533-1.216.8-2 .8-.748 0-1.412-.25-1.989-.75-.581-.5-.872-1.211-.872-2.136 0-.824.262-1.491.783-1.998.52-.51 1.205-.764 2.055-.764m-2.364-5.379c-.923-.403-1.387-.987-1.387-1.752 0-.646.38-1.148 1.142-1.505.759-.357 1.729-.536 2.906-.536 1.09 0 2.092.154 2.998.461.909.307 1.361.824 1.361 1.555 0 .396-.133.718-.403.97-.268.253-.636.413-1.103.479-.465.068-1.278.118-2.439.152-1.386.034-2.411.092-3.075.176m8.419 14.178v-1.567c-.909 0-1.515-.104-1.823-.314-.307-.209-.51-.587-.611-1.133.814-.938 1.222-1.961 1.222-3.068 0-1.158-.443-2.153-1.328-2.982-.888-.831-2.079-1.245-3.576-1.245-.335 0-.626.026-.869.076-.463.092-.752.139-.871.139-.225 0-.499-.112-.818-.335s-.48-.511-.48-.863c0-.503.231-.832.695-.983.461-.151 1.55-.248 3.264-.29 1.454-.042 2.529-.14 3.221-.296.694-.156 1.279-.501 1.759-1.034.477-.534.718-1.187.718-1.96 0-2.43-2.135-3.644-6.404-3.644-2.025 0-3.502.305-4.431.913-.928.611-1.394 1.424-1.394 2.439 0 1.237.648 2.085 1.941 2.547-.834.546-1.251 1.231-1.251 2.054 0 .981.586 1.733 1.763 2.255-1.101.889-1.651 2.01-1.651 3.361 0 1.26.471 2.293 1.414 3.099.941.805 2.088 1.209 3.441 1.209.96 0 1.829-.181 2.613-.542.126.828.417 1.398.876 1.715.459.316 1.156.474 2.088.474.093 0 .256-.01.492-.025" fill="#231916" transform="translate(817.5996 250.1064)"/><path d="m0 0c.84 0 1.524.259 2.054.775.531.517.794 1.187.794 2.012 0 .84-.275 1.527-.825 2.061-.55.533-1.216.8-2 .8-.748 0-1.412-.25-1.989-.75-.581-.5-.872-1.211-.872-2.136 0-.824.262-1.491.783-1.998.52-.51 1.205-.764 2.055-.764zm-2.364-5.379c-.923-.403-1.387-.987-1.387-1.752 0-.646.38-1.148 1.142-1.505.759-.357 1.729-.536 2.906-.536 1.09 0 2.092.154 2.998.461.909.307 1.361.824 1.361 1.555 0 .396-.133.718-.403.97-.268.253-.636.413-1.103.479-.465.068-1.278.118-2.439.152-1.386.034-2.411.092-3.075.176zm8.419 14.178v-1.567c-.909 0-1.515-.104-1.823-.314-.307-.209-.51-.587-.611-1.133.814-.938 1.222-1.961 1.222-3.068 0-1.158-.443-2.153-1.328-2.982-.888-.831-2.079-1.245-3.576-1.245-.335 0-.626.026-.869.076-.463.092-.752.139-.871.139-.225 0-.499-.112-.818-.335s-.48-.511-.48-.863c0-.503.231-.832.695-.983.461-.151 1.55-.248 3.264-.29 1.454-.042 2.529-.14 3.221-.296.694-.156 1.279-.501 1.759-1.034.477-.534.718-1.187.718-1.96 0-2.43-2.135-3.644-6.404-3.644-2.025 0-3.502.305-4.431.913-.928.611-1.394 1.424-1.394 2.439 0 1.237.648 2.085 1.941 2.547-.834.546-1.251 1.231-1.251 2.054 0 .981.586 1.733 1.763 2.255-1.101.889-1.651 2.01-1.651 3.361 0 1.26.471 2.293 1.414 3.099.941.805 2.088 1.209 3.441 1.209.96 0 1.829-.181 2.613-.542.126.828.417 1.398.876 1.715.459.316 1.156.474 2.088.474.093 0 .256-.01.492-.025z" fill="none" stroke="#231916" transform="translate(817.5996 250.1064)"/></g></g></svg>