<svg height="133" viewBox="0 0 143 133" width="143" xmlns="http://www.w3.org/2000/svg"><g fill-rule="evenodd" transform="matrix(2.08847 0 0 2.08847 -67.935486 -65.507111)"><path d="m52.333 31.52c-.596.079-1.211.219-1.367.309-.157.091-.588.213-.959.273-.37.059-.674.156-.674.216s-.337.209-.75.331c-.412.121-.75.282-.75.356s-.219.183-.488.242-.578.215-.687.347-.291.239-.403.239-.366.132-.564.292c-.199.16-.559.442-.802.625-.844.638-3.055 2.835-3.056 3.036 0 .111-.15.283-.333.381s-.333.253-.333.346c0 .158-.635 1.142-.852 1.32-.056.046-.202.365-.325.709-.123.343-.274.625-.335.625s-.206.337-.322.75c-.115.412-.269.75-.341.75-.073 0-.184.243-.248.541s-.175.617-.248.709c-.072.091-.224.654-.338 1.25-.113.595-.263 1.158-.333 1.25-.747.975-.74 12.91.008 13.833.074.092.187.617.252 1.167.064.55.214 1.203.333 1.452.12.249.269.756.331 1.125.063.37.182.673.266.673.083 0 .152.16.152.355 0 .428.356 1.694.509 1.811.06.046.202.477.316.959.115.481.275.875.358.875.082 0 .152.093.155.208s.19.583.415 1.042c.226.458.411.927.412 1.041.001.115.064.209.141.209s.239.3.36.666c.121.367.277.667.347.667s.176.225.237.5c.06.275.173.5.25.5s.227.262.333.583.254.584.33.584.216.225.312.5.253.5.349.5c.097 0 .176.071.176.159 0 .153.648 1.209.998 1.626.093.111.256.392.362.625s.256.423.333.423.14.11.14.244.15.325.333.423c.184.098.334.259.334.359 0 .099.206.419.458.712s.758.899 1.125 1.348c.867 1.06 4.824 5.081 5.001 5.081.075 0 .33.209.567.465.382.411.635.608 1.644 1.285.137.091.483.375.769.631.285.255.688.507.894.56.206.052.375.166.375.252 0 .087.225.236.5.332s.5.237.5.313c0 .077.169.192.375.256.206.065.413.172.458.24.134.196 2.025 1.166 2.274 1.166.124 0 .226.071.226.159 0 .087.263.208.584.268.32.061.583.177.583.259 0 .081.337.239.75.349.412.11.75.252.75.314 0 .063.487.211 1.083.33.596.118 1.084.269 1.084.336 0 .066.393.173.875.238.481.065 1.004.186 1.162.269.968.509 8.975.496 9.292-.016.048-.077.444-.194.879-.259s.792-.185.792-.266c0-.082.138-.148.308-.148s.644-.178 1.053-.396c.409-.217.921-.452 1.137-.52.216-.069.495-.209.62-.313.124-.103.318-.263.429-.354.112-.092.394-.266.628-.386.235-.121.662-.439.95-.708.288-.27.584-.49.657-.491.074-.001.434-.348.801-.771s.873-1.002 1.125-1.286.458-.604.458-.711.113-.238.25-.291c.138-.053.25-.203.25-.333 0-.131.106-.278.235-.328.128-.049.284-.32.346-.601s.176-.511.253-.511.232-.281.344-.625.249-.663.305-.708c.218-.18.683-1.292.872-2.084.11-.458.262-.875.339-.926.076-.051.227-.726.334-1.5.108-.774.277-1.461.376-1.526.249-.165.251-10.928.003-11.095-.098-.066-.27-.828-.383-1.695-.113-.866-.267-1.654-.343-1.75-.075-.096-.236-.681-.356-1.299-.121-.619-.272-1.125-.336-1.125-.065 0-.168-.338-.23-.75-.062-.413-.171-.75-.242-.75-.072 0-.229-.413-.35-.917s-.277-.917-.347-.917c-.069 0-.179-.243-.244-.541s-.254-.805-.421-1.125c-.166-.321-.623-1.259-1.014-2.084s-.807-1.599-.926-1.72c-.118-.121-.215-.327-.215-.458s-.061-.238-.135-.238c-.075 0-.239-.263-.365-.584s-.29-.583-.364-.583c-.075 0-.136-.087-.136-.193s-.187-.438-.416-.738c-.229-.301-.417-.627-.417-.725 0-.097-.077-.177-.171-.177s-.243-.19-.331-.421c-.159-.419-.313-.641-.873-1.258-.16-.177-.292-.371-.292-.432s-.112-.23-.25-.375c-.138-.146-.518-.602-.845-1.014-1.354-1.709-3.288-3.756-5.175-5.477l-.98-.893-2.295.071c-2.824.088-3.309.476-1.571 1.256.477.215.549.266 1.333.962.257.228.533.414.613.414s.525.375.988.833c.463.459.888.834.944.834.141 0 1.572 1.485 1.572 1.632 0 .066.243.346.541.623s.765.801 1.037 1.166c.681.911.796 1.056 1.13 1.424.16.177.292.371.292.431s.187.355.416.655c.23.301.417.626.417.724s.061.178.136.178c.074 0 .238.262.364.583s.29.584.364.584c.075 0 .136.102.136.227s.151.419.335.653.381.657.437.939c.057.283.166.514.242.514.077 0 .229.3.339.667.11.366.251.666.313.666.063 0 .213.413.334.917s.276.917.345.917.176.3.238.666c.062.367.168.667.235.667s.22.619.341 1.375c.12.756.277 1.451.35 1.543.497.634.511 9.403.016 9.742-.072.05-.227.634-.343 1.298-.117.665-.28 1.209-.364 1.209-.083 0-.151.123-.151.273 0 .25-.499 1.454-.853 2.06-.08.137-.267.531-.415.875s-.33.625-.406.625c-.075 0-.186.152-.245.339-.059.186-.27.514-.469.728-.199.215-.772.85-1.273 1.412-.502.561-.991 1.021-1.088 1.021-.098 0-.363.211-.589.468-.227.258-.656.576-.954.708-.298.131-.542.283-.542.338s-.3.198-.666.319c-.367.121-.667.28-.667.353s-.263.181-.583.242c-.321.06-.584.163-.584.229 0 .139-1.512.51-2.082.51-.214 0-.42.089-.456.199-.086.256-5.595.285-5.765.029-.062-.093-.77-.27-1.572-.392-.802-.123-1.458-.286-1.458-.363s-.131-.143-.292-.146c-.16-.003-.591-.15-.958-.327s-.742-.327-.833-.333c-.092-.006-.542-.196-1-.421-.459-.225-.919-.411-1.024-.411-.105-.001-.234-.114-.287-.252-.052-.137-.21-.25-.351-.25-.14 0-.255-.061-.255-.136 0-.074-.263-.238-.583-.364-.321-.126-.584-.281-.584-.344 0-.064-.23-.211-.512-.328s-.722-.407-.977-.645c-.935-.872-1.31-1.183-1.43-1.183-.161 0-3.914-3.746-3.914-3.907 0-.115-.415-.611-1.292-1.543-.206-.219-.375-.451-.375-.516 0-.064-.3-.549-.667-1.077-.366-.528-.666-1.031-.666-1.117s-.094-.217-.208-.29c-.239-.153-1.793-3.194-1.792-3.508 0-.115-.069-.209-.153-.209-.085 0-.205-.243-.267-.541s-.206-.692-.321-.875c-.115-.184-.302-.728-.417-1.209-.115-.482-.269-.913-.343-.959-.074-.045-.188-.476-.254-.958-.065-.481-.186-.917-.268-.969s-.237-.934-.344-1.959c-.107-1.024-.256-1.863-.331-1.863-.074 0-.135-1.087-.135-2.417 0-1.5.063-2.416.166-2.416.092 0 .167-.26.167-.577 0-.91.36-3.09.51-3.09.075 0 .187-.337.249-.75s.162-.75.224-.75c.061 0 .211-.337.332-.75.122-.413.283-.75.357-.75s.184-.226.245-.502.198-.596.305-.713c.324-.351.945-1.264.945-1.389 0-.305 3.614-3.896 3.921-3.896.047 0 .365-.183.707-.407.342-.223.828-.456 1.08-.518.252-.061.458-.175.458-.252 0-.078.263-.19.584-.251.32-.06.583-.166.583-.236 0-.069.45-.214 1-.323.55-.108 1-.249 1.001-.313 0-.064.412-.339.916-.611s.916-.553.916-.625.094-.131.209-.132c.114 0 .883-.336 1.708-.747.825-.41 1.594-.747 1.708-.749.115-.001.209-.068.209-.148 0-.079.356-.244.791-.365 1.044-.291 1.617-.823.885-.823-.178 0-.366-.068-.417-.152-.052-.084-.413-.205-.802-.269s-.782-.174-.874-.245c-.55-.421-6.538-.633-8.917-.314" fill="#b4d46c"/><path d="m73.252 31.83c-.04.065-.751.167-1.579.226s-1.636.174-1.797.256-.855.262-1.543.402c-1.686.341-3.398.813-3.5.965-.046.068-.365.176-.708.241-.344.064-.625.178-.625.252s-.244.186-.542.248-.691.201-.875.309c-.183.109-.783.379-1.333.6-.549.222-1.254.576-1.565.787-.31.211-.667.384-.792.384-.124 0-.226.069-.226.153 0 .085-.225.203-.5.264-.275.06-.5.178-.5.261s-.244.267-.542.409c-1.015.484-1.458.764-1.458.922 0 .087-.075.158-.167.158-.237 0-1.971 1.246-4.249 3.055-1.028.816-3.473 3.135-4.259 4.039-.509.585-.956 1.507-1.1 2.267-.058.306-.162.63-.231.722-.172.227-.494 2.391-.494 3.314 0 .412-.075.796-.167.853s-.167.807-.167 1.676c0 .938.068 1.574.167 1.574.092 0 .172.431.178.958.019 1.763.371 3.615.697 3.677.202.039.292-.051.292-.29 0-.19.066-.345.148-.345.081 0 .199-.282.262-.625.063-.344.211-.776.33-.961s.269-.579.334-.875c.066-.297.188-.539.272-.539.085 0 .154-.094.154-.209 0-.315 1.53-3.291 1.692-3.291.077 0 .141-.086.141-.19 0-.268 1.743-2.857 2.244-3.332.229-.217.418-.459.42-.537.007-.334 4.955-5.014 5.628-5.323.206-.094.375-.237.375-.316s.187-.215.416-.302c.23-.087.417-.236.417-.33 0-.093.115-.17.255-.17.141 0 .296-.106.346-.235.049-.13.267-.28.483-.334s.492-.192.613-.307c.121-.114.67-.432 1.22-.707.55-.274 1.037-.547 1.083-.606s.402-.203.792-.319c.389-.117.708-.267.708-.335s.375-.214.833-.324c.459-.11.834-.261.834-.335 0-.075.318-.188.708-.253.39-.064.783-.176.875-.249.092-.072.654-.22 1.25-.328s1.264-.284 1.484-.391c.549-.266 7.978-.272 8.147-.007.066.103.663.284 1.327.402.665.118 1.209.277 1.209.354s.093.141.208.142.583.186 1.042.411c.458.226.927.413 1.041.415.115.003.209.074.209.158s.468.391 1.041.681c1.294.655 2.017 1.055 2.125 1.176.046.051.327.192.625.312.298.121.542.285.542.366 0 .08.101.146.224.146.124 0 .398.15.609.333.212.184.439.334.506.334.101 0 1.33.893 3.137 2.281.217.166.796.677 1.288 1.135.492.459 1.076 1.002 1.297 1.209.221.206.448.375.504.375.278 0-.088-3.637-.385-3.83-.074-.048-.184-.426-.245-.84-.06-.413-.258-.976-.438-1.25-.181-.273-.329-.628-.329-.789-.001-.16-.062-.291-.137-.291-.074 0-.238-.263-.364-.584s-.29-.583-.365-.583c-.074 0-.135-.077-.135-.17 0-.571-3.638-4.663-4.146-4.663-.109 0-.241-.113-.294-.25-.053-.138-.16-.25-.237-.25-.078 0-.399-.175-.713-.388-1.145-.777-3.575-1.838-4.86-2.122-.459-.102-.984-.255-1.167-.34-.815-.381-7.801-.806-7.998-.487m-36.91 30.795c-.095.344-.174.756-.174.917-.001.16-.063.291-.139.291-.142 0-.532 2.231-.53 3.028.001.245-.093.476-.207.514-.27.09-.304 7.738-.036 7.923.095.065.266.676.38 1.357s.269 1.319.346 1.417c.076.098.191.403.255.678.153.653 1.047 2.531 1.508 3.167.2.275.411.631.47.791.059.161.185.292.28.292.094 0 .172.083.172.185 0 .173.216.443 1.115 1.394.2.212.319.431.263.487-.055.055-.019.101.08.101s.505.298.902.663c.398.365.854.707 1.015.761.16.054.291.164.291.244 0 .149.542.489 1.375.865.252.113.459.253.459.31s.3.202.666.323c.367.121.667.277.667.347s.244.18.542.244c.298.065.579.177.625.249.046.071.571.228 1.167.348.595.12 1.12.266 1.166.324.271.344 6.833.688 6.833.358 0-.071-.162-.24-.36-.375-.199-.134-.499-.376-.667-.536-.168-.161-.353-.292-.411-.292-.24 0-5.062-4.386-5.062-4.604 0-.053-.431-.532-.958-1.066-.527-.535-1.294-1.427-1.704-1.984-.411-.557-.806-1.013-.879-1.013-.074 0-.205-.187-.292-.416s-.235-.417-.329-.417-.171-.098-.171-.219c0-.12-.135-.364-.3-.541-.165-.178-.35-.455-.412-.615-.061-.16-.174-.292-.252-.292-.077 0-.243-.262-.369-.583s-.285-.583-.353-.583c-.067 0-.227-.207-.354-.459-.318-.627-.692-1.274-.797-1.375-.047-.046-.181-.27-.296-.5-.116-.229-.469-.904-.785-1.5s-.576-1.177-.578-1.291c-.002-.115-.078-.209-.168-.209-.091 0-.25-.337-.353-.75-.104-.412-.252-.75-.329-.75-.076 0-.188-.262-.248-.583-.061-.321-.169-.583-.241-.583-.073 0-.222-.375-.332-.834-.11-.458-.259-.833-.331-.833s-.184-.281-.247-.625c-.064-.344-.217-.85-.34-1.125s-.274-.819-.334-1.208c-.061-.39-.169-.709-.241-.709s-.179-.3-.237-.666c-.138-.858-.528-.88-.761-.042" fill="#6c848c"/><path d="m78.333 40.16c0 .112.675.877 1.5 1.7.825.824 1.5 1.551 1.5 1.617 0 .108.269.428 1.559 1.856.207.23.426.548.487.709.061.16.179.291.262.291.084 0 .243.22.354.488.111.269.308.529.437.578.129.05.235.205.235.346 0 .14.079.255.175.255s.254.225.35.5.233.5.304.5c.072 0 .223.225.337.5s.273.5.354.5c.08 0 .146.101.146.224 0 .124.15.398.334.609.183.212.333.488.333.614 0 .127.112.273.25.326s.25.181.25.284c0 .207.852 1.977 1.016 2.11.056.045.194.364.306.708s.267.625.344.625c.078 0 .194.244.26.542.065.298.258.803.43 1.122.171.32.311.713.311.875s.069.294.154.294.247.413.36.917.258.917.323.917c.064 0 .213.45.329 1 .117.55.269 1 .337 1 .069 0 .176.412.239.916s.174.917.245.917c.072 0 .228.694.346 1.542s.275 1.619.349 1.715c.536.693.511 11.524-.026 11.715-.339.121-.13.361.313.361.585 0 4.364-3.592 4.364-4.148 0-.102.077-.185.171-.185s.242-.187.329-.417c.087-.229.22-.416.296-.416.075 0 .232-.263.348-.584s.273-.583.349-.583.189-.205.252-.457c.063-.251.18-.496.259-.545s.241-.463.359-.919.272-.871.343-.922c.07-.052.22-.67.332-1.375s.262-1.282.333-1.282.129-1.275.129-2.833c0-1.559-.061-2.834-.135-2.834s-.23-.675-.347-1.5-.274-1.5-.348-1.5c-.075 0-.227-.375-.337-.833s-.259-.833-.331-.833-.181-.263-.241-.584-.166-.583-.235-.583-.221-.263-.337-.583c-.116-.321-.276-.584-.355-.584-.08 0-.198-.168-.262-.375-.065-.206-.239-.535-.387-.73-.147-.196-.381-.527-.518-.736-.138-.209-.363-.501-.5-.65-.138-.148-.352-.465-.477-.704s-.406-.531-.625-.648-.398-.307-.398-.421c0-.228-2.182-2.45-2.932-2.986-.256-.183-.581-.464-.721-.625-.14-.16-.333-.291-.428-.291s-.266-.15-.381-.334c-.114-.183-.285-.333-.38-.333s-.333-.15-.53-.333c-.197-.184-.448-.334-.559-.334-.11 0-.244-.112-.296-.25-.053-.137-.211-.25-.351-.25-.141 0-.256-.071-.256-.157 0-.158-.443-.438-1.458-.922-.298-.142-.542-.327-.542-.41s-.225-.2-.5-.261c-.275-.06-.5-.176-.5-.256 0-.081-.3-.237-.666-.347-.367-.11-.667-.251-.667-.313 0-.063-.3-.213-.667-.334-.366-.121-.666-.279-.666-.352s-.263-.182-.584-.242-.583-.167-.583-.238c0-.07-.355-.218-.789-.327-.435-.109-.831-.265-.88-.345-.155-.25-1.498-.401-1.498-.169m-42.784 8.632c-.059.16-.207.351-.328.425-.122.073-.221.242-.221.375s-.07.241-.156.241-.251.263-.367.584c-.116.32-.259.583-.317.583-.118 0-.572 1.34-.524 1.542.017.068-.038.125-.121.125-.084 0-.203.3-.265.666-.062.367-.172.667-.244.667-.628 0-.64 8.783-.013 9.583.071.092.181.448.243.792s.184.625.272.625c.087 0 .146.056.131.125s.031.331.102.583c.258.92.653.407.833-1.083.064-.527.172-.958.241-.958.068 0 .221-.488.339-1.084.119-.596.274-1.083.346-1.083.071 0 .182-.281.247-.625.064-.343.204-.678.31-.744.241-.151.188-4.619-.058-4.865-.221-.221-.22-4.266.001-4.266.096 0 .167-.528.167-1.25 0-1.25-.325-1.755-.618-.958" fill="#44b4e4"/></g></svg>