<svg viewBox="-.03 -.02 269.8 68.07" xmlns="http://www.w3.org/2000/svg" xmlns:xlink="http://www.w3.org/1999/xlink"><clipPath id="a"><path d="m830.552 500.702h202.313v51.015h-202.313z"/></clipPath><g clip-path="url(#a)" fill="#00a0c8" transform="matrix(1.3333333 0 0 -1.3333333 -1107.4026 735.62171)"><path d="m0 0c2.213-2.456 5.118-3.683 8.713-3.683 3.594 0 6.499 1.227 8.713 3.683 2.213 2.455 3.321 5.48 3.321 9.075 0 3.507-1.108 6.488-3.321 8.943-2.214 2.455-5.119 3.683-8.713 3.683-3.595 0-6.5-1.228-8.713-3.683-2.215-2.455-3.321-5.436-3.321-8.943 0-3.595 1.106-6.62 3.321-9.075m24.25 40.961h.136c1.761 0 3.188-1.428 3.188-3.188l-.029-43.688c0-1.799-1.458-3.257-3.256-3.257s-3.256 1.458-3.256 3.257v1.338c-3.942-3.636-7.418-5.477-12.618-5.477-5.291 0-9.667 1.843-13.127 5.529s-5.189 8.219-5.189 13.602c0 5.291 1.729 9.779 5.189 13.466 3.46 3.686 7.79 5.529 12.991 5.529 5.2 0 8.758-1.753 12.754-5.434l.029 15.135c0 1.76 1.427 3.188 3.188 3.188" transform="translate(884.8704 510.7553)"/><path d="m0 0c.701-1.44.114-3.191-1.329-3.887-2.105-1.013-4.514-1.52-7.226-1.52-3.845 0-6.74 1.187-8.684 3.562-1.945 2.374-2.917 5.732-2.917 10.074v18.044l.068 5.563.005 10.513c0 1.76 1.428 3.188 3.189 3.188 1.76 0 3.188-1.428 3.188-3.188l-.005-10.513h9.121c1.536 0 2.782-1.245 2.782-2.781s-1.246-2.782-2.782-2.782h-9.121v-18.519c0-4.795 1.967-7.191 5.902-7.191 1.333 0 2.703.288 4.111.864 1.412.577 3.03-.055 3.698-1.427" transform="translate(936.8406 506.1089)"/><path d="m0 0v30.019c0 1.704 1.382 3.086 3.087 3.086 1.704 0 3.086-1.382 3.086-3.086v-1.533c2.023 3.259 5.824 5.569 10.447 5.569.361 0 .721-.011 1.079-.034 1.764-.111 3.083-1.665 2.913-3.423-.163-1.686-1.64-2.932-3.33-2.812-.268.019-.534.028-.797.028-2.895 0-5.035-.995-6.911-2.985-1.877-1.991-3.062-5.177-3.062-9.066v-15.763c0-1.798-1.457-3.256-3.256-3.256-1.798 0-3.256 1.458-3.256 3.256" transform="translate(940.2513 504.84)"/><path d="m0 0c2.193-2.457 5.088-3.685 8.686-3.685 3.597 0 6.515 1.228 8.752 3.685 2.238 2.457 3.356 5.484 3.356 9.081 0 3.51-1.118 6.493-3.356 8.95-2.237 2.456-5.155 3.685-8.752 3.685-3.598 0-6.493-1.229-8.686-3.685-2.194-2.457-3.29-5.462-3.29-9.015 0-3.554 1.096-6.559 3.29-9.016m24.252 27.196c1.723 0 3.12-1.397 3.12-3.12v-30.121c0-1.723-1.397-3.12-3.12-3.12s-3.121 1.397-3.121 3.12v1.542c-3.325-3.487-7.529-5.544-12.821-5.544-5.201 0-9.531 1.853-12.991 5.562-3.46 3.708-5.19 8.299-5.19 13.772 0 5.427 1.718 9.915 5.156 13.466 3.437 3.55 7.778 5.325 13.025 5.325 5.155 0 9.007-1.862 12.821-5.433v1.431c0 1.723 1.398 3.12 3.121 3.12" transform="translate(969.137 510.749)"/><path d="m0 0v30.12c0 1.724 1.397 3.121 3.12 3.121h.136c1.723 0 3.121-1.397 3.121-3.121v-1.295c2.747 3.49 6.15 5.366 11.532 5.366 4.07 0 7.485-1.313 10.244-3.935 2.758-2.623 4.138-6.4 4.138-11.329v-18.927c0-1.723-1.397-3.12-3.121-3.12h-.203c-1.724 0-3.121 1.397-3.121 3.12v17.096c0 3.527-.859 6.251-2.577 8.174-1.72 1.922-3.712 2.883-6.47 2.883-2.94 0-5.349-1.041-7.225-3.12-1.877-2.081-3.062-4.996-3.062-8.252v-16.781c0-1.723-1.397-3.12-3.12-3.12h-.272c-1.723 0-3.12 1.397-3.12 3.12" transform="translate(1000.5729 504.7043)"/><path d="m0 0c-2.102 0-4.043-1.515-4.831-3.463l-1.97-4.437c-.997-2.244.569-4.694 3.225-4.694 1.543 0 2.928.862 3.489 2.171l4.715 10.423z" transform="translate(837.6549 514.1779)"/><path d="m0 0-18.965 43.345c-1.188 2.715-5.042 2.708-6.219-.012l-9.641-22.271c-1.372-3.39.815-6.119 4.473-6.119h.419l7.871 18.703 15.321-36.157c.562-1.31 1.947-2.172 3.489-2.172h.021c2.651-0 4.217 2.441 3.231 4.683" transform="translate(875.0256 506.2664)"/><path d="m0 0c0-2.591-2.1-4.691-4.691-4.691s-4.691 2.1-4.691 4.691 2.1 4.691 4.691 4.691 4.691-2.1 4.691-4.691" transform="translate(857.6281 517.6935)"/></g></svg>