<svg viewBox="0 0 271.5 315.5" xmlns="http://www.w3.org/2000/svg"><g fill="#ffc007" transform="matrix(8.75125 0 0 8.75125 -104.882721 -109.257248)"><path d="m27.186 12.717c.082-.144.189-.216.297-.217-.188 0-.375.041-.517.124l-14.449 8.393c-.284.166-.517.574-.517.907v17.152c0 .125.04.258.096.387z"/><path d="m27.781 12.717 15.09 26.747c.056-.129.096-.262.096-.387v-17.153c0-.333-.233-.741-.517-.906l-14.449-8.393c-.142-.083-.33-.124-.517-.124.108-.001.215.071.297.216z"/><path d="m27.484 19.475-11.96 21.216c-.243.432-.096.982.329 1.229l11.113 6.456c.285.165.75.165 1.035 0l11.113-6.456c.425-.247.572-.797.329-1.229z"/></g></svg>