<svg xmlns="http://www.w3.org/2000/svg" viewBox="243 -64 309 309"><defs><clipPath id="a" clipPathUnits="userSpaceOnUse"><path d="M0 1122.519h793.699V0H0Z"/></clipPath><clipPath id="b" clipPathUnits="userSpaceOnUse"><path d="M0 1122.519h793.699V0H0Z"/></clipPath><clipPath id="c" clipPathUnits="userSpaceOnUse"><path d="M0-103.977h793.699v1122.518H0z"/></clipPath><clipPath id="d" clipPathUnits="userSpaceOnUse"><path d="M0-508.224h793.699V614.295H0z"/></clipPath><clipPath id="e" clipPathUnits="userSpaceOnUse"><path d="M-54.117 235.819h890.15V-892.734h-890.15z"/></clipPath><clipPath id="f" clipPathUnits="userSpaceOnUse"><path d="M-54.117 235.819h890.15V-892.734h-890.15z"/></clipPath><clipPath id="g" clipPathUnits="userSpaceOnUse"><path d="M.001 139.702h793.698V-982.816H.001z"/></clipPath><clipPath id="h" clipPathUnits="userSpaceOnUse"><path d="M.003 139.205h793.694V-983.307H.003z"/></clipPath><clipPath id="i" clipPathUnits="userSpaceOnUse"><path d="M0 139.497h793.699V-983.027H0z"/></clipPath><clipPath id="j" clipPathUnits="userSpaceOnUse"><path d="M0 125.615h793.698V-996.913H0z"/></clipPath><clipPath id="k" clipPathUnits="userSpaceOnUse"><path d="M-.019 241.387h793.741v-1122.54H-.019z"/></clipPath><clipPath id="l" clipPathUnits="userSpaceOnUse"><path d="M-.019 241.381H793.72V-881.093H-.019z"/></clipPath><clipPath id="m" clipPathUnits="userSpaceOnUse"><path d="M.043 241.275h793.619V-881.222H.043z"/></clipPath><clipPath id="n" clipPathUnits="userSpaceOnUse"><path d="M.047 241.275h793.619V-881.222H.047z"/></clipPath><clipPath id="o" clipPathUnits="userSpaceOnUse"><path d="M.054 249.226h793.599V-875.743H.054z"/></clipPath><clipPath id="p" clipPathUnits="userSpaceOnUse"><path d="M.054 249.226h793.599V-875.743H.054z"/></clipPath><clipPath id="q" clipPathUnits="userSpaceOnUse"><path d="M.054 249.226h793.599V-875.743H.054z"/></clipPath><clipPath id="r" clipPathUnits="userSpaceOnUse"><path d="M.001 241.267h793.698V-881.228H.001z"/></clipPath><clipPath id="s" clipPathUnits="userSpaceOnUse"><path d="M-.038 248.631h793.767V-869.932H-.038z"/></clipPath><clipPath id="t" clipPathUnits="userSpaceOnUse"><path d="M-.014 241.133h793.723V-881.365H-.014z"/></clipPath><clipPath id="u" clipPathUnits="userSpaceOnUse"><path d="M.008 241.387h793.679v-1122.54H.008z"/></clipPath><clipPath id="v" clipPathUnits="userSpaceOnUse"><path d="M-.009 245.14H793.71V-877.35H-.009z"/></clipPath><clipPath id="w" clipPathUnits="userSpaceOnUse"><path d="M-.005 240.638h793.708v-1122.56H-.005z"/></clipPath><clipPath id="x" clipPathUnits="userSpaceOnUse"><path d="M-.008 241.381h793.714V-881.093H-.008z"/></clipPath></defs><path d="M500.101 816.969H-37.378v-152.18l259.093-256.288c131.362-129.94 307.856-205.006 492.618-206.885q4.239-.044 8.482-.044h104.834v287.849c0 180.9-146.648 327.548-327.548 327.548Z" clip-path="url(#c)" style="fill:none;stroke:#ccc icc-color(sRGB-IEC61966-2,.1,.79998779,.79998779,.79998779);stroke-width:5;stroke-linecap:butt;stroke-linejoin:miter;stroke-miterlimit:10;stroke-dasharray:none;stroke-opacity:1"/><path d="m-5.542 649.002 233.547-233.547C345.249 298.211 504.264 232.346 670.07 232.346h167.271V-34.707H-37.378" clip-path="url(#d)" style="fill:none;stroke:#ccc icc-color(sRGB-IEC61966-2,.1,.79998779,.79998779,.79998779);stroke-width:5;stroke-linecap:butt;stroke-linejoin:miter;stroke-miterlimit:10;stroke-dasharray:none;stroke-opacity:1"/><path d="m253.361 102.911 51.592-66.62h22.139l-2.352 67.121h-21.562l4.531-47.336-33.408 47.336h-21.56" style="fill-opacity:1;fill-rule:nonzero;stroke:none;fill:#fff"/><path d="M445.331 117.562v.063q0-.032-.003-.063z" clip-path="url(#e)" style="fill-opacity:1;fill-rule:nonzero;stroke:none;fill:#fff"/><path d="M445.331 117.562v.063q0-.032-.003-.063z" clip-path="url(#f)" style="fill-opacity:1;fill-rule:nonzero;stroke:none;fill:#fff"/><path d="M358.289 36.291h20.046l-10.518 26.047 32.122-26.047h26.07l-33.86 26.047 7.986 41.073h-24.696l-2.362-27.8-15.528 11.772-6.12 16.028h-20.384z" clip-path="url(#g)" style="fill-opacity:1;fill-rule:nonzero;stroke:none;fill:#fff"/><path d="m463.238 60.335 20.537-4.258s1.252-14.025-8.766-18.784-26.798-1.753-32.308 1.002c-6.824 3.412-16.78 9.266-24.544 23.292-7.764 14.025-9.767 28.05-4.759 34.562 5.009 6.512 11.02 8.264 20.537 8.264 9.518 0 27.027-2.033 40.072-22.79l-16.278-6.011s-6.512 14.276-19.286 13.273c-15.086-1.182-1.001-26.546 4.488-31.409 1.808-1.6 4.342-4.355 7.534-5.656 6.185-2.523 13.434-1.727 12.773 8.515" clip-path="url(#h)" style="fill-opacity:1;fill-rule:nonzero;stroke:none;fill:#fff"/><path d="M527.228 60.46c-3.507 4.758-11.206 4.758-11.206 4.758h-6.076l5.76-15.528h9.383c5.623.752 4.816 7.135 2.139 10.77m19.534-21.391s-3.168-2.403-10.601-2.777c-7.431-.376-35.231-.126-35.231-.126l-26.705 67.246h21.037l9.8-25.046h16.28s17.407-.876 26.172-17.656-.752-21.641-.752-21.641" clip-path="url(#i)" style="fill-opacity:1;fill-rule:nonzero;stroke:none;fill:#fff"/><path d="M296.188 36.291s-32.057 8.766-39.821 21.79c-4.246 7.121 4.006 15.778 35.564 22.289 35.598 7.347 109.446 6.763 109.446 6.763s-86.906 7.513-130.996-5.29c-23.968-6.96-27.798-16.972-25.536-24.013 2.255-7.012 16.03-19.785 51.343-21.539" clip-path="url(#j)" style="fill-opacity:1;fill-rule:nonzero;stroke:none;fill:#2381ff"/><path d="M358.976 126.328v2.88h-2.555s-1.753-.24-2.253-2.061v-8.332h-1.503v-2.13h1.503v-2.629l2.821-1.879v4.508h1.936v2.13h-1.936v7.513z" clip-path="url(#k)" style="fill-opacity:1;fill-rule:nonzero;stroke:none;fill:#fff"/><path d="M381.341 112.178v13.024c-.379 2.264-2.746 3.39-3.89 3.809a3.3 3.3 0 0 1-1.137.197h-2.892a5 5 0 0 1-1.992-.408c-1.224-.533-3.037-1.644-3.363-3.598v-13.024h3.006v12.662c0 .255.11.494.305.656.187.156.461.354.835.546 1.49.764 3.248.725 4.77.025.368-.169.66-.345.879-.493.297-.203.473-.539.473-.898v-12.498z" clip-path="url(#l)" style="fill-opacity:1;fill-rule:nonzero;stroke:none;fill:#fff"/><path d="M426.672 116.435v12.664h2.504v-16.921h-1.764s-1.992 2.504-4.746 4.007v2.461s2.754-.708 4.006-2.211" clip-path="url(#m)" style="fill-opacity:1;fill-rule:nonzero;stroke:none;fill:#fff"/><path d="M466.243 116.435v12.664h2.504v-16.921h-1.764s-1.992 2.504-4.746 4.007v2.461s2.754-.708 4.006-2.211" clip-path="url(#n)" style="fill-opacity:1;fill-rule:nonzero;stroke:none;fill:#fff"/><path d="M436.815 124.324v.306q-.025-.088-.048-.178c-.006-.04-.017-.08-.024-.12z" clip-path="url(#o)" style="fill-opacity:1;fill-rule:nonzero;stroke:none;fill:#fff"/><path d="M436.815 124.324v.306q-.025-.088-.048-.178c-.006-.04-.017-.08-.024-.12z" clip-path="url(#p)" style="fill-opacity:1;fill-rule:nonzero;stroke:none;fill:#fff"/><path d="M436.815 124.324v.306q-.025-.088-.048-.178c-.006-.04-.017-.08-.024-.12z" clip-path="url(#q)" style="fill-opacity:1;fill-rule:nonzero;stroke:none;fill:#fff"/><path d="M445.328 117.562h.003v.063q0-.032-.003-.063m-3.13.75c-.031 1.218-.539 1.922-1.087 2.33-.676.502-1.415.552-1.415.552s-2.505-.173-2.505-3.005c0-2.32.752-3.757 2.505-3.757s2.504 1.437 2.504 3.757q0 .062-.002.123m.32-5.594a6.4 6.4 0 0 0-2.822-.786c-.018 0-5.51.005-5.51 6.006 0 2.562 1.001 3.964 2.149 4.728 1.548 1.03 3.361.907 3.361.907s2.379-.251 3.131-1.503c.021.256.169.887-.125 2.13-.627 2.629-3.006 2.504-3.006 2.504s-1.18.17-1.918-.796c-.286-.374-.507-.878-.567-1.559l-.396.091v.19q-.025-.087-.047-.178l-.028.005-2.454.567c.082.508.213.956.376 1.352 1.34 3.21 5.034 2.957 5.034 2.957s3.018.205 4.586-2.124l.009-.012c1.168-1.515 1.291-4.24 1.291-6.88 0-3.812-.938-6.641-3.064-7.599" clip-path="url(#r)" style="fill-opacity:1;fill-rule:nonzero;stroke:none;fill:#fff"/><path d="M436.815 124.44v.19q-.025-.086-.048-.178z" clip-path="url(#s)" style="fill-opacity:1;fill-rule:nonzero;stroke:none;fill:#fff"/><path d="M452.969 127.079a3.13 3.13 0 1 1 .002-6.262 3.13 3.13 0 0 1-.002 6.262m0-12.836a2.38 2.38 0 1 1 0 4.758 2.38 2.38 0 0 1 0-4.758m3.719 5.639a4.946 4.946 0 1 0-7.437 0 5.51 5.51 0 1 0 7.437 0" clip-path="url(#t)" style="fill-opacity:1;fill-rule:nonzero;stroke:none;fill:#fff"/><path d="M339.265 126.453v2.755h-12.773v-17.031h12.272v2.755h-9.267v4.008h8.516v2.755h-8.516v4.758z" clip-path="url(#u)" style="fill-opacity:1;fill-rule:nonzero;stroke:none;fill:#fff"/><path d="M351.287 120.192c0-2.352-2.243-4.257-5.01-4.257s-5.008 1.905-5.008 4.257c0 0-.501 1.753 2.504 2.504 1.308.328 4.508 1.753 4.508 1.753.566.339.71 1.122.263 1.606-.327.356-.927.649-2.016.649-2.755 0-2.72-2.004-2.72-2.004l-2.539.251c0 2.35 1.503 4.257 5.134 4.257 4.132 0 5.009-2.031 5.009-4.383 0 0 .125-1.377-1.252-2.254-.757-.482-4.336-1.479-5.636-2.128-.5-.251-.249-1.003 0-1.252.517-.518.749-.676 1.753-.752 1.208-.091 2.348.568 2.255 2.004z" clip-path="url(#v)" style="fill-opacity:1;fill-rule:nonzero;stroke:none;fill:#fff"/><path d="M394.489 117.562c.126-1.924-2.138-3.377-3.757-3.256-1.345.102-2.313.562-3.005 1.252-.335.336-.42 1.668.25 2.004 1.742.871 6.5 1.86 7.514 2.504.59.376 1.032.847 1.358 1.312.731 1.044.963 2.339.74 3.592-.428 2.402-2.033 4.238-6.58 4.238-4.865 0-6.788-2.735-6.788-5.886l2.755-.25s.316 3.506 4.007 3.506c1.458 0 3.476.092 4.008-1.502.374-1.127.5-2.254-2.371-3.028-1.355-.366-3.885-1.212-5.133-1.563-3.266-.919-3.015-3.675-3.015-3.675 0-3.149 2.664-5.384 6.369-5.384 3.706 0 6.711 2.554 6.711 5.704z" clip-path="url(#w)" style="fill-opacity:1;fill-rule:nonzero;stroke:none;fill:#fff"/><path d="m404.094 121.895 2.417-6.199 2.416 6.199zm3.784-9.717h-2.735l-6.772 17.03h2.871l1.945-4.992h6.647l1.947 4.992h2.869z" clip-path="url(#x)" style="fill-opacity:1;fill-rule:nonzero;stroke:none;fill:#fff"/></svg>