<svg viewBox="0 0 300 300" xmlns="http://www.w3.org/2000/svg"><path d="m0 0c0-7.826-6.348-14.174-14.177-14.174-7.827 0-14.171 6.348-14.171 14.174 0 7.829 6.344 14.174 14.171 14.174 7.829 0 14.177-6.345 14.177-14.174" fill="#6b489d" transform="matrix(10.58275266606 0 0 -10.58275266606 300.00056020513 149.99996329761)"/><path d="m0 0c-1.36-1.579-2.911-2.561-4.067-3.038-1.197-.489-1.73-.505-1.784.835-.102 2.579 1.045 7.362 2.221 11.656 1.016 3.72 1.156 4.365-.61 4.94-1.337.429-2.287.133-4.25-1.676-2.536-2.335-6.396-7.638-8.338-11.676.497-.441 1.048-.875 1.458-1.172.441-.318.79-.219 1.115.284 1.439 2.238 3.833 4.631 6.602 6.31.128.457.263.909.398 1.349-2.29-1.079-4.164-2.47-4.164-2.47 2.37 4.347 5.804 7.867 6.432 7.591.402-.173-.974-3.678-1.959-7.251-1.129-4.091-1.699-7.211-1.523-9.495.162-2.078 1.792-2.63 4.222-1.566 1.829.805 3.559 2.368 4.823 4.274l-.551 1.128c-.005-.006-.015-.019-.025-.023m-.698 9.1c-.662.126-1.351.152-2.078.08-.052-.183-.111-.399-.173-.641 1.828.422 3.485.174 4.58-1.397 1.073-1.55.415-3.963-.674-5.801l.476-.946c.005.013.015.021.019.035 2.958 6.117-.337 8.337-2.15 8.67" fill="#fff" transform="matrix(10.58275266606 0 0 -10.58275266606 216.68568487273 192.1754486416)"/></svg>