<svg height="125.33333" viewBox="0 0 358.66666 125.33333" width="358.66666" xmlns="http://www.w3.org/2000/svg"><path d="m141.497 30.673c-19.736-14.66-78.334-20.047-140.841-5.297 24.213-14.66 141.185-33.068 175.705-19.621-14.993 1.784-28.26 11.158-34.864 24.918" fill="#f68b2e"/><path d="m201.999 10.375c33.54-2.94 139.519 65.247 156.251 89.314-52.067-39.629-108.927-58.514-132.141-52.114-.847-15.759-10.075-29.993-24.11-37.2zm15.724 63.535-.272-.368z" fill="#f3892d"/><path d="m169.645 42.045c.595-5.679 5.68-9.796 11.36-9.196 5.678.599 9.8 5.689 9.205 11.368-.593 5.679-5.68 9.796-11.359 9.197-5.678-.6-9.799-5.69-9.206-11.369" fill="#f68b2e"/><g fill="#05275a"><path d="m61.91 98.227v-20.549c0-9.383-8.116-10.131-15.196-10.131s-13.354 1.094-13.354 1.094v6.101s5.583-.978 10.591-.978c6.85 0 7.252 2.014 7.311 5.871-8.635 0-20.838-.806-20.838 9.497 0 10.534 10.361 10.074 16.693 10.074 5.583 0 14.793-.979 14.793-.979zm-10.476-5.18c-1.381.23-3.108.345-4.548.345-2.877 0-5.755-.23-5.755-4.029 0-3.742 2.878-3.972 5.755-3.972.749 0 3.627 0 4.548.058z"/><path d="m76.592 98.284v-43.631h-10.765v43.631z"/><path d="m103.369 68.065-6.043 22.564h-.576l-5.871-22.564h-11.685l10.764 30.219h13.239l11.915-30.219z"/><path d="m146.788 98.227v-20.549c0-9.383-8.116-10.131-15.197-10.131-7.079 0-13.354 1.094-13.354 1.094v6.101s5.583-.978 10.591-.978c6.85 0 7.253 2.014 7.312 5.871-8.636 0-20.839-.806-20.839 9.497 0 10.534 10.362 10.074 16.693 10.074 5.584 0 14.794-.979 14.794-.979zm-10.476-5.181c-1.382.231-3.109.346-4.548.346-2.878 0-5.756-.23-5.756-4.029 0-3.742 2.878-3.972 5.756-3.972.748 0 3.626 0 4.548.058z"/><path d="m171.552 76.412v-8.635c-2.992 0-6.447-.115-11.686 3.397v-3.109h-9.726v30.219h10.764v-20.376c2.762-1.957 8.46-1.496 10.648-1.496"/><path d="m185.73 98.284v-30.219h-10.764v30.219z"/><path d="m225.458 83.146c0-11.742-6.964-16.002-17.039-16.002-10.072 0-17.325 4.26-17.325 16.002 0 11.282 8.059 16.06 17.325 16.06 9.268 0 17.039-4.778 17.039-16.06zm-10.821 0c0 4.951-.231 9.786-6.218 9.786-5.985 0-6.504-4.835-6.504-9.786 0-4.893.519-9.728 6.504-9.728 5.987 0 6.218 4.835 6.218 9.728"/><path d="m262.373 98.284v-21.24c0-6.964-5.123-9.497-9.324-9.497-5.296 0-8.578 1.784-12.492 3.627v-3.109h-9.727v30.219h10.764v-21.7c.689-.346 3.511-1.324 5.756-1.324 4.029 0 4.259 2.993 4.259 4.547v18.477z"/></g><g fill="#4b4b4c" transform="matrix(.193511 0 0 .193511 -.085589 -9.022512)"><path d="m280.3 589.4c-9.5 3.1-13.8 7.7-14.9 15.9-.9 6.1 2.1 12.6 7.6 16.6 2.3 1.6 8.1 4.6 13 6.6 14.5 6.1 19.3 11.9 15.8 19.1-4.2 8.8-18.7 10.5-32.1 3.7-2.6-1.3-5.2-2.1-5.7-1.8-1.7 1.1-1.1 6.4 1 8.5 5 5 24.6 7.1 33.9 3.6 12.8-4.7 18.6-16.9 13.1-27.6-2.4-4.8-5.8-7.2-17.4-12.4-12.5-5.7-15.2-7.4-17.2-11.2-1.4-2.5-1.5-3.9-.8-6.5 2.3-7.9 13.2-10.2 24.9-5.4 3.3 1.4 6.3 2.5 6.8 2.5.4 0 .7-1.8.7-4.1 0-3.8-.2-4.1-4.6-6.1-5.9-2.6-18.3-3.3-24.1-1.4z"/><path d="m602.4 589.3c-13.6 3.5-22.7 13.4-25.4 27.6-3.1 16.4 1.5 32 11.8 39.8 6.4 4.8 13.6 6.6 25.1 6.1 8.3-.3 10.6-.8 15.6-3.3 5.8-2.9 6-3.2 6.3-7.3.2-2.3 0-4.2-.4-4.2-.3 0-3.6 1.5-7.2 3.2-17 8.4-34.1 2.7-38.8-12.8-1.8-6.1-1.8-17.7.1-24.1 4.9-16.3 20.2-22.2 37.4-14.3 7.8 3.6 9.5 3.3 8.9-1.6-.3-3.2-4.8-6.7-10.7-8.4-5.9-1.8-17.2-2.1-22.7-.7z"/><path d="m886.5 589.3c-18.2 4.8-27.6 19.2-26.2 40.6.7 11.4 3 17.4 9.2 23.7 7.3 7.5 13.8 9.7 27.5 9.2 9.3-.3 11.2-.7 16.5-3.3 5.4-2.7 6-3.4 6.3-6.4.5-5.1-.8-5.5-7.7-1.9-15.7 8.1-32.8 3.2-38.1-10.9-2.6-6.9-2.8-19.3-.6-26.8 4.6-15.4 20.8-21.2 37.4-13.5 3.9 1.8 7.5 2.9 8.1 2.6 1.6-1 1.4-4.8-.4-7.3-3.6-5.2-21.9-8.6-32-6z"/><path d="m330.2 608.9c-1.1.6-1.3 5.2-1 21.7.3 19.9.4 21.1 2.7 24.7 5.9 9.6 20.6 11 32.1 3.1l4.9-3.4.3 3.8c.3 3.6.4 3.7 4.3 3.7h4l.3-26.7.2-26.8-2.5-.6c-1.4-.3-3.6-.3-5 0l-2.5.6v18.9 18.8l-3.7 3c-8.5 6.7-13.7 7.8-19.4 4-5-3.4-5.8-6.8-5.8-26.8-.1-15.2-.3-17.8-1.7-18.3-2.2-.8-5.7-.7-7.2.3z"/><path d="m399.7 609.2c-1.6 1.2-1.7 4.3-1.5 37.3l.3 36h5 5l.3-13.2.3-13.1 4.8 3.3c5.8 3.8 11.9 5 18.7 3.5 8.7-2 13.9-6.7 17-15.3 1.8-5.1 2-18.9.3-24.5-1.5-5.3-6.1-10.7-11-13.2-7.5-3.9-19.9-2.1-27.6 4-3.5 2.8-4.3 2.5-4.3-1.4 0-4.4-3.6-6.1-7.3-3.4zm34.2 8.6c4.4 3.2 6.5 8.7 6.5 17.1.1 19.9-13.1 27.1-27.7 15l-3.7-3v-10.9-10.8l4.7-4.1c2.5-2.3 6-4.5 7.7-5.1 4.1-1.2 9.5-.5 12.5 1.8z"/><path d="m480.7 609.4c-5.8 2.1-10.5 6.2-13.3 11.7-4.7 9.3-4.2 24.1 1.1 32.1 5.2 7.9 18.1 12 31.2 9.9 11.4-1.8 14.2-2.9 14.9-5.7 1.1-4.2-.7-4.9-7.4-3-8.3 2.3-18.5 2.1-23.8-.5-4.8-2.3-8.4-8.2-8.4-13.7v-3.2l20.8-.2 20.7-.3.3-4.2c.7-9.5-3.6-17.4-11.7-21.6-4.6-2.2-6.7-2.7-13-2.7-4.2.1-9.3.7-11.4 1.4zm20.7 8.7c3.1 2.7 5.6 7.8 5.6 11.6 0 1-3.9 1.3-16 1.3-17.8 0-17.3.3-14.4-7 2.5-6.1 7.3-9 15.1-9 5.5 0 6.6.3 9.7 3.1z"/><path d="m535.2 608.8c-.9.7-1.2 6.8-1 27.3l.3 26.4h4.5 4.5l.5-18.2.5-18.3 4.7-4.7c4.9-4.8 7.6-5.6 14.8-4.3 2.3.5 2.5.2 2.8-3.4.4-4.7-.7-5.6-7.1-5.6-5.7 0-7.9 1-12.9 5.8l-3.8 3.6v-4.1c0-2.8-.5-4.3-1.6-4.7-2.1-.8-4.6-.7-6.2.2z"/><path d="m663.7 609.4c-7.1 2.6-11.4 6.2-14.2 12-3.2 6.6-4.2 15-2.6 22.8 2.7 12.7 11.8 19.2 27.1 19.2 18.9 0 29.5-10.5 29.4-28.9 0-8.5-1.6-13.5-5.7-18.1-5.1-5.9-9.9-7.7-20.7-8.1-6.4-.2-10.7.1-13.3 1.1zm21.1 8.3c8.4 6.2 10.9 21.6 4.9 30.4-4 5.9-7.1 7.4-15 7.4-8.2 0-12.4-2.2-15.3-7.8-2.2-4.2-3-14.6-1.4-20.1 1.4-4.9 6.2-10.2 10.6-11.6 4.6-1.5 13.1-.6 16.2 1.7z"/><path d="m721.2 608.8c-.9.7-1.2 6.8-1 27.3l.3 26.4h4.5 4.5l.3-18.7.2-18.7 4.6-4c5.9-5.2 10.2-6.6 15-5.1 6.6 2.2 7.4 4.9 7.4 26.1 0 20.9.1 21.3 6.7 20.7l3.8-.3.3-18.5.2-18.5 3.3-3.4c6-6.3 14.1-8.4 18.7-4.8 4.3 3.4 4.5 4.4 5 25.1l.5 20.1h4.5 4.5l.3-20c.3-22.9-.5-26.6-6.6-31.3-3.2-2.4-4.3-2.7-11.8-2.7-8.1 0-8.4.1-14.3 4.3l-6.1 4.3-2.7-3.2c-3.5-4.1-7.9-5.9-14.8-5.9-6.3 0-10.6 1.5-15.1 5.3-1.8 1.5-3.5 2.7-3.8 2.7s-.6-1.5-.6-3.4c0-4.2-4-6.1-7.8-3.8z"/><path d="m946.1 609.7c-6.6 2.4-12.6 8.9-14.7 15.9-3.3 11.3-.7 25.1 5.8 31.1 7.3 6.9 24.1 9 34.3 4.4 10.9-4.8 15.5-12.7 15.5-26.1 0-12.5-3.7-19.7-12.5-24.3-5.4-2.8-21.9-3.4-28.4-1zm22.7 8c6.5 4.9 9.3 13.9 7.2 23.7-2.1 10.4-8.8 15.3-19.7 14.4-10.1-.9-15.3-7.8-15.3-20.4 0-13.7 7.1-21.1 19.4-20.1 3.6.3 6.9 1.3 8.4 2.4z"/><path d="m1005.2 608.8c-.9.7-1.2 6.8-1 27.3l.3 26.4h4.5 4.5l.3-18.5.2-18.5 3.3-3.4c6-6.3 14.1-8.4 18.7-4.8 4.3 3.4 4.5 4.4 5 25.1l.5 20.1 2.9.3c1.5.2 3.9.1 5.2-.2l2.4-.6v-19-18.9l5.6-4.2c4.5-3.5 6.3-4.2 9.9-4.2 4.6 0 7.5 1.7 9.8 5.8.8 1.2 1.4 9.5 1.7 21.5l.5 19.5h4.5 4.5l.3-20.6c.2-19.9.2-20.7-2.1-25-3.2-6-8.4-8.9-16-8.9-6.6 0-11.2 1.7-16.9 6.1l-4 3.2-2.6-3.3c-3.3-4.2-7.7-6-14.7-6-6.3 0-10.6 1.5-15.1 5.3-1.8 1.5-3.5 2.7-3.8 2.7s-.6-1.5-.6-3.4c0-4.2-4-6.1-7.8-3.8z"/><path d="m1110.3 608.7c-1 .4-1.3 8.8-1.3 37.4v36.9h5 5v-13.6-13.6l2.3 1.6c6 4.3 10.3 6 15.7 6 7 0 12.2-1.8 16.8-5.8 4.8-4.2 7.3-10.3 7.9-19.6 1.3-19.1-6.7-29.9-22.5-30-7.1 0-11.6 1.6-17.3 6.1l-3.9 3.1v-4c0-4.7-3-6.5-7.7-4.5zm33.9 8.6c4.2 2.6 6.2 7.7 6.6 16.6.3 7.5 0 9.2-2 13.1-5.6 10.8-15.4 11.8-25.7 2.5l-4.1-3.7v-9.5c0-5.2.4-10.2 1-11.2 1.3-2.5 7.7-7.2 11.9-8.8 3.8-1.4 9.1-.9 12.3 1z"/><path d="m1189.5 608.6c-9.3 2.2-13.3 5.4-12 9.5.8 2.3.7 2.3 9.7-1 7.3-2.7 15.2-2.7 19.5-.1 3.2 1.9 5.3 6.6 5.3 11.7 0 2.1-.5 2.3-5.7 2.3-8.4 0-18.2 1.8-23.1 4.2-5.8 2.7-8.2 6.8-8.2 13.7 0 4.8.3 5.7 3.8 9.1 6.8 6.9 20.2 7.5 29.4 1.5 2.1-1.4 4-2.5 4.2-2.5.3 0 .6 1.2.8 2.7.3 2.5.7 2.8 4.3 2.8h4v-21.5c0-19.8-.2-21.8-2-25-3.4-5.7-7.5-7.4-18.5-7.7-5.2-.1-10.4 0-11.5.3zm22.5 34.9c0 5.3-.2 5.6-4.2 8.5-9.6 7-20.8 5.7-22.4-2.5-1.4-7.7 4.4-11.4 17.9-11.5h8.7z"/><path d="m1243.2 608.8c-.9.7-1.2 6.8-1 27.3l.3 26.4h4.5 4.5l.3-18.7.2-18.7 4.7-4c5.7-5.1 10.7-6.6 15.8-4.9 7.3 2.5 7.9 4.4 8.5 26.6l.5 19.7h4.5 4.5l.3-20.6c.2-19.8.2-20.7-2.1-24.9-3.1-6-8.9-9-17.1-9-6.4 0-14.7 3-17.5 6.3-2.1 2.6-3.1 2-3.1-1.7 0-4.2-4-6.1-7.8-3.8z"/><path d="m1302.1 608.9c-1.2.8.3 5.1 8.3 24.3 5.4 12.8 10.7 24.8 11.7 26.5l1.8 3.3-3.9 8.9c-2.2 4.9-4 9.4-4 10 0 1.5 9.5 1.4 10.7-.2.5-.6 7.4-17.1 15.3-36.5 15.3-37.6 15.2-37.1 8.9-37.2-1.4 0-3.2.6-4.1 1.2-.9.7-5.1 10.4-9.4 21.5-4.2 11.2-8 20.3-8.3 20.3s-4.3-9.4-8.9-20.9c-6.8-17-8.7-21-10.5-21.5-3.2-.8-6-.7-7.6.3z"/><path d="m172.3 610c-2.4.5-6.3 1.8-8.8 2.9-3.9 1.7-4.5 2.4-4.5 5 0 1.6.4 3.2.8 3.5.5.3 3.5-.6 6.8-1.9 6.5-2.7 16.5-3.3 20.8-1.4 3.1 1.4 5.6 6.5 5.6 11.3v3.6h-7.5c-19.2 0-29.5 5.9-29.5 17 0 9.5 6.9 15 19 15 6.6 0 13.5-2.3 17.2-5.7 1.7-1.5 1.8-1.4 1.8 1.5 0 2.5.5 3.3 2.4 3.8 1.4.3 3.4.3 4.5-.1 2-.6 2.1-1.3 2.1-21 0-12-.4-21.5-1.1-23.2-1.4-3.8-4.8-7.3-8.6-8.9-4.1-1.8-15.7-2.5-21-1.4zm20.2 35.5v6l-4.9 3.2c-10.7 7.2-24.4 1.9-20.6-8.1 1.9-5 9.1-7.6 20.5-7.2l5 .1z"/></g></svg>