<svg viewBox="-15 -57 600 400" xmlns="http://www.w3.org/2000/svg"><path d="m11.58984 263.25781c0 3.71094 2.90235 6.29688 6.5625 6.29688 4.08985 0 6.78125-3.12109 6.78125-7.69531 0-4.6875-2.6914-7.74609-6.72656-7.74609-3.23047 0-5.49219 1.66016-6.61719 4.30469v4.83984zm0 8.23047c0 2.74609-1.40234 3.60547-3.33593 3.60547h-.8125c-2.09375 0-3.44141-.80469-3.44141-3.60547v-33.14844c0-.26563 1.34766-.85938 2.85547-.85938 2.26172 0 4.73437 1.19141 4.73437 6.07813v8.77344c1.88282-2.63281 4.78907-4.30469 8.50391-4.30469 7.04688 0 12.15625 5.32813 12.15625 13.72266 0 8.17578-4.95312 13.83203-12.26562 13.83203-4.03907 0-6.94141-1.99609-8.39454-4.52344" fill="#00a650" fill-rule="evenodd"/><path d="m34.23828 275.84766c1.23438.53906 2.42578.91406 3.60547 1.125 1.98828.375 4.19531.375 5.64844-1.125.80859-.92188 1.18359-1.62109 1.34765-2.04297.10938-.27344.16407-.48438.10938-.64844-1.23828-.15625-1.99609-.58984-2.48047-1.67578l-9.03516-20.98047c-.16406-.42969 1.82813-2.20703 4.13672-2.20703 1.77735 0 3.23047.75391 4.25391 3.76953l5.70703 15.01563 5.05078-14.96094c.91797-3.01172 2.53516-3.82422 4.20313-3.82422 2.15234 0 4.19531 1.72656 4.08984 2.10547l-9.58203 25.06641c-1.12891 2.80859-3.16797 6.51563-8.23047 7.80469-4.14453 1.08203-14.26172-1.28906-8.82422-7.42188" fill="#00a650" fill-rule="evenodd"/><g fill="#d5d5d5"><path d="m105.14453 264.29688c0 2.27344-.58203 4.23438-1.74219 5.90234-1.16016 1.65234-2.78906 2.92188-4.86328 3.80859-2.08593.88281-4.46875 1.32031-7.15234 1.32031-.75781 0-1.67969-.04688-2.77344-.14453-1.09375-.10156-2.53906-.36328-4.35156-.79688-1.80859-.4375-3.6875-1.08203-5.64063-1.93359v-8.92188c1.83204 1.14063 3.625 2.08203 5.39454 2.84375 1.76952.75 3.66405 1.125 5.6914 1.125 1.86328 0 3.06641-.30859 3.6211-.92969.54687-.62891.8203-1.20703.8203-1.74609 0-.98438-.47266-1.8125-1.41016-2.48828-.9414-.67578-2.30859-1.37109-4.10156-2.08984-1.98828-.83984-3.73047-1.75391-5.23438-2.74609-1.49609-.99609-2.72656-2.23438-3.67578-3.72266s-1.41797-3.25-1.41797-5.28516c0-1.96875.47656-3.74219 1.44141-5.32031.95313-1.59375 2.42188-2.85547 4.39844-3.79688 1.97266-.95703 4.38281-1.42969 7.23047-1.42969 2.02344 0 3.90234.19922 5.625.58594 1.71094.39844 3.13281.84375 4.26173 1.33984 1.11327.48438 1.8828.875 2.30077 1.15625v8.54297c-1.48827-1.06641-3.14063-2.01953-4.97266-2.85938-1.83203-.84375-3.78516-1.26563-5.85937-1.26563-1.3672 0-2.35548.26563-2.97266.79297-.60938.52344-.91406 1.17578-.91406 1.9375 0 .72656.30078 1.34766.90625 1.875.61719.52344 1.70313 1.16016 3.27344 1.91797 2.80079 1.30859 5.04688 2.5 6.72656 3.55078 1.67969 1.05078 3 2.26172 3.95313 3.64063.95703 1.37109 1.4375 3.08984 1.4375 5.13672"/><path d="m133.98047 273.62891c-.79297.30078-1.625.57031-2.5.82422-.875.26172-1.85938.46484-2.94922.62891-1.10156.17188-2.29687.25391-3.59375.25391-2.92187 0-5.39453-.49219-7.42578-1.48438-2.01563-.99609-3.57813-2.23047-4.67188-3.73438-1.08984-1.49609-1.84766-3.01953-2.27344-4.58594-.41797-1.55469-.62891-2.92969-.62891-4.11719s.21094-2.5625.64453-4.125c.42969-1.55859 1.17578-3.06641 2.2461-4.51563 1.0664-1.45313 2.61718-2.67578 4.63671-3.65234 2.02344-.97656 4.51563-1.46875 7.47266-1.46875 1.98047 0 3.59375.14453 4.83594.42188 1.2422.28125 2.50781.64844 3.78516 1.12891v7.42188c-3.08203-.98047-5.49219-1.47266-7.22656-1.47266-1.67969 0-3.17578.51172-4.48047 1.52734-1.29688 1.01172-1.95313 2.59766-1.95313 4.73438 0 1.42188.32813 2.61719.96875 3.59375.64845.96875 1.46875 1.67969 2.47266 2.14453.99609.44922 1.99219.68359 2.99219.68359.94922 0 2.01953-.14453 3.23828-.42578 1.19922-.27734 2.66797-.68359 4.41016-1.20703"/><path d="m167.12891 274.87891h-9.44141v-13.87891c0-.10547 0-.20703.01563-.30469.00781-.09375.01563-.29688.01563-.61328 0-1.27734-.28125-2.44922-.82031-3.52344-.54297-1.07422-1.57813-1.60547-3.09375-1.60547-1.19531 0-2.25.40234-3.15625 1.20313-.91016.78906-1.77734 1.79688-2.59766 3.00391v15.71875h-9.44531v-36.41406h9.44531v13.49609c1.55859-1.66406 3.09375-2.80078 4.61719-3.40625 1.52344-.60156 3.14453-.90234 4.85938-.90234 6.40625 0 9.60156 3.59766 9.60156 10.79688"/><path d="m201.36719 274.87891h-9.4375v-14.42969c0-1.47266-.24609-2.75-.72266-3.85156-.48438-1.08984-1.53906-1.64453-3.17188-1.64453-.76953 0-1.44531.14844-2.02734.4375-.59375.28516-1.12109.66406-1.57813 1.12109-.46484.44922-.85547.88672-1.16797 1.30859-.3125.41797-.64063.86719-.97656 1.33984v15.71875h-9.44531v-26.77734h9.44531v3.85938c1.48828-1.59766 2.98047-2.71094 4.47266-3.35547 1.49609-.64063 3.16406-.95313 5-.95313 6.40625 0 9.60938 3.83203 9.60938 11.50781"/><path d="m225.63672 259.09766c0-1.70703-.42969-3.07422-1.28125-4.08984-.85547-1.02344-2.08594-1.53516-3.68359-1.53516-1.59375 0-2.875.51563-3.85156 1.55469s-1.46094 2.39844-1.46094 4.07031zm8.85938 4.66016h-18.87891c.36719 1.63281 1.26953 2.96875 2.71094 4.00391s3.07422 1.55469 4.89844 1.55469c3.19531 0 6.72656-.89453 10.58594-2.69141v5.86719c-1.37891.71875-3.06641 1.375-5.03125 1.96094-1.97656.58984-4.48047.88281-7.54297.88281-3.28516 0-6.09766-.62109-8.41406-1.83984-2.30859-1.22656-4.04297-2.88672-5.19141-4.99219-1.14844-2.09766-1.72266-4.48047-1.72266-7.14453 0-2.62109.57422-4.98047 1.72266-7.04688 1.14844-2.07813 2.88281-3.71094 5.19141-4.89063 2.31641-1.18359 5.12109-1.76953 8.41406-1.76953 2.17969 0 4.27734.47266 6.30469 1.39844 2.02344.94531 3.6875 2.46484 4.99219 4.59766 1.30469 2.11719 1.96094 4.85547 1.96094 8.21484"/><path d="m248.29297 241.93359c0 1.10938-.39453 2.04297-1.17578 2.80859-.78125.76953-1.71875 1.16016-2.79688 1.16016-.73828 0-1.40234-.17578-1.99609-.52344-.60938-.35156-1.08594-.82813-1.43359-1.4375-.34375-.60156-.51953-1.26953-.51953-2.00781 0-1.08594.38281-2.01953 1.15234-2.80469.76563-.78906 1.69531-1.18359 2.79688-1.18359 1.07813 0 2.01563.39453 2.79688 1.18359.78125.78516 1.17578 1.71875 1.17578 2.80469m.75781 32.94531h-9.4375v-26.77734h9.4375zm0 0"/><path d="m274.45313 266.38672v-10.23828c-1.10547-.60938-1.98047-1.05078-2.60156-1.3125-.61328-.25781-1.35156-.39453-2.19922-.39453-1.49609 0-2.73828.63281-3.73828 1.89844-.98828 1.26172-1.48828 2.97656-1.48828 5.14844 0 2.37109.52734 4.10156 1.57031 5.17969 1.04688 1.07813 2.26953 1.61719 3.65625 1.61719 1.14063 0 2.0625-.17578 2.76563-.54688.70313-.35547 1.38672-.80469 2.03516-1.35156m9.44141 8.49609h-9.44141v-2.41797c-.99609.82813-2.05469 1.51563-3.17578 2.05859-1.11328.53906-2.64844.8125-4.61719.8125-1.95313 0-3.86328-.48438-5.74609-1.44141-1.875-.97266-3.42188-2.46875-4.62891-4.50781-1.21094-2.04297-1.81641-4.61328-1.81641-7.71094 0-2.43359.45703-4.70703 1.37109-6.83984.91797-2.12891 2.34375-3.85938 4.29297-5.19141 1.95313-1.32422 4.33594-1.99219 7.16406-1.99219 1.74609 0 3.16797.19531 4.26172.57422 1.08594.38672 2.04688.87891 2.89453 1.48047v-11.23438h9.44141"/><path d="m308.48438 259.09766c0-1.70703-.43359-3.07422-1.28516-4.08984-.85547-1.02344-2.08594-1.53516-3.68359-1.53516-1.58984 0-2.875.51563-3.85156 1.55469s-1.46094 2.39844-1.46094 4.07031zm8.85938 4.66016h-18.87891c.36719 1.63281 1.27344 2.96875 2.71094 4.00391 1.44141 1.03516 3.07031 1.55469 4.89453 1.55469 3.19922 0 6.73047-.89453 10.58984-2.69141v5.86719c-1.38281.71875-3.06641 1.375-5.03516 1.96094-1.97266.58984-4.48047.88281-7.53906.88281-3.28516 0-6.10156-.62109-8.41797-1.83984-2.30859-1.22656-4.04297-2.88672-5.19141-4.99219-1.14844-2.09766-1.71875-4.48047-1.71875-7.14453 0-2.62109.57031-4.98047 1.71875-7.04688 1.14844-2.07813 2.88281-3.71094 5.19141-4.89063 2.31641-1.18359 5.125-1.76953 8.41797-1.76953 2.17578 0 4.27344.47266 6.30078 1.39844 2.02344.94531 3.69141 2.46484 4.99609 4.59766 1.30469 2.11719 1.96094 4.85547 1.96094 8.21484"/><path d="m345.48828 249.55859-3.48828 9.45313c-1.44141-1.36719-2.89063-2.05078-4.36328-2.05078-1.33203 0-2.48047.45313-3.45703 1.35938-.96875.90625-1.89844 2.57422-2.79297 5.01563v11.54297h-9.44922v-26.77734h9.44922v6.44922c.58594-1.58594 1.63672-3.12891 3.14844-4.63672 1.5-1.50391 3.27734-2.26172 5.30469-2.26172 1.07422 0 2.00391.15625 2.80078.46484.79297.32031 1.75.79688 2.84766 1.44141"/><path d="m371.09766 243.83203h17.59375v3.94922h-13.13281v9.5h12.74219v4.01563h-12.74219v9.64063h13.58203v3.94141h-18.04297"/><path d="m402.05859 274.87891h4.07031v-31.04688h-4.07031zm0 0"/><path d="m423.73047 262.58984h10.28125c-.10547-1.63281-.58203-2.89844-1.44141-3.78516-.85938-.87891-2.01563-1.32422-3.46484-1.32422-1.44531 0-2.63672.44531-3.56641 1.32422-.92188.88672-1.52734 2.15234-1.80859 3.78516m14.29688 2.39063h-14.36328c.10156 1.98047.75781 3.55078 1.96484 4.71875 1.19531 1.16797 2.75391 1.75 4.66016 1.75 2.65625 0 5.10156-.82031 7.34766-2.46094v3.92188c-1.24219.82031-2.47266 1.40625-3.69531 1.76172-1.22266.34766-2.65625.53516-4.29688.53516-2.24609 0-4.07031-.47266-5.45703-1.41016-1.39063-.93359-2.50391-2.19141-3.33984-3.77734-.83984-1.58203-1.25391-3.41406-1.25391-5.49219 0-3.12109.87891-5.65234 2.64844-7.60547 1.75391-1.95313 4.05078-2.93359 6.86328-2.93359 2.71094 0 4.88281.94922 6.48828 2.85156 1.62109 1.89844 2.43359 4.4375 2.43359 7.62891"/><path d="m466.41406 270.15625v3.98438c-2.04297.75-4.03516 1.125-5.98828 1.125-3.21875 0-5.78125-.94922-7.69922-2.85547-1.91406-1.89844-2.87109-4.45313-2.87109-7.64844 0-3.22266.9375-5.82813 2.80859-7.80078 1.86328-1.98047 4.32422-2.97266 7.375-2.97266 1.0625 0 2.01172.10547 2.85547.30078.84766.19922 1.88672.57422 3.12891 1.12109v4.33203c-2.07422-1.33203-3.99609-2.00391-5.76172-2.00391-1.84766 0-3.36328.64844-4.55078 1.94141-1.1875 1.28906-1.78125 2.94531-1.78125 4.94531 0 2.11719.64063 3.78125 1.91797 5.02734 1.27734 1.24219 3 1.86328 5.16406 1.86328 1.57031 0 3.36719-.44922 5.40234-1.35938"/><path d="m476.76953 257.66406 7.62891-7.49219v4.27734h6.40625v3.61719h-6.40625v10.05469c0 2.35547.96094 3.52344 2.88281 3.52344 1.44141 0 2.95703-.46875 4.55469-1.41797v3.73438c-1.55078.875-3.24219 1.30469-5.06641 1.30469-1.84375 0-3.375-.53906-4.60547-1.625-.38281-.32813-.70313-.69531-.95703-1.09766-.24609-.41016-.45703-.95313-.62891-1.60547-.16797-.66406-.25-1.92188-.25-3.77734v-9.09375h-3.55859"/><path d="m507.76563 254.44141v4.65234l.22266-.36328c1.96875-3.16406 3.9375-4.74219 5.89453-4.74219 1.54688 0 3.14453.77344 4.80859 2.31641l-2.14453 3.57422c-1.41016-1.33984-2.72266-2.00781-3.93359-2.00781-1.30859 0-2.45313.62109-3.40625 1.87109-.96484 1.24219-1.44141 2.71875-1.44141 4.43359v10.70313h-4.07031v-20.4375"/><path d="m530.24219 254.44141h4.07031v20.4375h-4.07031zm2.03516-8.60156c.67188 0 1.23828.23438 1.71484.69141.47266.45703.71094 1.01953.71094 1.6875 0 .65625-.23828 1.21484-.71094 1.69531-.47656.47656-1.04297.71094-1.71484.71094-.62109 0-1.17188-.24219-1.64453-.72656-.48047-.47656-.71875-1.04688-.71875-1.67969 0-.62109.23828-1.17578.71875-1.65234.47266-.48438 1.02344-.72656 1.64453-.72656"/><path d="m564.14063 270.15625v3.98438c-2.03906.75-4.03516 1.125-5.98828 1.125-3.21875 0-5.78125-.94922-7.69922-2.85547-1.91016-1.89844-2.86719-4.45313-2.86719-7.64844 0-3.22266.93359-5.82813 2.80859-7.80078 1.86328-1.98047 4.32031-2.97266 7.375-2.97266 1.05859 0 2.00781.10547 2.85547.30078.84766.19922 1.88672.57422 3.12891 1.12109v4.33203c-2.07813-1.33203-3.99609-2.00391-5.76563-2.00391-1.84375 0-3.35938.64844-4.55078 1.94141-1.1875 1.28906-1.78125 2.94531-1.78125 4.94531 0 2.11719.64063 3.78125 1.91797 5.02734 1.27734 1.24219 3 1.86328 5.16406 1.86328 1.57031 0 3.36719-.44922 5.40234-1.35938"/><path d="m6.19141 199.3125h557.92968v-3.09375h-557.92968v3.09375zm0 0"/></g><g fill="#ed1c24" fill-rule="evenodd"><path d="m104.80078 156.92578-19.84765-35.40234h71.73046l-36.02344-76.3086-52.81641 111.71094h-63.17969l82.72266-150.79297h66.54688l82.11328 150.79297"/><path d="m236.35547 69.32422h78.74609c19.85547 0 27.77734-1.22656 27.77734-15.26563 0-13.4414-6.40625-14.96484-26.86719-14.96484h-79.96484l-17.71875-32.96094h111.11719c52.51953 0 72.03906 22.90625 72.03906 47.3125 0 23.51172-17.99609 49.44922-75.6875 49.44922h-26.26953v54.03125h-63.48047v-87.60156"/><path d="m566.03516 145.63281c-18.92969 8.85156-42.42969 13.13672-67.46484 13.13672-75.70703 0-101.64844-42.13672-101.64844-76.92969 0-43.94921 38.46094-77.83984 104.71094-77.83984 24.10938 0 45.16797 3.65234 62.86328 10.375v43.65234c-18.30469-9.76171-34.18359-14.04296-52.80469-14.04296-31.74609 0-57.69531 14.33593-57.69531 37.23437 0 22.59375 26.55859 37.25 58.30469 37.25 18.32422 0 33.27734-3.65234 53.73438-13.125"/></g></svg>