<svg height="256" width="256" xmlns="http://www.w3.org/2000/svg" xmlns:xlink="http://www.w3.org/1999/xlink"><linearGradient id="a" gradientTransform="matrix(-.3937741 0 0 .393752 978.34969 416.9815)" gradientUnits="userSpaceOnUse" x1="541.33502" x2="606.91248" y1="104.50665" y2="303.14029"><stop offset="0" stop-color="#fff" stop-opacity="0"/><stop offset="1" stop-color="#fff" stop-opacity=".27451"/></linearGradient><g fill-rule="evenodd" transform="matrix(1.3473684 0 0 1.3473684 -902.40019 -586.944907)"><path d="m128 0c-11.39482 27.937051-18.31337 46.237163-31 73.34375 7.7785 8.245207 17.33826 17.811753 32.84375 28.65625-16.66992-6.859577-28.03357-13.728504-36.53125-20.875-16.236461 33.87989-41.690855 82.12139-93.3125 174.875 40.562707-23.41756 72.007597-37.86167 101.3125-43.375-1.25376-5.40435-1.923505-11.27752-1.875-17.375l.03125-1.28125c.64379-25.99398 14.16934-45.98224 30.1875-44.625 16.01815 1.35723 28.48754 23.53727 27.84375 49.53125-.12127 4.89622-.6905 9.60082-1.65625 13.96875 28.98953 5.67316 60.13787 20.05292 100.15625 43.15625-7.89193-14.52962-14.96051-27.61983-21.6875-40.09375-10.59609-8.21269-21.64301-18.89743-44.1875-30.46875 15.4958 4.02645 26.60184 8.6825 35.25 13.875-68.39515-127.339832-73.92078-144.272124-97.375-199.3125z" fill="#1793d1" transform="matrix(.7421875 0 0 .7421875 669.75015 435.62318)"/><path d="m818.22607 548.55277c-41.18143-55.89508-50.72685-100.94481-53.14467-111.70015 21.96737 50.6686 21.81733 51.28995 53.14467 111.70015z" fill="#fff" fill-opacity=".16568"/><path d="m765.09805 436.43495c-1.05641 2.59705-2.08559 5.1172-3.06152 7.51465-1.08115 2.65585-2.10928 5.19128-3.13111 7.677-1.02174 2.48575-2.03439 4.91156-3.03833 7.30591-1.00398 2.39446-2.01068 4.76169-3.03833 7.14355-1.02758 2.38177-2.06156 4.78845-3.15429 7.23633-1.09273 2.44796-2.23335 4.94504-3.43262 7.53784-1.19937 2.59282-2.45641 5.27815-3.80371 8.09448-.18662.39008-.41312.83402-.60303 1.22925 5.75521 6.09563 12.84133 13.14976 24.28345 21.15234-12.34021-5.07792-20.76511-10.15751-27.06665-15.44677-.32717.66791-.61387 1.26431-.95093 1.94824-.44365.90024-.97632 1.92315-1.43799 2.85278-.80967 1.66032-1.65574 3.36576-2.52807 5.12574-.33524.66652-.62948 1.24283-.97413 1.92504-5.50733 11.05265-12.33962 24.28304-21.12915 40.72754 24.09557-13.57581 50.08533-33.16242 97.29615-16.30493-2.36708-4.48319-4.54319-8.68756-6.58692-12.64038-2.0437-3.95294-3.94246-7.6555-5.70556-11.15601-1.76297-3.50043-3.39212-6.80069-4.917-9.92675-1.52486-3.12599-2.93832-6.0765-4.26757-8.90625-1.32934-2.8297-2.58106-5.55264-3.75733-8.16407-1.17634-2.6114-2.29708-5.11315-3.36304-7.58422-1.06607-2.4712-2.08657-4.89718-3.08471-7.30591-.99823-2.4088-1.97267-4.81178-2.94556-7.23633-.34772-.86638-.69553-1.7689-1.0437-2.64404-2.66339-6.25269-5.3982-12.73163-8.55835-20.15503z" fill="url(#a)"/></g></svg>