<svg xmlns="http://www.w3.org/2000/svg" viewBox="-42 -258 1200 800"><g fill="#16325B"><path d="M391.027 103.426c36.994 0 55.491-25.688 55.491-51.378 0-25.688-18.498-50.353-57.546-50.353C360.199.666 254.355.666 254.355.666v173.668h32.879V28.413h103.79c18.496 0 27.745 6.163 27.745 23.635 0 14.385-9.247 22.606-26.718 22.606h-86.315l102.761 98.648h40.078l-73.991-71.932c7.196 2.056 15.416 2.056 16.443 2.056M480.429.669h31.856v173.665h-31.856zM916.137 27.387V.669H759.938l-18.497 26.718h75.016v146.947h31.856V27.387zM678.756 72.6h-81.182c-16.438 0-25.689-7.192-25.689-21.58 0-16.44 11.305-23.633 25.689-23.633h110.98L722.941.669H596.546c-28.775 0-52.407 21.577-52.407 51.382 0 26.715 22.608 48.294 53.434 48.294h81.182c18.5 0 28.775 8.224 28.775 23.637 0 13.357-11.305 22.608-28.775 22.608H566.748l-16.44 27.744h132.558c33.912 0 52.406-24.658 52.406-52.404.003-25.697-21.577-49.33-56.516-49.33M104.325 11.972C97.133 23.272 1.564 174.334 1.564 174.334h33.91l31.858-51.381h67.822l17.47-27.746H84.8l36.993-59.602 86.321 137.697h33.911S147.483 24.301 139.26 10.943c-9.247-13.356-25.686-12.33-34.935 1.029M1079.523 174.334h33.912s-94.539-149.003-102.764-162.362c-9.244-15.415-25.689-14.385-34.938-1.028-7.195 11.301-102.762 162.359-102.762 162.359h33.91l31.855-51.378h68.852l17.467-27.746h-67.82l36.996-59.603z"/></g></svg>