<svg height="38.5064" viewBox="2.308 1.0592 145.388 38.5064" width="145.388" xmlns="http://www.w3.org/2000/svg"><g fill="#f00"><path d="m2.308 31.133q0 2.6416.8636 4.7244.8636 2.032 2.7432 2.9972 1.27.6096 2.8448.6096 1.5748 0 2.7432-.508 1.1684-.5588 1.9812-1.3716.8128-.8636 1.3208-1.7272t1.1176-2.1844q0 2.3876.0508 3.7084t.1016 1.8796q.7112-.0508 1.3716-.1016.7112-.0508 1.6256-.0508.2032 0 1.0668.1016.8636.0508 1.016.0508-.3556-.254-.6096-.6096-.2032-.4064-.3556-1.2192t-.254-2.3368q-.1016-1.5748-.1016-4.2164l.1016-11.125q0-2.1336-.3048-3.6068-.3048-1.524-1.1684-2.5908-.8128-1.1176-2.3876-1.6764-1.5748-.6096-4.064-.6096-2.8956 0-4.9276.6096t-3.8608 1.5748q-.1524.0508-.1524.0508.508.8128.762 1.5748.3048.762.5588 2.0828 1.3716-1.2192 3.0988-1.9304 1.7272-.762 3.9116-.762 1.6256 0 2.54.5588.9652.508 1.3716 1.4732t.508 2.1844q.1016 1.1684.1016 3.302-1.8288-.2032-3.4544-.2032-2.286 0-4.1148.4572-1.8288.4572-3.2004 1.5748-1.3716 1.0668-2.1336 2.8956-.7112 1.778-.7112 4.4196zm4.1148-.7112q0-2.286.8636-3.556.9144-1.27 2.3368-1.778.762-.3048 1.7272-.4064 1.016-.1016 2.1336-.1016l2.4384.1016q-.0508 2.8956-.254 4.6228-.2032 1.6764-.8636 3.0988-.508 1.1176-1.2192 1.778t-1.3716.9652q-.6604.3048-1.1176.4064-.4572.0508-.762.0508-1.3716 0-2.1844-.6096-.8128-.6604-1.2192-1.524-.3556-.8636-.4572-1.6256-.0508-.762-.0508-1.4224z"/><path d="m29.789 11.016q-1.5748.6096-3.0988.9144-1.4732.254-3.302.3048.9652.4064 1.3716 1.2192t.5588 2.2352q.1524 1.0668.1524 2.3876.0508 1.3208.0508 5.842v5.4356l-.1016 4.0132q-.0508 1.3716-.1016 2.4892t-.1016 1.6764-.1524.9144q-.1016.3048-.3048.8128.2032 0 .5588-.0508 1.3716-.2032 2.3876-.2032 1.1684 0 2.54.254-.4572-.9652-.6096-2.4892-.1016-1.524-.1016-3.556t.1016-5.2324q.0508-1.778.1016-3.2512.1016-1.524.2032-2.5908.3048-2.3876 1.1176-3.81.8636-1.4224 1.8796-2.0828t1.7272-.8128q.762-.1524 1.2192-.1524.6096 0 1.27.1524.0508-1.0668.2032-2.2352t.4572-2.286q-2.4892.1524-4.6736 1.8796-2.1336 1.6764-3.6068 5.334z"/><path d="m50.92 11.168q-1.5748 0-2.794.5588-1.2192.508-1.9812 1.3208t-1.2192 1.5748q-.4064.7112-.8128 1.6256 0 .0508 0 .0508v-5.4864q-1.8288.762-3.3528 1.0668-1.4732.254-2.9464.3048.762.3556 1.1684.9144.4572.5588.6604 1.6764.254 1.0668.3048 2.9972.1016 1.8796.1016 5.2324v5.7404q0 .6096 0 1.1684l.0508 1.0668q0 2.032-.1524 4.1148-.1016 2.032-.254 2.794-.1524.7112-.508 1.3716 1.4732-.254 2.9464-.254.8636 0 1.4224.0508t1.1176.2032q-.3048-.9144-.4064-1.9304-.0508-1.016-.0508-2.5908v-11.176q0-1.9304.1524-3.4036t.6096-2.6416 1.3716-1.8796q.9652-.7112 2.4892-.7112 2.6924 0 3.302 2.0828.6096 2.032.6096 7.9248l-.0508 5.8928v.1524q0 .762-.0508 2.032t-.1524 2.4892q-.0508 1.1684-.2032 2.1844-.1016 1.016-.3048 1.5748.7112-.1524 1.1684-.2032.508-.0508 1.524-.0508t1.524.0508 1.3208.2032q-.4064-.8128-.508-2.3876-.0508-.8636-.1016-2.286 0-1.4224 0-3.8608v-4.9276q.0508-2.7432.1016-4.318.0508-1.6256.1524-2.4892.1524-.8636.3556-1.3716t.6096-1.0668q.5588-.762 1.4732-1.2192.9652-.508 2.2352-.508 2.0828 0 2.8448 1.3716.762 1.3208.762 4.064v10.719l-.1524 4.5212q-.0508 1.6764-.2032 2.3368t-.4572 1.3208l-.0508.1016q.6604-.1524 1.1684-.2032t1.27-.0508q1.1684 0 1.8288.0508t1.524.2032q-.4572-1.016-.6096-2.4384t-.1524-3.9624v-13.868q0-1.6764-.1524-2.8448-.1016-1.2192-.6096-2.3368-.4572-1.1684-1.6256-1.8796-1.1684-.762-3.0988-.762-1.6764 0-2.9464.508t-2.1336 1.3208q-.8636.762-1.3716 1.524-.4572.762-.9652 1.7272l-.0508.1016v-.0508q-.1524-.8128-.4064-1.5748-.2032-.8128-.8128-1.6256t-1.7272-1.3716-2.794-.5588z"/><path d="m93.059 23.208q0-1.4224-.2032-3.1496-.1524-1.7272-.8636-3.81t-2.286-3.556-4.2164-1.4732q-1.6764 0-2.9464.6604-1.2192.6604-1.9812 1.6764-.762.9652-1.1684 1.9304-.4064.9144-.8128 2.1844 0-1.6764 0-4.064.0508-2.4384.1016-4.6736.0508-2.286.1016-4.4196.1016-2.1844.2032-3.4544-1.778.9652-3.2004 1.3716-1.4224.3556-3.2512.508.6096.3048.9652.8128.4064.508.6604 1.6764t.3556 3.2512q.1016 2.0828.1016 5.4864 0 2.794-.0508 8.9916 0 6.35-.0508 8.6868 0 3.048-.1524 4.3688t-.4572 2.1336q1.5748.6604 3.302.9144 1.7272.3048 3.9116.3048 3.8608 0 6.2992-1.8288t3.6576-4.5212 1.5748-5.2832q.4064-2.5908.4064-4.7244zm-4.3688 1.5748q0 2.3368-.3556 4.4196-.3048 2.0828-1.1176 3.81-.762 1.6764-2.2352 2.7432-1.4732 1.016-3.6576 1.016-1.1176 0-2.3368-.3048-.1524-.9144-.254-1.9812-.0508-1.1176-.0508-3.9624t.0508-4.8768q.1016-2.032.2032-3.2004.1524-1.2192.254-1.8796.1524-.7112.3556-1.27v-.0508q.5588-1.7272 1.6256-2.8956 1.1176-1.1684 2.6416-1.1684.9652 0 1.8288.508t1.524 1.6256q.7112 1.1176 1.1176 2.9972.4064 1.8288.4064 4.4704z"/><path d="m97.707 31.082q0 3.9116-.2032 5.5372-.1524 1.5748-.762 2.6416.8128-.1016 1.524-.1524.762-.1016 1.7272-.1016.8128 0 1.4224.1016.6096.0508 1.3716.1524h.0508q-.6096-1.0668-.8128-2.794-.1524-1.7272-.2032-4.4196v-.508q0-.1016 0-1.2192-.0508-2.6924-.0508-4.826 0-4.7752.1016-7.9756.0508-1.9812.1016-3.4036.1016-1.4732.2032-2.2352l.1524-.9652q-1.1176.5588-2.3368.9652-1.2192.3556-3.81.6604.6096.3556.9144.9144.3556.508.508 1.8288.1016.508.1016 2.1336.0508 1.5748.0508 4.4196 0 1.2192 0 4.1656-.0508 4.064-.0508 5.08zm2.032-28.651q-1.3208 0-1.9304.9652-.6096.9144-.6096 2.286 0 1.3208.6096 2.1844.6604.8128 1.8796.8128.8128 0 1.27-.3048.508-.3048.762-.8636.3048-.6604.3556-1.9304 0-.5588-.0508-1.016t-.3048-.9652q-.2032-.508-.7112-.8128-.4572-.3556-1.27-.3556z"/><path d="m106.19 31.133q0 2.6416.8636 4.7244.8636 2.032 2.7432 2.9972 1.27.6096 2.8448.6096t2.7432-.508q1.1684-.5588 1.9812-1.3716.8128-.8636 1.3208-1.7272t1.1176-2.1844q0 2.3876.0508 3.7084t.1016 1.8796q.7112-.0508 1.3716-.1016.7112-.0508 1.6256-.0508.2032 0 1.0668.1016.8636.0508 1.016.0508-.3556-.254-.6096-.6096-.2032-.4064-.3556-1.2192t-.254-2.3368q-.1016-1.5748-.1016-4.2164l.1016-11.125q0-2.1336-.3048-3.6068-.3048-1.524-1.1684-2.5908-.8128-1.1176-2.3876-1.6764-1.5748-.6096-4.064-.6096-2.8956 0-4.9276.6096t-3.8608 1.5748q-.1524.0508-.1524.0508.508.8128.762 1.5748.3048.762.5588 2.0828 1.3716-1.2192 3.0988-1.9304 1.7272-.762 3.9116-.762 1.6256 0 2.54.5588.9652.508 1.3716 1.4732t.508 2.1844q.1016 1.1684.1016 3.302-1.8288-.2032-3.4544-.2032-2.286 0-4.1148.4572t-3.2004 1.5748q-1.3716 1.0668-2.1336 2.8956-.7112 1.778-.7112 4.4196zm4.1148-.7112q0-2.286.8636-3.556.9144-1.27 2.3368-1.778.762-.3048 1.7272-.4064 1.016-.1016 2.1336-.1016l2.4384.1016q-.0508 2.8956-.254 4.6228-.2032 1.6764-.8636 3.0988-.508 1.1176-1.2192 1.778t-1.3716.9652-1.1176.4064q-.4572.0508-.762.0508-1.3716 0-2.1844-.6096-.8128-.6604-1.2192-1.524-.3556-.8636-.4572-1.6256-.0508-.762-.0508-1.4224z"/><path d="m140.33 11.168q-1.8288 0-3.1496.5588-1.27.508-2.0828 1.3208-.762.762-1.2192 1.5748-.4064.762-.7112 1.6256v-5.334q-1.2192.6604-2.3368 1.016-1.1176.3048-3.2512.4572l.0508.0508q.508.4064.762.9652.3048.5588.4572 1.8288.1524 1.016.2032 3.1496t.0508 5.334q0 3.1496-.0508 6.604-.0508 3.4036-.1016 4.8768-.0508 1.6256-.2032 2.4892-.1016.8636-.4064 1.5748.1016 0 .254-.0508 1.3208-.1524 2.3876-.1524 1.3208 0 2.9464.2032-.254-.762-.3556-1.3716t-.2032-1.4732q-.0508-.8636-.0508-1.9304t-.0508-4.1656v-.2032q0-4.2672 0-6.2484.0508-1.9812.1524-3.4036.1524-1.4732.4572-2.3876t.8636-1.6764q.8128-1.2192 1.8796-1.5748 1.1176-.3556 2.1844-.3556 1.3716 0 2.1844.4572t1.1684 1.27q.4064.8128.508 1.8288t.1016 2.54v10.312q0 2.286-.1016 3.8608-.0508 1.524-.1524 2.3876t-.254 1.3208q-.1016.4064-.2032.7112 0 0-.0508.1016.8128-.1016 1.27-.1524.508-.0508 1.1684-.0508.8128 0 1.3716.0508.6096 0 1.3716.1016l.508.0508q-.762-1.6256-.762-5.1816v-15.392q0-1.5748-.1524-2.7432-.1524-1.2192-.762-2.286-.6096-1.1176-1.9812-1.778-1.3716-.7112-3.7084-.7112z"/></g></svg>