<svg viewBox="-5845 1367 210 140" xmlns="http://www.w3.org/2000/svg"><g transform="matrix(1.3522651 0 0 1.3522651 1625.5852 -856.24526)"><path d="m-5490.3 1716.6c0-.8-.6-1.2-1.4-1.2-.7 0-1.2.2-1.7.5v-1c.4-.3 1.1-.5 1.9-.5 1.4 0 2.3.8 2.3 2.1v4.1h-1v-.5c-.2.2-.9.6-1.6.6-1.2 0-2.3-.7-2.3-1.9 0-1.1 1-1.9 2.3-1.9.6 0 1.3.3 1.5.5zm0 1.9c-.2-.5-.8-.8-1.4-.8-.7 0-1.4.3-1.4 1.1 0 .7.7 1.1 1.4 1.1.6 0 1.2-.3 1.4-.8zm12.9-6.3v8.4h-1.1v-3.8h-4.7v3.8h-1.1v-8.4h1.1v3.6h4.7v-3.6zm2.5 5.5c0 1.4.9 2.1 2 2.1.7 0 1.2-.2 1.7-.6v.9c-.5.4-1.1.5-1.8.5-1.7 0-2.9-1.2-2.9-3.1s1.1-3.2 2.7-3.2 2.5 1.2 2.5 3v.4zm0-.8h3.1c0-.9-.5-1.7-1.5-1.7-.7.1-1.4.6-1.6 1.7zm10.5 2.3 1.3-4.6h1l-1.8 6.1h-1l-1.3-4.6-1.3 4.6h-1l-1.8-6.1h1l1.3 4.6 1.2-4.6h.9zm4.5 1.4h-1v-8.9h1zm2.4-2.9c0 1.4.9 2.1 2 2.1.7 0 1.2-.2 1.7-.6v.9c-.5.4-1.1.5-1.8.5-1.7 0-2.9-1.2-2.9-3.1s1.1-3.2 2.7-3.2 2.5 1.2 2.5 3v.4zm0-.8h3.1c0-.9-.5-1.7-1.5-1.7-.7.1-1.4.6-1.6 1.7zm7.1 3.7h-1v-5.2h-1.3v-.9h1.3v-1.6h1v1.6h1.4v.9h-1.4zm4.6 0h-1v-5.2h-1.3v-.9h1.3v-1.6h1v1.6h1.4v.9h-1.4zm6.9-3.4v3.4h-1.1v-8.4h3.1c1.7 0 2.8.9 2.8 2.5s-1.1 2.5-2.8 2.5zm2-4.1h-2v3.1h2c1.1 0 1.7-.6 1.7-1.6.1-.8-.5-1.5-1.7-1.5zm7.3 3.5c0-.8-.6-1.2-1.4-1.2-.7 0-1.2.2-1.7.5v-1c.4-.3 1.1-.5 1.9-.5 1.4 0 2.3.8 2.3 2.1v4.1h-1v-.5c-.2.2-.9.6-1.6.6-1.2 0-2.3-.7-2.3-1.9 0-1.1 1-1.9 2.3-1.9.6 0 1.3.3 1.5.5zm0 1.9c-.2-.5-.8-.8-1.4-.8-.7 0-1.4.3-1.4 1.1 0 .7.7 1.1 1.4 1.1.6 0 1.2-.3 1.4-.8zm5.2-4.1c.6 0 1.2.1 1.6.5v1c-.4-.4-1-.6-1.6-.6-1.1 0-2 .8-2 2.2s.9 2.2 2 2.2c.6 0 1.1-.2 1.6-.6v1c-.4.4-1 .5-1.6.5-1.6 0-2.9-1.2-2.9-3.2 0-1.8 1.3-3 2.9-3zm8.1 6.2h-1.3l-2.8-3v3h-1v-8.9h1v5.4l2.7-2.6h1.3l-3 2.8zm4.3-4c0-.8-.6-1.2-1.4-1.2-.7 0-1.2.2-1.7.5v-1c.4-.3 1.1-.5 1.9-.5 1.4 0 2.3.8 2.3 2.1v4.1h-1v-.5c-.2.2-.9.6-1.6.6-1.2 0-2.3-.7-2.3-1.9 0-1.1 1-1.9 2.3-1.9.6 0 1.3.3 1.5.5zm0 1.9c-.2-.5-.8-.8-1.4-.8-.7 0-1.4.3-1.4 1.1 0 .7.7 1.1 1.4 1.1.6 0 1.2-.3 1.4-.8zm5.7-3c-.2-.1-.4-.2-.7-.2-.6 0-1.2.4-1.4 1.1v4.1h-1v-6.1h1v.8c.3-.5.8-.9 1.5-.9.3 0 .5 0 .6.1zm5.2 4.4c-.3.4-1 .8-1.7.8-1.8 0-2.7-1.4-2.7-3.2 0-1.7 1-3.2 2.7-3.2.8 0 1.4.4 1.7.8v-3.5h1v8.9h-1zm0-3.6c-.3-.6-.9-1-1.6-1-1.2 0-1.8.9-1.8 2.2s.7 2.2 1.8 2.2c.6 0 1.2-.4 1.6-1zm-91.2 9.6v1h-4.3v2.7h3.9v1h-3.9v2.9h4.3v1h-5.3v-8.4zm1.3 2.3h1v.8c.4-.5 1-.9 1.8-.9 1.4 0 2.1.9 2.1 2.2v4h-1v-3.8c0-.8-.4-1.4-1.3-1.4-.7 0-1.3.5-1.5 1.1v4.1h-1v-6.1zm8.3 6h-1v-5.2h-1.3v-.9h1.3v-1.6h1v1.6h1.4v.9h-1.4zm3-2.8c0 1.4.9 2.1 2 2.1.7 0 1.2-.2 1.7-.6v.9c-.5.4-1.1.5-1.8.5-1.7 0-2.9-1.2-2.9-3.1s1.1-3.2 2.7-3.2 2.5 1.2 2.5 3v.4zm.1-.8h3.1c0-.9-.5-1.7-1.5-1.7-.8 0-1.4.6-1.6 1.7zm8.6-1.4c-.2-.1-.4-.2-.7-.2-.6 0-1.2.4-1.4 1.1v4.1h-1v-6.1h1v.8c.3-.5.8-.9 1.5-.9.3 0 .5 0 .6.1zm2.1 7.4h-1v-8.4h1v.7c.3-.4 1-.8 1.7-.8 1.8 0 2.7 1.5 2.7 3.2s-.9 3.2-2.7 3.2c-.8 0-1.4-.4-1.7-.8zm0-4.2c.3.6.9 1 1.6 1 1.2 0 1.8-.9 1.8-2.2s-.7-2.2-1.8-2.2c-.6 0-1.2.4-1.6 1zm8.9-3.2c-.2-.1-.4-.2-.7-.2-.6 0-1.2.4-1.4 1.1v4.1h-1v-6.1h1v.8c.3-.5.8-.9 1.5-.9.3 0 .5 0 .6.1zm1.7-2.2c-.4 0-.7-.3-.7-.7s.3-.7.7-.7.7.3.7.7c-.1.4-.4.7-.7.7zm.5 7.2h-1v-6.1h1zm1.4-1.5c.6.5 1.3.8 2 .8s1.3-.2 1.3-.8c0-.5-.3-.7-.9-.9l-.8-.3c-.9-.3-1.5-.7-1.5-1.7 0-1.1.9-1.7 2.1-1.7.7 0 1.3.2 1.8.5v1.1c-.5-.4-1.1-.7-1.8-.7-.6 0-1.1.3-1.1.8s.3.7.9.9l.9.3c.9.3 1.4.8 1.4 1.7 0 1.1-1 1.8-2.3 1.8-.8 0-1.5-.2-2-.6zm6.3-1.3c0 1.4.9 2.1 2 2.1.7 0 1.2-.2 1.7-.6v.9c-.5.4-1.1.5-1.8.5-1.7 0-2.9-1.2-2.9-3.1s1.1-3.2 2.7-3.2 2.5 1.2 2.5 3v.4zm0-.8h3.1c0-.9-.5-1.7-1.5-1.7-.7 0-1.4.6-1.6 1.7zm11.2-2.5c.6 0 1.2.1 1.6.5v1c-.4-.4-1-.6-1.6-.6-1.1 0-2 .8-2 2.2s.9 2.2 2 2.2c.6 0 1.1-.2 1.6-.6v1c-.4.4-1 .5-1.6.5-1.6 0-2.9-1.2-2.9-3.2 0-1.8 1.3-3 2.9-3zm5.3 6.3c-1.7 0-2.8-1.3-2.8-3.2s1.1-3.2 2.8-3.2 2.8 1.3 2.8 3.2-1.2 3.2-2.8 3.2zm0-5.4c-1.1 0-1.7.9-1.7 2.3 0 1.3.7 2.3 1.7 2.3 1.1 0 1.7-.9 1.7-2.3s-.6-2.3-1.7-2.3zm10.3-.9c1.2 0 1.9.9 1.9 2.2v4h-1v-3.9c0-.8-.4-1.4-1.1-1.4-.6 0-1.1.4-1.3 1.1v4.2h-1v-3.9c0-.8-.4-1.4-1.1-1.4-.6 0-1.1.4-1.3 1.1v4.2h-1v-6.1h1v.7c.3-.5.9-.8 1.6-.8.8 0 1.4.4 1.6 1 .2-.6.8-1 1.7-1zm4.6 8.5h-1v-8.4h1v.7c.3-.4 1-.8 1.7-.8 1.8 0 2.7 1.5 2.7 3.2s-.9 3.2-2.7 3.2c-.8 0-1.4-.4-1.7-.8zm0-4.2c.3.6.9 1 1.6 1 1.2 0 1.8-.9 1.8-2.2s-.7-2.2-1.8-2.2c-.6 0-1.2.4-1.6 1zm9.2-2.2c0-.8-.6-1.2-1.4-1.2-.7 0-1.2.2-1.7.5v-1c.4-.3 1.1-.5 1.9-.5 1.4 0 2.3.8 2.3 2.1v4.1h-1v-.5c-.2.2-.9.6-1.6.6-1.2 0-2.3-.7-2.3-1.9 0-1.1 1-1.9 2.3-1.9.6 0 1.3.3 1.5.5zm0 1.9c-.2-.5-.8-.8-1.4-.8-.7 0-1.4.3-1.4 1.1 0 .7.7 1.1 1.4 1.1.6 0 1.2-.3 1.4-.8zm2.7-3.9h1v.8c.4-.5 1-.9 1.8-.9 1.4 0 2.1.9 2.1 2.2v4h-1v-3.8c0-.8-.4-1.4-1.3-1.4-.7 0-1.3.5-1.5 1.1v4.1h-1v-6.1zm7.2 8.4.9-2.3-2.4-6.1h1.1l1.8 4.8 1.8-4.8h1.1l-3.3 8.4z" fill="#646569"/><path d="m-5436.9 1687.4c0 8-6.4 14.5-14.2 14.5s-14.2-6.5-14.2-14.5v-12.3s6.8 1.7 6.8 8.9v3.4c0 4.4 3.3 7.9 7.4 7.9s7.4-3.5 7.4-7.9v-7.1.1c.3-6 5.4-7.9 6.7-8.6h.1v8.4zm-36.5-14.4c1.9 0 3.7.3 5.3 1v7.6c-1.4-1.2-3.3-1.9-5.3-1.9-4.5 0-8.1 3.5-8.1 7.9v14.3h-6.8v-26.2s2.8.1 4.6 1.4c2.6-2.6 6.3-4.1 10.3-4.1m-32.6 22.4c-4.5 0-8.2-3.6-8.2-8s3.7-8 8.2-8 8.2 3.6 8.2 8-3.7 8-8.2 8m0-22.4c-8.2 0-14.8 6.5-14.8 14.4 0 8 6.6 14.4 14.8 14.4 3.4 0 6.5-1.1 9-3 1.5 2.5 5.8 3 5.8 3v-14.4c0-7.9-6.6-14.4-14.8-14.4m118.3 22.4c-4.5 0-8.2-3.6-8.2-8s3.7-8 8.2-8 8.2 3.6 8.2 8-3.7 8-8.2 8m0-22.4c-8.2 0-14.8 6.5-14.8 14.4 0 8 6.6 14.4 14.8 14.4 3.4 0 6.5-1.1 9-3 1.5 2.5 5.8 3 5.8 3v-14.4c0-7.9-6.6-14.4-14.8-14.4m-31.4 22.4c-4.5 0-8.2-3.6-8.2-8s3.7-8 8.2-8 8.2 3.6 8.2 8c.1 4.4-3.6 8-8.2 8m0-22.4c-3 0-5.8.9-8.2 2.4v-2.3c-.3-6-5.2-7.9-6.5-8.6h-.1v37.4s4.4-.5 6.1-2.9c2.5 1.7 5.5 2.8 8.7 2.8 8.2 0 14.8-6.5 14.8-14.4.1-7.9-6.6-14.4-14.8-14.4" fill="#f5831f"/></g></svg>