<svg height="161" viewBox="0 -23 212 212" xmlns="http://www.w3.org/2000/svg"><g transform="translate(-144.999557)"><g fill="#967e72"><path d="m356.098 98.226c-68.38-36.052-142.045-31.709-170.14 10.412 10.255 11.888 23.439 22.912 38.977 31.932 50.54 29.315 106.939 26.447 125.983-6.403 6.174-10.607 7.639-23.023 5.18-35.941"/><path d="m167.333 26.651c-8.842 15.173-8.11 34.104.157 52.951 27.467 3.062 51.324-4.9 62.05-23.385 9.26-15.952 6.853-36.498-4.5-56.208-25.688-.334-47.296 8.658-57.707 26.642"/><path d="m352.122 81.495c-9.313-22.494-29.56-45.1-57.446-61.275-20.457-11.859-41.907-18.457-61.422-19.905 6.592 22.745 26.212 46.548 54.516 62.973 21.66 12.555 44.523 18.569 64.352 18.207"/></g><path d="m173.192 98.644c-.732-2.673-2.772-4.733-5.755-5.819-6.278-2.31-15.067.502-19.671 6.264-2.407 3.035-3.296 6.487-2.459 9.466.785 2.672 2.825 4.732 5.755 5.818 6.278 2.283 15.12-.529 19.672-6.264 2.406-3.034 3.296-6.486 2.458-9.465" fill="#e32739"/></g></svg>