<svg viewBox="0 -32 239 239" xmlns="http://www.w3.org/2000/svg"><g fill="#fff" transform="translate(-42.1 -31.6)"><path d="m107.9 209.7c-20.2-49.5-42.5-99.1-65.8-148.7 51.9-13.1 106-24.7 169.6-29.4l6.4 10.8c-47.5 10.1-81.5 27.1-101.1 69.5-12.2 30-11.1 63.5-9.1 97.8"/><path d="m117.7 206.8 21.1-15.1c-17.8-83.2 29.2-133.3 81.6-146.6-66.8 8-116.6 57.7-102.7 161.7"/><path d="m147.7 185.9 20.1-12.8c-12.2-58.6 4.3-101.2 55.5-125.5-51.4 14.2-90.6 62-75.6 138.3"/><path d="m176.8 167.7 22-12.2c-13-48.8-7.1-79.7 26.7-105-36.1 16.5-60.1 57-48.7 117.2"/><path d="m206.2 151.6 20.6-9.8c-22.2-34.6-19-63.2.9-88.3-27.6 18.2-38.5 59.4-21.5 98.1"/><path d="m230 55.2c-3.6 25.5.2 50.5 23.4 75.6l-19.6 7.9c-22.1-39.7-19.9-64.5-3.8-83.5"/><path d="m280.6 122.3-47.6-63.9a50.2 50.2 0 0 0 5 35.4c6.4 11.3 14.7 22.5 23.4 34.3z"/></g></svg>