<svg fill="none" viewBox="0 -31 200 200" xmlns="http://www.w3.org/2000/svg"><g transform="matrix(3.986299 0 0 3.986299 -38.282467 -2.658829)"><path d="m44.4199 32.1438h-2.1287c-.0893 0-.152-.086-.126-.1713 1.9667-6.4967-.8373-13.674-5.196-13.4487-4.214.216-12.7653 8.7773-17.246 13.578-.0254.0273-.06.0413-.0967.0413h-2.912c-.1167 0-.178-.138-.0987-.2233 4.5061-4.8767 14.8427-15.1893 20.2574-15.468 2.788-.1447 5.028 1.4727 6.64 4.432 1.5653 2.8767 1.8787 7.3253 1.0393 11.154-.0146.062-.07.106-.1326.106z" fill="#4dafb6"/><path d="m37.8108 32.1438h-2.2073c-.1014 0-.1647-.1087-.116-.198 1.1953-2.1807 1.852-4.442 1.3173-5.2207-.0933-.1393-.3847-.5613-1.596-.4413-1.8527.186-5.1073 2.9033-8.0933 5.822-.0247.024-.058.038-.0927.038h-2.7993c-.1187 0-.18-.142-.0967-.226 2.1353-2.1527 7.814-7.5894 11.0873-7.9194 3.874-.3906 4.6974 3.6374 2.72 8.0647-.0213.0487-.07.0807-.1233.0807z" fill="#6d67a8"/><path d="m47.5357 9.97956c-.1027-.48467-.1367-.98067-.1167-1.482v.09667c-.0006.47.0394.93466.1167 1.38533z" fill="#00b7c2"/><path d="m52.7978.666992c-.0173.033999-.0313.068664-.0453.102663-.0113.002667-.02.006-.0313.014.0306-.036665.0566-.073997.0766-.116663z" fill="#00b7c2"/><path d="m59.5677 16.6155c-.9007 3.6314-4.4694 10.082-4.4694 10.082l-5.6813-.1626s-3.124-12.99-9.1927-15.6947c-5.2933-2.35734-19.124 10.6207-27.214 21.242-.0313.04-.0766.06-.1253.06h-3.124c-.13133 0-.20534-.1513-.12267-.2533 4.23597-5.3047 10.29067-11.5334 14.71467-15.6207 7.488-6.91534 13.098-9.612 16.6727-8.02134 5.724 2.54864 8.882 12.53334 9.92 16.44204l3.01.0853c1.5453-2.8993 2.8393-5.7807 3.472-7.6707.2966-.878.4506-1.5393.4193-1.89-.282-.824-1.562-1.8326-2.6967-2.7253-1.072-.8407-2.1806-1.71-2.97-2.75067-.1426-.18533-.2906-.368-.436-.54733-.7526-.92067-1.3966-1.836-1.7186-2.96467-.9747 2.346-1.1914 3.734.7353 5.63267l.348.3393c.7467.744 1.348 1.334 1.824 1.844 1.026.8014 1.0093 1.8274.6953 2.6994-.3593 1.006-1.1146 1.8013-1.1146 1.8013.1226-1.16.2166-1.6247-.288-2.366-.422-.6187-1.26-1.428-2.842-2.99-.8507-.838-1.4234-1.7473-1.7227-2.7193-.0513-.1594-.0913-.322-.1253-.48737-.0767-.45067-.1167-.91533-.1167-1.38533v-.09667c0-.00867 0-.01733.0027-.026.0486-3.426 2.2093-6.36533 5.2993-7.687998.0113-.008667.02-.011334.0313-.014001-2.1493 4.837329-.3933 6.037329.978 7.841999 1.588 2.08397 5.2734 3.75137 5.9807 6.10597.1273.4267.0587 1.094-.1433 1.898z" fill="#6d67a8"/></g></svg>