<svg height="213.1" viewBox="14.5 220.1 203.7 213.1" width="203.7" xmlns="http://www.w3.org/2000/svg"><g><path d="m67.3 326.6c0-26.7 21.7-48.3 48.4-48.3 13.4 0 25.5 5.4 34.2 14.2l40.5-41.2c-19.3-19.3-45.9-31.2-75.4-31.2-46.4 0-85.9 29.7-100.5 71.1 21.5 27.4 52.5 35.3 52.8 35.4" fill="#574b88"/><path d="m150.2 360.5c-8.8 8.9-21 14.5-34.5 14.5-26.7 0-48.3-21.6-48.4-48.3-.3.1-31.3 8-52.8 35.4 14.6 41.4 54.1 71.1 100.5 71.1 29.7 0 56.6-12.2 75.9-31.8z" fill="#574b88"/><path d="m159.1 326.8c.3.1 32.2 9.4 52.8 38.5 4-12.1 6.3-25.8 6.3-38.4 0-13.7-2.1-26.1-6.3-38.4-21.2 29.6-52.5 38.2-52.8 38.3" fill="#eb9d00"/></g></svg>