<svg height="1537" viewBox="0 0 1540 1537" width="1540" xmlns="http://www.w3.org/2000/svg"><path d="m1243.5 345c68.3 0 134.9 16.3 195.1 45.5 65 110.3 100.7 240.2 100.7 378.1 0 163.9-52 316.4-139.7 441.4-48.8 17.9-100.8 27.6-154.4 27.6-162.6 0-312.1-87.6-391.7-228.8-58.5-103.9-73.2-224-40.7-339.2 30.9-113.6 107.3-209.3 211.3-267.8 66.7-37.3 141.4-56.8 219.4-56.8zm-762.2-288.8c82.9-34.1 173.9-53.6 268.1-55.2-331.5 209.3-443.7 644.3-250.2 989.9q31.6 58.4 73.1 107.1c-61.8-55.1-113.8-120.1-154.4-193.1-156-277.5-120.3-610.2 63.4-848.7zm612.7 1340.4c43.9 0 87.8-3.2 130-9.7-126.7 94.1-284.4 149.3-455.1 149.3-424.1 0-768.7-344-768.7-767.6 0-251.5 121.9-475.5 308.8-615.1-118.6 245.1-118.6 543.7 24.4 798.5 154.4 274.2 445.3 444.6 760.6 444.6zm102.4-1225.2c21.1 0 42.2 1.6 61.8 3.2 30.8 24.4 58.5 52 84.5 81.2-32.5-6.5-66.7-9.8-100.8-9.8-92.6 0-183.7 24.4-264.9 69.8-126.8 69.8-219.4 186.6-258.4 326.2-34.2 123.3-24.4 251.6 26 366.8-6.5-11.4-13-21.1-19.5-32.5-71.5-124.9-87.8-271-48.8-410.6 39-137.9 130-254.7 256.8-324.5 79.6-45.5 172.3-68.2 263.3-69.8zm-364.1-108.7c32.5-17.9 66.7-32.5 100.8-45.5 63.4 14.6 123.5 35.7 178.8 63.3-79.7 11.4-157.7 37.3-227.6 76.3-147.9 82.7-255.1 219.1-302.3 383-47.1 163.9-26 335.9 56.9 485.2 1.7 3.2 4.9 6.5 6.5 9.7-22.7-27.6-43.9-58.4-61.7-90.8-173.9-311.6-61.8-706 248.6-881.2z" fill="#003d79"/><path d="m1217.5 1386.9c-42.2 6.5-86.1 9.7-130 9.7-315.3 0-606.2-170.4-760.6-444.6-143-254.8-141.4-551.8-24.4-798.5 52-40.5 110.5-73 172.3-97.3-182.1 238.5-217.8 571.2-61.8 848.7 42.3 73 94.3 138 154.4 193.1q-41.4-51.1-73.1-107.1c-193.4-345.6-79.7-780.6 250.3-989.9q9.7 0 19.5 0c56.9 0 112.1 6.5 165.7 17.8-34.1 13-68.2 27.6-100.7 45.5-312.1 175.2-422.6 569.6-248.7 881.2 17.9 32.4 39 63.3 61.8 90.9-1.6-3.3-4.9-6.5-6.5-9.8-82.9-149.3-104-321.3-56.9-485.2 45.5-163.9 152.8-300.2 302.3-383 71.5-40.6 147.9-64.9 227.5-76.3 52 26 102.4 56.8 146.3 94.2-21.1-1.7-40.6-3.3-61.8-3.3-91 0-182 24.4-263.3 69.8-126.7 69.8-217.7 185-256.7 324.6-39.1 137.9-21.2 284 48.7 410.5 6.5 11.4 13 22.8 19.5 32.5-52-115.2-60.1-243.4-26-366.8 40.6-139.5 131.7-254.8 258.4-326.2 81.3-45.4 172.3-69.7 264.9-69.7 34.2 0 68.3 3.2 100.8 9.7 37.4 40.6 68.3 86 95.9 133.1-60.1-29.2-126.8-45.5-195-45.5-76.4 0-151.2 19.5-217.8 56.8-104 58.5-178.8 152.6-211.3 267.8s-17.9 235.3 40.6 339.2c79.7 141.2 229.2 228.8 391.7 228.8 52 0 104-9.7 154.4-27.6-48.7 68.2-107.2 128.2-180.4 176.9z" fill="#fff"/></svg>