<svg height="209.158" width="1000.04" xmlns="http://www.w3.org/2000/svg"><g fill="#bf1920" transform="matrix(1.2500506 0 0 1.2500506 0 -.002468)"><path d="m130.62 151.03c-37.195 0-67.339-30.16-67.339-67.362 0-37.204 30.144-67.335 67.339-67.335 13.11 0 25.35 3.739 35.69 10.22l-35.69 57.115 67.19-38.796c-7.3-11.631-17.77-21.653-30.43-29.258-16.11-9.645-38.52-15.614-63.3-15.614-35.348 0-66.359 12.845-83.653 32.081-12.804 14.22-20.427 32.117-20.427 51.586 0 19.483 7.623 37.393 20.427 51.623 17.339 19.26 47.888 32.03 82.653 32.03 34.76 0 65.3-12.78 82.65-32.03.95-1.06 1.87-2.13 2.74-3.24l-2.62-9.82c-12.19 17.4-32.38 28.8-55.23 28.8"/><path d="m353.38 163.27-28.2-105.2c-4.53-17-20.01-29.495-38.44-29.495-4.78 0-9.36.854-13.61 2.4l-60.71 22.076h62.44l10.67 39.848c-10.35-8.908-23.83-14.328-38.59-14.328-29.31 0-53.04 19.641-53.04 43.869 0 24.23 23.73 43.9 53.04 43.9 21.1 0 39.76-10.33 51.27-26.2l6.19 23.13zm-86.02-16.34c-13.52 0-24.48-10.95-24.48-24.49 0-13.52 10.96-24.48 24.48-24.48s24.49 10.96 24.49 24.48c0 13.54-10.97 24.49-24.49 24.49z"/><path d="m468.36 28.593c-3.7 0-7.2.818-10.32 2.283l-38.98 18.166c-1.93-11.604-12.01-20.449-24.17-20.449-3.68 0-7.19.818-10.35 2.283l-47.59 22.175h33.46v110.22h48.98v-97.958c0-6.759 5.47-12.261 12.25-12.261 6.74 0 12.25 5.502 12.25 12.261v97.958h48.96v-110.22c0-13.517-10.97-24.457-24.49-24.457"/><path d="m775.52 28.593c-3.71 0-7.23.818-10.4 2.283l-38.94 18.166c-1.92-11.604-12-20.449-24.16-20.449-3.68 0-7.19.818-10.36 2.283l-47.57 22.175h33.45v110.22h48.97v-97.958c0-6.759 5.48-12.261 12.26-12.261 6.76 0 12.23 5.502 12.23 12.261v97.958h49v-110.22c-0-13.517-10.98-24.457-24.48-24.457"/><path d="m652.01 97.959c0 38.311-31.05 69.361-69.35 69.361-38.33 0-69.4-31.05-69.4-69.361 0-38.301 31.07-69.366 69.4-69.366 38.3 0 69.35 31.066 69.35 69.366m-66.48-48.314c-2.18-8.162-10.57-13.007-18.73-10.813-8.15 2.185-13.02 10.58-10.83 18.741l23.79 88.697c2.2 8.17 10.57 13.01 18.73 10.85 8.16-2.21 13.01-10.6 10.82-18.76z"/></g></svg>