<svg viewBox="-1 41 260 174" xmlns="http://www.w3.org/2000/svg"><g fill-rule="evenodd"><g fill="#231f20"><path d="m52.669 91.494c-5.315-2.126-9.566-2.835-15.236-2.835-21.26 0-33.307 12.048-33.307 32.953 0 21.614 11.338 33.661 31.535 33.661 6.733 0 10.631-1.062 17.008-3.897v-8.504c-5.669 4.961-9.566 6.732-15.236 6.732-13.11 0-21.614-10.984-21.614-27.992s8.15-27.638 21.26-27.638c6.024 0 9.921 1.772 15.59 6.378z"/><path d="m70.032 134.013h23.74l6.378 17.363c.354 1.417.354 1.772.354 2.835h12.756c-1.063-1.063-1.418-1.772-1.772-2.835l-21.614-59.528c-.355-.708-.355-1.417-.709-2.126h-9.213c0 .709 0 1.418-.354 2.481l-21.26 59.173c-.354 1.063-.708 1.772-1.063 2.835h6.024c0-1.063 0-1.772.354-2.835zm1.417-4.605 10.275-29.056 10.276 29.056z"/><path d="m130.976 124.447 19.488 26.929c.709 1.063 1.064 1.772 1.418 2.835h14.172c-1.416-.709-1.416-1.063-2.833-2.481l-21.26-27.991c3.543-.709 5.315-1.064 7.44-1.772 6.379-2.481 10.276-7.796 10.276-14.883 0-10.274-8.504-17.362-20.197-17.362h-19.842c.354 1.418.354 2.126.354 3.189v58.111c0 1.417 0 2.126-.354 3.189h11.692c-.354-1.063-.354-1.772-.354-3.189zm0-3.897v-26.222h4.252c4.252 0 6.733 1.063 8.858 2.835 2.835 2.48 4.607 6.377 4.607 10.631 0 7.44-5.315 12.756-12.756 12.756z"/><path d="m171.724 89.722c.354 1.064.354 1.772.354 3.189v58.111c0 1.417 0 2.126-.354 3.189h33.661v-5.669c-1.771.354-2.48.354-3.898.354h-18.425v-25.157h18.78c1.772 0 2.127 0 3.543.353v-5.314c-1.416.353-1.771.353-3.543.353h-18.78v-24.803h19.135c1.417 0 1.772.355 2.834.71v-5.316z"/><path d="m249.322 154.211v-5.669c-1.063.354-1.417.354-3.189.354h-18.424v-55.985c0-1.417.353-2.125.353-3.189h-11.339c.355 1.418.355 2.126.355 3.189v58.465c0 .709 0 1.772-.355 2.835z"/><path d="m176.685 164.132v6.023h-169.725v-6.023z"/></g><path d="m204.677 164.132v6.023h-25.866v-6.023z" fill="#ed1c24"/><path d="m253.574 164.132v6.023h-46.417v-6.023z" fill="#231f20"/></g></svg>