<svg xmlns="http://www.w3.org/2000/svg" viewBox="0 -3 142 142"><radialGradient id="f" cx="0" cy="0" r="1" gradientTransform="scale(60.47565 -60.47565)rotate(-11.31 -10.934 -16.79)" gradientUnits="userSpaceOnUse" spreadMethod="pad"><stop offset="0" stop-color="#c40047"/><stop offset=".887" stop-color="#ff0070"/><stop offset="1" stop-color="#ff0070"/></radialGradient><clipPath id="g"><path d="M0 222.684h414.076V0H0z"/></clipPath><clipPath id="h"><path d="M163.133 145.269h78.235v-40.888h-78.235z"/></clipPath><clipPath id="j"><path d="M219.74 130.925a10.2 10.2 0 0 0-1.613-5.958c-3.053-4.755-9.405-6.133-14.156-3.07a10.2 10.2 0 0 0-3.663 4.135c-21.896 1.446-36.917 26.674-37.165 17.055-.487-18.907 16.329-38.706 39.275-38.706s38.95 19.312 38.95 38.706c0 7.128-8.378-4.873-21.628-12.162"/></clipPath><linearGradient id="a" x1="0" x2="1" y1="0" y2="0" gradientTransform="scale(50.6618 -50.6618)rotate(8.061 20.117 23.033)" gradientUnits="userSpaceOnUse" spreadMethod="pad"><stop offset="0" stop-color="#fff" stop-opacity="0"/><stop offset=".21" stop-color="#fff" stop-opacity="0"/><stop offset=".995" stop-color="#fff"/><stop offset="1" stop-color="#fff"/></linearGradient><mask id="k" width="1" height="1" x="0" y="0" maskUnits="userSpaceOnUse"><path fill="url(#a)" d="M-32768 32767h65535v-65535h-65535z"/></mask><linearGradient id="l" x1="0" x2="1" y1="0" y2="0" gradientTransform="scale(50.6618 -50.6618)rotate(8.061 20.117 23.033)" gradientUnits="userSpaceOnUse" spreadMethod="pad"><stop offset="0" stop-color="#d02685"/><stop offset=".21" stop-color="#d02685"/><stop offset=".995" stop-color="#b81e47"/><stop offset="1" stop-color="#b81e47"/></linearGradient><clipPath id="n"><path d="M197.97 181.627c-9.895-1.301-19.121-7.011-24.51-13.297-5.626-6.11-7.799-11.717-7.89-12.003 35.388 21.746 42.574.516 57.72-4.501l3.027 4.04c-4.882 4.753-6.134 12.37-2.559 18.534.211.364.459.69.696 1.027-6 4.066-13.754 6.581-21.421 6.581-1.698 0-3.393-.123-5.063-.381"/></clipPath><linearGradient id="b" x1="0" x2="1" y1="0" y2="0" gradientTransform="scale(85.72304 -85.72304)rotate(8.912 13.765 12.653)" gradientUnits="userSpaceOnUse" spreadMethod="pad"><stop offset="0" stop-color="#fff" stop-opacity="0"/><stop offset=".006" stop-color="#fff" stop-opacity="0"/><stop offset=".083" stop-color="#fff" stop-opacity="0"/><stop offset=".608" stop-color="#fff"/><stop offset="1" stop-color="#fff"/></linearGradient><mask id="o" width="1" height="1" x="0" y="0" maskUnits="userSpaceOnUse"><path fill="url(#b)" d="M-32768 32767h65535v-65535h-65535z"/></mask><linearGradient id="p" x1="0" x2="1" y1="0" y2="0" gradientTransform="scale(85.72304 -85.72304)rotate(8.912 13.765 12.653)" gradientUnits="userSpaceOnUse" spreadMethod="pad"><stop offset="0" stop-color="#d31c5b"/><stop offset=".006" stop-color="#d31c5b"/><stop offset=".083" stop-color="#d31c5b"/><stop offset=".608" stop-color="#f1f5f3"/><stop offset="1" stop-color="#f1f5f3"/></linearGradient><clipPath id="r"><path d="M227.507 150.888c2.367-.237 4.97-.053 7.882.724a15.1 15.1 0 0 0-5.93 1.886z"/></clipPath><linearGradient id="c" x1="0" x2="1" y1="0" y2="0" gradientTransform="scale(69.0969 -69.0969)rotate(-28.072 -2.334 -6.233)" gradientUnits="userSpaceOnUse" spreadMethod="pad"><stop offset="0" stop-color="#fff" stop-opacity="0"/><stop offset=".006" stop-color="#fff" stop-opacity="0"/><stop offset=".186" stop-color="#fff" stop-opacity="0"/><stop offset=".515" stop-color="#fff"/><stop offset=".829" stop-color="#fff"/><stop offset="1" stop-color="#fff"/></linearGradient><mask id="s" width="1" height="1" x="0" y="0" maskUnits="userSpaceOnUse"><path fill="url(#c)" d="M-32768 32767h65535v-65535h-65535z"/></mask><linearGradient id="t" x1="0" x2="1" y1="0" y2="0" gradientTransform="scale(69.0969 -69.0969)rotate(-28.072 -2.334 -6.233)" gradientUnits="userSpaceOnUse" spreadMethod="pad"><stop offset="0" stop-color="#d31c5b"/><stop offset=".006" stop-color="#d31c5b"/><stop offset=".186" stop-color="#d31c5b"/><stop offset=".515" stop-color="#ed3b70"/><stop offset=".829" stop-color="#edc6d7"/><stop offset="1" stop-color="#edc6d7"/></linearGradient><clipPath id="u"><path d="M161.424 143.22c0-22.946 18.601-41.547 41.547-41.547l.999 20.221c-4.509 2.904-5.972 8.74-3.522 13.393l-9.874 7.392-3.049-4.074-11.297 8.456 8.456 11.297 11.296-8.456-3.048-4.073 9.982-7.472c3.101 2.608 7.541 3.189 11.253 1.291l12.15 16.216c-4.882 4.754-6.134 12.37-2.559 18.534a15.2 15.2 0 0 0 2.513 3.222 41.36 41.36 0 0 1-23.3 7.146c-22.946 0-41.547-18.601-41.547-41.546"/></clipPath><linearGradient id="d" x1="0" x2="1" y1="0" y2="0" gradientTransform="scale(62.43185 -62.43185)rotate(67.942 3.723 .589)" gradientUnits="userSpaceOnUse" spreadMethod="pad"><stop offset="0" stop-color="#fff" stop-opacity=".8"/><stop offset=".064" stop-color="#fff" stop-opacity=".8"/><stop offset=".986" stop-color="#fff" stop-opacity="0"/><stop offset="1" stop-color="#fff" stop-opacity="0"/></linearGradient><mask id="v" width="1" height="1" x="0" y="0" maskUnits="userSpaceOnUse"><path fill="url(#d)" d="M-32768 32767h65535v-65535h-65535z"/></mask><linearGradient id="w" x1="0" x2="1" y1="0" y2="0" gradientTransform="scale(62.43185 -62.43185)rotate(67.942 3.723 .589)" gradientUnits="userSpaceOnUse" spreadMethod="pad"><stop offset="0" stop-color="#fff"/><stop offset=".064" stop-color="#fff"/><stop offset=".986" stop-color="#ff93ff"/><stop offset="1" stop-color="#ff93ff"/></linearGradient><clipPath id="x"><path d="M0 222.684h414.076V0H0z"/></clipPath><clipPath id="y"><path d="M163.133 145.269h78.235v-40.888h-78.235z"/></clipPath><clipPath id="z"><path d="M219.74 130.925a10.2 10.2 0 0 0-1.613-5.958c-3.053-4.755-9.405-6.133-14.156-3.07a10.2 10.2 0 0 0-3.663 4.135c-21.896 1.446-36.917 26.674-37.165 17.055-.487-18.907 16.329-38.706 39.275-38.706s38.95 19.312 38.95 38.706c0 7.128-8.378-4.873-21.628-12.162"/></clipPath><mask id="A" width="1" height="1" x="0" y="0" maskUnits="userSpaceOnUse"><path fill="url(#a)" d="M-32768 32767h65535v-65535h-65535z"/></mask><clipPath id="B"><path d="M197.97 181.627c-9.895-1.301-19.121-7.011-24.51-13.297-5.626-6.11-7.799-11.717-7.89-12.003 35.388 21.746 42.574.516 57.72-4.501l3.027 4.04c-4.882 4.753-6.134 12.37-2.559 18.534.211.364.459.69.696 1.027-6 4.066-13.754 6.581-21.421 6.581-1.698 0-3.393-.123-5.063-.381"/></clipPath><mask id="C" width="1" height="1" x="0" y="0" maskUnits="userSpaceOnUse"><path fill="url(#b)" d="M-32768 32767h65535v-65535h-65535z"/></mask><clipPath id="D"><path d="M227.507 150.888c2.367-.237 4.97-.053 7.882.724a15.1 15.1 0 0 0-5.93 1.886z"/></clipPath><mask id="E" width="1" height="1" x="0" y="0" maskUnits="userSpaceOnUse"><path fill="url(#c)" d="M-32768 32767h65535v-65535h-65535z"/></mask><clipPath id="F"><path d="M161.424 143.22c0-22.946 18.601-41.547 41.547-41.547l.999 20.221c-4.509 2.904-5.972 8.74-3.522 13.393l-9.874 7.392-3.049-4.074-11.297 8.456 8.456 11.297 11.296-8.456-3.048-4.073 9.982-7.472c3.101 2.608 7.541 3.189 11.253 1.291l12.15 16.216c-4.882 4.754-6.134 12.37-2.559 18.534a15.2 15.2 0 0 0 2.513 3.222 41.36 41.36 0 0 1-23.3 7.146c-22.946 0-41.547-18.601-41.547-41.546"/></clipPath><mask id="G" width="1" height="1" x="0" y="0" maskUnits="userSpaceOnUse"><path fill="url(#d)" d="M-32768 32767h65535v-65535h-65535z"/></mask><clipPath id="H"><path d="M0 222.684h414.076V0H0z"/></clipPath><clipPath id="I"><path d="M163.133 145.269h78.235v-40.888h-78.235z"/></clipPath><clipPath id="J"><path d="M219.74 130.925a10.2 10.2 0 0 0-1.613-5.958c-3.053-4.755-9.405-6.133-14.156-3.07a10.2 10.2 0 0 0-3.663 4.135c-21.896 1.446-36.917 26.674-37.165 17.055-.487-18.907 16.329-38.706 39.275-38.706s38.95 19.312 38.95 38.706c0 7.128-8.378-4.873-21.628-12.162"/></clipPath><mask id="K" width="1" height="1" x="0" y="0" maskUnits="userSpaceOnUse"><path fill="url(#a)" d="M-32768 32767h65535v-65535h-65535z"/></mask><clipPath id="L"><path d="M197.97 181.627c-9.895-1.301-19.121-7.011-24.51-13.297-5.626-6.11-7.799-11.717-7.89-12.003 35.388 21.746 42.574.516 57.72-4.501l3.027 4.04c-4.882 4.753-6.134 12.37-2.559 18.534.211.364.459.69.696 1.027-6 4.066-13.754 6.581-21.421 6.581-1.698 0-3.393-.123-5.063-.381"/></clipPath><mask id="M" width="1" height="1" x="0" y="0" maskUnits="userSpaceOnUse"><path fill="url(#b)" d="M-32768 32767h65535v-65535h-65535z"/></mask><clipPath id="N"><path d="M227.507 150.888c2.367-.237 4.97-.053 7.882.724a15.1 15.1 0 0 0-5.93 1.886z"/></clipPath><mask id="O" width="1" height="1" x="0" y="0" maskUnits="userSpaceOnUse"><path fill="url(#c)" d="M-32768 32767h65535v-65535h-65535z"/></mask><clipPath id="P"><path d="M161.424 143.22c0-22.946 18.601-41.547 41.547-41.547l.999 20.221c-4.509 2.904-5.972 8.74-3.522 13.393l-9.874 7.392-3.049-4.074-11.297 8.456 8.456 11.297 11.296-8.456-3.048-4.073 9.982-7.472c3.101 2.608 7.541 3.189 11.253 1.291l12.15 16.216c-4.882 4.754-6.134 12.37-2.559 18.534a15.2 15.2 0 0 0 2.513 3.222 41.36 41.36 0 0 1-23.3 7.146c-22.946 0-41.547-18.601-41.547-41.546"/></clipPath><mask id="Q" width="1" height="1" x="0" y="0" maskUnits="userSpaceOnUse"><path fill="url(#d)" d="M-32768 32767h65535v-65535h-65535z"/></mask><path fill="url(#f)" d="M161.424 143.22c0-22.946 18.601-41.547 41.547-41.547s41.546 18.601 41.546 41.547c0 3.355-.408 6.613-1.159 9.738-4.305-1.992-9.466-1.961-13.897.539l-12.199-16.282a10.28 10.28 0 0 0 2.478-6.293 10.2 10.2 0 0 0-1.613-5.957c-3.054-4.755-9.405-6.134-14.157-3.071a10.2 10.2 0 0 0-3.663 4.136 10.26 10.26 0 0 0 .141 9.257l-9.874 7.392-3.049-4.074-11.297 8.456 8.456 11.297 11.296-8.456-3.048-4.073 9.982-7.472c3.101 2.608 7.541 3.189 11.253 1.291l12.15 16.216c-4.882 4.754-6.134 12.37-2.559 18.534a15.2 15.2 0 0 0 2.513 3.222 41.36 41.36 0 0 1-23.3 7.146c-22.946 0-41.547-18.601-41.547-41.546" transform="matrix(1.33333 0 0 -1.33333 -215.232 270.153)"/><g clip-path="url(#g)" transform="matrix(1.33333 0 0 -1.33333 -215.232 270.153)"><path fill="#fff" d="m226.27 177.62.008-.006z"/><g clip-path="url(#h)" opacity=".85"><g clip-path="url(#j)" mask="url(#k)"><path fill="url(#l)" d="M219.74 130.925a10.2 10.2 0 0 0-1.613-5.958c-3.053-4.755-9.405-6.133-14.156-3.07a10.2 10.2 0 0 0-3.663 4.135c-21.896 1.446-36.917 26.674-37.165 17.055-.487-18.907 16.329-38.706 39.275-38.706s38.95 19.312 38.95 38.706c0 7.128-8.378-4.873-21.628-12.162"/></g></g><path d="M264.297 177.331c-5.37-6.71-15.17-7.806-21.877-2.433-6.71 5.378-7.801 15.161-2.43 21.88 5.372 6.707 15.162 7.797 21.877 2.418 6.715-5.355 7.795-15.16 2.43-21.865"/></g><g clip-path="url(#n)" transform="matrix(1.33333 0 0 -1.33333 -215.232 270.153)"><g mask="url(#o)"><path fill="url(#p)" d="M197.97 181.627c-9.895-1.301-19.121-7.011-24.51-13.297-5.626-6.11-7.799-11.717-7.89-12.003 35.388 21.746 42.574.516 57.72-4.501l3.027 4.04c-4.882 4.753-6.134 12.37-2.559 18.534.211.364.459.69.696 1.027-6 4.066-13.754 6.581-21.421 6.581-1.698 0-3.393-.123-5.063-.381"/></g></g><g clip-path="url(#r)" transform="matrix(1.33333 0 0 -1.33333 -215.232 270.153)"><g mask="url(#s)"><path fill="url(#t)" d="M227.507 150.888c2.367-.237 4.97-.053 7.882.724a15.1 15.1 0 0 0-5.93 1.886z"/></g></g><g clip-path="url(#u)" transform="matrix(1.33333 0 0 -1.33333 -215.232 270.153)"><g mask="url(#v)"><path fill="url(#w)" d="M161.424 143.22c0-22.946 18.601-41.547 41.547-41.547l.999 20.221c-4.509 2.904-5.972 8.74-3.522 13.393l-9.874 7.392-3.049-4.074-11.297 8.456 8.456 11.297 11.296-8.456-3.048-4.073 9.982-7.472c3.101 2.608 7.541 3.189 11.253 1.291l12.15 16.216c-4.882 4.754-6.134 12.37-2.559 18.534a15.2 15.2 0 0 0 2.513 3.222 41.36 41.36 0 0 1-23.3 7.146c-22.946 0-41.547-18.601-41.547-41.546"/></g></g><path fill="url(#f)" d="M161.424 143.22c0-22.946 18.601-41.547 41.547-41.547s41.546 18.601 41.546 41.547c0 3.355-.408 6.613-1.159 9.738-4.305-1.992-9.466-1.961-13.897.539l-12.199-16.282a10.28 10.28 0 0 0 2.478-6.293 10.2 10.2 0 0 0-1.613-5.957c-3.054-4.755-9.405-6.134-14.157-3.071a10.2 10.2 0 0 0-3.663 4.136 10.26 10.26 0 0 0 .141 9.257l-9.874 7.392-3.049-4.074-11.297 8.456 8.456 11.297 11.296-8.456-3.048-4.073 9.982-7.472c3.101 2.608 7.541 3.189 11.253 1.291l12.15 16.216c-4.882 4.754-6.134 12.37-2.559 18.534a15.2 15.2 0 0 0 2.513 3.222 41.36 41.36 0 0 1-23.3 7.146c-22.946 0-41.547-18.601-41.547-41.546" transform="matrix(1.33333 0 0 -1.33333 -215.232 270.153)"/><g clip-path="url(#x)" transform="matrix(1.33333 0 0 -1.33333 -215.232 270.153)"><path fill="#fff" d="m226.27 177.62.008-.006z"/><g clip-path="url(#y)" opacity=".85"><g clip-path="url(#z)" mask="url(#A)"><path fill="url(#l)" d="M219.74 130.925a10.2 10.2 0 0 0-1.613-5.958c-3.053-4.755-9.405-6.133-14.156-3.07a10.2 10.2 0 0 0-3.663 4.135c-21.896 1.446-36.917 26.674-37.165 17.055-.487-18.907 16.329-38.706 39.275-38.706s38.95 19.312 38.95 38.706c0 7.128-8.378-4.873-21.628-12.162"/></g></g><path d="M264.297 177.331c-5.37-6.71-15.17-7.806-21.877-2.433-6.71 5.378-7.801 15.161-2.43 21.88 5.372 6.707 15.162 7.797 21.877 2.418 6.715-5.355 7.795-15.16 2.43-21.865"/></g><g clip-path="url(#B)" transform="matrix(1.33333 0 0 -1.33333 -215.232 270.153)"><g mask="url(#C)"><path fill="url(#p)" d="M197.97 181.627c-9.895-1.301-19.121-7.011-24.51-13.297-5.626-6.11-7.799-11.717-7.89-12.003 35.388 21.746 42.574.516 57.72-4.501l3.027 4.04c-4.882 4.753-6.134 12.37-2.559 18.534.211.364.459.69.696 1.027-6 4.066-13.754 6.581-21.421 6.581-1.698 0-3.393-.123-5.063-.381"/></g></g><g clip-path="url(#D)" transform="matrix(1.33333 0 0 -1.33333 -215.232 270.153)"><g mask="url(#E)"><path fill="url(#t)" d="M227.507 150.888c2.367-.237 4.97-.053 7.882.724a15.1 15.1 0 0 0-5.93 1.886z"/></g></g><g clip-path="url(#F)" transform="matrix(1.33333 0 0 -1.33333 -215.232 270.153)"><g mask="url(#G)"><path fill="url(#w)" d="M161.424 143.22c0-22.946 18.601-41.547 41.547-41.547l.999 20.221c-4.509 2.904-5.972 8.74-3.522 13.393l-9.874 7.392-3.049-4.074-11.297 8.456 8.456 11.297 11.296-8.456-3.048-4.073 9.982-7.472c3.101 2.608 7.541 3.189 11.253 1.291l12.15 16.216c-4.882 4.754-6.134 12.37-2.559 18.534a15.2 15.2 0 0 0 2.513 3.222 41.36 41.36 0 0 1-23.3 7.146c-22.946 0-41.547-18.601-41.547-41.546"/></g></g><path fill="url(#f)" d="M161.424 143.22c0-22.946 18.601-41.547 41.547-41.547s41.546 18.601 41.546 41.547c0 3.355-.408 6.613-1.159 9.738-4.305-1.992-9.466-1.961-13.897.539l-12.199-16.282a10.28 10.28 0 0 0 2.478-6.293 10.2 10.2 0 0 0-1.613-5.957c-3.054-4.755-9.405-6.134-14.157-3.071a10.2 10.2 0 0 0-3.663 4.136 10.26 10.26 0 0 0 .141 9.257l-9.874 7.392-3.049-4.074-11.297 8.456 8.456 11.297 11.296-8.456-3.048-4.073 9.982-7.472c3.101 2.608 7.541 3.189 11.253 1.291l12.15 16.216c-4.882 4.754-6.134 12.37-2.559 18.534a15.2 15.2 0 0 0 2.513 3.222 41.36 41.36 0 0 1-23.3 7.146c-22.946 0-41.547-18.601-41.547-41.546" transform="matrix(1.33333 0 0 -1.33333 -215.232 270.153)"/><g clip-path="url(#H)" transform="matrix(1.33333 0 0 -1.33333 -215.232 270.153)"><path fill="#fff" d="m226.27 177.62.008-.006z"/><g clip-path="url(#I)" opacity=".85"><g clip-path="url(#J)" mask="url(#K)"><path fill="url(#l)" d="M219.74 130.925a10.2 10.2 0 0 0-1.613-5.958c-3.053-4.755-9.405-6.133-14.156-3.07a10.2 10.2 0 0 0-3.663 4.135c-21.896 1.446-36.917 26.674-37.165 17.055-.487-18.907 16.329-38.706 39.275-38.706s38.95 19.312 38.95 38.706c0 7.128-8.378-4.873-21.628-12.162"/></g></g><path d="M264.297 177.331c-5.37-6.71-15.17-7.806-21.877-2.433-6.71 5.378-7.801 15.161-2.43 21.88 5.372 6.707 15.162 7.797 21.877 2.418 6.715-5.355 7.795-15.16 2.43-21.865"/></g><g clip-path="url(#L)" transform="matrix(1.33333 0 0 -1.33333 -215.232 270.153)"><g mask="url(#M)"><path fill="url(#p)" d="M197.97 181.627c-9.895-1.301-19.121-7.011-24.51-13.297-5.626-6.11-7.799-11.717-7.89-12.003 35.388 21.746 42.574.516 57.72-4.501l3.027 4.04c-4.882 4.753-6.134 12.37-2.559 18.534.211.364.459.69.696 1.027-6 4.066-13.754 6.581-21.421 6.581-1.698 0-3.393-.123-5.063-.381"/></g></g><g clip-path="url(#N)" transform="matrix(1.33333 0 0 -1.33333 -215.232 270.153)"><g mask="url(#O)"><path fill="url(#t)" d="M227.507 150.888c2.367-.237 4.97-.053 7.882.724a15.1 15.1 0 0 0-5.93 1.886z"/></g></g><g clip-path="url(#P)" transform="matrix(1.33333 0 0 -1.33333 -215.232 270.153)"><g mask="url(#Q)"><path fill="url(#w)" d="M161.424 143.22c0-22.946 18.601-41.547 41.547-41.547l.999 20.221c-4.509 2.904-5.972 8.74-3.522 13.393l-9.874 7.392-3.049-4.074-11.297 8.456 8.456 11.297 11.296-8.456-3.048-4.073 9.982-7.472c3.101 2.608 7.541 3.189 11.253 1.291l12.15 16.216c-4.882 4.754-6.134 12.37-2.559 18.534a15.2 15.2 0 0 0 2.513 3.222 41.36 41.36 0 0 1-23.3 7.146c-22.946 0-41.547-18.601-41.547-41.546"/></g></g></svg>