<svg height="338" viewBox="-.714 -.474 112.814 38.745" width="1024" xmlns="http://www.w3.org/2000/svg"><path d="m27.375 0c-2.516 0-4.563 2.047-4.562 4.563 0 2.518 2.046 4.562 4.562 4.562 2.515 0 4.563-2.044 4.563-4.562 0-2.516-2.048-4.563-4.563-4.563zm21.438 10.781c-7.246 0-12.76 6.344-12.875 13.438-.036 2.227.44 4.318 1.281 6.062-4.786 1.396-5.713-.898-5.875-5.218-.197-5.204-.219-12.563-.219-12.563h-7.656v15.125c0 3.136.762 8.002 6.187 8.969 3.38.603 6.679-.063 11.094-2.063 2.113 1.512 4.928 2.5 8.031 2.5 4.288 0 7.78-1.888 10.375-3.625v-4.781c-3.225 2.076-7.95 3.577-10.875 1.438 2.988-2.076 5.844-4.571 7.719-7.563 2.991-4.769 1.039-11.719-7.187-11.719zm-35.125.719c-7.55 0-13.688 4.611-13.688 12.906 0 8.436 5.944 12.75 13.031 12.75 2.053 0 5.262-.411 7.125-1.343v-6.5c-1.613.625-3.506.875-5 .875-3.061 0-6.656-1.807-6.656-5.625 0-4.364 3.397-6 6.781-6 1.632 0 3.484.496 4.875.906v-6.906c-1.924-.577-4.641-1.063-6.468-1.063zm85.875.063c-3.576.009-6.883.919-10.063 1.968v6.157c2.751-1.023 6.074-1.5 8.656-1.5 3.307 0 4.875 1.436 4.875 3.968v.407c-1.403-.5-3.61-.938-5.875-.938-5.753 0-9.593 2.614-9.593 7.688v.093c-.001 4.893 3.549 7.563 8.218 7.563 3.216 0 5.541-1.204 7.219-3.063v2.532h8.313v-14.094c-.001-3.445-.581-5.971-2.438-7.781-1.945-1.95-4.92-3.01-9.312-3zm-22.157.031c-3.402 0-5.618 1.922-7.187 3.937l-.344.438v-3.719h-8.219v24.188h8.219v-13.25c0-2.765 1.608-4.313 3.813-4.313 2.167 0 3.624 1.561 3.625 4.313v13.25h8.25v-16c0-5.486-3.067-8.844-8.157-8.844zm-28.125 6.031c2.094.04 3.501 2.083 1.032 5.219-1.138 1.441-2.821 2.832-4.813 4.125-2.781-5.102.668-8.703 2.875-9.219.158-.037.315-.077.469-.094.144-.015.298-.034.437-.031zm50.5 8.156c1.272 0 2.401.37 3.344.782.003 3.138-1.759 5.031-4.25 5.031-1.765 0-3.031-1.012-3.031-2.688v-.093c0-1.81 1.448-3.032 3.937-3.032z" fill="#da1415" fill-rule="evenodd"/></svg>