<svg viewBox="0 0 66 37.062" xmlns="http://www.w3.org/2000/svg"><g transform="matrix(1.829218 0 0 1.829218 .000001 0)"><path d="m.052 6.506h35.927v13.702h-35.927z" fill="#00546c"/><path d="m9.088 11.175h.483v9.049h-.483zm-2.687 5.126h.483v3.907h-.483zm1.328-2.24h.482v6.147h-.482zm-2.67 3.667h.483v2.48h-.483zm-1.343.968h.483v1.513h-.483zm-1.328.452h.483v1.061h-.483zm-1.349.222h.482v.848h-.482zm10.724-3.063h.482v3.907h-.482zm-1.328-2.241h.483v6.148h-.483zm2.67 3.668h.482v2.48h-.482zm1.343.968h.482v1.513h-.482zm1.328.452h.483v1.061h-.483zm1.349.221h.483v.848h-.483zm9.377-8.203h.483v9.048h-.483zm-2.687 5.141h.483v3.907h-.483zm1.329-2.24h.483v6.147h-.483zm-2.671 3.668h.483v2.479h-.483zm-1.343.967h.483v1.513h-.483zm-1.327.453h.482v1.06h-.482zm-1.35.206h.482v.848h-.482zm10.724-3.064h.482v3.907h-.482zm-1.328-2.24h.483v6.147h-.483zm2.671 3.668h.482v2.479h-.482zm1.342.967h.483v1.513h-.483zm1.328.453h.482v1.06h-.482zm1.35.221h.482v.848h-.482z" fill="#fff"/><path d="m3.4 5.418v-3.91h.734l.008 3.91zm4.868-1.987c0-1.017.019-1.976.862-1.978.613 0 .818.591.798 1.417l-.646-.009c0-.483-.026-.654-.151-.654-.109 0-.209.239-.201 1.224.008.989.048 1.291.226 1.291.136 0 .142-.444.148-.748h.648c0 1.027-.204 1.47-.824 1.47-.843 0-.86-1.006-.86-2.013zm2.808.017c0-1.017-.011-1.964.876-1.964.874 0 .893.947.893 1.964 0 1.082-.047 1.994-.891 1.995-.882.001-.878-.979-.878-1.995zm1.115.025c0-.984-.059-1.274-.235-1.274-.167 0-.227.248-.227 1.232 0 .985.067 1.308.235 1.291.126-.012.227-.209.227-1.249zm7.705.554-.637-2.499.737-.008.269 1.333.285-1.333.712.008-.67 2.482v1.375h-.705zm3.071 1.417c-.742 0-.816-.741-.791-1.375l.646.008c0 .351-.017.646.22.646.099 0 .149-.098.149-.346 0-.593-.981-.7-.981-1.79 0-.573.177-1.108.864-1.108.569 0 .778.5.746 1.266l-.638-.008c0-.274.009-.545-.159-.545-.084 0-.159.057-.159.31 0 .638.98.628.98 1.779 0 .947-.447 1.163-.877 1.163zm3.694-3.917-.009.792h-.536v3.052h-.677v-3.053h-.543v-.798zm1.17 3.841v-3.826h1.438v.724h-.771l-.009.741h.722v.726h-.731v.907h.813l.008.728zm2.862.017v-3.851l.881.003.327 2.188.352-2.188.855-.008v3.848l-.57.008-.009-2.289-.36 2.289h-.545l-.335-2.28-.009 2.271zm4.511.059c-.743 0-.817-.741-.791-1.375l.646.008c0 .351-.017.646.22.646.099 0 .148-.098.148-.346 0-.593-.98-.7-.98-1.79 0-.573.176-1.108.864-1.108.569 0 .777.5.745 1.266l-.637-.008c0-.274.008-.545-.159-.545-.084 0-.159.057-.159.31 0 .638.98.628.98 1.779 0 .947-.446 1.163-.877 1.163zm-29.032.008c-.743 0-.817-.741-.792-1.375l.646.009c0 .35-.017.646.22.646.099 0 .148-.098.148-.347 0-.593-.98-.699-.98-1.79 0-.572.176-1.107.864-1.107.569 0 .777.5.745 1.266l-.636-.01c0-.273.008-.545-.16-.545-.083 0-.16.057-.16.311 0 .637.981.628.981 1.779.001.948-.445 1.163-.876 1.163zm-6.172-2.7c0-1.383 0-2.702 1.147-2.702.71 0 .996.616.968 1.738h-.681c0-.695-.079-.956-.286-.956-.392 0-.442.58-.442 1.92s.051 1.92.442 1.92c.323 0 .309-.652.318-1.065h.687c0 1.398-.354 1.848-1.005 1.848-1.148 0-1.148-1.333-1.148-2.703zm17.247 2.652c-.862 0-1.023-.797-.986-1.702h.695c0 .5.015.92.396.92.235 0 .351-.239.351-.594 0-.941-1.401-1-1.401-2.558 0-.818.249-1.47 1.098-1.47.678 0 1.014.478.968 1.572h-.678c0-.391-.041-.789-.322-.789-.227 0-.36.195-.36.558 0 .992 1.401.905 1.401 2.55-.001 1.354-.632 1.513-1.162 1.513z" fill="#a5333a"/></g></svg>