<svg xmlns="http://www.w3.org/2000/svg" viewBox="-8.3 -57 242 162"><g fill="#d50c32"><path d="M25.21 23.59a1.65 1.65 0 0 0-.54-1.2 2.5 2.5 0 0 0-1.85-.63 2 2 0 0 0-2 1.91v.75c0 3.51-2.54 5.69-6.63 5.69-3.87 0-6.79-2.45-6.79-5.69V10.2c0-3.25 2.92-5.69 6.79-5.69 4.35 0 7.16 2.24 7.16 5.69v.8a1.95 1.95 0 0 0 3.88 0v-.8C25.21 4.58 19.56 0 12.61 0S0 4.58 0 10.2v14.22c0 5.58 5.66 10.2 12.61 10.2s12.6-4.58 12.6-10.2z"/><path d="M43.18 13.31a2.61 2.61 0 0 0-2.52 1.44l-3.18 7.06a1 1 0 0 1-.72.57c-.14 0-.31 0-.64-.65l-3.4-6.29a3.51 3.51 0 0 0-3.59-2.1A3.94 3.94 0 0 0 25.69 15a2.44 2.44 0 0 0-.05 2.46l5 8.55c1.68 2.88 2.14 5.25 1.43 7.24-.78 2.15-3 3.86-6.67 5.23L24 39a2 2 0 0 0-1.41 2.45C23 42.81 24.71 43.33 26 43l1.26-.33C33.46 41 37.55 37.39 39.45 32l5.65-16.34a1.8 1.8 0 0 0-.27-1.6 2 2 0 0 0-1.64-.76zM58.62 13.22A9.4 9.4 0 0 0 54 14.55v-11A3.43 3.43 0 0 0 50.3 0c-2.3 0-3.72 1.33-3.72 3.55v29.28a1.79 1.79 0 0 0 1.89 2 2.3 2.3 0 0 0 1.41-.56l.17-.12 2.36-1.89a8.26 8.26 0 0 0 6.2 2.57c4.63 0 9-3.65 9-7.52v-6.57c0-3.87-4.38-7.52-9-7.52zm1.62 8.4v5.65c0 1.77-2.1 2.85-3.61 2.85-.84 0-3.6-.2-3.6-2.85v-6.53c0-2.48 2.49-2.85 4-2.85 2.12 0 3.24 1.88 3.24 3.73zM79.8 13.39c-5.12 0-10.41 2.8-10.41 7.35v6.53c0 4.4 5.78 7.35 11.19 7.35h2.73c1.78 0 2.41-.88 2.41-1.71s-.63-1.71-2.41-1.71h-2.73a4.28 4.28 0 0 1-4.28-3.94v-1.87c0-.11 0-.38.67-.38h9.83c2.06 0 3.62-1.14 3.62-2.66V20.7a6 6 0 0 0-1.86-4.33c-1.91-1.9-5.19-3-8.77-3zm3.2 6.43v.54c0 .24-.06.63-.52.63h-5c-.4 0-.67-.24-.67-.46v-.67s0-2.31 3-2.31c2.5.01 3.19 1.45 3.19 2.27M106.15 13.39h-1.35A8.13 8.13 0 0 0 99.51 16l-.74.76-3.41-2.73a2.63 2.63 0 0 0-1.66-.71 1.72 1.72 0 0 0-1.79 1.84v16.37c0 1.7 1.67 3.09 3.72 3.09s3.72-1.39 3.72-3.09V20.65l1-.79a6.22 6.22 0 0 1 3.82-1.13h2a3 3 0 0 0 3.2-2.67 3 3 0 0 0-3.2-2.67zM120.27 34h-8.91V5.35h11.71c2.81 0 5.94.08 8.41 1.5a8.71 8.71 0 0 1 4.27 7.53 8.87 8.87 0 0 1-3.17 7c-2.23 1.8-5.07 2.22-7.83 2.22h-4.47V34m2.3-16.56c2 0 4.44-.13 4.44-2.8s-2.18-2.77-4.19-2.77h-2.55v5.57zM158.2 23.55c0 6.48-5.22 10.92-11.75 10.92S134.7 30 134.7 23.55c0-6.86 5.06-11.3 11.76-11.3s11.75 4.43 11.75 11.3m-14.64-.29c0 5.73 1.39 6.15 2.89 6.15s2.89-.42 2.89-6.15c0-2.05-.05-5.77-2.89-5.77s-2.89 3.72-2.89 5.77M181.5 34.04h-6.03l-2.76-11.58h-.08l-2.88 11.58h-5.94l-6.91-21.37h8.25l2.76 10.46h.08l2.64-10.46h6.19l2.68 10.46 2.96-10.46h5.82zM210.15 26.89c-1.3 5.19-5.9 7.57-11 7.57a12.55 12.55 0 0 1-8.61-2.8 10.67 10.67 0 0 1-3.52-8 11.9 11.9 0 0 1 3.14-8.08 11.87 11.87 0 0 1 8.48-3.3c7.12 0 11.47 4.6 11.47 11.63V25h-14.27c-.12 2.29.71 4 3.22 4 1.88 0 2.93-.75 3.26-2.59l7.82.5m-8.36-6.06c0-2.09-.68-3.69-3-3.69-2.18 0-3.05 1.72-3 3.69zM219.13 17.07c.71-3 2.26-5.07 5.57-4.82l1.13.09v7.48a7 7 0 0 0-1.59-.21c-1.34 0-2.72.25-3.38 1.47a7.7 7.7 0 0 0-.58 3.68V34H212V12.67h7.07v4.4z"/></g></svg>