<?xml version="1.0" encoding="utf-8"?>
<svg enable-background="new 0 0 841.89 595.28" viewBox="-1.3 -144 678 678" xmlns="http://www.w3.org/2000/svg">
  <path d="m674.99 172.162v39.374h-128.526v-198.099h45.251v158.715h83.275zm-594.241 39.362c46.364 0 85.32-31.485 96.429-74.106l112.717 87.533 112.645-87.501v74.074h128.532v-39.372h-83.268v-158.715h-45.254v74.058l-108.036 83.921-24.153-18.772 51.702-40.182 56.313-43.747-32.135-24.997-108.058 83.938-24.148-18.771 108.038-83.919-32.178-24.966-112.717 87.547c-11.099-42.62-50.065-74.11-96.429-74.11h-80.749v198.087zm-35.507-39.372v-119.344h35.507c30.02 0 54.353 26.72 54.353 59.686 0 32.959-24.343 59.678-54.353 59.678h-35.507zm629.748 167.167c0-11.85-6.626-17.095-19.854-19.757-13.233-2.649-21.181-3.95-21.181-13.156 0-6.586 5.295-10.52 14.565-10.52 11.917 0 15.87 5.275 15.87 11.852l1.31 1.309h5.305l1.312-1.309c0-13.162-10.601-18.434-23.818-18.434-14.564 0-22.501 7.893-22.501 17.122 0 10.518 7.937 15.788 21.18 18.41 13.239 2.621 19.864 3.953 19.864 14.483 0 6.582-3.954 11.845-17.202 11.845-11.922 0-17.206-6.582-17.206-14.477l-1.311-1.312h-5.295l-1.306 1.312c0 11.845 9.263 21.063 25.139 21.063 17.201 0 25.139-7.896 25.139-18.431zm-56.915-13.141 1.31-1.311v-3.933c0-18.431-10.578-31.588-29.116-31.588-18.534 0-29.114 13.157-29.114 31.588v2.631c0 18.418 9.268 34.226 30.445 34.226 18.516 0 25.144-11.845 26.475-19.752l-1.311-1.312h-5.306l-1.31 1.312c-2.643 7.896-7.938 13.156-18.514 13.156-17.226 0-22.5-15.788-22.5-23.686l1.309-1.31h47.642c-.01 0-.01-.021-.01-.021zm-7.937-6.586h-39.695l-1.309-1.305c0-9.208 5.294-22.369 21.18-22.369 15.879 0 21.176 13.161 21.176 22.369l-1.342 1.305zm-58.236 35.535v-63.168l-1.312-1.313h-5.305l-1.31 1.313v63.168l1.31 1.312h5.305zm0-76.351v-7.897l-1.312-1.312h-5.305l-1.31 1.312v7.897l1.31 1.312h5.305zm-50.305 72.388c-13.238 0-21.175-9.203-21.175-27.639 0-18.431 7.937-27.639 21.175-27.639 13.243 0 21.179 9.208 21.179 27.639 0 18.436-7.936 27.639-21.179 27.639zm21.179-3.952c0 17.114-3.983 30.27-19.858 30.27-11.92 0-15.869-5.273-17.201-11.845l-1.31-1.311h-5.306l-1.311 1.311c1.311 10.515 9.269 18.412 25.138 18.412 17.227 0 27.803-10.521 27.803-36.849v-55.277l-1.311-1.307h-3.983l-1.309 1.307-1.309 7.917h-1.312c-2.642-5.274-9.269-10.546-21.18-10.546-18.512 0-27.802 14.479-27.802 34.221 0 19.748 9.27 34.225 27.802 34.225 11.923 0 18.538-5.254 21.18-10.518h1.312zm-86.041-51.326c13.244 0 22.496 10.52 22.496 27.639 0 17.126-9.264 27.639-22.496 27.639s-22.496-10.513-22.496-27.639c0-17.119 9.264-27.639 22.496-27.639zm0 61.864c17.207 0 30.443-11.849 30.443-34.225 0-22.374-13.236-34.221-30.443-34.221-17.201 0-30.443 11.847-30.443 34.221.01 22.376 13.252 34.225 30.443 34.225zm-39.693-2.623v-89.497l-1.332-1.312h-5.293l-1.312 1.312v89.497l1.312 1.312h5.293zm-47.657-59.241c13.239 0 22.498 10.52 22.498 27.639 0 17.126-9.269 27.639-22.498 27.639-13.232 0-22.5-10.513-22.5-27.639 0-17.119 9.268-27.639 22.5-27.639zm0 61.864c17.202 0 30.445-11.849 30.445-34.225 0-22.374-13.243-34.221-30.445-34.221-17.207 0-30.443 11.847-30.443 34.221 0 22.376 13.248 34.225 30.443 34.225zm-38.381-2.623v-39.485c0-17.093-9.269-26.328-23.822-26.328-9.265 0-17.222 3.95-21.177 10.546h-1.31l-1.311-7.912-1.311-1.312h-3.985l-1.31 1.312v63.169l1.31 1.312h5.306l1.311-1.312v-35.535c0-14.478 6.627-23.686 21.181-23.686 10.574 0 17.201 6.585 17.201 19.758v39.485l1.311 1.31h5.295l1.311-1.31zm-67.515 0v-39.485c0-17.093-9.269-26.328-23.822-26.328-9.265 0-17.202 3.95-21.177 10.546h-1.312v-34.221l-1.309-1.311h-5.306l-1.312 1.311v89.5l1.312 1.31h5.306l1.309-1.31v-35.534c0-14.481 6.629-23.687 21.18-23.687 10.577 0 17.204 6.585 17.204 19.756v39.495l1.311 1.31h5.295l1.311-1.34zm-113.826-31.602c0-18.431 9.27-27.639 22.499-27.639 13.231 0 18.516 7.897 19.868 15.793l1.311 1.312h5.306l1.31-1.312c-1.31-13.16-11.92-22.365-27.805-22.365-17.202 0-30.446 10.546-30.446 34.221 0 23.687 13.244 34.225 30.446 34.225 15.885 0 26.475-9.208 27.805-22.363l-1.31-1.311h-5.306l-1.311 1.311c-1.31 7.895-6.627 15.788-19.868 15.788-13.239 0-22.499-9.202-22.499-27.64zm-14.558 2.643 1.307-1.311v-3.933c0-18.431-10.596-31.588-29.114-31.588-18.511 0-29.113 13.145-29.113 31.578v2.631c0 18.416 9.27 34.226 30.445 34.226 18.517 0 25.143-11.85 26.475-19.752l-1.312-1.312h-5.283l-1.312 1.312c-2.641 7.892-7.938 13.156-18.516 13.156-17.202 0-22.499-15.79-22.499-23.686l1.312-1.311h47.601v-.02h.009zm-7.937-6.586h-39.733l-1.312-1.305c0-9.208 5.295-22.369 21.175-22.369 15.885 0 21.181 13.161 21.181 22.369zm-35.678-50.015v-3.948l-1.312-1.311h-68.866l-1.312 1.331v3.95l1.312 1.31h29.111l1.312 1.312v82.916l1.312 1.312h5.294l1.311-1.312v-82.916l1.312-1.312h29.112l1.342-1.31z" fill="#0076ce"/>
</svg>