<svg enable-background="new -153 -46 652 652" viewBox="-133.24 173.997 603.588 202.23" xmlns="http://www.w3.org/2000/svg"><path d="m-131 337.7h599.4v2.4h-599.4zm526.4-129.6 23.3 61.1h-54.7l23.7-61.1zm3.3 49.2-7.3-18.9-7.3 18.9zm35.7 53.5h-9.4c-4.1 0-7.1-2.3-8.3-5.4l-4.3-11.4h-42l-4.3 11.4c-1.1 3-4.1 5.4-8.3 5.4h-9l12-31.1h61.6zm26.6 0h-4.9l-47.4-120.6h-35.1l-46.9 120.6h-4.9c-4 0-7.1-3.1-7.1-7.1 0-.9.1-1.6.4-2.3l45.1-116.1c2.3-5.4 7.6-9.1 13.9-9.1h17.4 18.1c6.3 0 11.6 3.9 13.9 9.1l44.5 116.1c.3.7.3 1.4.3 2.3-.2 4-3.3 7.1-7.3 7.1zm-148.7-47.5h-27c-6.9 0-12.4-5.9-12.4-13v-12.1c0-7.1 5.6-13 12.4-13h27c6.9 0 12.4 5.9 12.4 13v12.1c0 7.1-5.6 13-12.4 13zm-1.7-23.9h-23.4v10.6h23.4zm-24.5-24.7h-24.3v83.6c0 7-5.6 12.6-12.3 12.6h-12.7-.1-12.7c-6.7 0-12.3-5.6-12.3-12.6v-83.6h-24.3c-6.9 0-12.3-5.6-12.3-12.6v-13.4c0-6.9 5.6-12.6 12.3-12.6h49.3 49.4c6.9 0 12.3 5.6 12.3 12.6v1.6h-61.6-.1-47.6v10.1h37v96h21v-96h51.1v1.7c.4 7-5.2 12.6-12.1 12.6zm-84.8 23.4v12.1c0 7.1-5.6 13-12.4 13h-27c-6.9 0-12.4-5.9-12.4-13v-12.1c0-7.1 5.6-13 12.4-13h27.1c6.7.2 12.3 5.9 12.3 13zm-14.2 1.3h-23.4v10.6h23.4zm-61.4 23.9h-27.8v10.4h27.9c7.4 0 13.3 6 13.4 13.3h-56.2v-37h41.4v-10.6h-41.4v-39h56.3v1.1c0 7.4-6 13.4-13.4 13.4h-27.9v10.4h27.9c7.4 0 13.4 6 13.4 13.4v11c-.2 7.6-6.2 13.6-13.6 13.6zm-65.6 33.1h79.1v1c0 7.4-6 13.4-13.4 13.4h-66.5c-7.4 0-13.4-6-13.4-13.4v-107.8c0-7.4 6-13.4 13.4-13.4h66.6c7.4 0 13.4 6 13.4 13.4v.7h-79.2zm-122.5 15.6c-37.9 0-68.6-30.7-68.6-68.6 0-37.7 30.7-68.4 68.6-68.4s68.6 30.7 68.6 68.4c-.1 37.9-30.8 68.6-68.6 68.6zm12.4-122.9-12.4 12.6h-25.7c-2.1-2.7-5.4-4.4-9.1-4.4-6.4 0-11.6 5.1-11.6 11.6 0 6.4 5.1 11.6 11.6 11.6 3.7 0 7-1.7 9.1-4.4h31.6l16.7-16.7zm16.1 16.2-19.4 19.4h-33.3l-30.7 30.7 10.1 10 26.4-26.4h33.3l23.6-23.6zm16.2 16.1-26.6 26.6h-33.3l-23.6 23.6 10.1 10 19.4-19.4h33.3l30.7-30.6zm-10 68.3c6.4 0 11.6-5.1 11.6-11.6 0-6.4-5.1-11.6-11.6-11.6-3.7 0-7 1.7-9.1 4.4h-31.4l-16.8 16.8 10.1 10 12.4-12.4h25.7c2.1 2.7 5.4 4.4 9.1 4.4zm-85.9 71h-14.1v3.6h9.9v3h-9.9v4.3h14.9v3h-18.2v-16.9h17.4zm26.9 11v-14h3.3v16.9h-4.9l-11.4-14v14h-3.3v-16.9h4.9zm25-14.6c3.7 0 6.9 1.3 9.3 3.9l-3.1 1.6c-1.7-1.7-3.9-2.4-6.3-2.4-2.3 0-4 .6-5.6 1.7-1.4 1.1-2.1 2.6-2.1 4.3s.7 3.1 2.1 4.3c1.4 1.1 3.3 1.7 5.6 1.7 3.4 0 5.7-1.3 6.9-3.7h-7.6v-3h11.5v.6c0 2.7-1 5-3 6.6-2 1.7-4.7 2.6-8 2.6-3 0-5.4-.7-7.6-2.1-2.3-1.7-3.6-4-3.6-6.7s1.1-5 3.6-6.7c2.2-2 4.7-2.7 7.9-2.7zm24.4 17.4h-3.3v-16.9h3.3zm27.9-2.8v-14h3.3v16.9h-4.9l-11.4-14v14h-3.3v-16.9h4.9zm32.1-11h-14.1v3.6h9.9v3h-9.9v4.3h14.7v3h-18v-16.9h17.4zm28 0h-14.1v3.6h9.9v3h-9.9v4.3h14.9v3h-18.2v-16.9h17.4zm28.4-1.6c1 1 1.6 2.3 1.6 3.9 0 2.9-1.4 4.4-4.1 5.1l4.6 6.4h-3.7l-4.4-6.1h-8.3v6.1h-3.3v-16.9h13.5c1.7.1 3.1.5 4.1 1.5zm-14.5 1.6v4.7h9.9c2 0 3-.7 3-2.3s-1-2.4-3.1-2.4zm30.1 13.8h-3.3v-16.9h3.3zm27.7-2.8v-14h3.3v16.9h-4.9l-11.4-14v14h-3.3v-16.9h4.9zm25-14.6c3.7 0 6.9 1.3 9.3 3.9l-3.1 1.6c-1.7-1.7-3.9-2.4-6.3-2.4-2.3 0-4 .6-5.6 1.7-1.4 1.1-2.1 2.6-2.1 4.3s.7 3.1 2.1 4.3c1.4 1.1 3.3 1.7 5.6 1.7 3.4 0 5.7-1.3 6.9-3.7h-7.6v-3h11.7v.6c0 2.7-1 5-3 6.6-2 1.7-4.7 2.6-8 2.6-3 0-5.4-.7-7.6-2.1-2.3-1.7-3.6-4-3.6-6.7s1.1-5 3.6-6.7c2-2 4.6-2.7 7.7-2.7zm52.3 3.6h-8v13.9h-3.3v-13.9h-8v-3h19.4v3zm26.7 0h-14.1v3.6h9.9v3h-9.9v4.3h14.9v3h-18.2v-16.9h17.4zm20.6-3.6c4.1 0 7.6 1.6 10.1 4.6l-3 1c-1.9-1.7-4.1-2.7-6.9-2.7-2.4 0-4.3.6-5.7 1.7s-2.1 2.6-2.1 4.3c0 1.9.7 3.3 2.1 4.3 1.4 1.1 3.3 1.6 5.7 1.6 2.9 0 5.1-.9 6.9-2.7l2.9 1.6c-2.4 2.9-5.7 4.1-9.7 4.1-3.4 0-6-.9-8.1-2.6s-3.1-3.9-3.1-6.4c0-2.7 1.1-4.9 3.6-6.6 1.7-1.5 4.3-2.2 7.3-2.2zm23.6 7.2h13v-6.6h3.3v16.9h-3.3v-7.3h-13v7.3h-3.3v-16.9h3.3zm44.1 7.4v-14h3.3v16.9h-4.9l-11.4-14v14h-3.3v-16.9h4.9zm24.7-14.6c2.9 0 5.4.7 7.4 2.3 2.4 1.7 3.6 4 3.6 6.7s-1.1 5-3.6 6.7c-2 1.4-4.6 2.1-7.6 2.1s-5.6-.7-7.6-2.1c-2.3-1.7-3.6-4-3.6-6.7s1.1-5 3.6-6.7c2.4-1.6 4.8-2.3 7.8-2.3zm-5.5 13.3c1.4 1.1 3.3 1.7 5.6 1.7s4.1-.6 5.6-1.7c1.4-1.1 2.1-2.6 2.1-4.3s-.7-3.1-2.1-4.3c-1.4-1.1-3.3-1.7-5.6-1.7s-4.1.6-5.6 1.7c-1.4 1.1-2.1 2.6-2.1 4.3-.1 1.7.6 3.2 2.1 4.3zm30.2 1.2h13v3h-16.3v-16.9h3.3zm32.3-14.5c2.9 0 5.4.7 7.4 2.3 2.4 1.7 3.6 4 3.6 6.7s-1.1 5-3.6 6.7c-2 1.4-4.6 2.1-7.6 2.1s-5.6-.7-7.6-2.1c-2.3-1.7-3.6-4-3.6-6.7s1.1-5 3.6-6.7c2.4-1.6 5-2.3 7.8-2.3zm-5.5 13.3c1.4 1.1 3.3 1.7 5.6 1.7s4.1-.6 5.6-1.7c1.4-1.1 2.1-2.6 2.1-4.3s-.7-3.1-2.1-4.3c-1.4-1.1-3.3-1.7-5.6-1.7s-4.1.6-5.6 1.7c-1.4 1.1-2.1 2.6-2.1 4.3-.1 1.7.6 3.2 2.1 4.3zm37.2-13.3c3.7 0 6.9 1.3 9.3 3.9l-3.1 1.6c-1.7-1.7-3.9-2.4-6.3-2.4-2.3 0-4 .6-5.6 1.7-1.4 1.1-2.1 2.6-2.1 4.3s.7 3.1 2.1 4.3c1.4 1.1 3.3 1.7 5.6 1.7 3.4 0 5.7-1.3 6.9-3.7h-7.6v-3h11.7v.6c0 2.7-1 5-3 6.6-2 1.7-4.7 2.6-8 2.6-3 0-5.4-.7-7.6-2.1-2.3-1.7-3.6-4-3.6-6.7s1.1-5 3.6-6.7c2.2-2 4.7-2.7 7.7-2.7zm29.8 8.3 7.1-7.7h4l-9.6 10.1v6.6h-3.3v-6.6l-9.6-10.1h4z" fill="#0896cf"/></svg>