<svg viewBox="-9 -52 270 180" xmlns="http://www.w3.org/2000/svg"><path d="m81.858 13.225 6.132 22.039h-12.694zm-11.134 37.489-5.581 18.286h32.611l-5.244-18.286zm85.088-50.714h-62.586v19.646h19.744v49.354h31.782c-1.971-1.217-15.447-11.918-15.447-31.883 0-16.61 10.075-32.849 26.507-37.117m10.843 51.332c7.386 0 13.316-6.134 13.316-13.872 0-7.706-5.549-14.673-13.04-14.673-7.517 0-13.416 6.967-13.416 14.673 0 7.738 5.54 13.872 13.14 13.872m65.653-7.952-12.702-43.38h-32.533v69h20.322v-43.253h.142l12.583 43.253h32.811v-69h-20.514v43.38zm-192.933 25.62 5.87-19.339h-21.771v-5.856h23.538l5.611-18.55h-29.149v-5.609h30.759l5.936-19.646h-60.169v69zm0 0" fill="#1175c7"/></svg>