<svg enable-background="new -108.3 154.3 800 205" viewBox="0 0 223 203" xmlns="http://www.w3.org/2000/svg" xmlns:xlink="http://www.w3.org/1999/xlink"><linearGradient id="a"><stop offset="0" stop-color="#38c4f2"/><stop offset="1" stop-color="#3783c4"/></linearGradient><linearGradient id="b" gradientTransform="matrix(1 0 0 -1 0 514.8)" gradientUnits="userSpaceOnUse" x1="-72.3122" x2="655.364" xlink:href="#a" y1="204.2994" y2="325.2602"/><linearGradient id="c" gradientTransform="matrix(1 0 0 -1 0 514.8)" gradientUnits="userSpaceOnUse" x1="-72.8685" x2="654.8085" xlink:href="#a" y1="207.6483" y2="328.6094"/><linearGradient id="d" gradientTransform="matrix(1 0 0 -1 0 514.8)" gradientUnits="userSpaceOnUse" x1="-83.8252" x2="643.8511" xlink:href="#a" y1="273.5586" y2="394.5196"/><g transform="matrix(1.322319 0 0 1.322319 98.909523 -239.03714)"><path d="m-25.3 288.2c-7.6-9-20-12.4-31.1-8.4s-18.4 14.6-18.4 26.4 7.4 22.4 18.6 26.4c11.1 4 23.6.7 31.1-8.4 13-15.4 34.7-20.4 53.1-12.3-.6-3.9-.6-7.7 0-11.6-18.6 8.5-40.3 3.4-53.3-12.1z" fill="url(#b)"/><path d="m70.6 278.7c-19.9-3.4-35-19.7-37.1-39.9-3 2.4-6.4 4.4-10 5.7 16.3 11.9 22.9 33.1 15.9 52.1-4 11.1-.7 23.6 8.3 31.1 9 7.6 21.9 8.7 32.1 2.9s15.7-17.6 13.6-29.3c-2.1-11.5-11.2-20.6-22.8-22.6z" fill="url(#c)"/><path d="m14.3 236.7c11.6-2 20.7-11.1 22.9-22.9 2-11.6-3.4-23.3-13.6-29.3-10.3-5.9-23.1-4.7-32.1 2.9s-12.4 20-8.3 31.1c7 19 .4 40.3-15.9 52.1 3.6 1.4 7 3.3 10 5.7 1.9-19.9 17.1-36.2 37-39.6z" fill="url(#d)"/></g></svg>