<svg height="103.536" viewBox="0 0 103.536 103.536" width="103.536" xmlns="http://www.w3.org/2000/svg"><circle cx="51.768" cy="51.768" fill="#bd1220" r="51.768"/><circle cx="51.768" cy="51.768" fill="#fff" r="50.743"/><circle cx="51.768" cy="51.768" fill="#bd1220" r="47.155"/><path d="m20.227 77.001v-35.116c0-8.478 6.872-15.35 15.35-15.35h32.382c11.816 0 19.201 12.792 13.293 23.025-.45.78-.968 1.519-1.548 2.208 7.608 9.041 2.575 22.928-9.059 24.996-.887.157-1.786.237-2.686.237h-26.705v-10.094h26.705c4.046-.002 6.574-4.383 4.548-7.887-.938-1.624-2.672-2.625-4.548-2.626h-26.705v-9.252h26.705c4.046-.002 6.574-4.383 4.549-7.887-.939-1.625-2.673-2.626-4.549-2.627h-32.382c-2.904 0-5.257 2.354-5.257 5.257v35.116z" fill="none" stroke-width="2.051232"/><g transform="matrix(.157692 0 0 .157692 115.015839 21.455097)"><path d="m-583.86817 338.41477v-203.49843a88.954402 88.954402 0 0 1 88.9544-88.954399h187.65724a88.954402 88.954402 0 0 1 68.06469 146.226409 88.954402 88.954402 0 0 1 -68.06469 146.22642z" fill="#fff"/><path d="m-462.01284 338.4917v-58.50981h154.75631a30.463835 30.473852 0 0 0 0-60.9477h-154.75631v-53.63398h154.75631a30.463835 30.473855 0 0 0 0-60.9477h-187.65724a30.463835 30.473852 0 0 0 -30.46384 30.47385v203.56534z" fill="#bd1220"/></g></svg>