<svg viewBox="-29 -3 300 50" xmlns="http://www.w3.org/2000/svg"><path d="m.173 32.838c0 .538.543.652 1.381.652 1.817 0 4.381-.114 5.509-.316-.142-2.914-.211-6.01-.192-10.343h13.221c2.629 0 4.404-.254 4.934-2.416h-18.147l.035-8.97h12.176c3.067 0 4.515-.029 5.3-.319.802-.393 1.546-.992 2.034-2.102-3.237 0-15.688 0-20.048 0-2.416.12-5.04.338-6.376.533.154.901.25 2.134.244 4.16zm47.381-22.11c6.671 0 14.156 3.221 14.132 10.38-.03 6.956-5.975 10.442-13.71 10.442-7.188 0-14.234-3.652-14.207-10.445.026-6.703 6.156-10.35 13.724-10.377zm.247-2.284c-12.24 0-19.938 5.56-19.965 13.002-.02 5.253 5.64 12.391 19.841 12.391 12.977 0 19.851-6.24 19.877-12.908.023-6.099-6.637-12.485-19.685-12.485zm29.321 2.788c1.194-.14 3.006-.19 4.666-.19 4.94 0 9.908 1.278 9.894 5.008-.011 2.786-3.185 4.329-5.666 4.753-1.084.21-7.348.21-8.929.095zm-6.619 15.189c-.014 3.23-.123 5.512-.286 7.069.918 0 3.294-.015 5.428-.132 1.032-.077 1.397-.258 1.399-.956l.035-9.336c1.546-.011 3.121 0 4.605 0 1.759.012 2.352.222 3.48 1.194 5.657 4.574 8.117 6.452 10.183 7.772 1.941 1.223 3.542 1.53 5.645 1.53 1.816 0 3.871-.138 4.519-.347l.094-.209c-1.646-.818-3.734-2.007-8.262-5.4-3.776-2.791-5.595-4.267-6.928-5.366 2.116-.614 8.22-2.481 8.236-6.363.021-5.196-6.771-7.047-17.082-7.047-4.235 0-8.942.322-11.157.568.148 1.231.145 2.158.138 4.058zm64.249 3.859c-1.787.47-5.925 1.072-9.737 1.072-11.198 0-17.156-4.369-17.136-10.259.025-6.624 7.51-10.228 16.003-10.228 3.526 0 6.387.462 8.398 1.11 1.052.292 1.941.381 2.449.054.52-.3.884-.88.947-1.551-1.108-.76-5.531-2.034-11.433-2.034-5.859 0-11.098.911-15.509 3.282-5.007 2.687-7.237 6.308-7.251 9.585-.026 7.301 8.125 12.526 22.462 12.526 4.335 0 7.738-.57 9.12-1.138.997-.52 1.702-1.295 1.946-2.311zm4.451 2.042 1.17.778c1.86.218 6.913.39 13.3.39 5.412 0 7.938-.081 8.935-.172 1.727-.312 3-1.228 3.615-2.349l-.153-.082c-2.964.158-7.622.182-11.132.182-3.755 0-7.476-.077-9.071-.308l.032-8.759h12.549c2.567.007 3.889-.158 4.859-2.418h-17.4l.031-8.14h10.168c3.398 0 4.817 0 5.779-.261.935-.441 1.763-1.159 2.059-2.159-5.688 0-13.75 0-19.012 0-2.084.086-4.369.326-5.856.545.206 1.46.198 3.054.19 4.885zm104.245-11.441c-1.127 6.391-11.89 11.791-23.085 12.062-11.197.275-19.357-4.683-18.227-11.07 1.131-6.391 11.124-11.791 22.316-12.066 8.817-.215 16.457 2.877 18.454 7.293.275.714.679 1.778.642 2.725-.006.347-.037.698-.1 1.056zm-4.518 10.174c-7.488 4.894-19.564 8.127-31.36 8.127-8.147 0-16.206-1.768-21.678-4.389 0 0 .136.012.159-.024.02-.037 17.876-29.059 17.876-29.059s-2.448-.824-4.051.601c-.935.802-3.692 1.937-6.01 2.563-3.974 1.11-4.22 1.096-5.785 1.541-1.918.545-2.736 2.902-2.736 2.902s8.09-1.493 8.159-1.508c.069-.018.23-.092.23-.092s-.129.104-.167.164c-.04.06-12.144 20.075-12.173 20.121-.031.046.04.142.04.142-4.048-3.02-7.023-6.848-6.665-10.934.87-9.927 17.324-17.973 35.947-17.973 7.467 0 14.236 1.307 19.614 3.509.178.071.71.254.884.327-.197-.026-.752-.158-.952-.181-2.058-.236-4.281-.325-6.648-.265-14.03.35-26.555 7.293-27.972 15.502-1.415 8.213 8.81 14.586 22.845 14.235 7.517-.188 15.037-2.203 20.4-5.365.294-.174 1.385-.897 1.799-1.166-.213.208-1.26.9-1.756 1.222zm-27.973-31.055c-22.534 0-41.607 9.798-42.603 21.174-.996 11.375 16.466 21.175 38.999 21.175 22.534 0 41.613-9.8 42.607-21.175.996-11.376-16.467-21.174-39.003-21.174" fill="#cfd0d3"/></svg>