<svg viewBox="-1 -28 201 201" xmlns="http://www.w3.org/2000/svg"><path d="m177.282 141.968c11.026-3.747 19.609-16.445 21.669-32.409v-4.619h-56.531v37.035h34.854zm21.677-104.914v-4.179c-2.164-16.66-11.385-29.788-23.14-32.872h-33.391v37.043h56.531zm-198.959 67.894v4.571c2.046 15.981 10.629 28.702 21.685 32.456h34.679v-37.035h-56.364zm23.133-104.912c-11.738 3.083-20.983 16.219-23.133 32.902v4.149h56.364v-37.043h-33.231zm175.867 52.464h-56.532v37.043h56.532zm-127.208 89.492h55.303v-37.027h-55.303zm55.303-141.989h-55.303v37.043h55.303zm-127.046 89.492h56.363v-37.043h-56.363z" fill="#ee2e24"/></svg>