<svg viewBox="-.436 -.226 120.879 119.114" xmlns="http://www.w3.org/2000/svg" xmlns:xlink="http://www.w3.org/1999/xlink"><clipPath id="a"><path d="m0 0h58.240002v28h-58.240002z"/></clipPath><g clip-path="url(#a)" transform="matrix(4.298098 0 0 4.298098 -.591827 -.983784)"><path d="m25.76099531 9.45930858h-3.0537-11.5718c-1.26279 0-2.29598-1.0332-2.29598-2.296s1.03319-2.29599 2.29598-2.29599h11.5718 1.4006c-2.5256-2.80111-6.1762-4.56903-10.2402-4.56903-7.57674 0-13.73 6.15326-13.73 13.73 0 7.5768 6.15326 13.7301 13.73 13.7301 7.5768 0 13.7301-6.1533 13.7301-13.7301 0-1.676-.2985-3.3062-.8725-4.79859-.2755.13776-.6199.22961-.9643.22961zm-12.1458 13.27088h-3.67361c-1.01024 0-1.83679-.8266-1.83679-1.8368 0-1.0103.82655-1.8368 1.83679-1.8368h3.65061c1.0103 0 1.8368.8265 1.8368 1.8368 0 1.0102-.8036 1.8368-1.8138 1.8368zm5.6022-6.4059h-8.7018c-1.12505 0-2.0664-.9184-2.0664-2.0664 0-1.125.91839-2.0664 2.0664-2.0664h8.7018c1.125 0 2.0664.9184 2.0664 2.0664 0 1.1251-.9414 2.0664-2.0664 2.0664z" fill="#c00000"/><path d="m19.21741875 12.19184327h-8.70181c-1.125033 0-2.06639.918397-2.06639 2.06639 0 1.12504.918397 2.0664 2.06639 2.0664h8.70181c1.125 0 2.0664-.9184 2.0664-2.0664 0-1.125032-.9414-2.06639-2.0664-2.06639z" fill="#fff"/><path d="m13.61536047 19.05658937h-3.67359c-1.010233 0-1.83679.826557-1.83679 1.83679 0 1.01024.826557 1.8368 1.83679 1.8368h3.65063c1.01024 0 1.8368-.82656 1.8368-1.8368 0-1.010233-.8036-1.83679-1.81384-1.83679z" fill="#fff"/><path d="m28.05702016 7.16361452c0-1.26279-1.0332-2.29599-2.296-2.29599h-1.65311c1.12504 1.2628 2.04343 2.73223 2.64039 4.36239.75768-.36736 1.30872-1.148 1.30872-2.0664z" fill="#c00000"/><path d="m22.70739961 4.86762452h-11.57181c-1.26279 0-2.29599 1.0332-2.29599 2.29599 0 1.2628 1.0332 2.296 2.29599 2.296h11.57181 3.0537c.3444 0 .6658-.06888.9643-.2296-.597-1.63016-1.5154-3.09959-2.6404-4.36239z" fill="#fff"/></g></svg>