<svg height="100" width="100" xmlns="http://www.w3.org/2000/svg"><g fill="#0096d6" transform="matrix(1.25 0 0 -1.25 -67.822513 702.43127)"><path d="m0 0c0 14.524-11.773 26.297-26.297 26.297-.396 0-.79-.01-1.182-.028l-5.379-14.784h4.685c2.787 0 4.289-2.146 3.335-4.767l-6.635-18.234-5.571.001 7.12 19.544h-4.189l-7.12-19.544h-5.573l8.372 23h.001l5.036 13.841c-11.074-3.098-19.197-13.263-19.197-25.326 0-12.421 8.613-22.83 20.192-25.583l4.88 13.411h.004l8.609 23.657h10.261c2.79 0 4.291-2.146 3.337-4.767l-5.83-16.015c-.444-1.22-1.869-2.218-3.167-2.218h-7.396l-5.374-14.77c.259-.007.52-.012.781-.012 14.524 0 26.297 11.774 26.297 26.297" transform="matrix(1.5180439 0 0 1.5180439 134.17801149524 521.94501651624)"/><path d="m0 0h-4.187l-5.864-16.089h4.187z" transform="matrix(1.5180439 0 0 1.5180439 118.41310585917 534.15464360394)"/></g></svg>