<svg enable-background="new 0 0 2499.8 1044" viewBox="0 -91 858 858" xmlns="http://www.w3.org/2000/svg"><path d="m802 192.2h-748.5v-138.7h748.5zm53.4-192.2h-855.4v245.7h855.4z" fill="#00b188"/><path d="m-.08-1.372v246.567zm265.265 370.389v286.407h-68.993v-118.44h-127.278v118.44h-68.994v-286.407h68.994v113.056h127.278v-113.056zm199.841 0h-122.523v286.407h67.802v-88.291h54.721c68.993 0 115.384-34.456 115.384-99.058 0-64.603-46.391-99.058-115.384-99.058zm-5.948 145.357h-48.773v-92.597h48.773c34.496 0 51.151 19.38 51.151 46.298s-15.467 46.299-51.151 46.299zm396.112-145.357v52.76h-148.69v62.449h135.607v50.605h-135.607v67.833h149.881v52.76h-214.117v-286.407z" fill="#f6f6f6"/></svg>