<?xml version="1.0" encoding="utf-8"?>
<svg width="100px" height="100px" viewBox="0 0 39 39" xmlns="http://www.w3.org/2000/svg">
  <g transform="matrix(1, 0, 0, 1, -0.157596, -0.337051)">
    <title>Layer 1</title>
    <g stroke="null" id="svg_1" fill="none">
      <path stroke="null" id="svg_2" d="m2.58469,32.45l-1.3,0l0,6.3l1.3,0l0,-2.6l2.8,0l0,2.6l1.3,0l0,-6.3l-1.3,0l0,2.5l-2.8,0l0,-2.5zm10,3.6c0,1 -0.5,1.6 -1.4,1.6c-0.9,0 -1.4,-0.6 -1.4,-1.6l0,-3.5l-1.3,0l0,3.6c0,1.8 1,2.8 2.7,2.8c1.7,0 2.7,-1 2.7,-2.8l0,-3.5l-1.3,0l0,3.4zm12.2,-3.6l-1.4,4.3l-1.4,-4.3l-1.3,0l2.1,6.3l1.1,0l1.4,-4.1l1.4,4.1l1.1,0l2.2,-6.3l-1.3,0l-1.4,4.3l-1.4,-4.3l-1.1,0zm9.8,2.4l-2.3,0l0,-1.2l3.3,0l0,-1.2l-4.60001,0l0,6.3l4.7,0l0,-1.2l-3.4,0l0,-1.5l2.3,0l0,-1.2zm2.69999,-2.4l1.30001,0l0,6.3l-1.30001,0l0,-6.3zm-18.1,5l0.6,1.3l1.3,0l-2.7,-6.2l-1.1,0l-2.8,6.3l1.3,0l0.5,-1.2l0,-0.1l2.9,0l0,-0.1zm-1.4,-3.4l0.9,2.1l0.1,0.1l-1.9,0l0.1,-0.1l0.8,-2.1z" style="fill: rgb(246, 246, 246);"/>
      <path stroke="null" id="svg_3" d="m17.28469,22.65s0.1,-0.1 0,-0.1c-4.4,-9.5 -10.4,-16.8 -10.4,-16.8s-3.3,3.1 -3,6.2c0.1,2.3 1.9,3.7 1.9,3.7c2.8,2.8 9.7,6.2 11.3,7c0.1,0 0.1,0.1 0.2,0m-1.1,2.4c0,-0.1 -0.1,-0.1 -0.1,-0.1l-11.5,0.4c1.2,2.2 3.3,3.9 5.5,3.4c1.5,-0.4 4.9,-2.7 6,-3.5l0.1,-0.2m0.2,-1.1c0.1,-0.1 0,-0.2 0,-0.2c-5,-3.4 -14.8,-8.6 -14.8,-8.6c-0.9,2.7 0.3,4.9 0.3,4.9c1.2,2.6 3.6,3.4 3.6,3.4c1.1,0.4 2.2,0.5 2.2,0.5l8.6,0c0,0.1 0.1,0 0.1,0m0.8,-23.1c-0.5,0 -1.8,0.3 -1.8,0.3c-3,0.8 -3.8,3.5 -3.8,3.5c-0.6,1.7 0,3.6 0,3.6c1,4.5 6,11.8 7.1,13.4c0.1,0.1 0.1,0 0.1,0c0.1,0 0.1,-0.1 0.1,-0.1c1.6,-16.4 -1.7,-20.7 -1.7,-20.7m3.7,20.9c0.1,0 0.2,-0.1 0.2,-0.1c1.1,-1.6 6.1,-8.9 7.1,-13.4c0,0 0.5,-2.2 0,-3.6c0,0 -0.7,-2.8 -3.8,-3.5l-1.8,-0.4s-3.4,4.4 -1.7,20.8l0,0.2m2.8,3.2s-0.1,0 -0.1,0.1l0,0.2c1.1,0.8 4.4,3.1 6,3.6c0,0 3,1 5.50001,-3.4l-11.40001,-0.5zm14.5,-9.7s-9.7,5.2 -14.8,8.6c0,0 -0.1,0.1 -0.1,0.2c0,0 0,0.1 0.1,0.1l8.8,0s0.9,0 2,-0.5c0,0 2.4,-0.8 3.7,-3.5c0,-0.1 1.09999,-2.3 0.3,-4.9m-15.7,7.4s0.1,0.1 0.2,0c1.6,-0.8 8.5,-4.3 11.3,-7c0,0 1.8,-1.4 1.90001,-3.7c0.2,-3.2 -3,-6.2 -3,-6.2s-6,7.2 -10.40001,16.7c0,0 -0.1,0.1 0,0.2" fill="#CF0A2C"/>
    </g>
  </g>
</svg>