<svg viewBox="-36 -43 1070 500" xmlns="http://www.w3.org/2000/svg"><path d="m0 0v27.367h194.64844v-27.367zm222.22657 0v27.367h277.3828c-.00001 0-28.33312-27.367-65.85937-27.367zm331.79687 0v27.367h167.8125l-9.96094-27.367zm288.125 0-9.96094 27.367h166.28906v-27.367zm-842.14844 53.22221v27.366992h194.64844v-27.366992zm222.22657.038765v27.328227h309.57031c0 .000012-3.61563-21.062816-9.92188-27.328227zm331.79687 0v27.328227h186.21094l-9.21876-27.328227zm268.20312 0-9.21875 27.328227h185.46875v-27.328227zm-766.289064 53.183445v27.40575h84.296874v-27.40575zm222.226574 0v27.40575h84.29686v-27.40575zm166.28906 0v27.40575h84.29687c.00001 0 5.35156-14.47302 5.35156-27.40575zm165.50781 0v27.40575h149.45313l-9.96094-27.40575zm193.90625 0-10 27.40575h150.19531v-27.40575zm-747.929694 53.26098v27.36698h84.296874v-27.36698zm222.226574 0v27.36698h215.3125c.00001-.00001 18.01124-14.04228 23.74999-27.36698zm331.79687 0v27.36698h84.29687v-15.23403l5.35156 15.23403h154.41407l5.74219-15.23403v15.23403h84.29687v-27.36698h-158.24219l-8.39844 23.18053-8.43749-23.18053zm-554.023444 53.22221v27.36698h84.296874v-27.36698zm222.226574 0v27.36698h239.06249c-5.73999-13.28128-23.74999-27.36698-23.74999-27.36698zm331.79687 0v27.36698h84.29687v-27.36698zm99.60937 0 10.19532 27.36698h115.78125l9.6875-27.36698zm150.19532 0v27.36698h84.29687v-27.36698zm-803.828134 53.22221v27.36698h84.296874v-27.36698zm222.226574 0v27.36698h84.29686v-27.36698zm166.28906 0v27.36698h89.64843c.00002-12.91533-5.35156-27.36698-5.35156-27.36698zm165.50781 0v27.36698h84.29687v-27.36698zm118.74999 0 9.88282 27.36698h77.61718l9.96094-27.36698zm131.0547 0v27.36698h84.29687v-27.36698zm-858.2422 53.22221v27.40575h194.64844v-27.40575zm220.70314 0v27.40575h299.64843c6.30625-6.27533 9.92188-27.40575 9.92188-27.40575zm333.3203 0v27.40575h138.71094v-27.40575zm192.34375 0 10.15625 27.40575h39.49219l9.53125-27.40575zm111.87501 0v27.40575h140.23437v-27.40575zm-858.2422 53.26097v27.367h194.64844v-27.367zm220.70314 0v27.32824h211.52343c37.52624-.00002 65.85937-27.32824 65.85937-27.32824zm333.3203 0v27.367h138.71094v-27.367zm211.60157 0 9.76563 27.28946 1.67968.03878 9.92188-27.32824zm92.61719 0v27.367h140.23437v-27.367z" fill="#1f70c1"/></svg>