<svg height="402.816901" viewBox="0 0 400 402.81690141" width="400" xmlns="http://www.w3.org/2000/svg"><g fill-rule="evenodd" transform="matrix(1.033652 0 0 1.033327 -7.854962 -7.502221)"><path d="m225.666 21.18c-1.963.32-2.348.755-2.671 3.02-.733 5.143.014 226.926.767 227.758 1.082 1.195 5.909-.853 6.378-1.003.47-.149 150.031-145.926 150.624-147.427.822-2.083 1.236-1.573 1.236-42.671 0-32.449-.087-38.423-.568-39.081-.586-.802-150.974-1.378-155.766-.596m-62.666 126.049c-.44.236-1.285 1.189-1.879 2.119-1.542 2.417-137.659 140.632-138.072 140.786-.592.221-.553 3.154-1.089 3.817-.918 1.133-1.119 84.892-.212 86.881.683 1.5 146.144.768 146.144.768l1.054-.829c.58-.456 1.054-1.188 1.054-1.626 0-.439.177-1.129.394-1.534.849-1.587.543-228.852-.31-229.705-.887-.887-5.814-1.357-7.084-.677" fill="#274852"/><path d="m23.666 21.181c-.954.155-1.896.538-2.094.85-.718 1.135-.466 183.657.255 184.687.345.492.795.792 1 .665s.373-.044.373.183c0 .533 2.393.098 3.2-.581.33-.278 3.804-2.22 4.166-2.919.34-.658 171.067-171.545 172.034-172.439 7.247-6.693 8.17-9.377 3.589-10.439-1.857-.431-179.87-.437-182.523-.007m352.781 178.507c-5.446 5.316-167.521 172.312-167.724 172.312-.204 0-2.723 2.015-2.723 4.955 0 2.395.567 4.07 1.499 4.427 1.603.616 173.064.226 173.685-.394.928-.929.942-179.74.013-181.588-.966-1.924-2.584-1.826-4.75.288" fill="#7cbc4c"/></g></svg>