<svg height="402.816901" viewBox="0 0 400 402.81690141" width="400" xmlns="http://www.w3.org/2000/svg"><g fill-rule="evenodd"><path d="m225.405 14.384c-2.029.33-2.427.78-2.761 3.12-.757 5.315.015 234.489.793 235.349 1.118 1.235 6.108-.882 6.593-1.037.486-.154 155.08-150.789 155.692-152.34.85-2.152 1.278-1.625 1.278-44.093 0-33.53-.09-39.704-.587-40.383-.606-.829-156.055-1.424-161.008-.616m-64.775 130.249c-.455.244-1.328 1.229-1.942 2.19-1.594 2.498-142.291 145.319-142.718 145.478-.612.228-.572 3.259-1.126 3.944-.949 1.171-1.157 87.721-.219 89.777.706 1.55 151.062.793 151.062.793l1.089-.856c.6-.471 1.09-1.228 1.09-1.68 0-.454.183-1.167.407-1.586.878-1.639.561-236.479-.32-237.36-.917-.917-6.01-1.402-7.323-.7" fill="#fff"/><path d="m16.607 14.385c-.986.16-1.959.556-2.164.878-.742 1.173-.482 189.778.264 190.842.356.508.821.818 1.033.687s.386-.045.386.189c0 .551 2.473.102 3.307-.6.342-.287 3.932-2.294 4.307-3.016.351-.68 176.823-177.262 177.823-178.186 7.491-6.916 8.445-9.69 3.71-10.787-1.92-.445-185.923-.452-188.666-.007m364.653 184.456c-5.629 5.493-173.158 178.054-173.368 178.054-.211 0-2.815 2.083-2.815 5.121 0 2.474.586 4.205 1.55 4.574 1.657.637 178.888.234 179.53-.407.959-.96.973-185.73.013-187.64-.998-1.988-2.671-1.887-4.91.298" fill="#7cbc4c"/></g></svg>