<svg xmlns="http://www.w3.org/2000/svg" viewBox="2.9 -30 622 622"><g fill="#d40000"><path d="M107.116 519.019c-18.107 0-19.748-28.069-19.748-41.391 0-24.536 4.361-44.472 21.182-44.472 13.952 0 19.15 17.032 19.15 37.206 0 22.863-4.588 48.262-20.584 48.657m.222-95.273c-31.858 0-50.774 21.877-50.774 54.488 0 30.83 19.779 50.153 50.552 50.153 32.645 0 51.361-23.101 51.361-54.718 0-30.746-19.744-49.923-51.139-49.923M289.53 423.608c-13.76 0-24.337 7.952-31.637 18.977-4.365-12.51-14.569-18.977-27.627-18.977-12.088 0-24.574 7.522-30.601 17.512v-15.659h-28.671v100.912l28.671-.019v-60.706c0-11.436 2.908-24.528 17.278-24.528 13.941 0 15.172 14.976 15.172 28.885v56.368l28.713.015V463.35c0-12.897 2.478-22.23 17.243-22.23 13.971 0 15.18 14.976 15.18 28.885v56.368h28.724v-66.299c0-22.284-8.366-36.466-32.445-36.466M613.595 508.048v-56.583c0-20.799-22.057-27.865-39.55-27.865-13.043 0-30.42 5.478-38.437 13.921-6.138 6.464 3.759 13.246 4.871 10.968 1.381-2.712 11.355-11.405 24.666-11.405 9.552 0 19.718 8.34 19.718 18.333 0 3.111-.575 5.819-3.107 8.105-4.565 2.908-9.974 4.159-15.153 5.428-26.009 6.211-38.092 12.061-38.092 31.779 0 18.129 12.697 27.462 29.729 27.462 8.018 0 16.38-3.08 20.37-7.599 3.99-4.461 1.726-11.355 0-9.333-1.764 2.025-5.792 3.414-9.513 3.414-8.939 0-11.432-8.919-11.432-16.633 0-6.625 1.228-12.871 6.598-17.236 6.061-4.814 15.421-6.66 20.6-8.954 0 0-.384 38.473 0 41.062.575 3.813 3.913 24.693 37.325 10.492 3.261-1.366 1.419-6.679-1.726-5.712-7.711 2.397-6.867-1.976-6.867-9.644M28.522 371.448c-8.938 0-16.234 7.688-16.234 16.461 0 8.723 7.296 16.426 16.234 16.426 8.946 0 16.641-7.507 16.641-16.426 0-8.957-7.695-16.461-16.641-16.461M5.206 435.365h5.835c3.31 0 4.664 2.502 4.664 5.237v85.771H44.43v-95.415c0-3.384-1.032-5.497-4.269-5.497H5.175c-2.24 0-2.136 9.904.031 9.904M379.655 423.681c-28.64 0-45.205 20.784-45.205 49.865 0 33.896 16.741 54.687 49.551 54.687 9.671 0 19.031-3.053 27.586-8.953 6.636-4.58 6.636-16.135 2.646-13.91-43.758 24.037-51.48-12.333-51.48-32.599 0-19.729 2.735-39.761 17.09-39.761 11.834 0 13.062 20.845 13.062 34.932h-22.016c-2.639 0-2.474 9.962.146 9.962h49.106c2.148-29.73-9.513-54.223-40.486-54.223M474.268 432.17c11.087 0 12.736 15.467 12.736 23.83 0 9.394-.614 27.823-13.58 27.823-11.354 0-13.388-15.268-13.388-23.868 0-9.847.806-27.785 14.232-27.785m21.137 78.199-17.991-.614c-9.437-.43-16.917-2.728-16.917-11.113 0-1.861 1.189-3.959 2.493-5.44 1.88-2.098 6.675-1.457 9.207-1.457 25.088 0 44.115-10.642 44.115-34.322 0-9.786-3.836-17.098-11.086-23.377 0 0 15.996 3.26 18.796.598 2.801-2.654 3.913-12.528.844-11.366-6.713 2.624-25.932 1.753-25.932 1.753a371 371 0 0 0-21.328-.621c-27.62 0-46.839 8.566-46.839 31.996 0 18.394 8.555 29.281 26.584 33.455l-3.107.848c-7.212 1.879-16.38 11.497-16.38 20.918 0 6.893 3.567 13.192 10.242 15.452 0 0 3.76 2.528 21.406 2.743.575 0 1.074-.035 1.611-.035 15.689 0 30.919.414 30.919 20.308 0 11.716-9.591 22.637-25.664 23.224-29.653 1.07-26.776-20.12-24.551-29.622 1.151-4.642-.537-7.438-2.762-8.827-2.071-1.339-8.286-3.549-12.659-.702-9.935 6.54-7.902 20.757-7.902 20.757 1.649 19.825 20.906 26.952 42.427 26.952 27.543 0 54.971-13.787 54.971-44.518 0-15.704-7.48-26.146-30.497-26.99M278.67 38.073c0-19.066 15.482-34.525 34.486-34.525 19.112 0 34.598 15.459 34.598 34.525s-15.486 34.524-34.598 34.524c-19.004 0-34.486-15.459-34.486-34.524M349.461 332.669c0 10.83-5.167 16.158-15.367 16.158h-32.833c-10.653 0-16.584-6.886-16.584-15.87V174.139c0-5.831-5.163-11.048-11.098-11.048H260.56c-5.847 0-11.29-5.025-11.29-11.01v-22.786c0-5.908 5.451-11.623 11.378-11.623h72.671c10.61 0 16.142 8.247 16.142 18.796zm43.712-237.515H233.331c-13.016 0-23.68 10.664-23.68 23.63v229c0 13.035 10.664 23.653 23.68 23.653h159.842c12.966 0 23.631-10.618 23.631-23.653v-229c0-12.966-10.665-23.63-23.631-23.63"/></g></svg>