<svg height="100" width="330" xmlns="http://www.w3.org/2000/svg"><path d="m161.4834 77.0299h1.9604l10.0994 13.9258v-13.9257h1.7327v16.8887h-1.64389l-10.41591-14.3368v14.3368h-1.7327zm18.09911 0h11.1684v1.7105h-9.369v5.5815h9.1413v1.6883h-9.1413v6.2673h9.46071v1.64111h-11.26001l-.00009-16.8887zm20.2168 1.7097h-6.33681v-1.7106h14.47571v1.7106h-6.33681v15.181h-1.80209zm10.32469-1.7097h1.84671l4.44299 13.9703 4.53731-13.9703h1.54939l4.51241 13.9703 4.468-13.9703h1.7327l-5.42599 17.0026h-1.54671l-4.55949-14.062-4.5374 14.062h-1.5717l-5.44821-17.0026z" fill="#61849c"/><path d="m250.03517 85.4829c0-4.55965-2.11873-7.01989-6.72549-7.01989-4.58182 0-6.6783 2.46024-6.6783 7.01989 0 4.58186 2.09648 7.04481 6.6783 7.04481 4.60677 0 6.72549-2.46295 6.72549-7.04481m-15.2032-.0222c0-6.01739 3.07674-8.70542 8.47771-8.70542 5.42593 0 8.52487 2.68803 8.52487 8.70542 0 6.0396-3.09894 8.73034-8.52487 8.73034-5.40097 0-8.47771-2.69074-8.47771-8.73034m27.98999-.0683c2.39365 0 3.87369-.73031 3.87369-3.39614 0-2.62125-1.43561-3.30444-3.94034-3.30444h-5.49533v6.70058zm-.49982 1.64112h-5.06216v6.8838h-1.75497v-16.88882h7.29474c3.92093 0 5.69809 1.5718 5.69809 4.92336 0 2.91565-1.3912 4.62626-4.33185 5.01218l4.07916 6.95329h-1.91324l-4.00977-6.8838zm15.13293-2.07399-3.37387 3.69037v5.26759h-1.75497v-16.88866h1.75497v9.32184l8.54712-9.32184h2.07431l-6.06186 6.6311 6.88382 10.25756h-2.02991l-6.03961-8.95795zm9.57343 7.24802.91083-1.36622c2.02707 1.27453 4.01251 1.70773 6.03961 1.70773 3.4877 0 5.03717-.98013 5.03717-3.30445 0-2.39363-2.00485-2.73515-5.03717-3.28207-3.646-.63879-6.10904-1.2552-6.10904-4.67066 0-3.26292 2.0965-4.53745 6.10904-4.53745 2.64633 0 4.53738.59151 5.88135 1.50503l-.95801 1.45791c-1.20792-.79692-3.00729-1.32182-4.92334-1.32182-3.02954 0-4.3291.84421-4.3291 2.84904 0 2.14381 1.75497 2.55193 4.76508 3.09903 3.6904.66082 6.35617 1.20792 6.35617 4.83167 0 3.35156-2.14093 4.96777-6.74493 4.96777-2.55194 0-4.85672-.52201-6.99765-1.93552" fill="#61849c"/><g fill="#231f20"><path d="m318.43011 7.22208c-23.74478 0-24.75275 10.63806-24.75275 25.64696v36.84584h5.59808v-36.84584c0-11.31294-.44708-20.38479 19.15466-20.38479 2.09927 0 3.96255.11101 5.63974.30812v-5.3342c-1.72998-.15271-3.59601-.23609-5.63974-.23609m-276.9384 38.5256v-37.29565h5.71197v37.40666c0 10.75195-.11108 19.82396 19.59893 19.82396 19.59894 0 19.15188-9.07201 19.15188-20.38479v-36.84584h5.60088v36.84584c0 15.00873-1.01077 25.64967-24.75276 25.64967-23.85583 0-25.31089-10.64094-25.31089-25.19986m109.60019-13.32863v37.29582h-5.71198v-37.40683c0-10.75195.11107-19.8238-19.59894-19.8238-19.60171 0-19.15186 9.07185-19.15186 20.38479v36.84584h-5.59811v-36.84584c0-15.0089 1.008-25.64696 24.74996-25.64696 23.85583 0 25.31091 10.63806 25.31091 25.19698m10.39429-23.86669h5.48149v61.14879h-5.48149zm44.45665 34.41678c9.89111 0 14.80611-4.82066 14.80611-14.55909 0-9.73284-5.30377-14.35621-15.05046-14.35621h-22.9839v28.9153h23.22826zm-28.70975-34.40238h28.62645c14.19521 0 20.63191 7.05599 20.63191 19.59889 0 12.62628-6.35341 20.30157-20.70967 20.30157h-23.0672v21.24832h-5.48149z"/><path d="m238.47466 34.77083h41.66093c-.55814-12.20698-1.34399-22.62284-19.15189-22.62284-17.13307 0-21.83704 9.29675-22.50905 22.62284m-5.60089 4.14577c0-18.02997 5.15382-31.91976 28.22658-31.91976 23.85309 0 24.63614 16.01412 24.52505 32.92497h-47.2618c.11105 14.89789 3.80426 25.98576 23.18105 25.98576 10.30484 0 15.00882-2.80193 20.04877-6.495l3.13229 4.14306c-5.59811 4.14305-12.20422 7.39191-23.18106 7.39191-24.18906 0-28.67088-14.00081-28.67088-32.03094m-225.77044 44.06708c23.74201 0 24.75276-10.63805 24.75276-25.64679v-48.8835h-5.60089v48.8835c0 11.31006.44707 20.38479-19.15186 20.38479-.74141 0-1.44396-.01949-2.12983-.04729v5.28149c.68865.01678 1.39675.02779 2.12983.02779"/></g></svg>