<svg height="105" viewBox="0 0 499.99996 105" width="500" xmlns="http://www.w3.org/2000/svg"><g fill="#e60012"><path d="m0 0c0-2.127.986-4.546 2.96-6.024l-.004.001.001-.001-2.647.001v-5.073h18.474v5.072h-10.512c-1.892 0-3.903 1.467-3.903 4.183 0 2.099 1.46 4.271 3.903 4.271h10.512v5.073h-11.452c-4.249 0-7.332-3.04-7.332-7.503" transform="matrix(0 4.20228705336 4.20228705336 0 209.96731689042 23.32962195422)"/><path d="m0 0 12.584-4.586-12.584-4.586v-5.795l18.468 7.601v5.559l-18.468 7.601z" transform="matrix(0 4.20228705336 4.20228705336 0 393.00969997586 24.63568963094)"/><path d="m0 0c-1.16.864-1.841 2.24-1.841 3.902 0 1.828 1.044 3.215 2.585 3.932l3.677-8.863c-1.887-.242-3.363.241-4.421 1.029m7.228 9.746c1.58-2.135 1.957-3.355 1.957-5.302 0-1.752-.544-3.124-1.498-4.091l-5.38 12.969c-2.005-.283-3.796-1.044-5.158-2.215-1.979-1.704-3.026-4.226-3.026-7.297 0-5.578 4.115-9.784 9.55-9.784 5.576 0 9.549 4.216 9.549 10.343 0 3.433-1.627 6.943-3.528 8.585z" transform="matrix(0 4.20228705336 4.20228705336 0 99.69678060605 48.02267649571)"/><path d="m0 0v-11.53h-19.341v-5.142h23.999v16.672z" transform="matrix(0 4.20228705336 4.20228705336 0 72.56051235454 82.69112344591)"/><path d="m0 0c0-2.833 2.147-4.89 5.201-4.89 2.916 0 5.201 2.179 5.201 4.958 0 2.834-2.206 4.89-5.201 4.89-2.916 0-5.201-2.178-5.201-4.958m14.749 0c0-5.548-4.133-9.895-9.548-9.895-5.354 0-9.548 4.377-9.548 9.963 0 5.548 4.133 9.894 9.548 9.894 5.353 0 9.548-4.376 9.548-9.962" transform="matrix(0 4.20228705336 4.20228705336 0 455.63679475237 41.59359610132)"/><path d="m0 0c0-2.833 2.147-4.889 5.201-4.889 2.916 0 5.201 2.178 5.201 4.958 0 2.833-2.206 4.889-5.201 4.889-2.916 0-5.201-2.178-5.201-4.958m14.749 0c0-5.548-4.133-9.894-9.548-9.894-5.354 0-9.548 4.376-9.548 9.963 0 5.547 4.133 9.894 9.548 9.894 5.353 0 9.548-4.377 9.548-9.963" transform="matrix(0 4.20228705336 4.20228705336 0 291.50806546222 41.59359610132)"/></g></svg>