<svg height="177.1321" viewBox="0 0 178.0235 177.1321" width="178.0235" xmlns="http://www.w3.org/2000/svg"><g transform="translate(132.023483 -187)"><path d="m-118.4 317.9c1.5 2.6 3 5 4.6 7.3s3.3 4.6 5.1 6.7c6.6 7.9 14.1 14.5 22.3 19.6-.1-.1-.1-.2-.2-.2-2.6-2.7-5-5.7-7.1-8.9-10.8-16.2-15-37.4-11.8-59.1.2-.9.3-1.8.4-2.7.2-.9.3-1.8.5-2.7.9-4.5 2.2-9.1 3.8-13.6v-.1c.3-.9.7-1.7 1-2.6s.7-1.8 1-2.6c1.9-4.5 4-9 6.5-13.3l.7-1.1c1.6-2.7 3.2-5.2 5-7.7 2-2.8 4.1-5.4 6.3-7.9 11.2-13 24.9-22.5 39.3-27.9.3-.1.4-.2.4-.2s-.1.1 0 0c2.6-.9 5.2-1.7 7.8-2.4s5.2-1.2 7.8-1.6c9.5-1.5 19.1-1.1 28.2 1.3-1.2-.7-2.5-1.3-3.8-2h-.1c-.4-.2-.8-.4-1.3-.6s-.9-.4-1.3-.6c-2.2-1-4.5-1.9-6.9-2.7l-.1-.1c-1.4-.5-2.8-.9-4.2-1.4-1.5-.4-2.9-.9-4.4-1.2-7.6-1.6-15.7-2.6-24.1-2.6h-.1c-12.7 0-24.8 2.3-35.6 6.6-1.7.6-3.5 1.4-5.2 2.2-8.7 4-16.4 9.3-22.9 15.5l-.1.1c-.4.4-.8.8-1.2 1.2s-.8.8-1.2 1.2c-2 2.2-3.9 4.4-5.6 6.7h-.1v.1c-.3.4-.7.8-1 1.4-.3.4-.6.8-.9 1.4-1.6 2.4-3 4.8-4.2 7.4l-.1.1-.1.1-.1.1-.1.1v.1c-1.3 2-2.4 4.1-3.4 6.3s-2 4.4-2.8 6.7c-4.1 11.8-5.4 25.2-3.4 38.9v.1c.1.6.2 1.2.3 1.7.1.6.2 1.2.3 1.7.5 3 1.3 6 2.1 9.1.2.5.3 1.1.5 1.7.2.7.4 1.3.5 1.8 1 3 2.1 6 3.4 9 .2.5.4 1 .6 1.4.2.3.4.8.7 1.4 1.6 2 2.9 4.4 4.3 6.8" fill="#ed1c24"/><path d="m-69.6 355.7 1 .6.2.1v.1c3.3 1.8 6.7 3.4 10.1 4.6 3.5 1.1 7.1 2 10.7 2.5 18.8 2.5 39.1-3.9 56.2-17.3.7-.6 1.4-1.1 2-1.6s1.3-1.1 1.9-1.6c3.2-2.9 6.3-6 9.1-9.3l.1-.1c.5-.6 1.1-1.3 1.7-2 .6-.8 1.1-1.4 1.6-2.1 2.7-3.4 5.1-7.1 7.4-11l.3-.4.1-.1c1.5-2.6 2.9-5.2 4.1-7.8 1.2-2.7 2.3-5.3 3.3-8 3.6-10 5.5-20.1 5.8-29.9-.9 3.3-2.1 6.4-3.4 9.5-7.4 16.6-21.6 30.5-39.8 39.3-1.9.9-3.8 1.7-5.8 2.6-2 .8-4 1.5-6 2.2-10.4 3.5-21.9 5.4-33.9 5.4h-.1c-5.7 0-11.1-.4-16.5-1.3-1.7-.3-3.4-.6-5.2-.9-8.8-1.9-17.1-4.7-24.7-8.5-.5-.2-.9-.4-1.1-.5-.2-.2-.6-.3-1.1-.6-1.7-.9-3.4-1.9-5.1-2.9.2.8.4 1.6.6 2.3.4 1.6 1 3.3 1.6 5 3 8.4 7.6 16.1 13.5 22.3l.1.1c.3.3.5.5.7.8l.8.8c1.4 1.3 2.8 2.6 4.4 3.8.3.3.7.5.9.7.4.3.7.5.9.6 1.1.9 2.4 1.7 3.6 2.6" fill="#d2232a"/><path d="m18.3 296.9c0 1.7-.1 3.4-.1 5.1 3.4-3 6.5-6.2 9.2-9.7 1.3-1.6 2.5-3.3 3.6-5s2.1-3.4 3-5.3c4.2-8.2 6.6-17.1 6.6-26.6 0-3.3-.3-6.5-.9-9.7-.1-.7-.2-1.3-.3-1.9-.1-.7-.3-1.3-.4-1.9v.1c-.1-.3-.2-.6-.3-1-.1-.3-.2-.7-.3-1.1-.8-2.6-1.6-5.1-2.7-7.5-.2-.5-.4-.9-.7-1.4-.2-.4-.4-.9-.6-1.4-.5-.8-1-1.5-1.5-2.1-.1-.1-.2-.2-.3-.4 0 0-.1-.1-.3-.4 0 0-.1-.1-.1-.1-.5-.7-1.1-1.4-1.6-2.1-.1-.1-.1-.2-.3-.4s-.3-.3-.3-.4c-3-3.5-6.4-6.6-10.1-9.4-.7-.5-1.5-1-2.3-1.5-.5-.3-1-.7-1.6-1l-.8-.4c-11.6-6.7-24.9-8.9-38.1-7-2.6.3-5.2.9-7.8 1.5-1.9.5-3.8 1-5.7 1.7 11.3 5.7 21.8 14.1 30.6 24.8 1.9 2.3 3.6 4.6 5.3 7s3.3 5 4.8 7.6h.1c7.8 13.5 12.2 27.9 13.4 41.8.3 2.8.4 5.5.5 8.1" fill="#f9a01e"/></g></svg>