<svg viewBox="9.573 6.343 283.456 206.677" xmlns="http://www.w3.org/2000/svg" xmlns:xlink="http://www.w3.org/1999/xlink"><clipPath id="a"><path d="m752.129 352.969 38.742-32.539s-161.101-195.16-165.734-196.7c-4.637-1.539-559.1018 0-559.1018 0v548.286s-69.7227 323.714 0 323.714h280.3318v-75.921-114.59-263.324-215.266l60.371-65.059 54.25-6.172 83.614 13.907z"/></clipPath><clipPath id="b"><path d="m0 1172.06v-1172.06h4503.57v1172.06"/></clipPath><linearGradient id="c" gradientUnits="userSpaceOnUse" x1="451.91058" x2="451.91058" y1="935.98401" y2="144.42999"><stop offset="0" stop-color="#617ec4"/><stop offset="1" stop-color="#244c8d"/></linearGradient><linearGradient id="d" gradientUnits="userSpaceOnUse" x1="480.53683" x2="1140.4358" y1="974.90161" y2="300.62057"><stop offset="0" stop-color="#fac45a"/><stop offset=".5249" stop-color="#f7a909"/><stop offset="1" stop-color="#d49109"/></linearGradient><filter id="e"><feGaussianBlur stdDeviation="2.2183429"/></filter><path d="m289.144 102.163-21.505.19zm-247.618-42.267c-16.25 18.307-25.665 40.208-27.871 64.59-2.155 23.829 1.672 54.658 18.834 72.744 31.6 33.303 90.318-3.737 118.017-23.864 5.494-3.992 9.301-10.288 14.762-14.254-29.226 21.236-84.557 55.75-118.018 23.864-17.336-16.518-19.865-47.256-19.034-69.604.942-25.299 11.388-48.936 28.072-67.73-4.517 5.088-10.228 9.146-14.762 14.254m211.861 23.359c-.962 1.798-1.409 2.888-.801 3.942.658 1.141 4.188 6.704 4.188 6.704s3.452 5.611 4.188 6.702c.683 1.007 1.857 1.085 3.896 1.008.96-1.797 1.404-2.887.796-3.941-.656-1.139-4.187-6.702-4.187-6.702s-3.452-5.613-4.188-6.703c-.681-1.008-1.857-1.086-3.892-1.01m-.002.001 11.471 18.356m-11.471-18.356 11.471 18.356m-9.763 24.791c1.993-.045 3.135-.192 3.741-1.213.652-1.11 3.689-6.788 3.689-6.788s3.115-5.636 3.691-6.787c.528-1.064.029-2.101-1.016-3.799-1.99.047-3.132.193-3.735 1.214-.654 1.109-3.691 6.788-3.691 6.788s-3.115 5.636-3.689 6.789c-.531 1.061-.032 2.1 1.01 3.796m.002 0 10.105-18.586m-10.105 18.586 10.105-18.586m15.093 18.246c.964-1.798 1.406-2.887.8-3.942-.658-1.14-4.188-6.701-4.188-6.701s-3.452-5.609-4.187-6.7c-.681-1.006-1.855-1.086-3.895-1.008-.96 1.796-1.404 2.887-.796 3.94.656 1.14 4.188 6.701 4.188 6.701s3.452 5.61 4.187 6.702c.682 1.004 1.855 1.084 3.891 1.008m.002-.002-11.47-18.35m11.47 18.35-11.47-18.35m23.203-3.381c-1.029-1.754-1.727-2.699-2.939-2.731-1.312-.031-7.879.082-7.879.082s-6.57.021-7.882.081c-1.21.057-1.887 1.016-2.88 2.791 1.029 1.751 1.725 2.695 2.938 2.727 1.312.033 7.879-.082 7.879-.082s6.571-.021 7.883-.081c1.209-.055 1.886-1.015 2.88-2.787m0-.001-21.58.222m21.58-.222-21.58.222m8.151-21.645c-1.995.045-3.14.189-3.746 1.213-.656 1.108-3.699 6.792-3.699 6.792s-3.123 5.641-3.697 6.792c-.531 1.066-.034 2.104 1.012 3.805 1.993-.046 3.138-.191 3.744-1.215.656-1.109 3.697-6.792 3.697-6.792s3.123-5.641 3.699-6.793c.53-1.065.032-2.103-1.01-3.802m-.002 0-10.13 18.601m10.13-18.601-10.13 18.601m-85.707-83.787c-.755-4.86-3.566-5.451-6.241-1.312l-31.782 49.253c-2.67 4.122-8.829 6.874-13.689 6.088l-57.873-9.32c-4.871-.79-6.299 1.697-3.184 5.51l37.016 45.454c3.102 3.822 3.817 10.516 1.57 14.906l-26.754 52.157c-2.241 4.391-.321 6.511 4.258 4.736l54.675-21.165c4.59-1.769 11.183-.375 14.661 3.104l41.331 41.57c3.473 3.503 6.09 2.344 5.816-2.575l-3.232-58.542c-.27-4.904 3.085-10.75 7.487-12.973l52.315-26.465c4.393-2.232 4.089-5.077-.677-6.347l-56.66-15.006c-4.762-1.259-9.27-6.284-10.026-11.142zm0 0c-.755-4.86-3.566-5.451-6.241-1.312l-31.782 49.253c-2.67 4.122-8.829 6.874-13.689 6.088l-57.873-9.32c-4.871-.79-6.299 1.697-3.184 5.51l37.016 45.454c3.102 3.822 3.817 10.516 1.57 14.906l-26.754 52.157c-2.241 4.391-.321 6.511 4.258 4.736l54.675-21.165c4.59-1.769 11.183-.375 14.661 3.104l41.331 41.57c3.473 3.503 6.09 2.344 5.816-2.575l-3.232-58.542c-.27-4.904 3.085-10.75 7.487-12.973l52.315-26.465c4.393-2.232 4.089-5.077-.677-6.347l-56.66-15.006c-4.762-1.259-9.27-6.284-10.026-11.142z" fill="#8e8f93" filter="url(#e)"/><g clip-path="url(#b)" fill="url(#d)" transform="matrix(.209596 0 0 -.209596 -12.730499 236.989105)"><path d="m922.363 1069.2c-3.601 23.19-17.011 26.01-29.777 6.26l-151.633-234.991c-12.738-19.664-42.125-32.793-65.312-29.047l-276.114 44.469c-23.242 3.769-30.054-8.098-15.195-26.289l176.606-216.864c14.804-18.238 18.214-50.172 7.492-71.117l-127.645-248.848c-10.691-20.949-1.531-31.066 20.313-22.597l260.859 100.984c21.902 8.438 53.359 1.789 69.953-14.812l197.192-198.336c16.568-16.711 29.058-11.18 27.748 12.289l-15.42 279.308c-1.29 23.399 14.72 51.289 35.72 61.895l249.6 126.266c20.96 10.648 19.51 24.222-3.23 30.281l-270.33 71.597c-22.717 6.008-44.229 29.981-47.835 53.161z"/><path d="m922.363 1069.2c-3.601 23.19-17.011 26.01-29.777 6.26l-151.633-234.991c-12.738-19.664-42.125-32.793-65.312-29.047l-276.114 44.469c-23.242 3.769-30.054-8.098-15.195-26.289l176.606-216.864c14.804-18.238 18.214-50.172 7.492-71.117l-127.645-248.848c-10.691-20.949-1.531-31.066 20.313-22.597l260.859 100.984c21.902 8.438 53.359 1.789 69.953-14.812l197.192-198.336c16.568-16.711 29.058-11.18 27.748 12.289l-15.42 279.308c-1.29 23.399 14.72 51.289 35.72 61.895l249.6 126.266c20.96 10.648 19.51 24.222-3.23 30.281l-270.33 71.597c-22.717 6.008-44.229 29.981-47.835 53.161z" stroke="#fab217" stroke-width="3.916"/><path d="m1379.61 758.195-48.33-88.75"/><path d="m1379.61 758.195-48.33-88.75"/><path d="m1379.62 758.191c-9.52-.211-14.98-.902-17.87-5.785-3.13-5.289-17.65-32.406-17.65-32.406s-14.9-26.914-17.64-32.406c-2.53-5.086-.16-10.039 4.83-18.153 9.51.219 14.97.911 17.86 5.797 3.13 5.289 17.64 32.407 17.64 32.407s14.9 26.91 17.65 32.41c2.53 5.078.15 10.031-4.82 18.136"/><path d="m1443.69 655.984-102.96-1.062"/><path d="m1443.69 655.984-102.96-1.062"/><path d="m1443.69 655.977c-4.91 8.367-8.24 12.875-14.02 13.027-6.26.148-37.59-.391-37.59-.391s-31.35-.101-37.61-.386c-5.77-.274-9-4.848-13.74-13.317 4.91-8.351 8.23-12.859 14.02-13.008 6.26-.16 37.59.391 37.59.391s31.35.098 37.61.387c5.77.261 9 4.843 13.74 13.297"/><path d="m1387.71 552.293-54.72 87.551"/><path d="m1387.71 552.293-54.72 87.551"/><path d="m1387.7 552.285c4.6 8.582 6.71 13.777 3.82 18.809-3.14 5.437-19.98 31.972-19.98 31.972s-16.47 26.762-19.98 31.965c-3.25 4.801-8.85 5.18-18.58 4.809-4.58-8.57-6.7-13.774-3.8-18.797 3.13-5.438 19.98-31.973 19.98-31.973s16.47-26.765 19.98-31.972c3.25-4.793 8.85-5.176 18.56-4.813"/><path d="m1267.48 550.664 48.21 88.676"/><path d="m1267.48 550.664 48.21 88.676"/><path d="m1267.47 550.664c9.51.215 14.96.918 17.85 5.789 3.11 5.293 17.6 32.383 17.6 32.383s14.86 26.894 17.61 32.383c2.52 5.078.14 10.023-4.85 18.125-9.49-.223-14.94-.918-17.82-5.793-3.12-5.289-17.61-32.383-17.61-32.383s-14.86-26.891-17.6-32.391c-2.53-5.066-.15-10.019 4.82-18.113"/><path d="m1259.32 756.523 54.73-87.578"/><path d="m1259.32 756.523 54.73-87.578"/><path d="m1259.33 756.527c-4.59-8.578-6.72-13.777-3.82-18.808 3.14-5.442 19.98-31.985 19.98-31.985s16.47-26.769 19.98-31.976c3.26-4.805 8.86-5.176 18.59-4.809 4.58 8.574 6.7 13.774 3.8 18.801-3.13 5.438-19.98 31.98-19.98 31.98s-16.47 26.778-19.98 31.977c-3.25 4.813-8.86 5.184-18.57 4.82"/></g><g clip-path="url(#a)" fill="none" transform="matrix(.209596 0 0 -.209596 -12.730499 236.989105)"><path d="m248.527 867.977c-77.531-87.344-122.453-191.84-132.976-308.165-10.281-113.691 7.976-260.781 89.859-347.07 150.766-158.8904 430.914 17.832 563.067 113.86 26.214 19.043 44.378 49.082 70.429 68.007-139.437-101.32-403.426-265.988-563.07-113.859-82.711 78.809-94.781 225.461-90.813 332.086 4.493 120.703 54.332 233.476 133.934 323.148-21.555-24.277-48.801-43.64-70.43-68.007" fill="url(#c)"/></g></svg>