<svg height="54" viewBox="0 0 84.7 54" width="84.7" xmlns="http://www.w3.org/2000/svg" xmlns:xlink="http://www.w3.org/1999/xlink"><clipPath id="a"><path d="m0 57.75h143v-57.75h-143z"/></clipPath><g clip-path="url(#a)" fill="#88898d" transform="matrix(1.3333 0 0 -1.3333 -.339299 53.508331)"><g fill="#88898d"><path d="m0 0c-.082.036-.702.388-1.623.388-1.247 0-2.111-.826-2.111-1.941 0-1.083.826-1.942 2.111-1.942.907 0 1.538.341 1.623.386v-1.956c-.243-.064-.903-.258-1.758-.258-2.172 0-4.073 1.422-4.073 3.77 0 2.172 1.722 3.765 4.073 3.765.903 0 1.573-.21 1.758-.262z" transform="translate(41.309 23.263)"/><path d="m0 0c-.078.036-.697.388-1.619.388-1.25 0-2.114-.826-2.114-1.941 0-1.083.825-1.942 2.114-1.942.906 0 1.537.341 1.619.386v-1.956c-.24-.064-.899-.258-1.761-.258-2.167 0-4.065 1.422-4.065 3.77 0 2.172 1.72 3.765 4.065 3.765.913 0 1.578-.21 1.761-.262z" transform="translate(21.186 23.263)"/><path d="m0 0c-1.143 0-1.991-.856-1.991-1.912 0-1.061.848-1.916 1.991-1.916 1.144 0 1.995.855 1.995 1.916 0 1.056-.851 1.912-1.995 1.912m4.036-1.912c0-2.082-1.686-3.77-4.036-3.77-2.348 0-4.031 1.688-4.031 3.77 0 2.077 1.683 3.765 4.031 3.765 2.35 0 4.036-1.688 4.036-3.765" transform="translate(47.37 23.622)"/><path d="m0 0c-.026.008-.839.221-1.506.221-.772 0-1.192-.245-1.192-.598 0-.442.565-.595.881-.693l.535-.158c1.25-.38 1.821-1.197 1.821-2.083 0-1.828-1.689-2.442-3.163-2.442-1.027 0-1.982.181-2.081.198v1.675c.171-.04.978-.271 1.82-.271.957 0 1.401.267 1.401.683 0 .367-.381.577-.862.722-.116.036-.289.089-.413.126-1.072.324-1.966.925-1.966 2.127 0 1.364 1.069 2.275 2.848 2.275.937 0 1.821-.214 1.877-.229z" transform="translate(33.073 23.693)"/><path d="m0 0c0 .5-.428.908-.958.908-.522 0-.954-.408-.954-.908v-1.909c0-.504.432-.911.954-.911.53 0 .958.407.958.911z" transform="translate(13.314 33.165)"/><path d="m0 0c0 .5-.428.906-.954.906-.53 0-.96-.406-.96-.906v-4.416c0-.505.43-.911.96-.911.526 0 .954.406.954.911z" transform="translate(18.571 35.673)"/><path d="m0 0c0 .504-.426.91-.955.91-.526 0-.958-.406-.958-.91v-9.661c0-.503.432-.912.958-.912.529 0 .955.409.955.912z" transform="translate(23.827 39.101)"/><path d="m0 0c0 .5-.428.906-.953.906-.53 0-.958-.406-.958-.906v-4.416c0-.505.428-.911.958-.911.525 0 .953.406.953.911z" transform="translate(29.085 35.673)"/><path d="m0 0c0 .5-.425.908-.951.908-.528 0-.958-.408-.958-.908v-1.909c0-.504.43-.911.958-.911.526 0 .951.407.951.911z" transform="translate(34.337 33.165)"/><path d="m0 0c0 .5-.427.906-.955.906-.526 0-.953-.406-.953-.906v-4.416c0-.505.427-.911.953-.911.528 0 .955.406.955.911z" transform="translate(39.598 35.673)"/><path d="m0 0c0 .504-.424.91-.956.91-.522 0-.953-.406-.953-.91v-9.661c0-.503.431-.912.953-.912.532 0 .956.409.956.912z" transform="translate(44.856 39.101)"/><path d="m0 0c0 .5-.43.906-.97.906-.523 0-.954-.406-.954-.906v-4.416c0-.505.431-.911.954-.911.54 0 .97.406.97.911z" transform="translate(50.118 35.673)"/><path d="m0 0c0 .5-.43.908-.956.908-.528 0-.954-.408-.954-.908v-1.909c0-.504.426-.911.954-.911.526 0 .956.407.956.911z" transform="translate(55.366 33.165)"/></g><path d="m25.765 18.069h-1.931v7.276h1.931z"/></g><g clip-path="url(#a)" fill="#62b144" transform="matrix(1.3333 0 0 -1.3333 -90.81031 77.405624)"><g fill="#62b144"><path d="m0 0-5.959 14.016v-14.016h-1.251v15.597h1.888l6.027-14.298 5.686 14.298h1.82v-15.597h-1.228v13.908l-5.619-13.908z" transform="translate(75.414 18.062)"/><path d="m0 0c-.569-2.059-2.389-3.4-4.914-3.4-3.206 0-5.618 2.099-5.618 5.956 0 3.856 2.342 5.956 5.391 5.956 3.026 0 5.346-1.949 5.346-6.239h-9.485c.114-3.204 2.023-4.678 4.389-4.678 1.775 0 3.139.912 3.594 2.405zm-9.257 3.25h8.187c-.158 2.882-1.865 4.309-4.071 4.309-2.16 0-3.889-1.492-4.116-4.309" transform="translate(96.783 21.139)"/><path d="m0 0v11.265h1.001l.183-2.167c.636 1.711 1.841 2.491 3.32 2.491.477 0 .954-.086 1.228-.174v-1.148c-.41.11-.819.197-1.296.197-1.729 0-3.208-1.605-3.208-4.311v-6.153z" transform="translate(99.857 18.062)"/><path d="m0 0c.181 1.926 1.979 3.248 4.595 3.248 2.639 0 4.389-1.407 4.389-3.704v-7.885h-1.001l-.181 1.862c-.729-1.167-2.07-2.185-4.185-2.185-2.298 0-3.958 1.189-3.958 3.182 0 1.928 1.228 3.098 4.548 3.618l3.549.563v.975c0 1.625-1.205 2.621-3.229 2.621-1.888 0-3.095-.929-3.254-2.295zm7.756-4.333v2.102l-3.184-.52c-2.822-.455-3.64-1.3-3.64-2.645 0-1.515 1.228-2.273 3.003-2.273 1.888 0 3.821 1.364 3.821 3.336" transform="translate(107.14 26.403)"/><path d="m0 0v15.597h1.228v-8.923l5.664 4.591h1.661l-6.075-4.919 6.824-6.346h-1.659l-6.415 5.957v-5.957z" transform="translate(119.27 18.062)"/></g><path d="m130.12 33.659h1.479v-1.602h-1.479zm.112-4.332h1.228v-11.265h-1.228z"/></g></svg>