<svg viewBox="0 0 169 179.6" xmlns="http://www.w3.org/2000/svg"><path d="m166.87 46.31c-.22-.5-.45-.98-.71-1.41s-.57-.86-.92-1.28c-1.81-2.22-4.76-4.4-8.53-6.47l-30.33-16.62-30.33-16.64c-3.77-2.07-7.23-3.4-10.16-3.78-.56-.07-1.11-.11-1.63-.11-3.24 0-7.3 1.43-11.8 3.89l-30.33 16.63-30.33 16.62c-3.77 2.07-6.72 4.24-8.53 6.47-.35.43-.66.86-.92 1.28-.26.43-.49.91-.71 1.41-1.12 2.61-1.64 6.11-1.64 10.24v66.5c0 4.93.73 8.98 2.35 11.65s4.95 5.29 9.45 7.75l30.33 16.63 30.33 16.62c3.77 2.06 7.23 3.4 10.16 3.78.56.07 1.11.12 1.63.12s1.07-.04 1.63-.12c2.93-.38 6.39-1.71 10.16-3.78l60.66-33.25c4.49-2.46 7.83-5.08 9.45-7.75.26-.43.49-.91.71-1.41 1.12-2.6 1.64-6.11 1.64-10.24v-66.5c.01-4.13-.51-7.63-1.63-10.23zm-118.29 78.02c0 1.51-1.62 2.48-2.95 1.75l-10.85-5.95c-2.55-1.4-4.14-4.08-4.14-6.99v-32.14c0-1.51 1.62-2.47 2.95-1.75l12.93 7.08c1.28.7 2.07 2.04 2.07 3.5v34.5zm89.29-11.19c0 2.91-1.59 5.6-4.14 7l-10.85 5.94c-1.33.73-2.95-.23-2.95-1.75v-42.58c0-1.51-1.62-2.48-2.95-1.75l-19.6 10.74c-2.55 1.4-4.14 4.08-4.14 6.99v42.24c0 1.46-.79 2.8-2.07 3.5l-3.08 1.68c-2.39 1.31-5.28 1.31-7.67 0l-3.06-1.68c-1.28-.7-2.07-2.04-2.07-3.5v-42.23c0-2.91-1.59-5.59-4.14-6.99l-40.51-22.2v-2.1c0-2.91 1.59-5.59 4.14-6.99l4.47-2.46c2.39-1.31 5.28-1.31 7.66 0l33.51 18.36c2.39 1.31 5.28 1.31 7.66 0l15.48-8.49c1.38-.76 1.38-2.74 0-3.5l-34.78-19.06c-1.38-.76-1.38-2.74 0-3.5l11.64-6.38c2.39-1.31 5.28-1.31 7.67 0l45.64 25.01c2.56 1.4 4.15 4.08 4.15 7v46.7z" fill="#676767"/></svg>