<?xml version="1.0" encoding="utf-8"?>
<svg height="300" width="300" viewBox="0 0 45 45" xmlns="http://www.w3.org/2000/svg">
  <path d="m41.949 22.824c0 10.742-8.71 19.453-19.454 19.453s-19.4530005-8.711-19.4530005-19.453c0-10.746 8.7090005-19.454 19.4530005-19.454s19.454 8.708 19.454 19.454" fill="#fff"/>
  <path d="m22.474 0c12.579 0 22.481 10.134 22.481 22.477 0 12.416-10.067 22.478-22.481 22.478-12.412.001-22.47400045-10.062-22.47400045-22.477 0-12.417 10.06200045-22.478 22.47400045-22.478m-.05 27.191-6.287-20.862-8.1410005 26.71h1.527s1.0270005-4.646 2.6970005-7.421c.909-1.507 2.31-2.739 4.183-2.705 1.319.026 2.462.747 3.889 2.743.858 1.195 2.179 4.244 2.179 4.244s1.322-3.045 2.183-4.244c1.423-1.996 2.566-2.717 3.889-2.743 1.871-.034 3.275 1.198 4.18 2.708 1.671 2.771 2.697 7.418 2.697 7.418h1.531l-8.146-26.71-6.286 20.862-.045.037z" fill="#005daa"/>
</svg>