<svg fill="#1414a0" viewBox="1 -94 300 300" xmlns="http://www.w3.org/2000/svg"><path d="m1 3.459h24.144c5.523 0 12.033 5.158 14.936 7.995l42.36 46.967v-54.962h14.39v74.987h-25.191c-4.488-.151-8.894-1.074-14.029-6.119l-42.29-47.053v53.172h-14.32zm300 75.498c-17.234 2.352-34.67 2.585-52.141 1.116-10.227-.903-20.246-3.007-29.427-7.801-11.592-6.007-15.285-19.509-15.13-31.748.128-11.297 3.488-23.358 13.568-29.927 6.608-4.337 13.665-5.759 21.164-7.119 20.47-3.608 40.98-2.794 60.95-.605v10.697c-23.551-4.577-48.428-3.438-56.881 7.383-5.282 6.732-6.034 13.429-6.034 19.067 0 10.162 3.476 25.578 24.125 28.574 13.471 1.977 26.807.477 39.805-1.891v12.254zm-147.482-11.663h45.638v11.204c-22.443.864-44.006 1.24-66.678.298-19.238-.794-22.552-10.468-22.924-19.761v-55.578h88.528v10.677h-57.272v19.091h52.199v10.421h-52.199c0 5.639.186 12.033.24 13.184.306 7.27 3.678 9.945 12.467 10.464"/></svg>