<svg fill="none" height="40" viewBox="0 0 170 40" width="170" xmlns="http://www.w3.org/2000/svg"><path d="m117.514 1.21646v37.56704h5.634v-37.56704zm-60.1919-.64173c-10.9758-.000049-19.4918 7.98859-19.4918 19.42527 0 11.9517 8.516 19.4255 19.4918 19.4253s19.5093-7.4736 19.4918-19.4253c-.0159-10.83582-8.516-19.425221-19.4918-19.42527zm13.868 19.42527c0 8.4666-6.2089 14.0774-13.868 14.0774s-13.868-5.6108-13.868-14.0774c0-8.313 6.2089-14.07735 13.868-14.07735s13.868 5.76435 13.868 14.07735zm-71.1901-19.99999661v38.78349661h5.74992v-25.6304l29.87988 26.8469v-8.0409zm81.0513 19.99999661 20.9097 18.7836h8.384l-20.9412-18.7836 20.9412-18.78356h-8.384zm88.9487 18.7835h-6.198l-4.532-8.3191h-20.528l-4.533 8.3191h-6.198l7.506-13.8659h20.805l-10.374-19.26971 3.058-5.64789v.00003763-.00003763z" fill="#005aff"/></svg>