<svg enable-background="new 0 0 652 652" viewBox="0 0 150 150" xmlns="http://www.w3.org/2000/svg"><g transform="translate(-10.44951 -246.644608)"><path d="m147.2 311.3.2.2v-.3z" fill="#fdfdfd"/><path d="m79.3 254c-7.2 4.4-14 8.5-20.7 12.9-1.5 1-2.5 2.9-3.6 4.3 8.7 20.1 51.4 74.1 68.6 86.7 11.3-3.8 15.7-14.7 23-23.1.3.8.6 1.4.4 1.6-7 12.7-13.7 25.6-21.2 38-2.7 4.4-7 8.1-11.2 11-6.2 4.2-13.3 4.3-18.9-1.1-7.2-6.8-13.9-14.1-20.2-21.7-13.5-16.6-26.6-33.3-39.5-50.1-4.3-5.5-8.1-11.4-11.5-17.5-4.7-8.6-3.5-16.3 4.1-22.5 4.5-3.7 9.6-6.6 15.1-8.6 10.6-3.8 21.6-6.6 32.4-9.9 1.1-.1 2.2-.1 3.2 0z" fill="#252122"/><path d="m102.9 259.3c-5.2 2.8-11.3 4.4-14.4 9.9 4 11.4 32.5 47.5 44.2 56 6.8-1.7 9.3-8.2 13.6-12.8.2.2.4.5.5.8-4.8 8.5-9.1 17.3-14.6 25.3-4.8 7-12.7 10.4-20.7 1.6-6.7-7.4-12.7-15.2-18.9-22.9-6.4-7.9-12.7-15.9-19-24-2.1-2.8-4-5.7-5.6-8.8-2.8-5.4-1.6-10.6 3.1-14.5 5.6-4.7 12.6-6.5 19.4-8.5 3.9-1.2 7.9-2 11.9-3z" fill="#a6a6a5"/><path d="m118.9 261.9c-1.9 1.3-3.9 2.5-5.8 3.9-.6.6-1.2 1.4-1.6 2.1 7.7 13.2 17.2 25.1 28.4 35.5l7.6-7.4c-2.9 6.5-5 13.4-11 18-2.7 2.1-5.8 2.2-8.5-.1-1.9-1.6-3.7-3.4-5.4-5.3-6.8-8.5-13.6-17.1-20.3-25.6-.7-.9-1.3-1.8-1.9-2.8-4.5-7-3.2-11.5 4.5-14.9 4.4-1.9 9.1-3.1 13.7-4.6z" fill="#e42c34"/><path d="m147.2 311.3.3-.1v.3z" fill="#a6a6a5"/></g></svg>