<svg xmlns="http://www.w3.org/2000/svg" width="595.28" height="595.276" viewBox="0 0 137 162"><defs><clipPath id="a"><path d="M0 595.276h595.28V0H0Z" style="fill:none;clip-rule:nonzero"/></clipPath></defs><path d="M0 595.276h595.28V0H0Z" style="fill:none" transform="matrix(1 0 0 -1 0 595.276)"/><path d="M0 595.276h595.28V0H0Z" style="fill:none" transform="matrix(1 0 0 -1 0 595.276)"/><g style="clip-path:url(#a)" transform="matrix(1 0 0 -1 -40.28 397.63)"><path d="M0 0a9.13 9.13 0 0 0-1.665 6.227q.286 2.946.288 5.967l-.001.384a9.12 9.12 0 0 0 2.224 6.053 9.23 9.23 0 0 1 2.058 8.06 9.24 9.24 0 0 1-5.24 6.448c-2.034.916-3.641 2.558-4.566 4.588a61 61 0 0 1-2.901 5.59c-1.131 1.932-1.549 4.199-1.124 6.396a9.23 9.23 0 0 1-2.25 7.997 9.23 9.23 0 0 1-7.764 2.964c-2.228-.225-4.449.397-6.27 1.699a62 62 0 0 1-5.301 3.395c-1.936 1.105-3.426 2.853-4.153 4.961a9.23 9.23 0 0 1-5.948 5.805 9.23 9.23 0 0 1-8.213-1.321 9.13 9.13 0 0 0-6.227-1.665q-2.945.286-5.967.288l-.384-.001a9.12 9.12 0 0 0-6.054 2.225 9.23 9.23 0 0 1-8.059 2.057 9.23 9.23 0 0 1-6.447-5.24c-.916-2.033-2.559-3.641-4.589-4.565a62 62 0 0 1-5.59-2.901c-1.931-1.131-4.198-1.55-6.396-1.125a9.23 9.23 0 0 1-7.997-2.249 9.23 9.23 0 0 1-2.964-7.765c.225-2.227-.397-4.448-1.699-6.27a62 62 0 0 1-3.395-5.3c-1.105-1.936-2.853-3.426-4.961-4.153a9.23 9.23 0 0 1-5.804-5.948 9.23 9.23 0 0 1 1.32-8.213 9.13 9.13 0 0 0 1.665-6.227 62 62 0 0 1-.288-5.967l.001-.384a9.13 9.13 0 0 0-2.224-6.054 9.23 9.23 0 0 1-2.058-8.059 9.23 9.23 0 0 1 5.239-6.448c2.035-.916 3.641-2.559 4.566-4.589a62 62 0 0 1 2.901-5.59c1.132-1.931 1.549-4.198 1.125-6.395a9.23 9.23 0 0 1 2.249-7.997 9.24 9.24 0 0 1 7.765-2.965c2.227.225 4.448-.397 6.27-1.698a62 62 0 0 1 5.3-3.395c1.936-1.105 3.426-2.853 4.153-4.961a9.23 9.23 0 0 1 5.948-5.805 9.24 9.24 0 0 1 8.214 1.32 9.12 9.12 0 0 0 6.226 1.665 62 62 0 0 1 6.351-.286 9.13 9.13 0 0 0 6.054-2.225 9.23 9.23 0 0 1 8.059-2.057 9.23 9.23 0 0 1 6.448 5.239c.916 2.034 2.559 3.641 4.589 4.566a61 61 0 0 1 5.59 2.901c1.931 1.131 4.198 1.549 6.396 1.125a9.23 9.23 0 0 1 7.997 2.249 9.23 9.23 0 0 1 2.964 7.764c-.225 2.228.396 4.448 1.698 6.27a62 62 0 0 1 3.395 5.301c1.105 1.936 2.854 3.426 4.961 4.153A9.23 9.23 0 0 1 1.32-8.213 9.23 9.23 0 0 1 0 0" style="fill:#ffa53c;fill-opacity:1" transform="translate(169.44 289.916)"/></g><g style="clip-path:url(#a)" transform="matrix(1 0 0 -1 -40.28 397.63)"><path d="M0 0c1.686 1.79-2.815 9.21-7.303 13.875-4.84 5.031-10.29 7.509-13.875 8.763.417-3.498 1.792-10.449 7.303-16.065C-9.087 1.692-1.625-1.725 0 0m4.381 2.191c1.9 4.413 5.809 11.689 13.511 17.161 9.081 6.453 18.656 7.002 30.305 7.668 6.352.363 15.577.316 26.655-1.826-4.538-1.593-11.223-4.42-18.257-9.493C47.477 9.124 45.56 4.39 39.434.73 33.739-2.672 24.202-5.267 7.667-.365a59.3 59.3 0 0 0 9.129 9.859c8.217 7.06 16.701 10.402 22.273 12.049a65.3 65.3 0 0 1-20.082-7.668A65.2 65.2 0 0 1 4.381 2.191" style="fill:#79c547;fill-opacity:1" transform="translate(102.77 370.44)"/></g><g style="clip-path:url(#a)" transform="matrix(1 0 0 -1 -40.28 397.63)"><path d="M0 0c.295 0 .555.196.636.48l10.752 37.641c.714 2.853-1.444 5.617-4.386 5.617H-6.977c-2.94 0-5.099-2.764-4.385-5.617L-.636.48A.66.66 0 0 1 0 0m3.144-1.013a.66.66 0 0 1 .796.014l30.824 24.133c2.254 1.888 2.132 5.393-.247 7.122l-11.309 8.217c-2.379 1.728-5.75.761-6.85-1.967L2.911-.25a.66.66 0 0 1 .233-.763M5.091-3.68a.66.66 0 0 1 .653-.457l39.122 1.406c2.934.203 4.895 3.11 3.987 5.907l-4.32 13.295c-.909 2.797-4.205 3.995-6.698 2.435L5.352-2.927a.66.66 0 0 1-.261-.753m.008-3.303a.66.66 0 0 1 .26-.753l32.476-21.857c2.493-1.561 5.789-.363 6.698 2.434l4.32 13.295c.908 2.798-1.053 5.704-3.987 5.907L5.752-6.526a.66.66 0 0 1-.653-.457M3.165-9.66a.66.66 0 0 1-.233-.761l13.426-36.773c1.1-2.727 4.471-3.695 6.85-1.967l11.309 8.217c2.379 1.73 2.501 5.234.247 7.123L3.961-9.674a.66.66 0 0 1-.796.014M.026-10.688a.66.66 0 0 1-.636-.479l-10.752-37.641c-.714-2.854 1.445-5.617 4.385-5.617H7.002c2.942 0 5.1 2.763 4.386 5.617L.662-11.167a.66.66 0 0 1-.636.479m-3.144 1.013a.66.66 0 0 1-.797-.014l-30.823-24.132c-2.254-1.889-2.133-5.393.247-7.123l11.309-8.217c2.379-1.728 5.75-.76 6.85 1.967l13.447 36.757a.66.66 0 0 1-.233.762m-1.947 2.668a.66.66 0 0 1-.653.456l-39.121-1.406c-2.934-.203-4.896-3.109-3.988-5.907l4.32-13.295c.909-2.797 4.205-3.995 6.698-2.434L-5.326-7.761a.66.66 0 0 1 .261.754m-.008 3.302a.66.66 0 0 1-.26.753l-32.476 21.858c-2.493 1.56-5.789.362-6.698-2.435l-4.32-13.295c-.908-2.797 1.054-5.704 3.988-5.907l39.112-1.431a.664.664 0 0 1 .654.457m1.935 2.677a.66.66 0 0 0-.798.014l-30.802 24.148c-2.254 1.888-2.133 5.393.247 7.122l11.309 8.217c2.379 1.728 5.75.761 6.85-1.967L-2.906-.266a.66.66 0 0 0-.232-.762" style="fill:#fff;fill-opacity:1" transform="translate(106.408 307.453)"/></g><g style="clip-path:url(#a)" transform="matrix(1 0 0 -1 -40.28 397.63)"><path d="M0 0a3.72 3.72 0 0 0 .605 3.286 3.61 3.61 0 0 0 2.892 1.458h.149a3.6 3.6 0 0 0 2.89-1.456c.712-.946.934-2.14.61-3.274L3.569-13.032Zm13.571-2.084A3.75 3.75 0 0 0 17.082.382a3.58 3.58 0 0 0 2.112-.688l.122-.088a3.6 3.6 0 0 0 1.475-2.873 3.7 3.7 0 0 0-1.432-3.006L8.797-14.726Zm-25.775-4.207a3.72 3.72 0 0 0-1.442 3.014 3.6 3.6 0 0 0 1.478 2.876l.12.088c.62.448 1.351.687 2.11.687A3.75 3.75 0 0 0-6.431-2.08l4.775-12.657Zm35.535-5.451a3.73 3.73 0 0 0 2.09.645c1.601 0 3.006-1.001 3.496-2.49l.049-.151a3.62 3.62 0 0 0-.494-3.211 3.7 3.7 0 0 0-2.921-1.589l-13.519-.629Zm-41.715-6.81a3.71 3.71 0 0 0-2.934 1.588 3.63 3.63 0 0 0-.494 3.219l.047.141c.489 1.492 1.894 2.492 3.496 2.492.74 0 1.459-.22 2.079-.637l11.308-7.437Zm43.81-14.187a3.7 3.7 0 0 0-2.08.638l-11.309 7.438 13.504-.634a3.72 3.72 0 0 0 2.935-1.589 3.64 3.64 0 0 0 .493-3.219l-.047-.139c-.489-1.493-1.894-2.495-3.496-2.495m-43.69-.013c-1.601 0-3.006 1.001-3.496 2.489l-.046.144a3.62 3.62 0 0 0 .492 3.218 3.7 3.7 0 0 0 2.92 1.589l13.519.63-11.298-7.425a3.74 3.74 0 0 0-2.091-.645m35.359-11.471a3.75 3.75 0 0 0-3.508 2.454L8.813-29.114l10.547-8.445a3.72 3.72 0 0 0 1.444-3.014 3.61 3.61 0 0 0-1.478-2.876l-.121-.088a3.6 3.6 0 0 0-2.11-.686m-27.019-.01a3.6 3.6 0 0 0-2.114.689l-.119.087a3.6 3.6 0 0 0-1.478 2.874 3.7 3.7 0 0 0 1.433 3.005l10.562 8.453-4.774-12.639a3.75 3.75 0 0 0-3.51-2.469m13.503-4.36c-1.209.002-2.264.533-2.959 1.456a3.7 3.7 0 0 0-.608 3.274l3.576 13.046 3.568-13.032a3.72 3.72 0 0 0-.605-3.287 3.6 3.6 0 0 0-2.891-1.457Z" style="fill:#ffa53c;fill-opacity:1" transform="translate(102.843 324.034)"/></g></svg>