<svg height="100" width="105" xmlns="http://www.w3.org/2000/svg"><g transform="matrix(1.34633 0 0 1.34633 375.332 -1215.51)"><path d="m-220.89507 940.34937 18.87524 20.74225c-2.0743 2.14319-4.97813 3.45752-8.15939 3.45752-3.38754 0-6.36035-1.45221-8.43471-3.73389l-10.44002-11.47693-8.15891-8.98895 8.15891-8.91943 10.44002-11.47748c2.07436-2.28119 5.04716-3.73395 8.43471-3.73395 3.18126 0 6.0851 1.31378 8.15939 3.38812z" fill="#e57000" stroke-width=".54287"/><path d="m-257.70865 940.34912-18.87524 20.74231c2.07431 2.14319 4.97815 3.45746 8.15942 3.45746 3.38754 0 6.36032-1.45215 8.43466-3.73389l10.44003-11.47693 8.15887-8.98895-8.15887-8.91943-10.44003-11.47748c-2.07434-2.28119-5.04712-3.73389-8.43466-3.73389-3.18127 0-6.08511 1.31372-8.15942 3.38806z" fill="#e57000" stroke-width=".54287"/><g stroke-width=".49551"><path d="m-231.8644 950.63397-7.44678-8.20441-7.44711 8.20441-17.22853 18.9328c1.89313 1.89325 4.54434 3.09229 7.44626 3.09229 3.09253 0 5.68044-1.26251 7.63638-3.4079l9.593-10.47589 9.52872 10.47589c1.89351 2.08191 4.60672 3.4079 7.69878 3.4079 2.90352 0 5.55411-1.19904 7.44728-3.09229z"/><path d="m-231.86485 930.06342-7.44678 8.20441-7.44713-8.20441-17.22852-18.93274c1.89319-1.89325 4.54431-3.09229 7.44629-3.09229 3.09253 0 5.68042 1.26251 7.63634 3.4079l9.59302 10.47589 9.5287-10.47589c1.89355-2.08197 4.60675-3.4079 7.69879-3.4079 2.90352 0 5.55414 1.19904 7.44728 3.09229l-17.228 18.93274z"/></g></g></svg>