<svg height="100" width="105" xmlns="http://www.w3.org/2000/svg"><path d="m77.47569 50.01757 25.41238 27.92598c-2.79272 2.88549-6.70224 4.65496-10.98528 4.65496-4.56078 0-8.56316-1.95514-11.35591-5.02707l-14.05576-15.45173-10.9846-12.10214 10.9846-12.00854 14.05576-15.45253c2.79276-3.07117 6.79514-5.02707 11.35591-5.02707 4.28304 0 8.19255 1.76876 10.98528 4.56152z" fill="#e57000" stroke-width=".73089"/><path d="m27.91236 50.01726-25.41238 27.92604c2.7927 2.88546 6.70224 4.65495 10.98529 4.65495 4.56074 0 8.56314-1.95515 11.3559-5.02708l14.05576-15.45176 10.98458-12.10215-10.98458-12.00854-14.05576-15.45253c-2.79276-3.07122-6.79516-5.02708-11.3559-5.02708-4.28305 0-8.19259 1.76876-10.98529 4.56153z" fill="#e57000" stroke-width=".73089"/><g fill="#fff" stroke-width=".66712"><path d="m62.70733 63.86406-10.02585-11.04587-10.0263 11.04587-23.19535 25.48983c2.54881 2.54903 6.11817 4.16325 10.02515 4.16325 4.16359 0 7.64778-1.69975 10.28111-4.58815l12.91539-14.10405 12.82882 14.10405c2.5493 2.80293 6.20218 4.58815 10.36514 4.58815 3.9091 0 7.47766-1.61423 10.02652-4.16325z"/><path d="m62.70671 36.16929-10.02585 11.04587-10.02631-11.04587-23.19533-25.48981c2.54884-2.54893 6.11815-4.16322 10.02516-4.16322 4.1636 0 7.64776 1.69973 10.28108 4.58814l12.91539 14.10409 12.82882-14.10409c2.54935-2.803 6.20221-4.58814 10.36515-4.58814 3.9091 0 7.47771 1.61429 10.02652 4.16322l-23.19464 25.48981z"/></g></svg>