<svg height="83" viewBox="69.8 139 112 82.8" width="112" xmlns="http://www.w3.org/2000/svg"><path d="m154.922 153.256c0-6.198 5.025-11.224 11.224-11.224s11.224 5.025 11.224 11.224-5.025 11.224-11.224 11.224c-6.199 0-11.224-5.025-11.224-11.224z"/><g fill="#d0d2d3"><path d="m154.922 153.256c0-6.198 5.025-11.224 11.224-11.224s11.224 5.025 11.224 11.224-5.025 11.224-11.224 11.224c-6.199 0-11.224-5.025-11.224-11.224z" transform="translate(-81.141998)"/><path d="m154.922 153.256c0-6.198 5.025-11.224 11.224-11.224s11.224 5.025 11.224 11.224-5.025 11.224-11.224 11.224c-6.199 0-11.224-5.025-11.224-11.224z" transform="translate(-54.210999)"/><path d="m154.975 180.547c0-6.199 5.025-11.224 11.224-11.224s11.224 5.025 11.224 11.224-5.025 11.224-11.224 11.224c-6.197-.006-11.218-5.027-11.224-11.224z"/></g><path d="m154.922 153.256c0-6.198 5.025-11.224 11.224-11.224s11.224 5.025 11.224 11.224-5.025 11.224-11.224 11.224c-6.199 0-11.224-5.025-11.224-11.224z" fill="#b4121b" transform="translate(-27.132)"/><path d="m127.79 180.547c0-6.199 5.025-11.224 11.224-11.224s11.224 5.025 11.224 11.224-5.025 11.224-11.224 11.224c-6.197-.006-11.218-5.027-11.224-11.224z" fill="#faaf3f"/><path d="m101.04 207.838c0-6.198 5.025-11.224 11.224-11.224s11.224 5.025 11.224 11.224-5.025 11.225-11.224 11.225c-6.193.006-11.218-5.01-11.224-11.203z" fill="#d0d2d3"/><path d="m127.79 207.838c0-6.198 5.025-11.224 11.224-11.224s11.224 5.025 11.224 11.224-5.025 11.225-11.224 11.225c-6.199 0-11.224-5.026-11.224-11.225z" fill="#00843f"/></svg>