<svg height="59" width="124" xmlns="http://www.w3.org/2000/svg"><g fill="#231f20"><path d="m75.34 47.5v2.1h2.22v5.49h2.01v-7.59zm-.27 2.1v-2.76h-.48v2.76z"/><path d="m76.53 55.09v-2.1h-2.21v-5.48h-2.01v7.58zm.27-2.1v2.77h.49v-2.77z"/></g><path d="m83.98 55.48v-8.19h-1.79v8.19zm12.59-6v6h1.91v-3.06c0-1.5 1.7-1.59 1.7-1.59v-1.45a2.85 2.85 0 0 0 -1.71.72v-.61h-1.9m7.9-.01v6h1.84v-3.54a.68.68 0 0 1 1.36 0v3.53h1.8v-4.48c0-.9-1.18-2.23-3.17-.94v-.56h-1.84" fill="#ed1c24"/><path d="m100.62 50.77a3.79 3.79 0 0 1 .85 0c.88 0 .77.75.77.75a2.25 2.25 0 0 0 -1-.27 2 2 0 0 0 -2 2.18 1.93 1.93 0 0 0 2 2 1.88 1.88 0 0 0 1.14-.35v.38h1.73v-4.07a1.65 1.65 0 0 0 -.5-1.41 2.9 2.9 0 0 0 -1.7-.6h-1.23v1.4zm.18 2.49a.77.77 0 1 1 .77.77.77.77 0 0 1 -.77-.77m11.72.43a1.16 1.16 0 1 1 1.15-1.15 1.15 1.15 0 0 1 -1.15 1.15zm0-4a2.68 2.68 0 0 0 -2.73 2.84 2.62 2.62 0 0 0 2.71 2.89 1.94 1.94 0 0 0 1-.44v.51h1.85v-8.21h-1.85v2.72a2.34 2.34 0 0 0 -1-.33m-19.29 3.97a1.16 1.16 0 1 1 1.16-1.16 1.16 1.16 0 0 1 -1.16 1.16zm.13 2.79c-.85 0-1-.58-1-.58h-2.17c.45 3 5.7 3.11 5.94.24v-6.61h-1.78v.62c-1.23-1.25-4.11-.34-4 2.46.09 2.62 2.87 3.41 4 2.4v.7c0 .79-1 .76-1 .76m-7.14-4.7a1 1 0 0 1 2 0zm1-2.46a3 3 0 0 0 -2.89 3.09c0 2.13 1.33 3.35 3.08 3.3a2.72 2.72 0 0 0 2.62-2.08h-1.85a.92.92 0 0 1 -.89.41 1 1 0 0 1 -1-1h3.87c.22-2.21-1.21-3.71-2.91-3.71" fill="#ed1c24"/><path d="m26.8 55.01-.44-1.31h-2.61l-.45 1.31h-1.5l2.68-7.37h1.13l2.69 7.37zm-1.72-5.2-.93 2.68h1.85zm10.41 4.78c-.357.326-.827.501-1.31.49-.515.033-1.015-.178-1.35-.57v.51h-1.3v-7.38h1.35v2.45c.329-.374.813-.574 1.31-.54.483-.011.953.164 1.31.49.445.667.624 1.477.5 2.27.121.797-.061 1.611-.51 2.28zm-1.71-3.82c-.81 0-.91.66-.91 1.54s.1 1.55.91 1.55.91-.67.91-1.55-.1-1.54-.91-1.54zm6.12.32c-.45-.527-1.302-.368-1.533.285-.043.123-.059.255-.047.385v3.25h-1.32v-5.4h1.31v.52c.352-.376.845-.587 1.36-.58.478-.025.942.162 1.27.51zm4.17 3.92v-.47c-.341.367-.831.559-1.33.52-.507.037-1.006-.136-1.38-.48-.301-.33-.462-.764-.45-1.21 0-.86.59-1.56 1.84-1.56h1.25v-.27c0-.59-.29-.85-1-.85-.388-.027-.763.142-1 .45l-.86-.84c.489-.552 1.217-.832 1.95-.75 1.51 0 2.3.64 2.3 1.91v3.55zm0-2.28h-1.07c-.49 0-.76.23-.76.61s.25.62.78.62c.308.041.618-.054.85-.26.158-.189.23-.435.2-.68zm5.55 2.28v-3.26c.073-.689-.627-1.199-1.26-.917-.357.158-.571.529-.53.917v3.26h-1.35v-5.4h1.32v.5c.354-.364.842-.567 1.35-.56.471-.017.929.156 1.27.48.403.404.614.961.58 1.53v3.45zm5.52 0v-.5c-.331.391-.828.603-1.34.57-.49.013-.966-.162-1.33-.49-.463-.664-.659-1.478-.55-2.28-.109-.799.087-1.61.55-2.27.36-.328.833-.504 1.32-.49.5-.034.987.166 1.32.54v-2.45h1.35v7.37zm-1-4.25c-.81 0-.91.66-.91 1.54s.1 1.55.91 1.55.92-.67.92-1.55-.06-1.53-.88-1.53zm9.32 3.65c-.443.446-1.052.685-1.68.66-.625.026-1.232-.214-1.67-.66-.486-.585-.707-1.346-.61-2.1-.095-.756.129-1.517.62-2.1.438-.446 1.045-.686 1.67-.66.628-.025 1.237.214 1.68.66.484.582.705 1.339.61 2.09.097.759-.128 1.524-.62 2.11zm-1-3.41c-.168-.163-.396-.25-.63-.24-.231-.01-.456.077-.62.24-.266.381-.377.85-.31 1.31-.067.463.043.935.31 1.32.164.163.389.25.62.24.234.01.462-.077.63-.24.267-.385.377-.857.31-1.32.056-.465-.069-.935-.35-1.31zm4.12-.2v4.21h-1.35v-4.21h-.56v-1h.56v-.67c-.044-.88.691-1.601 1.57-1.54h.77v1.14h-.57c-.32 0-.47.18-.47.49v.59h1v1zm-52.02-12.12-5.05-15.86h-3.42v15.86h-6.09v-38.68h9.78c7.06 0 9.89 3.42 9.89 11.41 0 4.78-1 8.2-4.51 10.11l5.76 17.17zm-4.73-33.2h-3.74v11.85h3.74c3.26 0 3.75-2.72 3.75-5.92s-.49-5.93-3.75-5.93zm23.26 33.2v-2.47c-.463.731-1.052 1.374-1.74 1.9-.947.684-2.093 1.036-3.26 1-2.075.126-4.082-.766-5.38-2.39-1.14-1.35-1.71-3.51-1.71-6.41-.091-2.422.881-4.764 2.66-6.41 1.41-1.25 3.26-2 6.57-2h2.55v-4c0-2.12-1-3.31-2.77-3.31-.725-.028-1.423.274-1.9.82-.631.736-.944 1.693-.87 2.66h-5.78c-.081-2.312.803-4.554 2.44-6.19 1.637-1.502 3.778-2.337 6-2.34 2.247-.132 4.45.659 6.1 2.19 1.733 1.802 2.639 4.244 2.5 6.74v20.21zm-.33-12.66h-1.9c-1.077-.136-2.163.179-3 .87-.76.895-1.165 2.037-1.14 3.21 0 2.55 1 4 3 4 1.74 0 3-1.47 3-3.8zm19.12-10.81c-2.748-.109-4.979 2.197-4.78 4.94v18.53h-5.76v-28.63h5.54v3c.671-.921 1.521-1.697 2.5-2.28 1.349-.8 2.892-1.211 4.46-1.19v5.63zm3.81-12c.011-1.748 1.432-3.16 3.18-3.16 1.729.027 3.119 1.431 3.13 3.16.011 1.745-1.385 3.173-3.13 3.2-1.764 0-3.191-1.436-3.18-3.2zm.31 35.47v-27.87h5.76v27.87zm13.87-1.74c-1.79-1.41-2.88-3.59-2.88-7v-14.73h-3.7v-4.4h3.71v-8.1h5.76v8.1h4v4.4h-4v14.45c0 2.66 1.36 3.86 4.07 3.86v5.16c-2.73 0-5.01-.22-6.96-1.74zm20.04 1.74v-2.47c-.463.731-1.053 1.374-1.74 1.9-.947.684-2.093 1.036-3.26 1-2.075.126-4.082-.766-5.38-2.39-1.14-1.35-1.73-3.51-1.73-6.41-.091-2.422.881-4.764 2.66-6.41 1.41-1.25 3.26-2 6.57-2h2.55v-4c0-2.12-1-3.31-2.77-3.31-.725-.028-1.423.274-1.9.82-.663.748-.992 1.734-.91 2.73h-5.71c-.081-2.312.803-4.554 2.44-6.19 1.637-1.502 3.778-2.337 6-2.34 2.23-.145 4.424.62 6.08 2.12 1.733 1.802 2.639 4.244 2.5 6.74v20.21zm-.33-12.66h-1.9c-1.077-.136-2.163.179-3 .87-.76.895-1.165 2.037-1.14 3.21 0 2.55 1 4 3 4 1.74 0 3-1.47 3-3.8zm20 12.66v-20.59c0-2.23-1.25-3.31-2.83-3.31s-2.82 1.09-2.82 3.31v20.59h-5.76v-28.63h5.54v2.16c.509-.717 1.154-1.325 1.9-1.79.876-.504 1.87-.766 2.88-.76 1.996-.132 3.935.696 5.22 2.23 1.14 1.3 1.63 2.88 1.63 6.19v20.6z" fill="#231f20"/></svg>