<svg clip-rule="evenodd" fill-rule="evenodd" viewBox="88 142 121 121" xmlns="http://www.w3.org/2000/svg"><path d="m168.156 206.869c7.819 0 19.131-1.612 19.131-10.912.023-.717-.042-1.436-.194-2.138l-4.656-20.225c-1.075-4.45-2.019-6.469-9.831-10.375-6.063-3.1-19.269-8.219-23.175-8.219-3.638 0-4.694 4.688-9.031 4.688-4.175 0-7.275-3.5-11.181-3.5-3.75 0-6.194 2.556-8.081 7.813 0 0-5.256 14.825-5.931 16.975-.107.395-.154.804-.137 1.212 0 5.762 22.688 24.656 53.087 24.656m20.331-7.113c1.081 5.119 1.081 5.656 1.081 6.331 0 8.75-9.837 13.606-22.769 13.606-29.225.019-54.825-17.106-54.825-28.425-.002-1.576.319-3.135.944-4.581-10.513.525-24.119 2.4-24.119 14.413 0 19.675 46.619 43.925 83.531 43.925 28.3 0 35.437-12.8 35.437-22.906 0-7.95-6.875-16.975-19.269-22.363" fill="#e00"/><path d="m188.488 199.732c1.081 5.119 1.081 5.656 1.081 6.331 0 8.75-9.837 13.606-22.769 13.606-29.225.019-54.825-17.106-54.825-28.425-.002-1.576.319-3.135.944-4.581l2.287-5.662c-.105.387-.151.787-.137 1.187 0 5.762 22.688 24.656 53.087 24.656 7.819 0 19.131-1.612 19.131-10.913.023-.717-.042-1.436-.194-2.137l1.394 5.937z"/></svg>