<svg height="501.31887" width="354.62637" xmlns="http://www.w3.org/2000/svg" xmlns:xlink="http://www.w3.org/1999/xlink"><clipPath id="a"><path d="m33 433.819h283.465v-400.819h-283.465z"/></clipPath><g transform="matrix(1.25 0 0 -1.25 -41.102375 542.42125)"><path d="m33 33h283.465v400.819h-283.465z" fill="#fff"/><path d="m157.816 275.171h-124.816v-58.848h124.816z" fill="#00a363"/><path d="m33 33h124.816v50.438h-124.816z" fill="#00a363"/><path d="m0 0h35.662v98.511h-164.478v-35.663h128.816z" fill="#0994dc" transform="translate(161.81641 216.3232)"/><path d="m161.816 33h35.662v50.438h-35.662z" fill="#0994dc"/><path d="m0 0h35.662v138.173h-204.141v-35.662h168.479z" fill="#1c63b7" transform="translate(201.4785 216.3232)"/><path d="m201.479 33h35.662v50.438h-35.662z" fill="#1c63b7"/><path d="m0 0h35.661l-.001 177.835h-243.801v-35.662h208.141z" fill="#8d198f" transform="translate(241.14059 216.3232)"/><path d="m241.141 33h35.662v50.438h-35.662z" fill="#8d198f"/><path d="m0 0v-35.661h247.801l.001-181.835h35.663v217.496z" fill="#ec0677" transform="translate(33 433.81931)"/><path d="m280.803 33h35.662v50.438h-35.662z" fill="#ec0677"/><g fill="#151922"><path d="m33 100.277h283.465v11.339h-283.465z"/><g clip-path="url(#a)"><path d="m0 0c-1.266-4.705-5.298-7.631-10.513-7.631h-10.182l3.629 13.544h12.064c2.226 0 3.939-.571 4.709-1.567.936-1.222.585-3.246.293-4.346m14.367 15.079c-3.426 4.464-9.035 6.821-16.235 6.821h-28.174l-7.924-29.576h-15.932v-15.227h11.856l-7.484-27.933h17.246l7.423 27.681h6.961l6.426-27.681h18.945l-7.645 30.249c8.451 3.26 14.602 10.088 16.956 18.868 1.745 6.531.892 12.494-2.419 16.798" transform="translate(86.898407 174.61819)"/><path d="m0 0h17.25l19.49 72.736h-17.248z" transform="translate(99.176804 123.7822)"/><path d="m0 0 15.209 56.746h-17.253l-19.484-72.736h47.985v15.99z" transform="translate(290.0078 139.77251)"/><path d="m0 0 10.777 17.881.859-17.881zm23.713 44.218h-13.15l-46.168-72.737h19.001l8.057 13.195h20.689l.991-13.195h17.756z" transform="translate(235.6377 152.3008)"/><path d="m0 0h-40.34l-4.279-15.987h12.708l-15.209-56.749h17.261l15.204 56.749h10.371z" transform="translate(182.2617 196.5186)"/><path d="m0 0-4.283-15.987h11.638l-15.207-56.749h17.256l15.208 56.749h11.288l4.285 15.987z" transform="translate(186.1445 196.5186)"/></g></g></g></svg>