<svg viewBox="0 -60 1169 1680" xmlns="http://www.w3.org/2000/svg"><path d="m1053.48 55.43v291.52c-151.14-57.01-285.48-85.84-403.24-85.84-69.97 0-125.3 12.91-167.07 37.86-41.76 25.17-63.07 56.16-63.07 92.73 0 48.63 47.79 91.87 142.73 130.6l274.28 133.39c220.89 105.64 331.12 245.91 331.12 422.12 0 146.51-58.56 263.34-175.46 349.83-117.77 87.35-274.28 130.59-470.84 130.59-90.42 0-171.8-3.87-243.93-12.05-72.12-7.74-154.14-23.66-246.71-46.47v-305.08c169.21 57.02 322.71 85.85 460.07 85.85 164.91 0 246.94-47.77 246.94-144.15 0-47.98-33.38-86.71-100.98-117.04l-304.63-129.74c-113.24-50.77-196.78-112.3-250.6-185.24-54.68-73.58-81.38-157.92-81.38-254.3 0-134.9 56.41-243.55 169.43-326.17 112.39-81.97 262.87-123.06 449.75-123.06 61.35 0 130.46 5.37 208.82 15.27 77.51 10.54 152.65 23.45 224.77 39.38z" fill="#099" fill-rule="evenodd"/></svg>