<svg height="108" width="220" xmlns="http://www.w3.org/2000/svg"><g transform="translate(-439.49909 -787.69642)"><g fill="#5c809b"><path d="m611.13384 894.53455h8.2075v-40.55h-8.2075z"/><path d="m451.89834 895.26529c-4.4875 0-8.3925-1.1375-11.9725-3.095l.8075-4.475c4.405 1.06 7.0925 1.5475 9.695 1.5475 5.8675 0 8.225-2.525 8.225-5.375 0-3.175-1.3875-4.72-7.8125-7.165-7.9025-2.935-10.7575-6.02-10.7575-11.645 0-6.995 5.54-11.805 14.0125-11.805 3.4175 0 6.6775.65 10.4225 2.6075l-.9775 4.4775c-3.0975-.89-5.5475-1.22-7.8225-1.22-4.635 0-6.9175 2.1975-6.9175 5.055 0 2.8425 1.6275 4.395 8.0625 6.6725 7.655 2.7625 10.6675 6.2675 10.6675 12.0475 0 7.1575-5.775 12.3725-15.6325 12.3725"/><path d="m490.45008 859.44755c-5.7 0-9.2025 4.075-9.2025 13.835 0 11.9725 3.09 15.8 9.44 15.8 5.6175 0 9.2-4.0675 9.2-13.9225 0-11.8875-3.1675-15.7125-9.4375-15.7125m-.7325 35.9025c-10.5125 0-17.1025-5.4575-17.1025-20.28 0-14.895 7.33-21.8975 18.8075-21.8975 10.4225 0 17.105 5.4525 17.105 20.11 0 14.9875-7.42 22.0675-18.81 22.0675"/><path d="m533.16308 888.80105.8925 4.845c-1.6325.7725-5.30002 1.455-10.35 1.455-4.97002 0-7.40502-1.4675-7.40502-8.0575v-33.355h8.38502v30.0925c0 4.7425.73 5.35 2.93498 5.4625.82002.04 5.54252-.4425 5.54252-.4425"/><path d="m562.67984 875.56229h-3.505c-9.4475 0-11.8025 3.0925-11.8025 7.3325 0 3.905 2.1825 6.3475 6.26248 6.3475 2.85002 0 6.03002-1.46746 9.04502-4.0675zm1.78498 18.9725-.65498-4.3975c-3.575 3.1-7.40502 5.2125-12.535 5.2125-7.9775 0-12.21-4.075-12.21-11.2375 0-8.3025 6.4325-13.8475 20.67498-13.8475h2.94002v-3.6625c0-4.88-2.5275-7.2375-8.39002-7.2375-4.235 0-8.55498 1.1325-11.88998 2.3575l-1.2225-5.125c4.23-1.8775 9.445-3.345 15.3875-3.345 10.1825 0 14.42 4.89 14.42 12.295v28.9875z"/><path d="m602.89758 861.64455c-1.545-.415-2.605-.5725-3.42-.5725-2.36 0-4.55502 1.7875-8.54502 6.7575v26.705h-8.38998v-40.55h6.92998l.7275 6.8425c4.39002-5.7 7.16002-7.575 10.09252-7.575 1.06 0 2.28.2475 3.5825.8975z"/><path d="m639.61358 895.26529c-4.4725 0-8.3875-1.1375-11.96-3.095l.805-4.475c4.4025 1.06 7.08 1.5475 9.6925 1.5475 5.8625 0 8.225-2.525 8.225-5.375 0-3.175-1.3875-4.72-7.81-7.165-7.9075-2.935-10.7525-6.02-10.7525-11.645 0-6.995 5.535-11.805 14.0025-11.805 3.42 0 6.6775.65 10.41752 2.6075l-.97002 4.4775c-3.0975-.89-5.53998-1.22-7.82-1.22-4.64 0-6.915 2.1975-6.915 5.055 0 2.8425 1.6225 4.395 8.0525 6.6725 7.65252 2.7625 10.6675 6.2675 10.6675 12.0475 0 7.1575-5.7825 12.3725-15.635 12.3725"/><path d="m659.07234 857.76929v-3.5225h-.855l-.8 2.4925-.81-2.4925h-.8625v3.5225h.5825v-2.7775h.012l.87 2.7775h.405l.8775-2.7775h.012v2.7775h.5675z"/><path d="m654.36708 857.76929v-2.935h.875v-.5875h-2.3775v.5875h.8875v2.935z"/></g><path d="m607.24884 810.88855c.1226-.66998 1.745-4.69998 1.745-4.69998 2.01-4.52752.7325-7.7725.7325-7.7725-1.185-4.39752-4.5875-7.83502-4.5875-7.83502.165.1226 1.2 2.875 1.2 2.875 2.385 6.58752-4.01 10.36752-4.01 10.36752-1.6475 1.08748-4.3375 3.68-4.3375 3.68-3.7725 3.6875-2.63248 8.20748-2.63248 8.20748l.15.0674c4.4875 1.10252 8.7025 2.89 12.5325 5.23752-2.5375-4.93752-.7925-10.12752-.7925-10.12752" fill="#ee7314"/><path d="m620.36534 832.24129c-.42-5.43 3.055-9.5025 3.055-9.5025.3575-.57996 3.36-3.70746 3.36-3.70746 3.5575-3.45504 3.59-6.94254 3.59-6.94254.545-4.5225-1.3325-8.98-1.3325-8.98.1026.1726.0376 3.11504.0376 3.11754-.2425 6.99746-7.585 8.1225-7.585 8.1225-1.94.39746-5.405 1.8-5.405 1.8-4.5175 1.86996-5.385 5.97246-5.4825 6.55996 3.7225 2.66 7.0125 5.8775 9.7625 9.5325" fill="#ee7314"/><path d="m646.64508 823.24453c.035.205-1.13 2.915-1.13 2.915-2.82248 6.405-10.0525 4.71502-10.0525 4.71502-1.9475-.345-5.685-.33502-5.685-.33252-5.275.06-7.5725 4.1125-7.5725 4.1125l.2775.6725c2.295 3.67252 4.065 7.6975 5.21 11.9825 1.56-5.3525 6.445-7.92498 6.45-7.92498.5475-.39252 4.495-2.19752 4.495-2.19752 4.58502-1.88248 5.90752-5.1025 5.90752-5.1025 2.18-4.00248 2.1-8.84 2.1-8.84" fill="#ee7314"/><path d="m592.01934 815.07779c-4-3.6475-4.2925-8.955-4.2925-8.955-.15-.665-.1324-5-.1276-5 .1874-4.95-2.2025-7.495-2.2025-7.495-2.72-3.6525-7.1625-5.585-7.1625-5.585.2025.055 2.1875 2.235 2.1875 2.235 4.6475 5.225.1124 11.11.1124 11.11-1.1275 1.625-2.665 5.0275-2.665 5.0275-2.0175 4.555.31 8.1725.5675 8.5625 2.265-.335 4.595-.495 6.9525-.47 2.2625.0226 4.475.215 6.63.57" fill="#ee7314"/><path d="m567.80908 808.83357c-.3675-.565-1.9825-4.59-1.9825-4.59-1.6625-4.66752-4.8225-6.14-4.8225-6.14-3.8975-2.37-8.73-2.51752-8.73-2.51752.2075-.02 2.8575 1.26252 2.8575 1.26252 6.27 3.1225 4.2475 10.27 4.2475 10.27-.44 1.92498-.6025 5.6625-.6025 5.6625-.1924 5.26248 3.755 7.75498 3.755 7.75498l.1874-.065c3.8325-2.23248 8.0425-3.90498 12.4975-4.895-5.1325-1.875-7.4075-6.74248-7.4075-6.74248" fill="#ee7314"/><path d="m559.86434 822.27679c-5.4375.14-9.3325-3.52-9.3325-3.52-.555-.3875-3.535-3.535-3.535-3.535-3.2725-3.72-6.765-3.915-6.765-3.915-4.49-.765-9.025.89-9.025.89.18-.0926 3.1125.1126 3.1175.1126 6.975.585 7.7375 7.97 7.7375 7.97.3 1.955 1.53748 5.485 1.53748 5.485 1.77252 4.9625 6.35502 5.815 6.35502 5.815l.0924-.0774c2.79-3.5525 6.1025-6.6675 9.8175-9.225" fill="#ee7314"/><path d="m538.07558 834.53355c-.6625-.1526-4.6-1.97-4.6-1.97-4.415-2.2575-7.7275-1.1475-7.7275-1.1475-4.455.9475-8.065 4.17-8.065 4.17.135-.1574 2.9425-1.05 2.9425-1.05 6.7-2.0375 10.1375 4.5475 10.1375 4.5475.9975 1.7025 3.455 4.5275 3.455 4.5225 3.4775 3.9575 8.06 3.06 8.06 3.06l.115-.2275c1.2475-4.3275 3.1475-8.3725 5.5725-12.05-4.9725 2.0925-9.89.145-9.89.145" fill="#ee7314"/></g></svg>