<svg height="291" viewBox="0 0 291 291" width="291" xmlns="http://www.w3.org/2000/svg"><g fill="none" fill-rule="evenodd" transform="translate(-35 -34)"><path d="m0 0h360v360h-360z"/><g fill-rule="nonzero"><path d="m184.1 109.5c3.8-.1 20.8-.3 37.3 1.9 5.8.6 11.6 1.5 16.7 2.8 0 0 7.2 1.8 8.5 9.1.5 2.7 1.1 6.3 1.5 10.4.5 5.2.9 11.3.6 18.3 0 0 0 0-.1 0-.4 0-.8 0-1.2-.1-.1 0-.2 0-.3 0-.5-.1-.9-.1-1.4-.2-.1 0-.2 0-.3 0-.5-.1-1-.1-1.5-.2 0 0-.1 0-.2 0-.5-.1-.9-.1-1.4-.2-.1 0-.2 0-.3 0-.5-.1-1.1-.1-1.6-.2-.1 0-.2 0-.3 0-.6-.1-1.1-.1-1.7-.2-.1 0-.1 0-.2 0-.5-.1-1-.1-1.6-.2-.1 0-.2 0-.3 0-.5-.1-1.1-.1-1.7-.2-.1 0-.3 0-.4 0-.6-.1-1.2-.1-1.8-.2h-.1c-.6-.1-1.2-.1-1.8-.2-.1-.1-.2-.1-.4-.1-.6-.1-1.2-.1-1.8-.2-.1 0-.3 0-.4 0-.6-.1-1.2-.1-1.8-.2-.1 0-.1 0-.2 0-.6-.1-1.2-.1-1.9-.2-.1 0-.3 0-.4 0-.6-.1-1.2-.1-1.9-.2-.1 0-.3 0-.4 0-.6-.1-1.2-.1-1.8-.2-.1 0-.2 0-.3 0-.7-.1-1.3-.1-2-.2-.2 0-.3 0-.5 0-.7-.1-1.3-.1-2-.2-.1 0-.2 0-.3 0-.6 0-1.3 0-1.9-.1-.1 0-.2 0-.3 0-.6 0-1.3 0-2-.1-.1 0-.2 0-.4 0-.6 0-1.3 0-2-.1-.1 0-.2 0-.3 0-.6 0-1.3-.1-1.9-.1-.1 0-.2 0-.3 0-.6 0-1.3-.1-2-.1-.1 0-.2 0-.4 0-.7 0-1.4-.1-2.1-.1h-.1c-.7 0-1.3-.1-2-.1-.2 0-.3 0-.4 0-.7 0-1.3-.1-2-.1-.1 0-.3 0-.4 0-.6 0-1.3-.1-2-.1-3.1-.1-6.2-.2-9.2-.2l.2-38s-.3 0-.8 0zm63.7 55.9c-3.6 27.8-16.4 63.7-52.6 98.2-3.5 3.3-7.2 6.6-11.1 9.9l-.1-.7.5-92.7c8.7-2.8 18.6-5.5 29.4-8 13.2-3.1 25.4-5.3 33.9-6.7z" fill="#65656b"/><path d="m119.4 156c-.5-8.7-.2-16.3.3-22.4.4-4.2 1-7.7 1.5-10.5 1.3-7.3 8.5-9.1 8.5-9.1 5.2-1.3 11-2.2 16.8-2.9 16.7-1.9 33.7-1.7 37.5-1.6h.8l-.2 38c-28.1-.2-49.9 2.7-65.2 8.5zm65.1 24.1-.5 92.5v.7c-3.9-3.3-7.6-6.6-11.1-9.9-1.1-1-2.1-2-3.1-3-3.5-3.4-6.7-6.8-9.5-10.1-4.5-5-8.1-9.7-10.9-13.6-5.1-7-7.7-11.7-7.7-11.7-.1-.4-.3-.7-.4-1.1-6.7-14.3 1.9-23 5.3-25.6.2-.1.3-.3.5-.4 2.2-1.7 4.9-3.5 7.9-5.3.7-.5 1.2-.7 1.2-.7 7.4-4.1 16.9-8.1 28.3-11.8zm4.6-126.7.1-18.5c72.6 4.5 130.7 62.2 135.8 134.7h-18.5c-5.1-62.2-55-111.8-117.4-116.2zm-18.1 253.1v18.5c-73.5-4.5-132.1-63.6-136-137.3h18.5c3.8 63.5 54.2 114.4 117.5 118.8z" fill="#9d9d9f"/><path d="m149.4 236.8c2.8 3.9 6.4 8.6 10.9 13.5-17.6-7.9-50.5-25.8-59.7-51-14.3-39 38.8-47.8 93.2-46.3 29.3.8 65.1 5.3 65.1 5.3s-84.6 10.8-115.2 35.5c-16.3 13.2-6.5 30.2 5.7 43zm-95.7-67.1h-18.4c5-72.5 63.2-130.3 135.8-134.7v18.5c-62.5 4.4-112.4 53.9-117.4 116.2zm252.9 18h18.5c-3.9 73.7-62.6 132.8-136 137.3v-18.5c63.2-4.4 113.7-55.3 117.5-118.8z" fill="#ff6c0c"/></g></g></svg>