<svg viewBox="0 -12 81 80" xmlns="http://www.w3.org/2000/svg"><path d="m80.595 49.099h-80.19v-18.063h80.19z" fill="#ed1c24"/><path d="m68.7253 42.9926c-1.336 0-2.46-.898-2.806-2.125h7.417l1.016-1.589h-8.442c.351-1.23 1.473-2.121 2.815-2.121h5.098l1.019-1.6h-6.238c-2.489 0-4.505 2.02-4.505 4.509 0 2.495 2.016 4.516 4.505 4.516h5.356l1.017-1.59zm-21.222 1.59c-2.492 0-4.505-2.021-4.505-4.516 0-2.489 2.013-4.509 4.505-4.509h6.233l-1.026 1.6h-5.087c-1.615 0-2.922 1.304-2.922 2.909 0 1.616 1.307 2.926 2.922 2.926h6.26l-1.024 1.59zm-32.947-1.59c1.613 0 2.927-1.31 2.927-2.926 0-1.605-1.314-2.909-2.927-2.909h-5.005c-1.61 0-2.921 1.304-2.921 2.909 0 1.616 1.311 2.926 2.921 2.926zm-5.122 1.59c-2.49 0-4.512-2.021-4.512-4.516 0-2.489 2.022-4.509 4.512-4.509h5.246c2.493 0 4.505 2.02 4.505 4.509 0 2.495-2.012 4.519-4.505 4.519zm18.269-2.92c1.693 0 3.051-1.372 3.051-3.051 0-1.682-1.358-3.054-3.051-3.054h-7.59v9.025h1.733v-7.425h5.741c.798 0 1.458.647 1.458 1.454 0 .805-.66 1.455-1.458 1.455h-4.889l5.178 4.516h2.523l-3.485-2.92zm28.699 1.33v-7.435h-1.731v8.165c0 .222.084.437.25.598.175.166.398.262.636.262h7.906l1.03-1.59zm-21.24-1.596h4.638l-2.447-3.937-4.494 7.123-2.045.003 5.464-8.561c.24-.341.632-.56 1.075-.56.423 0 .819.211 1.046.549l5.492 8.572-2.058-.003-.956-1.593h-4.691z" fill="#fff"/><g fill="#7b7979"><path d="m44.3709 18.3325c0 1.787-.656 3.257-1.967 4.404-1.313 1.146-3.073 1.719-5.278 1.719-2.062 0-4.062-.658-5.998-1.971l.906-1.81c1.666.835 3.174 1.248 4.528 1.248 1.27 0 2.264-.282 2.984-.84.716-.562 1.147-1.346 1.147-2.344 0-1.25-.874-2.322-2.474-3.22-1.479-.811-4.437-2.505-4.437-2.505-1.6-1.168-2.404-2.422-2.404-4.488 0-1.709.597-3.089 1.795-4.141 1.195-1.052 2.745-1.577 4.64-1.577 1.957 0 3.735.521 5.342 1.561l-.814 1.812c-1.373-.582-2.727-.875-4.06-.875-1.084 0-1.918.26-2.501.781-.582.521-.945 1.188-.945 2 0 1.248.894 2.331 2.541 3.246 1.497.815 4.528 2.541 4.528 2.541 1.646 1.167 2.467 2.412 2.467 4.459"/><path d="m63.4265 8.6177h2.624l.25 1.748c1.543-1.374 3.145-2.061 4.813-2.061 3.119 0 4.685 2.33 4.685 6.998v8.869h-3.221v-8.245c0-1.876-.205-3.182-.622-3.92-.416-.742-1.064-1.109-1.938-1.109-.915 0-2.039.52-3.372 1.561v11.713h-3.219z"/><path d="m59.4733 24.1721h-2.624l-.25-1.75c-1.543 1.375-3.142 2.065-4.81 2.065-3.125 0-4.688-2.335-4.688-6.999v-8.87h3.218v8.246c0 1.874.208 3.182.626 3.919.415.741 1.063 1.109 1.937 1.109.915 0 2.039-.519 3.372-1.564v-11.71h3.219z"/><path d="m18.2432 13.7883-.511-.512 5.247-5.246-1.288-1.29-5.184 5.182c-.433.426-.65.993-.649 1.554 0 .568.216 1.13.648 1.556.428.43.986.643 1.553.643.56 0 1.122-.213 1.551-.643l5.185-5.186-1.304-1.303z"/><path d="m25.1495 13.1124.513.511-5.247 5.246 1.289 1.288 5.181-5.181c.433-.426.65-.992.648-1.554 0-.566-.215-1.129-.648-1.556-.427-.428-.987-.642-1.551-.642-.56 0-1.123.212-1.551.644l-5.187 5.184 1.305 1.305z"/><path d="m14.8215 9.6898-.509.515-5.247-5.245-1.289 1.283 5.18 5.184c.427.434.994.65 1.556.65.568 0 1.127-.216 1.557-.65.428-.427.64-.986.64-1.551-.001-.559-.212-1.125-.641-1.552l-5.186-5.187-1.304 1.308z"/><path d="m14.1462 2.786.511-.513 5.248 5.247 1.29-1.288-5.182-5.182c-.428-.433-.994-.649-1.557-.649-.568 0-1.126.216-1.557.649-.427.426-.64.986-.64 1.55 0 .559.213 1.122.642 1.553l5.187 5.185 1.303-1.304z"/><path d="m14.838 24.114-.511.511-5.246-5.247-1.289 1.29 5.182 5.181c.424.433.992.649 1.552.648.568 0 1.13-.215 1.558-.65.428-.427.641-.984.641-1.548 0-.559-.213-1.124-.641-1.554l-5.186-5.185-1.305 1.305z"/><path d="m14.1627 17.2069.51-.512 5.249 5.245 1.288-1.287-5.182-5.182c-.426-.434-.994-.652-1.555-.65-.567 0-1.128.216-1.556.65-.428.427-.641.986-.641 1.551 0 .559.211 1.123.64 1.55l5.188 5.188 1.303-1.305z"/><path d="m3.8262 13.7962-.512-.513 5.249-5.245-1.288-1.289-5.182 5.181c-.434.425-.651.993-.65 1.553 0 .568.216 1.129.648 1.557.426.43.986.642 1.55.642.561 0 1.124-.212 1.553-.642l5.186-5.185-1.305-1.305z"/><path d="m10.7348 13.1186.511.512-5.247 5.248 1.288 1.288 5.184-5.183c.43-.425.648-.992.646-1.555.002-.566-.216-1.127-.646-1.555-.429-.429-.989-.642-1.552-.642-.561 0-1.123.213-1.552.642l-5.186 5.186 1.304 1.304z"/></g></svg>