<svg enable-background="new 0 0 231.7 122.9" viewBox="-13.6 -26 254 170" xmlns="http://www.w3.org/2000/svg"><ellipse cx="118.9" cy="56.2" fill="#fff" rx="100.8" ry="50.5" transform="matrix(.9961 -.0877128 .0877128 .9961 -4.4718 10.6497)"/><path d="m220.2 45.9c3.9 31.4-42.3 62.9-103.2 70.4s-112.9-11.9-116.8-43.3 42-62.9 102.9-70.4 113.3 11.9 117.1 43.3zm-105.7-40c-55.5 4.9-98.5 31.4-96 59.2s49.4 46.4 104.9 41.5 98.5-31.4 96-59.2c-2.5-27.9-49.4-46.4-104.9-41.5z" fill="#00953b"/><circle cx="218.9" cy="61.6" fill="#d7282f" r="11.6"/><g fill="#003a70"><path d="m59.3 51.8h.4c1.3.1 1.9.5 2.1.7s.5.9.5 3v8.4c0 2-.2 3.5-.7 4.4-.8 1.6-2.4 2.4-4.9 2.4-2.2 0-3.7-.8-4.5-2.3-.4-.9-.6-2.1-.6-3.8v-10.4c0-1.4.3-1.8.4-1.9.2-.1.7-.4 2.1-.5h.4v-1.5h-10.1v1.5h.4c1.5.1 1.9.4 2.1.5.1.1.4.5.4 1.9v10.1c0 2.1.4 3.8 1.1 5.1 1.4 2.4 3.9 3.7 7.6 3.7s6.3-1.2 7.6-3.7c.7-1.3 1.1-3.2 1.1-5.5v-8.4c0-2.1.3-2.7.5-2.9.2-.3.7-.6 2.1-.7h.4v-1.5h-8.5v1.4z"/><path d="m38.3 57.2-3.5-2.2c-1.3-.8-2.2-1.5-2.8-2.2-.6-.6-.8-1.4-.8-2.3 0-1 .3-1.8 1-2.3.7-.6 1.6-.9 2.6-.9 1.3 0 2.6.5 4 1.4 1.3.9 2.3 2.7 2.9 5.1l.1.4h1.9l-1-9.4h-1.7v.3c-.1.4-.2.6-.4.8-.1.1-.3.2-.6.2 0 0-.4-.1-2.1-.6-1.3-.5-2.5-.7-3.4-.7-2.3 0-4.2.7-5.7 2.1-1.4 1.4-2.1 3.2-2.1 5.4 0 1.6.6 3.1 1.8 4.5.6.7 1.5 1.4 2.5 2.1l3.4 2.1c1.9 1.2 3.2 2.1 3.8 2.7.9.9 1.3 1.9 1.3 3.1 0 1.3-.4 2.3-1.2 3s-1.8 1.1-3 1.1c-2.2 0-4-.9-5.5-2.6-.9-1-1.6-2.4-2.3-4.1l-.1-.3h-1.8l1.3 9.5h1.7l.1-.4c0-.3.1-.5.3-.8.1-.1.3-.2.5-.2 0 0 .4 0 2.2.7 1.4.5 2.8.7 4 .7 2.6 0 4.7-.8 6.4-2.2 1.7-1.5 2.5-3.4 2.5-5.6 0-1.7-.5-3.1-1.4-4.3-1.1-1.5-2.6-2.8-4.9-4.1z"/><path d="m76.4 63.3h1.4c2.5 0 4.6-.5 6.3-1.6 1.8-1.1 2.6-2.8 2.6-5.2 0-1.9-.8-3.4-2.4-4.6-1.5-1.1-3.7-1.7-6.6-1.7h-9v1.5h.4c1.4.1 1.8.4 1.9.5s.4.6.4 1.9v14c0 1.6-.2 2.1-.3 2.3-.1.1-.5.4-2 .6h-.4v1.5h10v-1.5h-.4c-1.6-.1-2.1-.4-2.2-.5s-.4-.5-.4-1.9v-5.4c.2 0 .4.1.7.1zm-.7-10.3c0-.4.1-.5.1-.5s.2-.1.9-.1c1.3 0 2.4.2 3.3.6 1.5.7 2.3 1.9 2.3 3.6 0 1.9-.7 3.2-2.1 3.9-.8.4-1.9.6-3.3.6-.2 0-.3 0-.5 0-.1 0-.4 0-.7-.1z"/><path d="m103.2 66.2-.1.3c-.8 1.7-1.6 2.8-2.6 3.2s-2.5.7-4.7.7c-2.6 0-3.3-.1-3.5-.2-.1 0-.3-.1-.3-.7v-7.5h4.5c1.6 0 2.1.3 2.3.5s.5.8.8 2.3l.1.4h1.6v-8.4h-1.6l-.1.4c-.3 1.4-.6 2-.8 2.2s-.7.5-2.3.5h-4.5v-6.9c0-.4.1-.5 0-.5 0 0 .2-.1.5-.1h4.4c2.3 0 3.1.3 3.4.5s.7.9 1.1 2.5l.1.4h1.7l-.1-5.6h-18.1v1.5h.4c1.4.1 1.9.4 2 .5s.4.6.4 1.9v14.4c0 1.5-.3 1.8-.4 1.9-.2.1-.6.4-2.1.5h-.4v1.5h18.4l1.7-6.4h-1.8z"/><path d="m124.2 70.7c-.4-.2-.7-.5-1.1-1l-6.2-7.6c1.5-.3 2.8-.9 3.7-1.7 1.2-1 1.8-2.3 1.8-4.1 0-2.6-1.3-4.4-3.9-5.4-1.3-.5-2.9-.7-4.8-.7h-9.5v1.5h.4c1.4.1 1.8.4 2 .5.1.1.4.6.4 1.9v14c0 1.7-.2 2.1-.3 2.3-.1.1-.5.4-2 .6h-.4v1.5h10v-1.5h-.4c-1.5-.1-1.9-.4-2.1-.5-.1-.1-.4-.5-.4-1.9v-5.9h.7l8.1 10h5.9v-1.5h-.4c-.6-.2-1.1-.3-1.5-.5zm-12.9-10.2v-7.5c0-.4.1-.5.1-.5s.3-.1 1.4-.1c1.3 0 2.3.2 3.1.5 1.4.6 2 1.7 2 3.4s-.7 2.9-2.3 3.5c-.8.4-2.3.7-4.3.7z"/><path d="m141.4 65.7-7.1-15.5h-7.2v1.5h.5c1.6.1 2.1.4 2.2.5.2.1.4.6.4 1.9v13.2c0 2.1-.3 2.7-.5 3-.2.2-.7.6-2.3.7h-.4v1.5h8.6v-1.5h-.4c-1.4-.1-1.8-.4-2-.6-.3-.3-.6-1.1-.6-3.1v-10.6l7.4 16h1.1l7.5-16.7v12.3c0 1.7-.3 2.2-.4 2.3s-.5.4-2.1.5h-.4v1.5h10v-1.5h-.4c-1.4-.1-1.9-.4-2-.5s-.4-.5-.4-1.9v-14.5c0-1.3.2-1.8.4-1.9.1-.1.6-.4 2-.5h.4v-1.5h-7.2z"/><path d="m164.4 70.6c-.1-.1-.4-.4-.4-1.9v-14.5c0-1.4.3-1.8.4-1.9.2-.2.7-.4 2.3-.5h.5v-1.5h-10.5v1.5h.5c1.6.1 2.1.3 2.3.5.1.1.4.5.4 1.9v14.4c0 1.5-.3 1.9-.4 1.9-.2.1-.7.4-2.3.5h-.4v1.5h10.5v-1.5h-.4c-1.8 0-2.4-.3-2.5-.4z"/><path d="m184.3 67.6c-.9.9-1.8 1.6-2.6 2-1.3.8-2.8 1.1-4.4 1.1-2.2 0-4-.8-5.4-2.4s-2.2-3.8-2.2-6.6c0-3 .7-5.4 2.1-7.1s3.1-2.5 5.2-2.5 3.7.8 5 2.3c.7.8 1.2 2 1.6 3.3l.1.3h1.6l-.3-8.2h-1.5l-.1.3c-.1.2-.2.4-.4.5s-.4.2-.6.2c-.1 0-.4-.1-2-.5-1.3-.4-2.5-.5-3.7-.5-3.5 0-6.4 1.2-8.5 3.5-2.1 2.2-3.1 5-3.1 8.3 0 3.2 1 5.9 3 8 2.1 2.3 5 3.5 8.6 3.5 2.2 0 4.3-.6 6.2-1.8 1.1-.7 2-1.6 2.8-2.5l.3-.3-1.2-1.2z"/><path d="m207.3 71.1c-.6-.1-1-.2-1.4-.4s-.7-.5-1.1-1l-6.2-7.6c1.5-.3 2.8-.9 3.7-1.7 1.2-1 1.8-2.3 1.8-4.1 0-2.6-1.3-4.4-3.9-5.4-1.3-.5-2.9-.7-4.8-.7h-9.4v1.5h.4c1.4.1 1.8.4 2 .5.1.1.4.6.4 1.9v14c0 1.7-.2 2.1-.3 2.3-.1.1-.5.4-2 .6h-.4v1.5h10v-1.5h-.4c-1.5-.1-1.9-.4-2.1-.5-.1-.1-.4-.5-.4-1.9v-5.9h.7l8.1 10h5.9v-1.5zm-14.3-10.6v-7.5c0-.4.1-.5.1-.5s.3-.1 1.4-.1c1.3 0 2.3.2 3.1.5 1.4.6 2 1.7 2 3.4s-.7 2.9-2.3 3.5c-.8.4-2.3.7-4.3.7z"/></g></svg>