<svg viewBox="0 -33 123 123" xmlns="http://www.w3.org/2000/svg"><path d="m117.58 19.213c0 3.024-2.451 5.474-5.468 5.474-3.019 0-5.464-2.45-5.464-5.474 0-3.013 2.445-5.458 5.464-5.458 3.017 0 5.468 2.445 5.468 5.458m-39.041 22.878c-3.486-1.287-4.834-1.025-9.283-.975-3.084.057-3.192-.05-6.712-.05-1.087 0-1.498 5.201 2.444 6.293 1.722.472 3.583.768 4.883 2.091.575.595.892 1.471-.424 1.471h-9.779c-1.713 0-3.327.041-4.639-1.066-1.968-1.666-2.885-3.962-3.874-6.232-1.019-2.378-2.121-4.7-3.428-6.935-2.578-4.437-5.991-8.439-10.568-10.89-5.708-3.064-15.41-4.597-23.093 1.302-8.087 6.221-6.35 17.856.722 23.555 2.794 2.249 6.443 3.192 10.025 2.977 6.996-.4 12.167-5.566 10.875-11.921-.42-2.117-1.66-4.125-3.541-5.227-1.311-.78-2.89-1.057-4.439-1.061-1.645 0-3.402.343-4.591 1.486-1.399 1.363-1.629 3.772-.507 5.376.62.887 1.629 1.635 1.461 2.794-.119.788-.764 1.368-1.538 1.537-1.307.287-2.511-.462-3.393-1.368-2.281-2.342-2.993-6.073-1.748-9.087 1.646-3.951 6.197-6.13 10.476-5.992 5.498.191 10.701 3.824 12.961 8.851 2.249 5.033 1.578 11.204-1.544 15.76-6.918 10.117-24.005 8.922-31.932.4-4.988-5.356-7.698-10.547-7.319-20.223.266-6.826 4.218-13.556 9.235-18.302 8.195-7.702 18.984-12.986 29.951-15.267 6.662-1.373 13.539-1.69 20.31-1.019 5.966.594 11.9 1.691 17.629 3.464 2.85.881 5.643 1.942 8.353 3.183 2.39 1.096 5.52 2.296 7.376 4.182 0-3.429-.134-7.191-.134-9.82 0-1 1.061-1.67 1.959-1.25 3.879 1.809 13.067 6.144 19.197 8.953 8.221 3.746 8.806 12.607 9.087 20.453.004.18.01.364-.061.512-.258.545-1.651.396-2.153.406-.984.016-2.471 0-3.444.046-1.968.093-3.874.04-5.838-.046-3.623-.18-7.134-1.794-9.481-3.767-.234-.195-.999-.399-1.347-.035-.369.384-.246.984-.047 1.177 1.348 1.359 2.814 2.246 4.51 3.127 2.147 1.107 4.504 1.383 6.894 1.521 2.552.149 5.125.114 7.666-.142 2.133-.221 2.686-.365.59 1.194-1.851 1.373-3.988 2.357-6.161 3.091-3.11 1.049-6.4 1.573-9.686 1.664-1.983.062-3.976-.045-5.944-.296-1.026-.134-2.04-.323-3.06-.426-.836-.077-1.702-.236-2.532-.057-.749.16-1.44.575-1.911 1.19-.657.835-.871 3.167-.498 4.182.723 1.952 2.313 3.091 3.993 4.095 1.825 1.081 4.224 1.445 4.684 3.515.102.436-3.766.441-4.212.436h-5.157s-2.808.077-3.889-.334c-.041-.009-.067-.02-.097-.035-.596-.323-.857-1.118-1.062-1.717-.281-.846-.783-1.697-1.398-2.578-1.169-1.65-2.952-3.474-4.817-4.166m35.268-30.069c-5.335-1.25-10.137 3.547-8.881 8.882.631 2.721 2.793 4.879 5.514 5.52 5.341 1.25 10.147-3.552 8.887-8.887-.635-2.732-2.793-4.884-5.52-5.515m2.583 6.791c-.769-.805-2.044-.805-2.823 0-.872.872-.769 2.368.317 3.086.656.44 1.537.44 2.199 0 1.076-.718 1.183-2.214.307-3.086" fill="#31ba78"/></svg>