<svg viewBox="0 0 90 88.6" xmlns="http://www.w3.org/2000/svg"><g fill="#88071a"><path d="m16.16 18.84a37 37 0 0 0 2.63 50.26 39 39 0 0 0 44.75 6.78q1.65 2 3.25 4a44.16 44.16 0 0 1 -51.61-7.22 41.9 41.9 0 0 1 -3.56-56.22c1.53.76 3.05 1.56 4.54 2.4zm63.33 50.68a41.93 41.93 0 0 0 -2.87-57.06 44.17 44.17 0 0 0 -53.2-6.33c2.43.55 4.92 1.18 7.43 1.87a39 39 0 0 1 42.15 8 36.94 36.94 0 0 1 4.7 47.52c.64 2 1.24 4.01 1.79 6z"/><path d="m58 30.41c7.15 10.67 19 37.28 21.25 56.42-15.81-21.58-29.97-36.5-62.25-47.99 10.69-.31 26 .59 35.18 3.58-10.24-15.56-31.77-27.42-52.18-35.66 18 .31 52.3 10.39 69.34 23.35a45.77 45.77 0 0 0 -11.39.3z" fill-rule="evenodd"/></g></svg>