<?xml version="1.0" encoding="utf-8"?>
<svg height="300" width="300" viewBox="0 0 103 103" xmlns="http://www.w3.org/2000/svg">
  <path d="m0 0c0-7.432-6.025-13.456-13.456-13.456-7.432 0-13.456 6.024-13.456 13.456s6.024 13.457 13.456 13.457c7.431 0 13.456-6.025 13.456-13.457" fill="#fff" transform="matrix(3.730712 0 0 -3.730712 101.403915 51.204224)"/>
  <g fill="#d71920">
    <path d="m0 0 .018.046.053.144.052.13.023.06c.251.619.567 1.256.95 1.901.05.107.102.212.154.318l-1.612-.004.391.864c1.332.363 3.551 1.105 5.669 3.159l.063.004h1.115l-1.442-3.09 2.316.007-.425-.92-2.312-.008s-1.085-2.168-1.453-3.719c-.285-1.731-.005-3.023 1.546-3.507.958-.297 2.153-.229 3.441.136 2.997.933 6.201 2.994 8.545 5.721 3.859 4.483 3.934 9.07.171 10.241-2.415.75-5.82-.084-8.971-1.962 3.929 2.534 8.249 3.724 11.23 2.796.559-.174 1.043-.414 1.455-.71-2.463 2.715-6.019 4.419-9.973 4.419-7.43 0-13.456-6.025-13.456-13.456 0-2.744.823-5.295 2.232-7.423-.533 1.315-.458 3.002.22 4.853" transform="matrix(3.730712 0 0 -3.730712 10.147705 60.920837)"/>
    <path d="m0 0c.9-2.445-.226-6.094-3.334-9.706-4.666-5.426-12.037-8.707-16.461-7.33-.549.171-1.026.406-1.433.697 2.455-2.62 5.945-4.256 9.818-4.256 7.433 0 13.458 6.024 13.458 13.456 0 2.624-.753 5.07-2.048 7.139" transform="matrix(3.730712 0 0 -3.730712 93.768997 24.701965)"/>
  </g>
</svg>