<svg viewBox="0 0 123 124" xmlns="http://www.w3.org/2000/svg"><path d="m0 0h150v150h-150z" fill="none"/><path d="m119.19 0h-7.69v7.69h7.69zm-26.9 53.84v-15.4h15.37v15.38h15.37c.26 14.25-.82 26.68-8.06 39.12-20.96 36.88-72.74 41.85-100.21 9.49-6.41-7.45-11.02-16.51-13.18-26.18-1.1-5.25-1.58-11.92-1.58-17.55v-57.74h30.75l.06 58.57c.15 7.58 1.52 15.37 6.05 21.31 13.04 17.66 40.64 16.06 51.33-3.18 3.84-6.42 4.19-16.61 4.09-23.82zm3.84-42.31h11.53v11.53h15.38v15.38h-15.38v-15.37h-11.53v-11.53z" fill="#005ed9"/></svg>