<svg enable-background="new 0 0 110 120" viewBox="0 0 110 120" xmlns="http://www.w3.org/2000/svg" xmlns:xlink="http://www.w3.org/1999/xlink"><clipPath id="a"><path d="m59.61 99.328c-8.764-.398-15.507-2.623-20.731-5.842 3.537 15.359 16.769 22.9 17.408 23.256l3.901 2.152c29.842-1.994 47.315-21.262 47.315-46.453v-5.461c-7.098 23.145-23.606 33.442-47.893 32.348"/></clipPath><linearGradient id="b" gradientUnits="userSpaceOnUse" x1="38.87023934" x2="107.49708288" y1="92.92386361" y2="92.92386361"><stop offset="0" stop-color="#656263"/><stop offset="1" stop-color="#a7a5a6"/></linearGradient><path d="m25.354.331 2.548-8.308v-56.903c-29.763 0-32.861 11.412-32.861 22.31v62.489c0 3.236-.313 6.666-.97 10.031 15.78-2.871 26.076-12.625 31.283-29.619" fill="#0d0d0d" transform="translate(79.6021 65.8706)"/><g fill="#39a2e1"><path d="m28.779 13.982h-6.576v-6.495h6.576z"/><path d="m35.35 23.798h-6.57v-6.499h6.57z"/><path d="m28.741 31.973h-6.499v-6.499h6.499z"/><path d="m22.171 41.717h-6.496v-6.5h6.496z"/><path d="m9.064 7.487h-6.568v-6.565h6.568z"/><path d="m-28.745-24.756h6.563v14.473h6.578v-24.214h6.568v47.321c0 22.455 19.651 33.289 19.651 33.289-33.012 0-52.505-20.014-52.505-46.641v-53.546h6.566v35.814h6.578v-6.496z" transform="translate(44.3853 72.9648)"/></g><g clip-path="url(#a)"><path d="m59.61 99.328c-8.764-.398-15.507-2.623-20.731-5.842 3.537 15.359 16.769 22.9 17.408 23.256l3.901 2.152c29.842-1.994 47.315-21.262 47.315-46.453v-5.461c-7.098 23.145-23.606 33.442-47.893 32.348" fill="url(#b)"/></g><path d="m22.165 20.548h-6.49v-6.5h6.49z" fill="#39a2e1"/></svg>