<svg enable-background="new 0 0 64 64" viewBox="0 0 64 64" xmlns="http://www.w3.org/2000/svg"><path d="m11.6 0h40.8v64h-40.8z" fill="#768993"/><path d="m45.7 64h-27.5c0-2.8 2.3-5.1 5.1-5.1h17.4c2.7 0 5 2.3 5 5.1zm-13.8-24.8c-7.6 0-13.8-6.2-13.8-13.8v-25.4h27.5v25.5c.1 7.5-6.1 13.7-13.7 13.7z" fill="#4c6272"/><path d="m38.4 8.2c0 3.6-2.9 6.5-6.5 6.5s-6.5-2.9-6.5-6.5 2.9-6.5 6.5-6.5 6.5 2.9 6.5 6.5z" fill="#5dafd8"/><path d="m34.6 19.6c0 1.5-1.2 2.6-2.6 2.6-1.5 0-2.6-1.2-2.6-2.6s1.2-2.6 2.6-2.6 2.6 1.1 2.6 2.6z" fill="#f7747e"/><path d="m34.6 27.1c0 1.5-1.2 2.6-2.6 2.6-1.5 0-2.6-1.2-2.6-2.6s1.2-2.6 2.6-2.6 2.6 1.1 2.6 2.6z" fill="#5bcec3"/><path d="m26.1 42.5v8.5c0 1-.2 1.8-.7 2.6-.4.7-1.1 1.3-1.9 1.7s-1.8.6-2.9.6c-1.7 0-3-.4-4-1.3-.9-.9-1.4-2.1-1.4-3.6v-8.5h2.8v8.1c0 1 .2 1.8.6 2.2.4.5 1.1.7 2 .7s1.6-.2 2-.7.6-1.2.6-2.3v-8.1h2.9zm12.4 4.1c0 1.4-.4 2.5-1.3 3.3-1 .7-2.2 1.1-3.9 1.1h-1.2v4.7h-2.8v-13.2h4.2c1.6 0 2.8.3 3.7 1 .8.7 1.3 1.7 1.3 3.1zm-6.4 2.1h.9c.9 0 1.5-.2 1.9-.5s.6-.8.6-1.5-.2-1.1-.5-1.5c-.4-.3-.9-.5-1.7-.5h-1.3v4zm16.7 3.3c0 1.2-.4 2.1-1.3 2.8s-2.1 1-3.6 1c-1.4 0-2.7-.3-3.7-.8v-2.6c.9.4 1.6.7 2.3.8.6.2 1.2.2 1.7.2.6 0 1.1-.1 1.4-.4.3-.2.5-.6.5-1 0-.3-.1-.5-.2-.7s-.4-.4-.6-.6c-.3-.2-.9-.5-1.7-.9s-1.4-.7-1.8-1.1c-.4-.3-.7-.8-1-1.2-.2-.5-.4-1-.4-1.6 0-1.2.4-2.1 1.2-2.8s1.9-1 3.3-1c.7 0 1.3.1 2 .2.6.2 1.3.4 2 .7l-.9 2.2c-.7-.3-1.3-.5-1.7-.6-.5-.1-.9-.2-1.4-.2s-.9.1-1.2.4c-.3.2-.4.6-.4 1 0 .2.1.5.2.6.1.2.3.4.5.5.2.2.8.5 1.8.9 1.2.6 2.1 1.2 2.5 1.8.2.8.5 1.6.5 2.4z" fill="#fff"/></svg>