<svg viewBox="0 -1.5 100 100" xmlns="http://www.w3.org/2000/svg"><path d="m23.224 0c-3.995 0-7.198 3.142-7.198 6.997v23.935h-8.824c-3.996 0-7.202 3.154-7.202 7v51.822c0 3.859 3.206 7.001 7.202 7.001h53.548c3.995-.004 7.302-3.142 7.302-7.001v-8.519h24.746c3.992 0 7.202-3.151 7.202-6.997v-51.825c0-3.849-3.21-6.897-7.202-6.897h-8.824v-8.519c0-3.855-3.213-6.997-7.201-6.997zm0 3.956h53.549c1.749 0 3.145 1.347 3.145 3.041v8.519h-40.668c-3.989 0-7.302 3.048-7.302 6.897v8.519h-11.866v-23.935c-.003-1.694 1.383-3.041 3.142-3.041zm16.026 15.416h40.668v39.35c0 1.694-1.396 3.145-3.145 3.145h-8.721v-23.935c0-3.846-3.307-7-7.302-7h-24.746v-8.519c0-1.691 1.496-3.041 3.246-3.041zm44.724 0h8.824c1.753 0 3.145 1.35 3.145 3.041v51.825c0 1.691-1.392 3.044-3.145 3.044h-24.746v-11.462h8.721c3.988 0 7.201-3.239 7.201-7.098zm-76.772 15.516h8.824v23.834c0 3.859 3.203 7.098 7.198 7.098h8.724v8.418c0 3.846 3.313 6.997 7.302 6.997h24.746v8.519c0 1.694-1.487 3.044-3.246 3.044h-53.548c-1.772 0-3.145-1.35-3.145-3.044v-51.822c0-1.688 1.373-3.044 3.145-3.044zm12.88 0h11.866v26.979h-8.724c-1.759 0-3.142-1.451-3.142-3.145zm15.922 0h24.746c1.759 0 3.246 1.356 3.246 3.044v23.935h-27.992zm0 30.932h27.992v11.462h-24.746c-1.75 0-3.246-1.353-3.246-3.044z" fill="#7498bf"/></svg>