<svg enable-background="new 0 0 1227.4 595.3" viewBox="0 -40 900 600" xmlns="http://www.w3.org/2000/svg"><g fill="#6ec800" transform="matrix(1.045296 0 0 1.045296 -189.749191 -69.00515)"><path d="m748.4 287.6v19.7h27.6v17.7h-55.1v-55.1h118.1v-63h-157.6c-13.1 0-23.6 10.6-23.6 23.6v133.9c0 13.1 10.6 23.6 23.6 23.6h133.9c13.1 0 23.6-10.6 23.6-23.6v-76.8z"/><path d="m1018.6 206.8h-133.9c-13.1 0-23.6 10.6-23.6 23.6v133.9c0 13.1 10.6 23.6 23.6 23.6h133.9c13.1 0 23.6-10.6 23.6-23.6v-133.9c0-13-10.6-23.6-23.6-23.6m-39.4 118.2h-55.1v-55.1h55.1z"/><path d="m529.7 206.8-130.4 200.9h-22.6l29.3 45.2 96.7-45.2h-28.3l33.3-51.2h65v31.5h63v-181.2zm-1.5 118.2 44.5-68.5v68.5z"/><path d="m256.1 388 54.7-84.2v84.2h75.7l130.5-200.9h20.4l-29.3-45.2-96.8 45.2h29.8l-67.3 103.6v-83.9h-75.1l-54.5 83.8v-83.8h-63v181.2z"/></g></svg>