<svg viewBox="0 -394 1782 1782" xmlns="http://www.w3.org/2000/svg"><path d="m36.9 707.8h1710.1v292.2h-1710.1" fill="#009fe3"/><path d="m385 104.1h1.7l138.7 503.5h86.3l159.9-607.5h-90.5l-113.4 494.1h-1.7l-136.2-494.1h-89.7l-136.2 494.1h-1.7l-113.4-494.1h-88.8l158.3 607.5h86.2m889.6-119.4c-16.2 22.1-35.4 38.8-57.7 50.3s-47 17.3-74.2 17.3c-12 .2-26.4-2.9-43.3-9.2s-31.9-16.8-45-31.5-20-34.7-20.8-59.9c.3-31.5 9.5-56.9 27.6-76.1s43.6-38.7 76.4-58.3zm-110.9-252.1c-12.5-11.9-25.4-27.4-38.6-46.5s-20.4-38.8-21.5-59.2c-.3-7.2 1.2-15.9 4.5-26.1s10.1-19.3 20.3-27.3 25.6-12.1 46.2-12.6c13.5-.6 27.4 3.8 41.8 13.1s22.2 27.2 23.4 53.7c-1.2 25.6-9.8 46.7-26 63.5-16.1 16.9-32.8 30.7-50.1 41.4zm195.5 240.3c15.5-29 27.2-56.8 35-83.4s12.5-50.4 14.1-71.4h-70.2c-3.5 21.2-6.9 38-10 50.2-3.2 12.2-8 27.1-14.5 44.5l-110.8-132c15.5-10 31.5-21.9 48.2-35.8s30.9-30.8 42.6-50.8 17.8-44.1 18.3-72.4c.3-31.8-10.4-60.3-32.2-85.4s-56.4-38.3-103.9-39.8c-46.7 1.3-82.3 15-106.8 41.3s-36.8 57.6-37 94c-.1 25.2 5.2 47.4 15.7 66.6s26.7 41.9 48.6 67.9c-54.9 30.5-91.8 60-110.7 88.3s-27.6 62.6-26.3 102.9c-.6 16.6 3.6 37.2 12.6 61.9s26.4 46.7 52.3 66.2c25.8 19.5 63.7 29.8 113.5 30.9 43.6-.5 79-8.2 106.1-23.3 27.1-15 50.7-34.6 70.6-58.8l56.7 69.3h96.4zm70.1-403.7h205.6v534.8h82v-534.8h205.6v-72.7h-493.2"/><path d="m343.3 821.9h-24.1l-13.9 64.1h-.3l-13.4-64.1h-23.7l-12.5 64.1h-.4l-13.9-64.1h-24.9l25.1 89.2h24.1l13.9-65h.4l13.9 65h24.1m192.6-89.2h-24.1l-13.9 64.1h-.3l-13.4-64.1h-23.6l-12.6 64.1h-.3l-13.9-64.1h-25.1l25.2 89.2h24.2l13.9-65h.3l13.9 65h24.1m192.7-89.2h-24.1l-13.9 64.1h-.4l-13.5-64.1h-23.6l-12.6 64.1h-.3l-13.9-64.1h-25l25.2 89.2h24.1l13.9-65h.3l13.9 65h24.2m69.3-24.5h25.1v24.4h-25.1zm109.4 24.5h23.4c3.2-15.3 5.8-27.8 7.8-37.6 2-9.7 3.7-17.7 4.9-23.9 1.3-6.2 2.3-11.8 3.2-16.6.9-4.9 1.7-10.1 2.6-15.7h.3c1 5.6 1.9 11 2.9 16.1.9 5.1 2 10.9 3.3 17.3 1.3 6.5 2.9 14.5 4.9 24.1s4.5 21.7 7.6 36.3h24.1l33.8-120.2h-25.5c-3.9 16.4-7 29.7-9.4 40s-4.2 18.5-5.5 24.5-2.3 10.7-3 14.2-1.3 6.5-1.7 9.2h-.3c-.6-3.7-1.3-7.4-2-11s-1.6-8.3-2.7-14c-1.2-5.7-2.8-13.5-4.9-23.5s-4.9-23.1-8.4-39.4h-26.6c-3.2 15.6-5.7 28.5-7.7 38.6s-3.5 18.2-4.7 24.3c-1.1 6.1-2 11.1-2.7 14.8-.7 3.8-1.2 7.2-1.7 10.2h-.3c-.5-3.3-1.1-6.7-1.7-10.3-.7-3.6-1.6-8.3-2.9-14.1-1.2-5.9-3-13.8-5.3-23.9s-5.4-23.3-9.2-39.6h-26.8zm246.9-89.2h-23.4v51.4c-.3 7.8-2.3 13.2-6.2 16.1-3.8 2.9-7.8 4.3-11.9 4.2-3.8.2-7.2-.9-10.3-3.1s-4.7-6.7-4.9-13.4v-55.3h-23.4v58.6c.2 11.3 3 19.6 8.6 24.9 5.5 5.3 12.8 7.9 21.7 7.9 6.2 0 11.6-1.3 16.2-3.9s8.2-6.2 10.9-11h.3v12.5h22.4zm111.6-9.9h36.3v-21.3h-97.8v21.3h36.3v99.1h25.2m69.7-24.5h25.1v24.4h-25.1zm165.1-95.9h-23.4v42.7h-.3c-1.7-3.1-4.6-6.1-8.6-9.1s-9.7-4.6-17.2-4.8c-6.6 0-12.7 1.7-18.3 5-5.6 3.4-10.1 8.4-13.5 15.2s-5.1 15.3-5.2 25.6c0 8.3 1.3 16.1 3.8 23.3 2.6 7.2 6.6 13.1 12.2 17.6 5.5 4.5 12.7 6.8 21.5 7 5 .1 9.8-.9 14.4-3s8.4-5.6 11.4-10.5h.3v11.3h22.9zm-62.5 76.5c-.1-7.3 1.4-13.6 4.4-18.9s8.2-8.1 15.6-8.4c5.3.1 9.4 1.5 12.4 4.3 2.9 2.8 5 6.3 6.1 10.6s1.7 8.9 1.7 13.8c.1 6.9-1.5 12.8-4.8 17.8s-8.6 7.6-16 7.9c-5-.2-8.9-1.7-11.7-4.6-2.8-3-4.8-6.5-5.9-10.6-1.3-4.4-1.9-8.2-1.8-11.9zm172.4 17.7c-1 3.2-3 5.6-5.8 7.3-2.8 1.6-5.9 2.5-9.3 2.5-6.2-.1-10.8-1.5-13.7-4.2-2.9-2.6-4.8-5.6-5.7-9s-1.4-6.3-1.5-8.6h61.1v-4.2c-.2-13.4-2.5-23.7-6.9-30.8s-9.8-12-16.2-14.6-12.6-3.8-18.7-3.7c-9.7.2-17.4 2-23.1 5.5-5.8 3.5-10 7.9-12.8 13s-4.7 10.1-5.5 15c-.9 4.9-1.3 8.7-1.2 11.6.3 18.1 4.5 30.8 12.8 38.1 8.2 7.3 18.8 10.9 31.6 10.6 5.2.1 10.4-.8 15.6-2.6s9.9-4.8 14.1-8.9c4.2-4.2 7.4-9.8 9.5-16.9zm-35.3-27.2c.7-5.9 2.5-10.5 5.5-13.8s7.2-5 12.8-5c4-.1 7.8 1.2 11.4 4s5.9 7.7 6.7 14.8z" fill="#fff"/></svg>