<svg enable-background="new 0 0 1000.1 284.2" height="300" width="300" xmlns="http://www.w3.org/2000/svg" xmlns:xlink="http://www.w3.org/1999/xlink"><radialGradient id="a" cx="858" cy="142.1" gradientUnits="userSpaceOnUse" r="142.1"><stop offset=".8407" stop-color="#fff"/><stop offset="1" stop-color="#b3b3b3"/></radialGradient><linearGradient id="b" gradientTransform="matrix(1 .0004 -.0004 1 232.5959 -275.1904)" gradientUnits="userSpaceOnUse" x1="548.1531" x2="702.8413" y1="527.9663" y2="306.8739"><stop offset="0" stop-color="#e04e5b"/><stop offset=".0269" stop-color="#df4855"/><stop offset=".1697" stop-color="#da2d3b"/><stop offset=".2527" stop-color="#d92231"/><stop offset=".4262" stop-color="#d92534"/><stop offset=".5432" stop-color="#db2e3c"/><stop offset=".6437" stop-color="#dd3d4b"/><stop offset=".7347" stop-color="#e1535f"/><stop offset=".8194" stop-color="#e66f78"/><stop offset=".8995" stop-color="#ec9198"/><stop offset=".9744" stop-color="#f3b8bd"/><stop offset="1" stop-color="#f5c8cc"/></linearGradient><radialGradient id="c" cx="921.9061" cy="131.7867" gradientUnits="userSpaceOnUse" r="202.9434"><stop offset="0" stop-color="#fff"/><stop offset=".178" stop-color="#fcfcfc"/><stop offset=".3187" stop-color="#f2f2f2"/><stop offset=".5651" stop-color="#e3e3e3"/><stop offset=".7967" stop-color="#d1d1d1"/><stop offset="1" stop-color="#bfbfbf"/></radialGradient><linearGradient id="d" gradientUnits="userSpaceOnUse" x1="735.1444" x2="992.0361" y1="69.5054" y2="189.296"><stop offset="0" stop-color="#595959"/><stop offset=".0511" stop-color="#727272"/><stop offset=".1402" stop-color="#989898"/><stop offset=".2335" stop-color="#b7b7b7"/><stop offset=".3305" stop-color="#cfcfcf"/><stop offset=".4329" stop-color="#e0e0e0"/><stop offset=".5443" stop-color="#eaeaea"/><stop offset=".6813" stop-color="#ededed"/><stop offset=".7624" stop-color="#eaeaea"/><stop offset=".8206" stop-color="#e1e1e1"/><stop offset=".8717" stop-color="#d1d1d1"/><stop offset=".9187" stop-color="#bbb"/><stop offset=".9624" stop-color="#9f9f9f"/><stop offset="1" stop-color="#808080"/></linearGradient><linearGradient id="e" gradientUnits="userSpaceOnUse" x1="827.0902" x2="947.2457" y1="284.5858" y2="26.9114"><stop offset="0" stop-color="#595959"/><stop offset=".0453" stop-color="#6c6c6c"/><stop offset=".1571" stop-color="#939393"/><stop offset=".2727" stop-color="#b4b4b4"/><stop offset=".3913" stop-color="#cdcdcd"/><stop offset=".514" stop-color="#dfdfdf"/><stop offset=".6436" stop-color="#eaeaea"/><stop offset=".7912" stop-color="#ededed"/><stop offset=".8279" stop-color="#e9e9e9"/><stop offset=".869" stop-color="#dbdbdb"/><stop offset=".9121" stop-color="#c5c5c5"/><stop offset=".9563" stop-color="#a6a6a6"/><stop offset="1" stop-color="#808080"/></linearGradient><g transform="translate(-710.626648 8.17887)"><g><path d="m1000.1 142.1c0-78.5-63.6-142.1-142.1-142.1s-142.1 63.6-142.1 142.1 63.6 142.1 142.1 142.1 142.1-63.6 142.1-142.1z" fill="url(#a)"/><path d="m758.9 79.7c34.3-54.2 106.3-70.2 161-35.6s71.3 106.5 37.1 160.7-106.3 70.2-161 35.7c-54.7-34.6-71.3-106.6-37.1-160.8z" fill="#fff"/><path d="m760.4 79.7c33.6-53.2 104.9-68.8 159-34.7 54.1 34.2 70.6 105.2 37 158.4s-104.7 68.6-158.8 34.4c-54.1-34-70.8-104.9-37.2-158.1z" fill="#fefefe"/><path d="m761.9 79.8c32.9-52.1 103.4-67.5 156.9-33.7 53.6 33.8 69.9 103.9 37 156-32.9 52.2-103 67-156.5 33.2-53.6-33.7-70.3-103.4-37.4-155.5z" fill="#fdfdfd"/><path d="m763.4 79.8c32.2-51.1 101.8-66.1 154.8-32.6 53 33.4 69.2 102.6 37 153.7s-101.3 65.4-154.3 32-69.8-102-37.5-153.1z" fill="#fcfcfc"/><path d="m764.9 79.9c31.6-50.1 100.3-64.7 152.7-31.6s68.6 101.3 36.9 151.4c-31.6 50.1-99.7 63.8-152.1 30.8-52.3-33.2-69.1-100.6-37.5-150.6z" fill="#fbfbfb"/><path d="m766.4 79.9c31-49 98.8-63.3 150.6-30.6s67.8 100 36.9 149c-31 49-98 62.3-149.8 29.6-51.8-32.8-68.7-99-37.7-148z" fill="#fafafa"/><path d="m767.9 79.9c30.3-48 97.3-61.9 148.5-29.6s67.1 98.7 36.9 146.6c-30.3 48-96.3 60.7-147.5 28.3-51.3-32.2-68.2-97.3-37.9-145.3z" fill="#f9f9f9"/><path d="m769.4 80c29.6-47 95.8-60.6 146.4-28.7 50.6 32 66.4 97.4 36.8 144.3-29.7 47-94.7 59.1-145.3 27.1-50.6-31.8-67.6-95.8-37.9-142.7z" fill="#f8f8f8"/><path d="m770.8 80c29-45.9 94.3-59.2 144.4-27.6 50 31.6 65.8 96.1 36.8 142s-93 57.5-143 25.9c-50.1-31.6-67.1-94.4-38.2-140.3z" fill="#f7f7f7"/><path d="m772.3 80.1c28.3-44.8 92.8-57.8 142.2-26.6 49.5 31.2 65.1 94.7 36.8 139.6-28.3 44.8-91.3 55.9-140.7 24.7-49.5-31.2-66.6-92.9-38.3-137.7z" fill="#f6f6f6"/><path d="m773.8 80.1c27.7-43.8 91.3-56.4 140.1-25.6s64.4 93.5 36.7 137.3-89.6 54.3-138.5 23.5c-48.8-30.9-65.9-91.4-38.3-135.2z" fill="#f5f5f5"/><path d="m775.3 80.1c27-42.8 89.8-55.1 138.1-24.6s63.7 92.2 36.7 134.9c-27 42.8-88 52.7-136.2 22.2-48.3-30.3-65.6-89.7-38.6-132.5z" fill="#f4f4f4"/><path d="m776.8 80.1c26.3-41.7 88.3-53.7 136-23.6s63 90.8 36.6 132.6c-26.3 41.7-86.3 51.1-134 21-47.6-30-65-88.2-38.6-130z" fill="#f3f3f3"/><path d="m778.3 80.2c25.7-40.7 86.8-52.3 133.9-22.6s62.3 89.6 36.6 130.2-84.6 49.6-131.7 19.8c-47.1-29.6-64.5-86.7-38.8-127.4z" fill="#f2f2f2"/><path d="m779.8 80.2c25-39.6 85.3-50.9 131.8-21.6s61.6 88.3 36.5 127.9c-25 39.6-83 48-129.5 18.6-46.4-29.3-63.8-85.2-38.8-124.9z" fill="#f1f1f1"/><path d="m781.3 80.3c24.3-38.6 83.8-49.6 129.7-20.6s60.9 86.9 36.5 125.6-81.3 46.4-127.2 17.4-63.4-83.9-39-122.4z" fill="#f0f0f0"/><path d="m782.8 80.3c23.7-37.6 82.3-48.2 127.6-19.6s60.2 85.7 36.5 123.2c-23.7 37.6-79.6 44.8-125 16.2-45.3-28.6-62.8-82.3-39.1-119.8z" fill="#efefef"/><path d="m784.2 80.4c23.1-36.5 80.8-46.8 125.6-18.6s59.5 84.3 36.5 120.8-78 43.2-122.7 14.9c-44.8-28.2-62.4-80.6-39.4-117.1z" fill="#eee"/><path d="m785.8 80.4c22.3-35.5 79.2-45.4 123.4-17.5s58.8 83 36.4 118.5c-22.4 35.4-76.3 41.6-120.5 13.8-44.1-28-61.7-79.3-39.3-114.8z" fill="#ededed"/><path d="m787.2 80.4c21.8-34.4 77.8-44 121.4-16.5s58.1 81.7 36.4 116.2-74.7 40-118.2 12.5c-43.6-27.5-61.3-77.7-39.6-112.2z" fill="#ececec"/><path d="m788.7 80.5c21.1-33.4 76.3-42.7 119.3-15.6s57.5 80.4 36.4 113.8c-21 33.4-73 38.4-116 11.3s-60.8-76.2-39.7-109.5z" fill="#ebebeb"/><path d="m790.2 80.5c20.4-32.3 74.8-41.3 117.2-14.5s56.7 79.1 36.3 111.5c-20.4 32.3-71.3 36.9-113.7 10.1s-60.2-74.8-39.8-107.1z" fill="#eaeaea"/><path d="m791.7 80.6c19.8-31.3 73.3-40 115.1-13.6s56 77.8 36.3 109.1c-19.8 31.3-69.7 35.3-111.5 8.8-41.8-26.3-59.7-73.1-39.9-104.3z" fill="#e9e9e9"/><path d="m793.2 80.6c19.1-30.2 71.8-38.6 113-12.5 41.2 26 55.3 76.5 36.3 106.7-19.1 30.3-68 33.7-109.2 7.7-41.3-26.1-59.2-71.7-40.1-101.9z" fill="#e8e8e8"/><path d="m794.7 80.6c18.4-29.2 70.3-37.2 110.9-11.5 40.6 25.6 54.7 75.2 36.2 104.4-18.4 29.2-66.3 32.1-106.9 6.4-40.7-25.6-58.6-70.1-40.2-99.3z" fill="#e7e7e7"/><path d="m796.2 80.6c17.8-28.1 68.7-35.8 108.8-10.5 40 25.3 54 73.9 36.2 102.1s-64.7 30.5-104.7 5.2c-40.1-25.3-58.1-68.6-40.3-96.8z" fill="#e6e6e6"/><path d="m797.7 80.7c17.1-27.1 67.3-34.4 106.7-9.5s53.3 72.6 36.1 99.7c-17.1 27.1-63 28.9-102.4 4-39.5-24.9-57.6-67.1-40.4-94.2z" fill="#e6e6e6"/><path d="m799.1 80.7c16.5-26 65.8-33.1 104.6-8.5 38.8 24.5 52.6 71.3 36.1 97.3-16.5 26.1-61.3 27.3-100.2 2.8-38.8-24.5-56.9-65.5-40.5-91.6z" fill="#e5e5e5"/><path d="m800.7 80.8c15.8-25 64.3-31.7 102.5-7.5 38.3 24.2 51.9 70 36.1 95s-59.7 25.7-97.9 1.6c-38.4-24.2-56.6-64.1-40.7-89.1z" fill="#e4e4e4"/><path d="m802.1 80.8c15.1-24 62.8-30.3 100.5-6.5s51.2 68.7 36 92.7c-15.1 24-58 24.2-95.7.3-37.6-23.7-55.9-62.5-40.8-86.5z" fill="#e3e3e3"/><path d="m803.6 80.8c14.5-22.9 61.3-28.9 98.4-5.5s50.5 67.4 36 90.3c-14.5 23-56.3 22.6-93.4-.9-37.1-23.3-55.5-60.9-41-83.9z" fill="#e2e2e2"/><path d="m805.1 80.9c13.8-21.9 59.7-27.6 96.3-4.5 36.5 23.1 49.8 66.1 36 88s-54.7 21-91.2-2.1-54.9-59.5-41.1-81.4z" fill="#e1e1e1"/><path d="m806.6 80.9c13.2-20.9 58.2-26.2 94.2-3.5 35.9 22.7 49.1 64.8 36 85.6-13.2 20.9-53 19.4-88.9-3.3-36-22.6-54.5-57.9-41.3-78.8z" fill="#e0e0e0"/><path d="m808.1 81c12.5-19.8 56.8-24.8 92.1-2.5 35.4 22.3 48.4 63.5 35.9 83.3s-51.3 17.8-86.7-4.5c-35.3-22.4-53.8-56.5-41.3-76.3z" fill="#dfdfdf"/><path d="m809.6 81c11.8-18.8 55.3-23.4 90-1.5 34.8 21.9 47.7 62.2 35.9 80.9-11.8 18.8-49.7 16.2-84.4-5.7-34.8-21.9-53.4-54.9-41.5-73.7z" fill="#dedede"/><path d="m811.1 81c11.2-17.7 53.7-22.1 87.9-.5s47 60.8 35.8 78.6c-11.2 17.7-48 14.6-82.1-7-34.2-21.5-52.8-53.3-41.6-71.1z" fill="#ddd"/><path d="m812.6 81.1c10.5-16.7 52.2-20.7 85.8.6 33.6 21.2 46.4 59.6 35.8 76.3-10.5 16.7-46.3 13-79.9-8.2-33.6-21.3-52.3-52-41.7-68.7z" fill="#dcdcdc"/><path d="m814 81.1c9.9-15.6 50.8-19.3 83.7 1.6 33 20.8 45.6 58.3 35.8 73.9s-44.7 11.5-77.6-9.4c-33-20.9-51.7-50.5-41.9-66.1z" fill="#dbdbdb"/><path d="m815.6 81.2c9.2-14.6 49.2-17.9 81.7 2.6 32.4 20.5 44.9 57 35.7 71.5-9.2 14.6-43 9.9-75.4-10.6-32.5-20.5-51.3-49-42-63.5z" fill="#dadada"/><path d="m817 81.2c8.6-13.5 47.7-16.6 79.6 3.6 31.8 20.1 44.2 55.7 35.7 69.2-8.5 13.6-41.3 8.3-73.1-11.8-31.9-20.1-50.8-47.5-42.2-61z" fill="#d9d9d9"/></g><g><path d="m1000.1 142.1c0-78.5-63.6-142.1-142.1-142.1s-142.1 63.6-142.1 142.1 63.6 142.1 142.1 142.1 142.1-63.6 142.1-142.1z" fill="#d92231"/><path d="m992.8 142.5c0-74.5-60.3-134.9-134.8-134.9s-134.9 60.3-135 134.8c0 74.5 60.3 134.9 134.8 135 74.6 0 135-60.4 135-134.9z" fill="url(#b)"/></g><g><path d="m931.6 188.5c-26.3 54.1-68.5 89.4-101.7 92.9-18-3.3-37-11.6-50.9-21.2.3.1 1.3.2 2 .2 29.2 0 75.4-51.8 103.4-116.5-36.9-27.7-83.5-50.2-127.5-50.2-22.3 0-33.4 8.3-35.9 11.1 3.1-12.1 7.7-22.7 13.6-33.1 5.5-9.8 12-18.5 17.4-24.2 5.3-4.1 19.3-9.6 40-9.6 43.4 0 82.4 15.2 113.3 36.5 1.8-11.5 2.8-22.9 2.8-34.2 0-27.3-8.2-33-10.5-34.6 10 2.8 18.8 6.5 27 10.9 7.3 3.9 13.5 7.8 21 13.8 2.7 3.8 10.7 14.1 10.7 50.1 0 13.6-1.1 26.7-3.1 39.3 20.8 26.7 32.6 55.2 32.6 75.9 0 4.6-.7 9.2-1.3 11.2-7.4 14.4-17.1 27.4-28.8 38.4.5-1.1 1.1-3.3 1.1-6.4.2-12.9-9.6-31.3-25.2-50.3z" fill="url(#c)"/><g opacity=".8"><path d="m963.9 236.9c1-1.1 1.4-6.4 1.4-7.2 0-47.2-90.2-151.9-200.3-151.9-24.9 0-35.9 8.7-38.7 11-.6 1.9-1.4 3.7-2.1 5.4 2.7-2.1 14.4-11 38.2-11 106.2 0 199.7 103.9 199.7 150.6 0 1.8-.4 4.5-1.2 6.3.9-1 1.9-2.1 3-3.2zm-223.6-174.5c3.8-3.5 17.2-10.1 41-10.1 110.6 0 197.7 101.7 197.7 158.8 0 1.5-.3 5.1-1.6 8 1-1.6 2.3-3.6 2.9-4.7 1.5-2.6 1.6-6.8 1.6-9.1 0-58.2-86.2-158.2-196.9-158.2-25.6 0-35.8 5.9-40.3 9.1-1 1.4-3 4.3-4.4 6.2zm-5.9 9.7c0-.1-2.7 4.7-3.4 6.3 3.3-2.4 14.5-10.2 38.4-10.2 118.9 0 201.3 108.5 201.3 154.5 0 2.2-.3 5.7-1.5 7.7 1.5-1.9 2.8-3.5 3.5-4.6 1.7-2.4 1.3-7.3 1.3-8.8 0-45.1-80.8-154.5-199.8-154.5-24.6 0-35.3 6-39.8 9.6z" fill="url(#d)"/><path d="m913.3 11.2c2.8 3 8.5 15.9 8.5 35.2 0 105-72.8 210.3-128.6 222.3-1.7-.8-3-1.6-4.6-2.5 42.3-4.9 128.4-106.5 128.4-221.8 0-17.8-5-31.4-9-35.3 1.7.6 3.7 1.4 5.3 2.1zm19.4 10c2.1 1.8 10.2 16.5 10.2 39 0 114.2-65.8 205.2-129.8 216.8 2.3.7 3.8 1.2 5.9 1.8 68.3-9.7 129-109.9 129-213.3 0-23.8-7.7-38.4-10.3-41.1-1.6-1-3.1-1.9-5-3.2zm-12.5-6.9c1.8 1.9 9.8 16.4 9.8 40.5 0 107.9-72.8 206.3-129.9 217.2 1.8.8 3.3 1.5 4.9 2.1 65-12.7 129.9-115 129.9-217.1 0-20.1-6.7-37.2-9.7-40.1-1.7-.9-3.7-2-5-2.6z" fill="url(#e)"/></g></g></g></svg>